<svg xmlns="http://www.w3.org/2000/svg" viewBox="0 0 40 40" role="img" aria-labelledby="favicon-maskable-title">
  <title id="favicon-maskable-title">OWASP wasp icon</title>
  <rect width="40" height="40" fill="#101820"/>
  <g transform="translate(4,4) scale(0.8)">
    <path d="M16.7029 0.219813C14.7688 0.571462 13.0106 1.15754 11.1791 2.05132C5.69925 4.73263 1.86042 9.5971 0.409874 15.7363C0.146138 16.8498 0.0875295 17.5385 0.0875295 19.8535C0.0728775 22.2564 0.116834 22.8425 0.409874 24.1759C1.23039 27.8535 2.88606 30.9451 5.47947 33.6704C8.48313 36.8059 12.2194 38.8425 16.4831 39.6484C18.4319 40.0293 21.8897 39.9854 23.8384 39.5751C29.2157 38.4469 33.7139 35.4286 36.6883 30.9451C38.8421 27.7216 39.8091 24.674 39.9557 20.6594C40.0729 17.2015 39.5161 14.4616 38.1095 11.5019C35.2231 5.43593 29.8604 1.37732 23.1645 0.219813C21.6406 -0.058575 18.1974 -0.043923 16.7029 0.219813ZM22.7835 3.44326C29.0692 4.4689 34.3146 9.12824 36.1022 15.2528C38.3732 23.1356 34.6956 31.4433 27.3403 35.0183C23.6626 36.8059 19.5601 37.1868 15.5308 36.1173C9.7139 34.5495 5.11317 29.7876 3.64797 23.8242C3.26702 22.2271 3.13515 19.4286 3.36958 17.6997C4.10218 12.2491 7.56006 7.4286 12.5271 4.93776C13.8018 4.30773 16.0729 3.57512 17.3183 3.3993C18.7835 3.17952 21.3476 3.20882 22.7835 3.44326Z" fill="#ffffff"/>
    <path d="M27.1058 7.7949C27.1058 7.88282 27.2524 8.26377 27.4135 8.61542C27.6919 9.17219 27.7066 9.33337 27.5601 9.83153C27.3989 10.3883 27.3696 10.403 27.0619 10.1832C26.5051 9.78758 26.0802 9.90479 25.3183 10.7107C24.615 11.4286 24.5857 11.4726 24.6443 12.2052L24.6883 12.9671H23.941C23.2524 12.9817 23.1791 12.9524 22.8568 12.4542C22.5637 12.0147 22.5198 11.7803 22.5491 10.8718C22.5784 9.84619 22.4026 9.43593 22.2121 10.1539C21.963 11.1649 21.9483 12.1172 22.1828 12.5715C22.3146 12.8352 22.3586 13.0403 22.2853 13.0403C21.9483 13.0403 21.5381 12.4396 21.245 11.5312C20.9373 10.5641 20.6443 10.2418 20.6736 10.8718C20.6736 11.0623 20.7908 11.6484 20.9227 12.1759C21.2304 13.348 21.1132 13.3627 20.0582 12.2638C19.2524 11.4286 18.9593 11.4286 19.5308 12.2638C20.1315 13.1575 20.571 13.5531 21.3036 13.8315C22.3879 14.2418 22.0949 14.3297 20.5857 14.0513C16.1315 13.1868 14.1388 12.9817 10.0069 12.9817C6.53442 12.9671 5.99229 12.9964 5.78716 13.2015C5.56738 13.4213 5.59669 13.4799 6.16812 13.9634C6.84211 14.5495 8.19009 15.3846 9.64064 16.1026C10.8128 16.6887 12.7762 17.1575 14.1388 17.1722C15.0912 17.1868 15.2963 17.1282 15.941 16.7326C16.8934 16.1466 17.4355 16.0147 19.5015 15.8242C21.8751 15.6191 21.9044 15.6191 22.0949 16.044C22.2707 16.4103 22.256 16.4249 21.7725 16.337C21.4209 16.2638 21.0692 16.3224 20.5857 16.5422C19.0326 17.2308 16.3952 19.7803 14.93 22.022C13.9923 23.4286 11.7505 27.7803 11.8824 27.9121C12.0289 28.0586 16.3806 25.7876 17.8897 24.7766C18.9593 24.0733 19.8971 23.2674 21.0253 22.0953C22.8421 20.2345 23.4868 19.1942 23.4721 18.2271C23.4721 17.6118 23.4721 17.6118 23.8238 17.7583C24.0143 17.8462 24.1754 17.9927 24.1754 18.0806C24.1754 18.1685 24.0729 19.2674 23.941 20.5129C23.7359 22.6374 23.6919 22.8425 23.2231 23.6191C22.5784 24.718 22.4905 25.4066 22.7835 27.1795C22.974 28.3663 23.1645 28.9524 23.7945 30.2564C24.615 31.9268 25.8165 33.7729 26.2707 34.0513C26.637 34.2857 26.7689 33.9927 26.9007 32.674C27.1645 29.8755 26.7395 24.6447 25.8751 19.7803C25.6846 18.696 25.5381 17.7876 25.5674 17.7583C25.582 17.7436 25.7872 18.0953 26.0216 18.5641C26.3146 19.1356 26.7102 19.6191 27.2524 20.0586C28.2487 20.8645 28.4831 20.5861 27.5161 19.707C26.4319 18.7253 26.4905 18.6081 27.9264 18.9451C29.7286 19.37 29.8458 19.0183 28.0875 18.4909C27.4868 18.3151 27.1352 18.1099 26.93 17.8315C26.593 17.3773 26.6077 17.3627 27.2963 17.6557C27.7359 17.8315 28.0143 17.8462 28.9373 17.7143C29.5381 17.6264 30.0363 17.4945 30.0363 17.4213C30.0363 17.348 29.5381 17.2894 28.9373 17.2894C28.0436 17.2894 27.7359 17.2308 27.3403 16.9671C26.8714 16.6594 26.8421 16.5861 26.8421 15.8828L26.8568 15.1209L27.3403 15.1942C28.1022 15.3114 28.5564 15.1356 29.245 14.403C29.9483 13.6704 30.0509 13.2015 29.6113 12.7619C29.333 12.4835 29.333 12.4689 29.7725 12.3224C30.4172 12.0879 30.6956 12.1172 31.3842 12.4689C31.7505 12.6594 32.0289 12.718 32.1168 12.6301C32.278 12.4689 30.8861 11.7216 30.4465 11.7216C30.3 11.7216 29.9337 11.8242 29.6113 11.9561L29.0253 12.1905L27.604 10.7693L27.8678 10.1832C28.2047 9.40663 28.2047 9.27476 27.7505 8.38099C27.3989 7.66304 27.1058 7.3993 27.1058 7.7949Z" fill="#ffffff"/>
  </g>
</svg>
