<?xml version="1.0" encoding="UTF-8"?>
<svg version="1.1" xmlns="http://www.w3.org/2000/svg" width="283" height="80">
<path d="M0 0 C93.39 0 186.78 0 283 0 C283 26.4 283 52.8 283 80 C189.61 80 96.22 80 0 80 C0 53.6 0 27.2 0 0 Z " fill="#FCFCFD" transform="translate(0,0)"/>
<path d="M0 0 C4.65278949 0.68930215 8.66047855 2.38351896 12.9375 4.25 C13.97293945 4.68119141 13.97293945 4.68119141 15.02929688 5.12109375 C19.71991919 7.15740183 23.2956338 9.45374699 27 13 C28.0625 16 28.0625 16 28 19 C26.07945341 22.94607483 24.16545862 24.90254025 20.375 27.0625 C19.18003906 27.76052734 19.18003906 27.76052734 17.9609375 28.47265625 C9.44761953 32.86409072 1.17080087 35.43728688 -8.1875 37.5625 C-8.84717773 37.71407562 -9.50685547 37.86565125 -10.18652344 38.02182007 C-22.04972924 40.73671586 -33.89472362 42.73330097 -46 44 C-46.86931152 44.09619629 -47.73862305 44.19239258 -48.63427734 44.29150391 C-92.84630524 49.12275397 -138.83227256 49.21826779 -183 44 C-184.34351608 43.84800247 -185.68710412 43.69663978 -187.03076172 43.54589844 C-206.66520772 41.32092441 -226.63620542 38.6981715 -245 31 C-241.77036596 29.92345532 -241.00547292 30.04596424 -237.8515625 30.890625 C-237.00851563 31.10589844 -236.16546875 31.32117188 -235.296875 31.54296875 C-233.585198 31.99591252 -231.87419272 32.45140703 -230.1640625 32.91015625 C-213.9081443 37.04670686 -197.00743214 38.5347514 -180.3125 39.6875 C-179.4194516 39.75070435 -178.5264032 39.81390869 -177.60629272 39.87902832 C-162.00892558 40.95417918 -146.44421669 41.26972297 -130.8125 41.25 C-129.79338531 41.24922455 -128.77427063 41.2484491 -127.72427368 41.24765015 C-90.44985069 41.16510539 -52.1697138 39.74757195 -16 30 C-15.1028125 29.78988281 -14.205625 29.57976563 -13.28125 29.36328125 C-7.86013006 27.98159971 -3.01748501 25.67260466 1.9375 23.125 C2.58928223 22.79725586 3.24106445 22.46951172 3.91259766 22.13183594 C7.88577367 20.00323732 10.16459975 18.14466747 12 14 C12.48243075 10.96810734 12.48243075 10.96810734 11 8 C8.80930347 6.20915876 6.55744978 4.74698446 4.12890625 3.296875 C2 2 2 2 0 0 Z " fill="#601CB3" transform="translate(254,22)"/>
<path d="M0 0 C2.05078125 0.03255208 4.1015625 0.06510417 6.15234375 0.09765625 C9.3650442 8.68178867 12.13466267 17.14112073 14.15234375 26.09765625 C11.84234375 26.09765625 9.53234375 26.09765625 7.15234375 26.09765625 C6.82234375 23.78765625 6.49234375 21.47765625 6.15234375 19.09765625 C2.19234375 19.59265625 2.19234375 19.59265625 -1.84765625 20.09765625 C-2.50765625 22.07765625 -3.16765625 24.05765625 -3.84765625 26.09765625 C-5.82765625 26.09765625 -7.80765625 26.09765625 -9.84765625 26.09765625 C-8.67746951 20.14034195 -7.08696616 14.38923416 -5.28515625 8.59765625 C-4.95221558 7.51967773 -4.95221558 7.51967773 -4.61254883 6.41992188 C-2.63137872 0.13907921 -2.63137872 0.13907921 0 0 Z " fill="#118275" transform="translate(24.84765625,20.90234375)"/>
<path d="M0 0 C2.3828125 0.51171875 2.3828125 0.51171875 5.5078125 2.51171875 C7.8975167 6.33524547 8.36890621 9.11427382 7.3828125 13.51171875 C5.58917339 16.32175335 4.36400315 18.02112343 1.3828125 19.51171875 C-5.74949519 20.21325721 -5.74949519 20.21325721 -9.5546875 17.13671875 C-12.52391486 13.35770211 -13.17405578 11.33791054 -12.6171875 6.51171875 C-9.39587829 0.71336217 -6.5925148 -0.44278085 0 0 Z " fill="#0D7F73" transform="translate(77.6171875,27.48828125)"/>
<path d="M0 0 C2.87029869 1.79393668 4.49131638 2.98263276 6 6 C6.41204834 10.63554388 5.87454146 13.30416098 3 17 C0.03622688 19.30515687 -3.31460319 19.54853523 -7.02734375 19.4375 C-9.88218038 18.80434811 -11.50510229 17.2120467 -13.1484375 14.84765625 C-14.80059921 11.26292007 -14.62367106 8.92912767 -14 5 C-10.4338531 -0.52177585 -6.13886453 -1.23444558 0 0 Z " fill="#0E8074" transform="translate(116,28)"/>
<path d="M0 0 C1.65 0 3.3 0 5 0 C11 14.73786408 11 14.73786408 11 20 C11.66 20 12.32 20 13 20 C13.0928125 18.39125 13.0928125 18.39125 13.1875 16.75 C13.8982965 10.76207797 16.53981622 5.44690136 19 0 C20.65 0 22.3 0 24 0 C24.33 8.58 24.66 17.16 25 26 C24.01 26 23.02 26 22 26 C21.34 19.4 20.68 12.8 20 6 C19.5875 7.629375 19.175 9.25875 18.75 10.9375 C17.31802103 16.22691516 15.39359566 21.07915614 13 26 C12.01 26 11.02 26 10 26 C8.02 20.39 6.04 14.78 4 9 C3.34 14.61 2.68 20.22 2 26 C1.01 26 0.02 26 -1 26 C-0.67 17.42 -0.34 8.84 0 0 Z " fill="#2DBA7E" transform="translate(127,21)"/>
<path d="M0 0 C7.19101124 -0.35955056 7.19101124 -0.35955056 10.25 1 C12.93887018 4.07299449 12.42560985 7.32070608 12.25 11.1875 C12.23195312 11.93708984 12.21390625 12.68667969 12.1953125 13.45898438 C12.14824109 15.3065371 12.07649766 17.15343159 12 19 C11.38125 18.814375 10.7625 18.62875 10.125 18.4375 C7.95839822 17.76313824 7.95839822 17.76313824 6 19 C0.76701031 19.44536082 0.76701031 19.44536082 -1.9375 17.875 C-3 16 -3 16 -2.9375 13 C-2 10 -2 10 -0.375 8.125 C2.83105694 6.60634145 5.50045311 6.79810306 9 7 C8.67 5.68 8.34 4.36 8 3 C5.03 3 2.06 3 -1 3 C-0.67 2.01 -0.34 1.02 0 0 Z " fill="#28B87B" transform="translate(214,28)"/>
<path d="M0 0 C0 1.65 0 3.3 0 5 C1.32 5 2.64 5 4 5 C4 6.32 4 7.64 4 9 C2.68 9 1.36 9 0 9 C0.33 11.97 0.66 14.94 1 18 C1.99 18.33 2.98 18.66 4 19 C4 20.65 4 22.3 4 24 C-2.44283647 24.36468886 -2.44283647 24.36468886 -4.71875 22.875 C-6.57197706 20.1629604 -6.29215369 18.05676436 -6.1875 14.8125 C-6.16042969 13.72582031 -6.13335937 12.63914062 -6.10546875 11.51953125 C-6.07066406 10.68808594 -6.03585938 9.85664062 -6 9 C-6.66 9 -7.32 9 -8 9 C-8 7.68 -8 6.36 -8 5 C-7.34 5 -6.68 5 -6 5 C-6 3.68 -6 2.36 -6 1 C-4 0 -4 0 0 0 Z " fill="#0F8074" transform="translate(59,23)"/>
<path d="M0 0 C1.98 0 3.96 0 6 0 C6 9.24 6 18.48 6 28 C4.02 28 2.04 28 0 28 C0 18.76 0 9.52 0 0 Z " fill="#148377" transform="translate(42,19)"/>
<path d="M0 0 C1.32 0 2.64 0 4 0 C4.06058594 0.99902344 4.12117187 1.99804688 4.18359375 3.02734375 C4.26738281 4.31769531 4.35117188 5.60804687 4.4375 6.9375 C4.51871094 8.22527344 4.59992188 9.51304688 4.68359375 10.83984375 C4.64919188 13.86023957 4.64919188 13.86023957 6 15 C7.66617115 15.04063832 9.33388095 15.042721 11 15 C12.41634833 12.16730334 12.3463005 9.52533562 12.5625 6.375 C12.64628906 5.18648437 12.73007813 3.99796875 12.81640625 2.7734375 C12.87699219 1.85820312 12.93757812 0.94296875 13 0 C13.99 0 14.98 0 16 0 C16 6.27 16 12.54 16 19 C15.01 19 14.02 19 13 19 C13 18.34 13 17.68 13 17 C12.01 17.66 11.02 18.32 10 19 C4.72439634 19.54954205 4.72439634 19.54954205 2.1875 17.625 C-0.42672464 14.04763996 -0.10234262 11.25768872 -0.0625 6.875 C-0.05347656 5.59367187 -0.04445312 4.31234375 -0.03515625 2.9921875 C-0.02355469 2.00476563 -0.01195312 1.01734375 0 0 Z " fill="#28B87B" transform="translate(157,28)"/>
<path d="M0 0 C1.32 0 2.64 0 4 0 C4.06058594 0.99902344 4.12117187 1.99804688 4.18359375 3.02734375 C4.26738281 4.31769531 4.35117188 5.60804687 4.4375 6.9375 C4.51871094 8.22527344 4.59992188 9.51304688 4.68359375 10.83984375 C4.64919188 13.86023957 4.64919188 13.86023957 6 15 C8.5 15.16666667 8.5 15.16666667 11 15 C12.94090826 13.05909174 12.39919435 9.52706098 12.5625 6.9375 C12.64628906 5.64714844 12.73007813 4.35679688 12.81640625 3.02734375 C12.87699219 2.02832031 12.93757812 1.02929688 13 0 C13.99 0 14.98 0 16 0 C16 6.27 16 12.54 16 19 C14.68 18.67 13.36 18.34 12 18 C11.34 18.33 10.68 18.66 10 19 C7.125 19.375 7.125 19.375 4 19 C1.01214374 16.16742659 0.06357508 14.57789749 -0.390625 10.44921875 C-0.34421875 9.20785156 -0.2978125 7.96648438 -0.25 6.6875 C-0.21390625 5.43324219 -0.1778125 4.17898437 -0.140625 2.88671875 C-0.07101563 1.45779297 -0.07101563 1.45779297 0 0 Z " fill="#2AB97D" transform="translate(191,28)"/>
<path d="M0 0 C0.99 0 1.98 0 3 0 C3 1.32 3 2.64 3 4 C4.65 4 6.3 4 8 4 C8 4.99 8 5.98 8 7 C6.35 7 4.7 7 3 7 C3 11.29 3 15.58 3 20 C4.32 20 5.64 20 7 20 C7 20.99 7 21.98 7 23 C4.6875 23.25 4.6875 23.25 2 23 C-0.37949604 20.66540011 -0.96807604 19.32860393 -1.29296875 15.984375 C-1.25816406 14.91703125 -1.22335938 13.8496875 -1.1875 12.75 C-1.16042969 11.67234375 -1.13335937 10.5946875 -1.10546875 9.484375 C-1.07066406 8.66453125 -1.03585938 7.8446875 -1 7 C-1.99 7 -2.98 7 -4 7 C-4 6.01 -4 5.02 -4 4 C-3.01 4 -2.02 4 -1 4 C-0.67 2.68 -0.34 1.36 0 0 Z " fill="#28B87B" transform="translate(180,24)"/>
<path d="M0 0 C1.32 0 2.64 0 4 0 C4 0.99 4 1.98 4 3 C4.66 3 5.32 3 6 3 C6.33 2.01 6.66 1.02 7 0 C8.32 0 9.64 0 11 0 C11 1.65 11 3.3 11 5 C9.35 5.66 7.7 6.32 6 7 C5.67 10.63 5.34 14.26 5 18 C3.35 18 1.7 18 0 18 C0 12.06 0 6.12 0 0 Z " fill="#037A6D" transform="translate(89,28)"/>
<path d="M0 0 C1.65 0 3.3 0 5 0 C5.33 8.58 5.66 17.16 6 26 C5.01 26 4.02 26 3 26 C2.34 19.4 1.68 12.8 1 6 C0.01 8.64 -0.98 11.28 -2 14 C-2.66 14 -3.32 14 -4 14 C-3.46148032 8.72250715 -2.22656164 4.74354436 0 0 Z " fill="#1BB473" transform="translate(146,21)"/>
<path d="M0 0 C7.21311475 -0.36065574 7.21311475 -0.36065574 10.25 1.03125 C12.86888792 3.97749891 12.43108758 6.9577923 12.25 10.6875 C12.23195312 11.38939453 12.21390625 12.09128906 12.1953125 12.81445312 C12.14826213 14.54355436 12.07651873 16.27195205 12 18 C11.34 18 10.68 18 10 18 C10 17.34 10 16.68 10 16 C9.01 15.67 8.02 15.34 7 15 C7.66 13.02 8.32 11.04 9 9 C8.01 8.67 7.02 8.34 6 8 C6.99 7.67 7.98 7.34 9 7 C8.67 5.68 8.34 4.36 8 3 C5.03 3 2.06 3 -1 3 C-0.67 2.01 -0.34 1.02 0 0 Z " fill="#0FB06C" transform="translate(214,28)"/>
<path d="M0 0 C0.99 0 1.98 0 3 0 C3 8.91 3 17.82 3 27 C2.01 27 1.02 27 0 27 C0 18.09 0 9.18 0 0 Z " fill="#09AE69" transform="translate(232,20)"/>
<path d="M0 0 C4.55555556 0.55555556 4.55555556 0.55555556 6 2 C6.26293056 6.03160191 6.29404844 7.55892734 4 11 C1.5625 10.625 1.5625 10.625 -1 10 C-2.38125018 7.23749964 -2.19079306 5.05268901 -2 2 C-1.34 1.34 -0.68 0.68 0 0 Z " fill="#E8F3F2" transform="translate(73,32)"/>
<path d="M0 0 C7.77278006 1.32748603 15.48009883 2.91900595 23.18481445 4.59082031 C27.77862044 5.57653 32.34020566 6.39572186 37 7 C36.67 7.99 36.34 8.98 36 10 C29.59354327 9.42284174 23.63762497 8.31457177 17.4375 6.625 C16.63892578 6.41617188 15.84035156 6.20734375 15.01757812 5.9921875 C9.8766103 4.61791085 4.95477022 2.941044 0 1 C0 0.67 0 0.34 0 0 Z " fill="#8957C7" transform="translate(9,52)"/>
<path d="M0 0 C2.625 0.375 2.625 0.375 5 1 C6.25 7.625 6.25 7.625 4 11 C-0.875 10.125 -0.875 10.125 -2 9 C-2.1875 5.5625 -2.1875 5.5625 -2 2 C-1.34 1.34 -0.68 0.68 0 0 Z " fill="#E9F3F2" transform="translate(110,32)"/>
<path d="M0 0 C0.99 0 1.98 0 3 0 C3 6.27 3 12.54 3 19 C2.01 19 1.02 19 0 19 C0 18.34 0 17.68 0 17 C-0.66 17 -1.32 17 -2 17 C-1.76990234 16.21882813 -1.76990234 16.21882813 -1.53515625 15.421875 C-0.86017489 12.36721485 -0.65588882 9.36984029 -0.4375 6.25 C-0.35371094 5.07953125 -0.26992187 3.9090625 -0.18359375 2.703125 C-0.12300781 1.81109375 -0.06242188 0.9190625 0 0 Z " fill="#10B06C" transform="translate(170,28)"/>
<path d="M0 0 C0.99 0 1.98 0 3 0 C3 5.94 3 11.88 3 18 C2.34 18 1.68 18 1 18 C1 17.34 1 16.68 1 16 C0.01 15.67 -0.98 15.34 -2 15 C-1.67 14.67 -1.34 14.34 -1 14 C-0.76472227 11.65012738 -0.58613583 9.29443961 -0.4375 6.9375 C-0.35371094 5.64714844 -0.26992187 4.35679688 -0.18359375 3.02734375 C-0.12300781 2.02832031 -0.06242188 1.02929688 0 0 Z " fill="#07AD67" transform="translate(204,28)"/>
<path d="M0 0 C0.33 0 0.66 0 1 0 C1 7.59 1 15.18 1 23 C0.01 23 -0.98 23 -2 23 C-2.31918373 15.14453364 -1.35709504 7.73059495 0 0 Z " fill="#0DAF6B" transform="translate(128,24)"/>
<path d="M0 0 C0.125 2.375 0.125 2.375 0 5 C-2 7 -2 7 -5.125 7.125 C-6.548125 7.063125 -6.548125 7.063125 -8 7 C-8 5.35 -8 3.7 -8 2 C-4.91190305 0.23537317 -3.76687864 0 0 0 Z " fill="#E8F7F0" transform="translate(223,37)"/>
<path d="M0 0 C0.66 0 1.32 0 2 0 C2.8320582 5.72040011 3.12036664 11.22240116 3 17 C2.01 17 1.02 17 0 17 C0 11.39 0 5.78 0 0 Z " fill="#0CAF6A" transform="translate(149,30)"/>
<path d="M0 0 C0.99 0 1.98 0 3 0 C3.50559908 1.43554025 4.0042749 2.8735202 4.5 4.3125 C4.7784375 5.11300781 5.056875 5.91351563 5.34375 6.73828125 C6 9 6 9 6 12 C5.01 12.33 4.02 12.66 3 13 C2.49242138 11.58603098 1.99425075 10.16868271 1.5 8.75 C1.08234375 7.56664062 1.08234375 7.56664062 0.65625 6.359375 C0 4 0 4 0 0 Z " fill="#1AB373" transform="translate(132,28)"/>
<path d="M0 0 C3.00617269 3.00617269 2.59585316 5.82381598 3 10 C1.35 10 -0.3 10 -2 10 C-1.34 6.7 -0.68 3.4 0 0 Z " fill="#D3E8E6" transform="translate(26,26)"/>
<path d="M0 0 C2.375 -0.1875 2.375 -0.1875 5 0 C5.66 0.99 6.32 1.98 7 3 C4.36 3 1.72 3 -1 3 C-0.67 2.01 -0.34 1.02 0 0 Z " fill="#3BBE87" transform="translate(214,28)"/>
<path d="M0 0 C-0.33 0.99 -0.66 1.98 -1 3 C-3.97 2.67 -6.94 2.34 -10 2 C-10 1.67 -10 1.34 -10 1 C-6.59437148 0.22157062 -3.49234244 -0.09978121 0 0 Z " fill="#824CC3" transform="translate(46,59)"/>
</svg>
