<?xml version="1.0" encoding="UTF-8"?>
<svg version="1.1" xmlns="http://www.w3.org/2000/svg" width="401" height="249">
<path d="M0 0 C132.33 0 264.66 0 401 0 C401 82.17 401 164.34 401 249 C268.67 249 136.34 249 0 249 C0 166.83 0 84.66 0 0 Z " fill="#010101" transform="translate(0,0)"/>
<path d="M0 0 C-0.020625 0.845625 -0.04125 1.69125 -0.0625 2.5625 C1.15401298 6.4982773 1.89129647 6.89927248 5.1484375 9.1640625 C10.01487707 12.81521523 13.24742286 16.84011864 16.6875 21.8125 C17.88457891 23.4885096 19.08386195 25.16294674 20.28515625 26.8359375 C20.89246582 27.68639648 21.49977539 28.53685547 22.12548828 29.41308594 C25.20151396 33.6581456 28.40488228 37.8012373 31.625 41.9375 C32.20467529 42.68813721 32.78435059 43.43877441 33.3815918 44.2121582 C33.92855713 44.91429443 34.47552246 45.61643066 35.0390625 46.33984375 C35.51553223 46.95206787 35.99200195 47.56429199 36.48291016 48.19506836 C38.20053264 50.23858028 40.1123867 52.1123867 42 54 C46.62 46.41 51.24 38.82 56 31 C57.98 31.66 59.96 32.32 62 33 C65.90432869 33 68.38026598 32.31626692 72 31 C76.71657989 38.63750753 81.40458041 46.28874668 86 54 C90.26978478 49.94489714 93.84941838 45.53697573 97.4375 40.875 C98.04223145 40.09672852 98.64696289 39.31845703 99.27001953 38.51660156 C102.50407563 34.33095934 105.6660049 30.10500583 108.74609375 25.8046875 C109.35461182 24.95922363 109.96312988 24.11375977 110.59008789 23.24267578 C111.74739696 21.62646383 112.89441299 20.00281196 114.02905273 18.37060547 C117.73825825 13.1912505 121.688643 9.51811159 127 6 C126.67 4.35 126.34 2.7 126 1 C129.40401948 -0.13732426 131.77456664 0.16010043 135.25 0.9375 C136.14203125 1.13214844 137.0340625 1.32679688 137.953125 1.52734375 C138.96632813 1.76130859 138.96632813 1.76130859 140 2 C140 2.33 140 2.66 140 3 C138.96101562 3.23847656 137.92203125 3.47695312 136.8515625 3.72265625 C124.25174584 7.37097082 116.43257432 22.12844795 109.74121094 32.37841797 C106.09283022 37.87145108 102.23110556 43.21968951 98.40478516 48.58959961 C97.8432373 49.38503174 97.28168945 50.18046387 96.703125 51 C96.20458008 51.70125 95.70603516 52.4025 95.19238281 53.125 C93.83428776 55.09340123 93.83428776 55.09340123 93 58 C93.56847656 57.54109375 94.13695312 57.0821875 94.72265625 56.609375 C99.31569717 52.95947938 103.82003726 49.75529933 109 47 C106.59876134 53.76712713 103.9149864 60.00894279 97.8125 64.0625 C94.9270362 65.96192867 94.9270362 65.96192867 93.25390625 68.86328125 C93.00084054 70.20687753 92.77039577 71.55492748 92.5625 72.90625 C91.64867961 76.30769256 89.46505813 78.66636559 87.2421875 81.3359375 C85.80060246 82.92102282 85.80060246 82.92102282 86 85 C87.65 85 89.3 85 91 85 C91.99 83.02 92.98 81.04 94 79 C93.34 78.67 92.68 78.34 92 78 C92.99 75.69 93.98 73.38 95 71 C95.33 71 95.66 71 96 71 C96.40667028 73.33835412 96.73198052 75.64361755 97 78 C97.08862305 78.68731201 97.17724609 79.37462402 97.26855469 80.08276367 C97.83236126 88.44020858 94.28428511 95.11351877 90.75 102.4375 C89.57078638 104.93278299 88.40184921 107.43280061 87.234375 109.93359375 C86.4000293 111.71612549 86.4000293 111.71612549 85.54882812 113.53466797 C83.43324536 118.26805097 81.65345391 123.08838097 80 128 C78.8575443 124.57263289 79.12576953 124.17147277 80.4375 121 C83.23996749 113.13005705 82.15892468 105.11247279 81 97 C81 96.01 81 95.02 81 94 C79.52258382 96.95483235 80.10524602 99.51276713 80.25 102.8125 C80.42126585 111.33868473 79.18175188 119.54796425 77.75 127.9375 C77.44304199 129.78468628 77.44304199 129.78468628 77.12988281 131.66918945 C75.6784591 139.78212099 73.98765879 147.81727769 69.125 154.625 C67 156 67 156 64.125 156.6875 C60.17107284 155.81763602 58.72800512 154.5157353 56.30859375 151.3359375 C53.97592413 147.17194815 53.20548123 142.79264077 52.38720703 138.12597656 C51.94656597 135.70661822 51.44085108 133.30469229 50.93359375 130.8984375 C48.92561502 121.05986462 47.53676298 111.69534656 47.97192383 101.6340332 C48.12653419 97.74961898 47.8923917 95.37589328 46 92 C45.39816872 108.94185392 45.39816872 108.94185392 49.22265625 125.3203125 C50.05228927 128.18025347 49.82734817 129.23628153 49 132 C48.62230469 130.8346875 48.24460938 129.669375 47.85546875 128.46875 C44.15959988 117.37540979 39.84129432 106.84309894 34.55737305 96.40039062 C30.28787721 87.60924281 30.35608175 80.45252994 32 71 C33.77706209 73.66559313 34.87548273 76.0280615 36 79 C35.34 79 34.68 79 34 79 C34.99 80.98 35.98 82.96 37 85 C38.98 85 40.96 85 43 85 C40.38516723 80.97027651 40.38516723 80.97027651 37.4375 77.1875 C35.96131811 74.94113625 35.49980853 73.26273195 34.8125 70.6875 C33.33147571 65.88396619 30.87349473 63.88005037 27.01171875 60.83203125 C23.74886813 57.86061971 21.53890673 54.12897926 20 50 C20.33 49.34 20.66 48.68 21 48 C25.95 51.3 30.9 54.6 36 58 C32.24657457 52.52625043 32.24657457 52.52625043 28.484375 47.05859375 C26.66040851 44.41235599 24.83867756 41.76466512 23.02148438 39.11376953 C20.9358538 36.07247112 18.84339433 33.0359583 16.75 30 C16.08935547 29.03376709 15.42871094 28.06753418 14.74804688 27.07202148 C6.04062576 13.64966165 6.04062576 13.64966165 -6.875 5.1875 C-7.57625 5.125625 -8.2775 5.06375 -9 5 C-9.33 4.01 -9.66 3.02 -10 2 C-8.7090864 1.66376204 -7.41723903 1.33110751 -6.125 1 C-5.40570313 0.814375 -4.68640625 0.62875 -3.9453125 0.4375 C-2 0 -2 0 0 0 Z " fill="#030303" transform="translate(130,5)"/>
<path d="M0 0 C5.15412595 -0.43627444 9.35327174 0.01015096 13.83984375 2.70703125 C23.47686535 10.88990693 30.0843118 21.70043168 37.0546875 32.12353516 C40.44674715 37.13925388 43.9947668 42.04454394 47.546875 46.94775391 C51 51.78188641 51 51.78188641 51 54 C47.10993227 52.61219205 44.03441292 50.7847773 40.6875 48.375 C39.80449219 47.74335937 38.92148438 47.11171875 38.01171875 46.4609375 C37.34785156 45.97882812 36.68398437 45.49671875 36 45 C38.36464716 50.79873274 40.70223297 55.08734555 45.625 59.0625 C49.66325053 62.36773476 51.06177743 64.81910246 52.31640625 69.8203125 C53.44536393 73.4200747 55.74229248 76.01006302 58 79 C58 79.66 58 80.32 58 81 C56.02 81.33 54.04 81.66 52 82 C50.4375 80.25 50.4375 80.25 49 78 C49.29369827 76.65737935 49.6278958 75.32303717 50 74 C49.14209817 71.78228936 49.14209817 71.78228936 48 70 C45.04442899 80.83964468 48.6334384 88.89314587 53.3125 98.625 C54.21130922 100.53826604 55.1047147 102.45398619 55.99752808 104.37005615 C56.83955489 106.1756841 57.68655227 107.97899149 58.53369141 109.78222656 C60.21520519 113.47226181 61.66489271 117.17301376 63 121 C62.67841919 120.02099731 62.67841919 120.02099731 62.3503418 119.0222168 C60.15563717 111.79790087 59.62442422 105.33070866 59.8125 97.8125 C59.83280273 96.24145508 59.83280273 96.24145508 59.85351562 94.63867188 C59.8884032 92.09187876 59.9374113 89.54623675 60 87 C61.70840281 88.63412443 62.93453047 89.86906094 64 92 C63.95735608 93.71855015 63.90912121 95.43713688 63.83325195 97.15454102 C63.48256698 106.50785424 64.65133617 115.36341348 66.3125 124.5625 C66.52551758 125.75085449 66.73853516 126.93920898 66.95800781 128.16357422 C68.89183463 139.42618972 68.89183463 139.42618972 73.8125 149.5625 C76.79172379 151.52027563 78.50254179 151.5829097 82 151 C86.14293214 148.12296379 86.88612267 144.77375999 88 140 C88.30421875 138.82824219 88.6084375 137.65648437 88.921875 136.44921875 C92.30694262 122.89958864 94.60276216 109.37476151 93.84765625 95.3984375 C94.01400384 91.68760672 94.82098228 89.95440844 97 87 C98 90 98 90 97.5 92.875 C96.98640177 96.08498891 97.36212626 97.86147631 98 101 C98.08933954 102.85248174 98.13015891 104.7078724 98.125 106.5625 C98.12886719 107.95662109 98.12886719 107.95662109 98.1328125 109.37890625 C98.01252247 111.75286528 97.61114744 113.71775575 97 116 C97.24645264 115.42145264 97.49290527 114.84290527 97.74682617 114.24682617 C98.47964006 112.52792014 99.21327022 110.80936199 99.94750977 109.09106445 C100.77685741 107.14906178 101.60415635 105.20618296 102.42944336 103.26245117 C104.51508409 98.37148549 106.67837617 93.56696659 109.0625 88.8125 C112.03389192 82.38980062 111.80765557 75.77870838 110 69 C108.27287026 72.40729293 108.27287026 72.40729293 108.5625 76.0625 C109 78 109 78 107.875 80.25 C106 82 106 82 103.3125 82.25 C102.549375 82.1675 101.78625 82.085 101 82 C100.67 81.01 100.34 80.02 100 79 C101.36328125 76.765625 101.36328125 76.765625 103.3125 74.25 C105.67772202 71.05136314 106.9809375 69.06840072 108.0625 65.1875 C109.35809393 60.78248065 111.25716693 59.57319774 115 57 C115.66 57 116.32 57 117 57 C117.2475 56.34 117.495 55.68 117.75 55 C119.31840619 51.23582514 121.15095419 47.6320914 123 44 C122.02417969 44.721875 121.04835937 45.44375 120.04296875 46.1875 C118.75808401 47.12537208 117.47291278 48.06285176 116.1875 49 C115.54490234 49.47695313 114.90230469 49.95390625 114.24023438 50.4453125 C113.61826172 50.89648438 112.99628906 51.34765625 112.35546875 51.8125 C111.78465576 52.23144531 111.21384277 52.65039062 110.62573242 53.08203125 C109 54 109 54 106 54 C107.00254298 52.55724915 108.00516503 51.11455324 109.0078125 49.671875 C109.65790283 48.73625732 110.30799316 47.80063965 110.9777832 46.83666992 C112.42238517 44.76002379 113.86887143 42.68468731 115.31713867 40.6105957 C118.84582546 35.55457263 122.35580191 30.4898705 125.79296875 25.37109375 C141.24273078 2.48969341 141.24273078 2.48969341 150.125 0.19140625 C153.1875 -0.125 153.1875 -0.125 158 0 C159.65 2.97 161.3 5.94 163 9 C159.535 12.96 159.535 12.96 156 17 C158.64 15.68 161.28 14.36 164 13 C166.00865708 19.50422293 167.38614349 25.1781317 167 32 C164.36 32.33 161.72 32.66 159 33 C161.31 33.33 163.62 33.66 166 34 C166 39.28 166 44.56 166 50 C163.03 50.495 163.03 50.495 160 51 C161.65 51.66 163.3 52.32 165 53 C165 57.29 165 61.58 165 66 C164.01 66.495 164.01 66.495 163 67 C163.33 67.33 163.66 67.66 164 68 C164.07258946 70.18639453 164.08373783 72.37500389 164.0625 74.5625 C164.05347656 75.76003906 164.04445313 76.95757812 164.03515625 78.19140625 C164.01775391 79.58166016 164.01775391 79.58166016 164 81 C163.01 81 162.02 81 161 81 C161.99 81.66 162.98 82.32 164 83 C164.29296875 86.1875 164.29296875 86.1875 164.1875 90 C164.14689453 91.8871875 164.14689453 91.8871875 164.10546875 93.8125 C164.07066406 94.864375 164.03585937 95.91625 164 97 C164 97.66 164 98.32 164 99 C164.495 99.4125 164.99 99.825 165.5 100.25 C167.65847858 102.76822501 167.21374961 104.79375585 167 108 C162.56787768 105.3985369 160.49547531 103.91341161 159 99 C158.42685819 95.97908658 158.02632537 92.94340576 157.6328125 89.89453125 C157.38446813 88.08784199 157.13575849 86.28120291 156.88671875 84.47460938 C156.50459731 81.64930814 156.126457 78.82359881 155.75537109 75.99682617 C153.99087614 61.56164994 153.99087614 61.56164994 149 48 C148.43034048 46.750888 147.86250874 45.50094014 147.296875 44.25 C146.25561662 42.06230562 145.21394214 39.87480925 144.171875 37.6875 C143 35 143 35 143 33 C141.22604492 33.42466497 139.45589369 33.8652409 137.6875 34.3125 C136.70136719 34.55613281 135.71523437 34.79976562 134.69921875 35.05078125 C131.95700822 36.01511867 130.90983674 36.9021178 129 39 C128.34 39 127.68 39 127 39 C127 39.66 127 40.32 127 41 C127.66 41 128.32 41 129 41 C127.43134916 45.21774997 125.43166638 49.13633321 123.25 53.0625 C122.92773438 53.67416016 122.60546875 54.28582031 122.2734375 54.91601562 C119.76694183 59.40924915 117.34903799 61.50862252 113 64 C113.30035156 65.16917969 113.60070312 66.33835937 113.91015625 67.54296875 C114.29482086 69.09100926 114.678905 70.6391941 115.0625 72.1875 C115.36124023 73.34088867 115.36124023 73.34088867 115.66601562 74.51757812 C115.84970703 75.26845703 116.03339844 76.01933594 116.22265625 76.79296875 C116.39547119 77.4789917 116.56828613 78.16501465 116.74633789 78.87182617 C117.35278137 83.95976437 115.31312754 87.57565353 112.82421875 91.890625 C112.15838132 93.07075221 111.49414779 94.25178541 110.83129883 95.43359375 C110.30652451 96.36534424 110.30652451 96.36534424 109.77114868 97.31591797 C102.36281895 110.53820823 96.66409276 123.87826785 91.89526367 138.25878906 C91.66761322 138.93266663 91.43996277 139.60654419 91.20541382 140.30084229 C90.59513553 142.11793586 90.0044277 143.94156979 89.4152832 145.765625 C87.48133111 150.18532439 85.09533967 154.10948064 80.5 156.0625 C77.06411784 155.97660295 75.66303677 155.18505582 73 153 C68.88361974 146.88321896 66.71274239 140.00592993 64.25463867 133.10714722 C58.76916373 117.79027612 52.54160297 102.80782749 43.74755859 89.0390625 C41.21962744 85.02931598 40.58303466 82.75735194 41.625 78.125 C41.8415625 77.10148437 42.058125 76.07796875 42.28125 75.0234375 C42.5184375 74.02570313 42.755625 73.02796875 43 72 C43.1959375 71.08476563 43.391875 70.16953125 43.59375 69.2265625 C44.04003323 67.14609511 44.51650187 65.07213485 45 63 C44.236875 62.75378906 43.47375 62.50757813 42.6875 62.25390625 C39.64311064 60.83348621 38.74891999 59.75465237 37 56.9375 C36.50242188 56.14085937 36.00484375 55.34421875 35.4921875 54.5234375 C29 43.54450262 29 43.54450262 29 41 C29.66 41 30.32 41 31 41 C31 40.34 31 39.68 31 39 C25.97675173 36.27907385 20.55541009 34.30204924 15 33 C14.62875 34.2375 14.2575 35.475 13.875 36.75 C12.62586033 40.57368539 11.00397008 43.89298667 9.0546875 47.40625 C5.55004822 54.33904052 4.33752436 61.11157491 3.25 68.75 C3.04480516 70.0809069 2.83792321 71.41155473 2.62939453 72.74194336 C1.38038812 80.82330118 0.2991695 88.92249953 -0.4453125 97.06640625 C-1.06092538 100.32221804 -2.05391014 102.33296159 -4 105 C-6.6875 106.8125 -6.6875 106.8125 -9 108 C-9.25 105.25 -9.25 105.25 -9 102 C-7 99.625 -7 99.625 -5 98 C-5.33 97.67 -5.66 97.34 -6 97 C-6.07305435 94.68856033 -6.08362942 92.37499731 -6.0625 90.0625 C-6.05347656 88.79535156 -6.04445313 87.52820313 -6.03515625 86.22265625 C-6.01775391 84.62744141 -6.01775391 84.62744141 -6 83 C-6 82.34 -6 81.68 -6 81 C-6 76.66666667 -6 72.33333333 -6 68 C-5.01 67.505 -5.01 67.505 -4 67 C-4.99 66.67 -5.98 66.34 -7 66 C-7 61.38 -7 56.76 -7 52 C-4.525 51.505 -4.525 51.505 -2 51 C-3.98 50.67 -5.96 50.34 -8 50 C-8 44.72 -8 39.44 -8 34 C-4.535 33.505 -4.535 33.505 -1 33 C-4.96 32.505 -4.96 32.505 -9 32 C-9.23268915 25.71739294 -8.40454548 20.11980533 -7 14 C-3.30581799 14 -1.22163822 15.28179295 2 17 C1.33291016 16.32904297 1.33291016 16.32904297 0.65234375 15.64453125 C-3.98352719 10.6918582 -3.98352719 10.6918582 -4.0625 7.375 C-2.89580932 4.76710318 -1.568747 2.38722369 0 0 Z " fill="#747576" transform="translate(115,9)"/>
<path d="M0 0 C2.14453125 0.13671875 2.14453125 0.13671875 4.8125 0.6875 C6.27042969 0.98333984 6.27042969 0.98333984 7.7578125 1.28515625 C13.18216349 2.48112761 18.5968518 3.71149089 24 5 C20.96630987 8.10751887 17.79019738 10.84263779 14.390625 13.53515625 C12.65575236 15.02598654 12.65575236 15.02598654 13 18 C13.67095703 17.29423828 13.67095703 17.29423828 14.35546875 16.57421875 C21.23995053 9.48423006 21.23995053 9.48423006 25 8 C29.33804321 9.25321248 32.36011373 11.65305229 35.8125 14.5 C36.78832031 15.2940625 37.76414063 16.088125 38.76953125 16.90625 C39.50558594 17.5971875 40.24164063 18.288125 41 19 C41 19.66 41 20.32 41 21 C40.40832031 21.30292969 39.81664062 21.60585938 39.20703125 21.91796875 C34.38110043 24.47657808 30.62551378 26.90667799 27 31 C27.33 31.33 27.66 31.66 28 32 C28.47308594 31.60167969 28.94617188 31.20335938 29.43359375 30.79296875 C34.36397602 26.84289641 38.90032961 24.60963524 45 23 C45.474375 23.763125 45.94875 24.52625 46.4375 25.3125 C49.86680282 28.90908588 53.15105596 30.12272394 58 31 C60.83716954 30.98986725 63.18208124 30.56358375 66 30 C66.9075 29.938125 67.815 29.87625 68.75 29.8125 C72.18431124 28.57233205 73.23702572 26.06888115 75 23 C81.63035989 24.39667303 88.67620974 27.69353014 93 33 C92.03006181 29.44560626 91.22552028 28.16148752 88.1796875 25.98046875 C86.54386719 25.09294922 86.54386719 25.09294922 84.875 24.1875 C83.77929688 23.58292969 82.68359375 22.97835938 81.5546875 22.35546875 C80.29011719 21.68451172 80.29011719 21.68451172 79 21 C80.53697457 16.90768733 83.43484529 14.68989378 86.8125 12.125 C87.59463867 11.48304687 87.59463867 11.48304687 88.39257812 10.828125 C89.95703125 9.6328125 89.95703125 9.6328125 93 8 C96.90613816 8.77424199 99.35416721 10.91535514 102.25 13.5625 C102.93578125 14.18253906 103.6215625 14.80257813 104.328125 15.44140625 C105.23009604 16.28226243 106.12805078 17.12805078 107 18 C106.43997584 14.46340908 105.32225676 13.04440308 102.5625 10.8125 C101.63630859 10.04873047 101.63630859 10.04873047 100.69140625 9.26953125 C99.01720254 7.93391424 99.01720254 7.93391424 97 7 C97 6.34 97 5.68 97 5 C100.05766794 4.12785392 103.12169156 3.28054142 106.1875 2.4375 C107.05181641 2.19064453 107.91613281 1.94378906 108.80664062 1.68945312 C116.99492508 -0.53801123 116.99492508 -0.53801123 121 1 C122.875 2.875 122.875 2.875 124 5 C122.85825883 8.42522351 122.2453248 8.72997762 119.3515625 10.640625 C114.65603484 14.03845677 111.65945119 18.02523818 108.375 22.75 C107.16744226 24.43638552 105.95774533 26.12124096 104.74609375 27.8046875 C104.13233887 28.6615918 103.51858398 29.51849609 102.88623047 30.40136719 C99.82076854 34.62461037 96.63917081 38.75454436 93.4375 42.875 C92.86628418 43.61717773 92.29506836 44.35935547 91.70654297 45.12402344 C88.67710691 49.01785858 85.57819782 52.60171156 82 56 C76.83684976 48.60730761 72.40355979 40.85711302 68 33 C66.63875 33.495 66.63875 33.495 65.25 34 C59.85144324 35.66109439 57.50981776 34.83660592 52 33 C47.38 40.92 42.76 48.84 38 57 C35.30572282 54.30572282 33.21020886 52.09558544 31.0390625 49.0859375 C30.4917749 48.33328613 29.9444873 47.58063477 29.38061523 46.80517578 C28.51158569 45.60223877 28.51158569 45.60223877 27.625 44.375 C22.6480909 37.55726201 17.607252 30.79792487 12.4375 24.125 C11.86660645 23.3829834 11.29571289 22.6409668 10.70751953 21.87646484 C6.31601132 16.23395548 1.67989903 11.3816364 -4 7 C-2.92598892 4.08482708 -2.22189824 2.22189824 0 0 Z " fill="#8B8B8D" transform="translate(134,4)"/>
<path d="M0 0 C1.04622875 1.97620986 2.05439935 3.9737129 3 6 C0.69 8.64 -1.62 11.28 -4 14 C-1.36 12.68 1.28 11.36 4 10 C6.00865708 16.50422293 7.38614349 22.1781317 7 29 C4.36 29.33 1.72 29.66 -1 30 C1.31 30.33 3.62 30.66 6 31 C6 36.28 6 41.56 6 47 C4.02 47.33 2.04 47.66 0 48 C1.65 48.66 3.3 49.32 5 50 C5 54.29 5 58.58 5 63 C4.01 63.495 4.01 63.495 3 64 C3.33 64.33 3.66 64.66 4 65 C4.07258946 67.18639453 4.08373783 69.37500389 4.0625 71.5625 C4.05347656 72.76003906 4.04445313 73.95757812 4.03515625 75.19140625 C4.02355469 76.11824219 4.01195312 77.04507813 4 78 C3.01 78 2.02 78 1 78 C1.99 78.66 2.98 79.32 4 80 C4.29296875 83.1875 4.29296875 83.1875 4.1875 87 C4.14689453 88.8871875 4.14689453 88.8871875 4.10546875 90.8125 C4.07066406 91.864375 4.03585937 92.91625 4 94 C4 94.66 4 95.32 4 96 C4.495 96.4125 4.99 96.825 5.5 97.25 C7.65847858 99.76822501 7.21374961 101.79375585 7 105 C2.56787768 102.3985369 0.49547531 100.91341161 -1 96 C-1.57314181 92.97908658 -1.97367463 89.94340576 -2.3671875 86.89453125 C-2.61553187 85.08784199 -2.86424151 83.28120291 -3.11328125 81.47460938 C-3.49540269 78.64930814 -3.873543 75.82359881 -4.24462891 72.99682617 C-6.00912386 58.56164994 -6.00912386 58.56164994 -11 45 C-11.56965952 43.750888 -12.13749126 42.50094014 -12.703125 41.25 C-13.74438338 39.06230562 -14.78605786 36.87480925 -15.828125 34.6875 C-17 32 -17 32 -17 30 C-18.77395508 30.42466497 -20.54410631 30.8652409 -22.3125 31.3125 C-23.29863281 31.55613281 -24.28476563 31.79976562 -25.30078125 32.05078125 C-28.04299178 33.01511867 -29.09016326 33.9021178 -31 36 C-31.66 36 -32.32 36 -33 36 C-33 36.66 -33 37.32 -33 38 C-32.34 38 -31.68 38 -31 38 C-32.56865084 42.21774997 -34.56833362 46.13633321 -36.75 50.0625 C-37.07226562 50.67416016 -37.39453125 51.28582031 -37.7265625 51.91601562 C-40.17086549 56.29776032 -42.80573714 58.36979885 -47 61 C-47.33 61.99 -47.66 62.98 -48 64 C-48.66 64 -49.32 64 -50 64 C-51.67645732 68.52596285 -51.67645732 68.52596285 -51.4375 73.1875 C-51 75 -51 75 -52.125 77.25 C-54 79 -54 79 -56.6875 79.25 C-57.450625 79.1675 -58.21375 79.085 -59 79 C-59.33 78.01 -59.66 77.02 -60 76 C-58.63671875 73.765625 -58.63671875 73.765625 -56.6875 71.25 C-54.32227798 68.05136314 -53.0190625 66.06840072 -51.9375 62.1875 C-50.64190607 57.78248065 -48.74283307 56.57319774 -45 54 C-44.34 54 -43.68 54 -43 54 C-42.7525 53.34 -42.505 52.68 -42.25 52 C-40.68159381 48.23582514 -38.84904581 44.6320914 -37 41 C-37.97582031 41.721875 -38.95164063 42.44375 -39.95703125 43.1875 C-41.24191599 44.12537208 -42.52708722 45.06285176 -43.8125 46 C-44.45509766 46.47695313 -45.09769531 46.95390625 -45.75976562 47.4453125 C-46.38173828 47.89648438 -47.00371094 48.34765625 -47.64453125 48.8125 C-48.21534424 49.23144531 -48.78615723 49.65039062 -49.37426758 50.08203125 C-51 51 -51 51 -54 51 C-52.99745702 49.55724915 -51.99483497 48.11455324 -50.9921875 46.671875 C-50.34209717 45.73625732 -49.69200684 44.80063965 -49.0222168 43.83666992 C-47.57761483 41.76002379 -46.13112857 39.68468731 -44.68286133 37.6105957 C-41.15417454 32.55457263 -37.64419809 27.4898705 -34.20703125 22.37109375 C-19.09412935 -0.0083432 -19.09412935 -0.0083432 -10.203125 -2.9140625 C-5.61049012 -3.59101157 -3.0110445 -3.81931898 0 0 Z " fill="#DCDCDC" transform="translate(275,12)"/>
<path d="M0 0 C7.30125 -0.0928125 7.30125 -0.0928125 14.75 -0.1875 C16.27979492 -0.21481201 17.80958984 -0.24212402 19.38574219 -0.27026367 C21.19800293 -0.28150269 21.19800293 -0.28150269 23.046875 -0.29296875 C24.90070801 -0.31653442 24.90070801 -0.31653442 26.79199219 -0.34057617 C30.34134299 0.03623847 31.47781455 0.5531112 34 3 C34.50793457 5.19407654 34.50793457 5.19407654 34.51757812 7.77514648 C34.53018677 8.74302597 34.54279541 9.71090546 34.55578613 10.70811462 C34.54768921 11.75189774 34.53959229 12.79568085 34.53125 13.87109375 C34.5350769 14.94496841 34.53890381 16.01884308 34.54284668 17.1252594 C34.54556989 19.39739926 34.53818022 21.66957024 34.52148438 23.94165039 C34.50010266 27.42079631 34.52126274 30.8978721 34.546875 34.37695312 C34.54423139 36.5833379 34.53910572 38.78972138 34.53125 40.99609375 C34.53934692 42.03785263 34.54744385 43.07961151 34.55578613 44.15293884 C34.46392975 51.22709077 34.46392975 51.22709077 32.40136719 54.66333008 C29.13583093 56.48102131 26.77652509 56.45383941 23.046875 56.390625 C21.83870117 56.38063477 20.63052734 56.37064453 19.38574219 56.36035156 C17.0910498 56.30572754 17.0910498 56.30572754 14.75 56.25 C7.44875 56.12625 7.44875 56.12625 0 56 C0 37.52 0 19.04 0 0 Z " fill="#F6F6F6" transform="translate(99,181)"/>
<path d="M0 0 C1.24072266 -0.02835938 2.48144531 -0.05671875 3.75976562 -0.0859375 C5.54737305 -0.08980469 5.54737305 -0.08980469 7.37109375 -0.09375 C8.46220459 -0.10083984 9.55331543 -0.10792969 10.67749023 -0.11523438 C13.5625 0.5 13.5625 0.5 15.9140625 2.38867188 C18.29430971 6.88124747 18.15468963 10.86009263 18.12890625 15.875 C18.13820412 17.37812744 18.13820412 17.37812744 18.14768982 18.91162109 C18.15478107 21.02635732 18.15162616 23.14114945 18.13891602 25.25585938 C18.12504578 28.48932657 18.15913799 31.7199019 18.19726562 34.953125 C18.19821681 37.01041737 18.19635801 39.06771337 18.19140625 41.125 C18.20466446 42.08970215 18.21792267 43.0544043 18.23158264 44.04833984 C18.16908952 48.55808839 18.02703425 50.83619348 15.38671875 54.60913086 C12.18548718 56.75241738 10.56436426 57.13168677 6.74609375 57.12890625 C5.10543945 57.13180664 5.10543945 57.13180664 3.43164062 57.13476562 C2.29919922 57.11091797 1.16675781 57.08707031 0 57.0625 C-1.13630859 57.07345703 -2.27261719 57.08441406 -3.44335938 57.09570312 C-11.53360352 57.02410804 -11.53360352 57.02410804 -14.76171875 55.15234375 C-17.47675837 50.85511321 -16.98726255 46.47295516 -16.93359375 41.49609375 C-16.93504898 40.42126236 -16.93650421 39.34643097 -16.93800354 38.23902893 C-16.93634458 35.96865119 -16.92478372 33.69826221 -16.90405273 31.42797852 C-16.87507861 27.94694446 -16.88344838 24.46743106 -16.89648438 20.98632812 C-16.89024766 18.78124258 -16.88185724 16.57616185 -16.87109375 14.37109375 C-16.87402939 13.32731064 -16.87696503 12.28352753 -16.87998962 11.20811462 C-16.86730545 10.24023514 -16.85462128 9.27235565 -16.84155273 8.27514648 C-16.83614975 7.4233934 -16.83074677 6.57164032 -16.82518005 5.69407654 C-15.44306955 -2.1279824 -6.02247475 -0.01247535 0 0 Z " fill="#F7F7F7" transform="translate(271.4375,180.5)"/>
<path d="M0 0 C1.19496094 -0.00386719 2.38992187 -0.00773438 3.62109375 -0.01171875 C4.87019531 -0.00011719 6.11929688 0.01148438 7.40625 0.0234375 C8.65535156 0.01183594 9.90445313 0.00023437 11.19140625 -0.01171875 C12.98384766 -0.00591797 12.98384766 -0.00591797 14.8125 0 C15.90884766 0.00338379 17.00519531 0.00676758 18.13476562 0.01025391 C21.32622336 0.45726041 21.99681866 0.88331602 23.90625 3.3984375 C24.29393005 5.63720703 24.29393005 5.63720703 24.31030273 8.28125 C24.32298691 9.27237793 24.33567108 10.26350586 24.34873962 11.28466797 C24.34580399 12.35346191 24.34286835 13.42225586 24.33984375 14.5234375 C24.3450856 15.62187988 24.35032745 16.72032227 24.35572815 17.85205078 C24.36215429 20.17544712 24.36080374 22.49887598 24.35229492 24.82226562 C24.34378282 28.38470122 24.37254358 31.94553534 24.40429688 35.5078125 C24.40590882 37.76302035 24.40533148 40.01823105 24.40234375 42.2734375 C24.41919472 43.87662842 24.41919472 43.87662842 24.43638611 45.51220703 C24.42231468 46.99889893 24.42231468 46.99889893 24.40795898 48.515625 C24.40779282 49.38815918 24.40762665 50.26069336 24.40745544 51.15966797 C23.90625 53.3984375 23.90625 53.3984375 22.04273987 55.17835999 C17.66214893 57.67996815 12.32028348 56.86647669 7.40625 56.8359375 C6.26542969 56.85591797 5.12460938 56.87589844 3.94921875 56.89648438 C2.85222656 56.89583984 1.75523437 56.89519531 0.625 56.89453125 C-0.37595703 56.89638428 -1.37691406 56.8982373 -2.40820312 56.90014648 C-5.09375 56.3984375 -5.09375 56.3984375 -7.42016602 55.05517578 C-10.1299218 50.753562 -9.64352841 46.37286327 -9.58984375 41.39453125 C-9.59129898 40.31969986 -9.59275421 39.24486847 -9.59425354 38.13746643 C-9.59259458 35.86708869 -9.58103372 33.59669971 -9.56030273 31.32641602 C-9.53132861 27.84538196 -9.53969838 24.36586856 -9.55273438 20.88476562 C-9.54649766 18.67968008 -9.53810724 16.47459935 -9.52734375 14.26953125 C-9.53027939 13.22574814 -9.53321503 12.18196503 -9.53623962 11.10655212 C-9.52355545 10.13867264 -9.51087128 9.17079315 -9.49780273 8.17358398 C-9.49239975 7.3218309 -9.48699677 6.47007782 -9.48143005 5.59251404 C-8.52214194 0.16341981 -4.85169237 0.01497436 0 0 Z " fill="#FCFCFC" transform="translate(186.09375,180.6015625)"/>
<path d="M0 0 C1.71316406 -0.00773438 1.71316406 -0.00773438 3.4609375 -0.015625 C4.64945313 -0.00015625 5.83796875 0.0153125 7.0625 0.03125 C8.25101563 0.01578125 9.43953125 0.0003125 10.6640625 -0.015625 C11.80617188 -0.01046875 12.94828125 -0.0053125 14.125 0 C15.16785156 0.00451172 16.21070313 0.00902344 17.28515625 0.01367188 C20.81158966 0.67084828 21.82765166 1.7667568 24.0625 4.53125 C24.54351807 6.98638916 24.54351807 6.98638916 24.51660156 9.75878906 C24.51629944 10.79956604 24.51599731 11.84034302 24.51568604 12.91265869 C24.49504089 14.02945007 24.47439575 15.14624146 24.453125 16.296875 C24.44746521 17.44540955 24.44180542 18.59394409 24.43597412 19.77728271 C24.41358331 23.44569574 24.36337942 27.11313217 24.3125 30.78125 C24.29243861 33.26821506 24.27418722 35.75519543 24.2578125 38.2421875 C24.21370955 44.33887489 24.14676949 50.43499267 24.0625 56.53125 C22.4125 56.53125 20.7625 56.53125 19.0625 56.53125 C19.0625 50.59125 19.0625 44.65125 19.0625 38.53125 C14.1125 38.53125 9.1625 38.53125 4.0625 38.53125 C4.0625 44.47125 4.0625 50.41125 4.0625 56.53125 C-0.5575 56.53125 -5.1775 56.53125 -9.9375 56.53125 C-10.03631828 49.19893335 -10.10894618 41.86700362 -10.15722656 34.53417969 C-10.17735164 32.03931935 -10.20465452 29.54450622 -10.23925781 27.04980469 C-10.28773457 23.46537632 -10.3104602 19.88157115 -10.328125 16.296875 C-10.34877014 15.18008362 -10.36941528 14.06329224 -10.39068604 12.91265869 C-10.39098816 11.87188171 -10.39129028 10.83110474 -10.39160156 9.75878906 C-10.40048401 8.84389709 -10.40936646 7.92900513 -10.41851807 6.98638916 C-9.28452983 1.19845911 -5.34416487 0.02312061 0 0 Z " fill="#F5F5F5" transform="translate(31.9375,180.46875)"/>
<path d="M0 0 C1.14533203 -0.00386719 2.29066406 -0.00773438 3.47070312 -0.01171875 C4.66759766 -0.00011719 5.86449219 0.01148438 7.09765625 0.0234375 C8.29068359 0.01183594 9.48371094 0.00023437 10.71289062 -0.01171875 C11.85951172 -0.00785156 13.00613281 -0.00398437 14.1875 0 C15.76132446 0.00507568 15.76132446 0.00507568 17.36694336 0.01025391 C20.61663812 0.46187655 21.82206316 1.12681661 24.16015625 3.3984375 C24.64117432 5.77128601 24.64117432 5.77128601 24.61425781 8.60424805 C24.61395569 9.66512131 24.61365356 10.72599457 24.61334229 11.8190155 C24.59269714 12.96284195 24.572052 14.1066684 24.55078125 15.28515625 C24.54512146 16.45730179 24.53946167 17.62944733 24.53363037 18.83711243 C24.51120947 22.58713328 24.46100009 26.33620461 24.41015625 30.0859375 C24.39009875 32.62563726 24.37184668 35.16535197 24.35546875 37.70507812 C24.31132586 43.93652282 24.24435607 50.16741234 24.16015625 56.3984375 C22.84015625 56.3984375 21.52015625 56.3984375 20.16015625 56.3984375 C20.16015625 50.4584375 20.16015625 44.5184375 20.16015625 38.3984375 C14.88015625 38.3984375 9.60015625 38.3984375 4.16015625 38.3984375 C4.16015625 44.3384375 4.16015625 50.2784375 4.16015625 56.3984375 C-0.12984375 56.3984375 -4.41984375 56.3984375 -8.83984375 56.3984375 C-8.9138896 48.90537695 -8.96839695 41.41252841 -9.00463867 33.91918945 C-9.0197438 31.36902152 -9.04022908 28.81887964 -9.06616211 26.26879883 C-9.10246879 22.60751931 -9.1195529 18.94658265 -9.1328125 15.28515625 C-9.14829636 14.1413298 -9.16378021 12.99750336 -9.17973328 11.8190155 C-9.17995987 10.75814224 -9.18018646 9.69726898 -9.18041992 8.60424805 C-9.18708176 7.66937057 -9.19374359 6.7344931 -9.2006073 5.77128601 C-8.83984375 3.3984375 -8.83984375 3.3984375 -7.48504639 1.59733582 C-5.02532444 -0.19512211 -3.01238098 0.00972557 0 0 Z " fill="#FEFEFE" transform="translate(302.83984375,180.6015625)"/>
<path d="M0 0 C0.99902344 0.00128906 1.99804688 0.00257813 3.02734375 0.00390625 C4.05988281 0.03613281 5.09242188 0.06835938 6.15625 0.1015625 C7.18878906 0.09511719 8.22132813 0.08867187 9.28515625 0.08203125 C13.88587073 0.14733171 16.82422687 0.22199401 20.8125 2.640625 C24.48300985 6.79327809 23.90947279 10.72387273 23.96875 16.0390625 C23.99775391 16.89435547 24.02675781 17.74964844 24.05664062 18.63085938 C24.09913075 22.85045582 24.03899023 25.11181067 21.76171875 28.76953125 C18.3436527 31.94662047 16.23366277 31.82607147 11.65625 31.7265625 C11.98423584 32.37729736 12.31222168 33.02803223 12.65014648 33.69848633 C14.1334386 36.64429763 15.61362799 39.5916572 17.09375 42.5390625 C17.61001953 43.56322266 18.12628906 44.58738281 18.65820312 45.64257812 C19.15126953 46.62548828 19.64433594 47.60839844 20.15234375 48.62109375 C20.60794678 49.52706299 21.0635498 50.43303223 21.53295898 51.36645508 C22.65625 53.7265625 22.65625 53.7265625 23.65625 56.7265625 C22.00625 56.7265625 20.35625 56.7265625 18.65625 56.7265625 C17.0236417 53.68892161 15.40155892 50.64577927 13.78125 47.6015625 C13.32105469 46.745625 12.86085937 45.8896875 12.38671875 45.0078125 C10.07649407 40.65521528 8.01508566 36.49029672 6.65625 31.7265625 C5.66625 31.7265625 4.67625 31.7265625 3.65625 31.7265625 C3.65625 39.9765625 3.65625 48.2265625 3.65625 56.7265625 C-0.96375 56.7265625 -5.58375 56.7265625 -10.34375 56.7265625 C-10.4675155 49.71572281 -10.55817045 42.70552154 -10.6184082 35.69384766 C-10.64352409 33.30962036 -10.67762324 30.92546985 -10.72094727 28.54150391 C-10.78172447 25.11080971 -10.80998993 21.68113506 -10.83203125 18.25 C-10.85783768 17.18727875 -10.8836441 16.1245575 -10.91023254 15.02963257 C-10.91335915 6.74578897 -10.91335915 6.74578897 -8.1472168 3.05175781 C-5.08450718 0.51154651 -3.90930533 -0.02573742 0 0 Z " fill="#F8F8F8" transform="translate(148.34375,180.2734375)"/>
<path d="M0 0 C1.875 1.875 1.875 1.875 3 4 C1.85825883 7.42522351 1.2453248 7.72997762 -1.6484375 9.640625 C-6.34396516 13.03845677 -9.34054881 17.02523818 -12.625 21.75 C-13.83255774 23.43638552 -15.04225467 25.12124096 -16.25390625 26.8046875 C-16.86766113 27.6615918 -17.48141602 28.51849609 -18.11376953 29.40136719 C-21.17923146 33.62461037 -24.36082919 37.75454436 -27.5625 41.875 C-28.13371582 42.61717773 -28.70493164 43.35935547 -29.29345703 44.12402344 C-32.32289309 48.01785858 -35.42180218 51.60171156 -39 55 C-42.43614942 50.01569534 -45.7013157 44.94387792 -48.8125 39.75 C-49.39644531 38.77546875 -49.98039063 37.8009375 -50.58203125 36.796875 C-51.93404579 34.13009151 -52.58632421 31.94408226 -53 29 C-52.01 28.67 -51.02 28.34 -50 28 C-48.60287726 26.04402816 -47.26220093 24.04563599 -46 22 C-39.36964011 23.39667303 -32.32379026 26.69353014 -28 32 C-28.96993819 28.44560626 -29.77447972 27.16148752 -32.8203125 24.98046875 C-34.45613281 24.09294922 -34.45613281 24.09294922 -36.125 23.1875 C-37.22070312 22.58292969 -38.31640625 21.97835938 -39.4453125 21.35546875 C-40.70988281 20.68451172 -40.70988281 20.68451172 -42 20 C-40.46302543 15.90768733 -37.56515471 13.68989378 -34.1875 11.125 C-33.66607422 10.69703125 -33.14464844 10.2690625 -32.60742188 9.828125 C-31.04296875 8.6328125 -31.04296875 8.6328125 -28 7 C-24.09386184 7.77424199 -21.64583279 9.91535514 -18.75 12.5625 C-18.06421875 13.18253906 -17.3784375 13.80257813 -16.671875 14.44140625 C-15.76990396 15.28226243 -14.87194922 16.12805078 -14 17 C-14.56002416 13.46340908 -15.67774324 12.04440308 -18.4375 9.8125 C-19.36369141 9.04873047 -19.36369141 9.04873047 -20.30859375 8.26953125 C-21.98279746 6.93391424 -21.98279746 6.93391424 -24 6 C-24 5.34 -24 4.68 -24 4 C-20.94233206 3.12785392 -17.87830844 2.28054142 -14.8125 1.4375 C-13.94818359 1.19064453 -13.08386719 0.94378906 -12.19335938 0.68945312 C-4.00507492 -1.53801123 -4.00507492 -1.53801123 0 0 Z " fill="#C7C8C8" transform="translate(255,5)"/>
<path d="M0 0 C0.99902344 -0.00644531 1.99804688 -0.01289063 3.02734375 -0.01953125 C4.57615234 0.00947266 4.57615234 0.00947266 6.15625 0.0390625 C7.18878906 0.01972656 8.22132812 0.00039062 9.28515625 -0.01953125 C16.82609863 0.02911999 16.82609863 0.02911999 20.8125 3.078125 C23.29127847 6.55471683 23.78055866 8.18368506 23.76977539 12.38916016 C23.76969986 13.37002594 23.76962433 14.35089172 23.76954651 15.36148071 C23.76438522 16.42297333 23.75922394 17.48446594 23.75390625 18.578125 C23.7524913 19.66290131 23.75107635 20.74767761 23.74961853 21.86532593 C23.74400802 25.3399325 23.73145372 28.81447531 23.71875 32.2890625 C23.71373635 34.64062407 23.70917321 36.99218665 23.70507812 39.34375 C23.69403518 45.11720936 23.67728679 50.89063138 23.65625 56.6640625 C22.00625 56.6640625 20.35625 56.6640625 18.65625 56.6640625 C18.63119385 55.4272876 18.6061377 54.1905127 18.58032227 52.91625977 C18.48642747 48.34469537 18.38616371 43.77328932 18.28393555 39.2019043 C18.24051856 37.22017104 18.19884863 35.23839872 18.15893555 33.2565918 C18.10139617 30.4144308 18.03765555 27.57246767 17.97265625 24.73046875 C17.95594376 23.83880508 17.93923126 22.94714142 17.92201233 22.02845764 C18.219663 18.02457855 18.219663 18.02457855 16.65625 14.6640625 C14.65825428 14.56532434 12.65667842 14.53434451 10.65625 14.5390625 C9.563125 14.53648437 8.47 14.53390625 7.34375 14.53125 C4.73794646 14.35858495 4.73794646 14.35858495 3.65625 15.6640625 C3.4958944 18.69213294 3.39664552 21.69991704 3.33984375 24.73046875 C3.31906265 25.63909164 3.29828156 26.54771454 3.27687073 27.48387146 C3.21127328 30.39802196 3.1524432 33.31226554 3.09375 36.2265625 C3.05057446 38.19727541 3.00696049 40.16797876 2.96289062 42.13867188 C2.85558157 46.98037238 2.75434325 51.82216687 2.65625 56.6640625 C-1.63375 56.6640625 -5.92375 56.6640625 -10.34375 56.6640625 C-10.46739115 49.4924956 -10.55811178 42.32154969 -10.6184082 35.14916992 C-10.64354496 32.70960686 -10.67765946 30.27011905 -10.72094727 27.83081055 C-10.78163229 24.32321604 -10.809969 20.8166176 -10.83203125 17.30859375 C-10.85783768 16.21883743 -10.8836441 15.12908112 -10.91023254 14.00630188 C-10.91301366 6.48983332 -10.91301366 6.48983332 -8.1472168 2.4777832 C-5.1098451 0.51273623 -3.58000893 0.02229543 0 0 Z " fill="#F8F8F8" transform="translate(71.34375,180.3359375)"/>
<path d="M0 0 C2.88916016 -0.34057617 2.88916016 -0.34057617 6.5390625 -0.29296875 C8.49199219 -0.2784668 8.49199219 -0.2784668 10.484375 -0.26367188 C11.86458923 -0.23860388 13.24479756 -0.21320902 14.625 -0.1875 C16.01300663 -0.17245517 17.40102867 -0.15876641 18.7890625 -0.14648438 C22.19287389 -0.11102801 25.5964849 -0.05721974 29 0 C29 4.29 29 8.58 29 13 C27.64003906 13.06058594 26.28007812 13.12117187 24.87890625 13.18359375 C23.10675903 13.26798171 21.33462423 13.35263058 19.5625 13.4375 C18.66466797 13.47681641 17.76683594 13.51613281 16.84179688 13.55664062 C15.56079102 13.61948242 15.56079102 13.61948242 14.25390625 13.68359375 C13.46314697 13.72025146 12.6723877 13.75690918 11.85766602 13.79467773 C9.98598559 13.80563257 9.98598559 13.80563257 9 15 C8.91148471 17.59359322 8.88474055 20.16039691 8.90234375 22.75390625 C8.90446617 23.91707619 8.90446617 23.91707619 8.90663147 25.10374451 C8.91224655 27.59003494 8.92480154 30.0762366 8.9375 32.5625 C8.94251306 34.24413933 8.9470763 35.92578006 8.95117188 37.60742188 C8.96222087 41.73831566 8.97949555 45.86914276 9 50 C13.95 50.33 18.9 50.66 24 51 C24 46.71 24 42.42 24 38 C20.37 38 16.74 38 13 38 C13 36.35 13 34.7 13 33 C17.95 33 22.9 33 28 33 C28 40.59 28 48.18 28 56 C23.7818576 56.06889888 19.56566905 56.12861776 15.34741211 56.16479492 C13.91277448 56.17987589 12.47818292 56.2003438 11.04370117 56.22631836 C8.98084141 56.26273437 6.91859142 56.27973243 4.85546875 56.29296875 C3.61434326 56.3086792 2.37321777 56.32438965 1.09448242 56.34057617 C-2 56 -2 56 -3.67211914 54.76391602 C-5.37313207 52.50434286 -5.36367582 51.24722527 -5.34057617 48.43676758 C-5.34034958 47.51603958 -5.34012299 46.59531158 -5.33988953 45.64668274 C-5.32440567 44.65597275 -5.30892181 43.66526276 -5.29296875 42.64453125 C-5.28872391 41.62775803 -5.28447906 40.6109848 -5.28010559 39.56340027 C-5.26329997 36.31283188 -5.22564382 33.0628813 -5.1875 29.8125 C-5.17245562 27.61003499 -5.15876679 25.40756027 -5.14648438 23.20507812 C-5.11339036 17.80317428 -5.06317223 12.40163128 -5 7 C-4.67 8.32 -4.34 9.64 -4 11 C-3.34 11 -2.68 11 -2 11 C-1.9175 10.4225 -1.835 9.845 -1.75 9.25 C-0.79468987 6.3840696 0.78469173 5.0009236 3 3 C1.35 3 -0.3 3 -2 3 C-1.34 2.01 -0.68 1.02 0 0 Z " fill="#FBFBFB" transform="translate(221,181)"/>
<path d="M0 0 C2.14549069 3.21823603 2.80896176 5.62942721 3.6875 9.375 C3.95949219 10.49648437 4.23148437 11.61796875 4.51171875 12.7734375 C5.37198664 18.45808772 3.64737241 21.99617987 0.82421875 26.890625 C0.15838132 28.07075221 -0.50585221 29.25178541 -1.16870117 30.43359375 C-1.69347549 31.36534424 -1.69347549 31.36534424 -2.22885132 32.31591797 C-9.63718105 45.53820823 -15.33590724 58.87826785 -20.10473633 73.25878906 C-20.33238678 73.93266663 -20.56003723 74.60654419 -20.79458618 75.30084229 C-21.40486447 77.11793586 -21.9955723 78.94156979 -22.5847168 80.765625 C-24.51866889 85.18532439 -26.90466033 89.10948064 -31.5 91.0625 C-34.93588216 90.97660295 -36.33696323 90.18505582 -39 88 C-43.11638026 81.88321896 -45.28725761 75.00592993 -47.74536133 68.10714722 C-53.22819973 52.79763803 -59.44080192 37.79559076 -68.25244141 24.0456543 C-70.82509702 19.9766355 -71.4039791 17.64228998 -70.375 12.9375 C-70.1584375 11.91011719 -69.941875 10.88273437 -69.71875 9.82421875 C-68.95449372 6.82119001 -68.12384669 3.88989149 -67 1 C-66.01 1.33 -65.02 1.66 -64 2 C-64.165 2.94875 -64.33 3.8975 -64.5 4.875 C-64.67749149 6.24864462 -64.84326291 7.62383276 -65 9 C-65.08934814 9.68513672 -65.17869629 10.37027344 -65.27075195 11.07617188 C-65.84595707 19.48956581 -62.23479238 26.24708219 -58.6875 33.625 C-57.78869078 35.53826604 -56.8952853 37.45398619 -56.00247192 39.37005615 C-55.16044511 41.1756841 -54.31344773 42.97899149 -53.46630859 44.78222656 C-51.78479481 48.47226181 -50.33510729 52.17301376 -49 56 C-49.21438721 55.34733154 -49.42877441 54.69466309 -49.6496582 54.0222168 C-51.84436283 46.79790087 -52.37557578 40.33070866 -52.1875 32.8125 C-52.16719727 31.24145508 -52.16719727 31.24145508 -52.14648438 29.63867188 C-52.1115968 27.09187876 -52.0625887 24.54623675 -52 22 C-50.29159719 23.63412443 -49.06546953 24.86906094 -48 27 C-48.04264392 28.71855015 -48.09087879 30.43713688 -48.16674805 32.15454102 C-48.51743302 41.50785424 -47.34866383 50.36341348 -45.6875 59.5625 C-45.47448242 60.75085449 -45.26146484 61.93920898 -45.04199219 63.16357422 C-43.10816537 74.42618972 -43.10816537 74.42618972 -38.1875 84.5625 C-35.20827621 86.52027563 -33.49745821 86.5829097 -30 86 C-25.85706786 83.12296379 -25.11387733 79.77375999 -24 75 C-23.69578125 73.82824219 -23.3915625 72.65648437 -23.078125 71.44921875 C-19.69305738 57.89958864 -17.39723784 44.37476151 -18.15234375 30.3984375 C-17.98599616 26.68760672 -17.17901772 24.95440844 -15 22 C-14 25 -14 25 -14.5 27.875 C-15.01359823 31.08498891 -14.63787374 32.86147631 -14 36 C-13.91066046 37.85248174 -13.86984109 39.7078724 -13.875 41.5625 C-13.87113281 42.95662109 -13.87113281 42.95662109 -13.8671875 44.37890625 C-13.98747753 46.75286528 -14.38885256 48.71775575 -15 51 C-14.75354736 50.42145264 -14.50709473 49.84290527 -14.25317383 49.24682617 C-13.52056541 47.52840209 -12.7869167 45.8104213 -12.05249023 44.09277344 C-11.22149735 42.14577299 -10.39422145 40.19718216 -9.57055664 38.24707031 C-7.53646151 33.45727304 -5.41066546 28.83178919 -2.9375 24.25 C-0.10378178 18.26340757 -0.64847892 11.99697669 -0.921875 5.52734375 C-1 2 -1 2 0 0 Z " fill="#989899" transform="translate(227,74)"/>
<path d="M0 0 C0.66022156 0.00565979 1.32044312 0.01131958 2.00067139 0.01715088 C4.10015763 0.0394627 6.1979087 0.08964186 8.296875 0.140625 C9.7239336 0.16069706 11.15101908 0.17894661 12.578125 0.1953125 C16.06890719 0.23590299 19.55595981 0.3141816 23.046875 0.390625 C23.046875 4.680625 23.046875 8.970625 23.046875 13.390625 C18.096875 13.390625 13.146875 13.390625 8.046875 13.390625 C8.046875 27.580625 8.046875 41.770625 8.046875 56.390625 C6.726875 56.390625 5.406875 56.390625 4.046875 56.390625 C4.046875 42.200625 4.046875 28.010625 4.046875 13.390625 C-0.903125 13.390625 -5.853125 13.390625 -10.953125 13.390625 C-11.44397927 5.04610239 -11.44397927 5.04610239 -9.36328125 2.26757812 C-6.11241386 -0.26409413 -4.08739455 -0.06927787 0 0 Z " fill="#FCFCFC" transform="translate(342.953125,180.609375)"/>
<path d="M0 0 C4.62 0 9.24 0 14 0 C16.49267739 2.49267739 16.23671944 3.95786199 16.25224304 7.35913086 C16.24505753 8.08624268 16.23787201 8.81335449 16.23046875 9.5625 C16.22978142 10.68313843 16.22978142 10.68313843 16.2290802 11.82641602 C16.22605775 13.40675443 16.21817164 14.98708986 16.20581055 16.56738281 C16.1875727 18.9903414 16.18530073 21.41291749 16.18554688 23.8359375 C16.18063092 25.36979498 16.17480226 26.90364986 16.16796875 28.4375 C16.16685593 29.16461182 16.1657431 29.89172363 16.16459656 30.64086914 C16.11607343 35.76785315 16.11607343 35.76785315 15 38 C10.05 38 5.1 38 0 38 C0 25.46 0 12.92 0 0 Z " fill="#050505" transform="translate(113,194)"/>
<path d="M0 0 C1.0725 0.00515625 2.145 0.0103125 3.25 0.015625 C4.85875 0.00789062 4.85875 0.00789062 6.5 0 C9.25 0.265625 9.25 0.265625 11.25 2.265625 C11.43737649 4.90678613 11.50569866 7.4411648 11.48046875 10.08203125 C11.47978142 11.23952126 11.47978142 11.23952126 11.4790802 12.4203949 C11.47605787 14.05200742 11.46817213 15.68361705 11.45581055 17.31518555 C11.43754787 19.821555 11.43530088 22.32755533 11.43554688 24.83398438 C11.43063198 26.41666988 11.42480379 27.99935287 11.41796875 29.58203125 C11.41685593 30.33617813 11.4157431 31.09032501 11.41459656 31.86732483 C11.36605119 37.14957381 11.36605119 37.14957381 10.25 38.265625 C7.89686445 38.33834241 5.54166332 38.34933368 3.1875 38.328125 C1.89714844 38.31910156 0.60679687 38.31007812 -0.72265625 38.30078125 C-1.72167969 38.28917969 -2.72070312 38.27757812 -3.75 38.265625 C-5.27264109 35.22034281 -4.91285537 32.04417254 -4.91796875 28.703125 C-4.92129715 27.95603271 -4.92462555 27.20894043 -4.92805481 26.43920898 C-4.93311966 24.85889299 -4.93546327 23.27856629 -4.93530273 21.69824219 C-4.93749134 19.27521257 -4.95565701 16.85263664 -4.97460938 14.4296875 C-4.97754292 12.8958349 -4.97952798 11.36198012 -4.98046875 9.828125 C-4.98765427 9.10101318 -4.99483978 8.37390137 -5.00224304 7.62475586 C-4.96963404 0.48002147 -4.96963404 0.48002147 0 0 Z " fill="#060606" transform="translate(194.75,193.734375)"/>
<path d="M0 0 C1.0725 0.00515625 2.145 0.0103125 3.25 0.015625 C4.85875 0.00789062 4.85875 0.00789062 6.5 0 C9.25 0.265625 9.25 0.265625 11.25 2.265625 C11.43737649 4.90678613 11.50569866 7.4411648 11.48046875 10.08203125 C11.47978142 11.23952126 11.47978142 11.23952126 11.4790802 12.4203949 C11.47605787 14.05200742 11.46817213 15.68361705 11.45581055 17.31518555 C11.43754787 19.821555 11.43530088 22.32755533 11.43554688 24.83398438 C11.43063198 26.41666988 11.42480379 27.99935287 11.41796875 29.58203125 C11.41685593 30.33617813 11.4157431 31.09032501 11.41459656 31.86732483 C11.36605119 37.14957381 11.36605119 37.14957381 10.25 38.265625 C7.89686445 38.33834241 5.54166332 38.34933368 3.1875 38.328125 C1.89714844 38.31910156 0.60679687 38.31007812 -0.72265625 38.30078125 C-1.72167969 38.28917969 -2.72070312 38.27757812 -3.75 38.265625 C-5.27264109 35.22034281 -4.91285537 32.04417254 -4.91796875 28.703125 C-4.92129715 27.95603271 -4.92462555 27.20894043 -4.92805481 26.43920898 C-4.93311966 24.85889299 -4.93546327 23.27856629 -4.93530273 21.69824219 C-4.93749134 19.27521257 -4.95565701 16.85263664 -4.97460938 14.4296875 C-4.97754292 12.8958349 -4.97952798 11.36198012 -4.98046875 9.828125 C-4.98765427 9.10101318 -4.99483978 8.37390137 -5.00224304 7.62475586 C-4.96963404 0.48002147 -4.96963404 0.48002147 0 0 Z " fill="#050505" transform="translate(272.75,193.734375)"/>
<path d="M0 0 C1.27875 0.00257813 2.5575 0.00515625 3.875 0.0078125 C5.15375 0.00523437 6.4325 0.00265625 7.75 0 C10.875 0.1328125 10.875 0.1328125 11.875 1.1328125 C11.97360131 2.53629985 12.00578937 3.94461727 12.0078125 5.3515625 C12.00974609 6.62580078 12.00974609 6.62580078 12.01171875 7.92578125 C12.00785156 8.81910156 12.00398438 9.71242187 12 10.6328125 C12.00580078 11.97279297 12.00580078 11.97279297 12.01171875 13.33984375 C12.01042969 14.18933594 12.00914062 15.03882813 12.0078125 15.9140625 C12.00668457 16.69845703 12.00555664 17.48285156 12.00439453 18.29101562 C11.875 20.1328125 11.875 20.1328125 10.875 21.1328125 C8.34450598 21.20594817 5.84195163 21.22528777 3.3125 21.1953125 C2.60158203 21.19080078 1.89066406 21.18628906 1.15820312 21.18164062 C-0.60290013 21.16982114 -2.36396036 21.15188513 -4.125 21.1328125 C-4.15388146 17.82033063 -4.17175799 14.50788083 -4.1875 11.1953125 C-4.19587891 10.24978516 -4.20425781 9.30425781 -4.21289062 8.33007812 C-4.21611328 7.43095703 -4.21933594 6.53183594 -4.22265625 5.60546875 C-4.22789307 4.77281494 -4.23312988 3.94016113 -4.23852539 3.08227539 C-4.04653359 -0.21461614 -3.37229975 0.14332274 0 0 Z " fill="#0C0C0C" transform="translate(311.125,193.8671875)"/>
<path d="M0 0 C1.1859375 0.00257813 2.371875 0.00515625 3.59375 0.0078125 C4.7796875 0.00523437 5.965625 0.00265625 7.1875 0 C10.09375 0.1328125 10.09375 0.1328125 11.09375 1.1328125 C11.18044432 2.6215311 11.20078494 4.1142575 11.19140625 5.60546875 C11.18818359 6.50458984 11.18496094 7.40371094 11.18164062 8.33007812 C11.17326172 9.27560547 11.16488281 10.22113281 11.15625 11.1953125 C11.15173828 12.14470703 11.14722656 13.09410156 11.14257812 14.07226562 C11.13075128 16.42580781 11.11281521 18.77931782 11.09375 21.1328125 C6.14375 21.1328125 1.19375 21.1328125 -3.90625 21.1328125 C-3.93308436 17.82025924 -3.9530078 14.50792067 -3.96875 11.1953125 C-3.97712891 10.24978516 -3.98550781 9.30425781 -3.99414062 8.33007812 C-3.99736328 7.43095703 -4.00058594 6.53183594 -4.00390625 5.60546875 C-4.00914307 4.77281494 -4.01437988 3.94016113 -4.01977539 3.08227539 C-3.83393671 -0.10895444 -3.241326 0.14812511 0 0 Z " fill="#080808" transform="translate(39.90625,193.8671875)"/>
<path d="M0 0 C2.14453125 0.13671875 2.14453125 0.13671875 4.8125 0.6875 C6.27042969 0.98333984 6.27042969 0.98333984 7.7578125 1.28515625 C13.18216349 2.48112761 18.5968518 3.71149089 24 5 C21.56390864 7.51137895 19.10384453 9.71142288 16.3125 11.8125 C13.35373674 14.28445819 13.03019956 14.87517514 12.0625 18.875 C12.041875 19.90625 12.02125 20.9375 12 22 C9.52625431 19.59496947 7.19773396 17.26364528 5.125 14.5 C2.41467367 11.31138079 -0.53179362 9.33436968 -4 7 C-2.92598892 4.08482708 -2.22189824 2.22189824 0 0 Z " fill="#707173" transform="translate(134,4)"/>
<path d="M0 0 C1.875 1.875 1.875 1.875 3 4 C1.84886009 7.45341972 1.1068256 7.84642358 -1.8125 9.8125 C-5.59941935 12.51550683 -7.57523238 15.08306769 -10 19 C-10.66 19 -11.32 19 -12 19 C-12.350625 18.13375 -12.70125 17.2675 -13.0625 16.375 C-15.66976877 11.83330601 -19.28270741 8.3586463 -24 6 C-24 5.34 -24 4.68 -24 4 C-20.94233206 3.12785392 -17.87830844 2.28054142 -14.8125 1.4375 C-13.94818359 1.19064453 -13.08386719 0.94378906 -12.19335938 0.68945312 C-4.00507492 -1.53801123 -4.00507492 -1.53801123 0 0 Z " fill="#DDDDDD" transform="translate(255,5)"/>
<path d="M0 0 C2.20959253 0.15109093 4.42300047 0.24873801 6.63671875 0.31640625 C8.58481445 0.37924805 8.58481445 0.37924805 10.57226562 0.44335938 C11.94400761 0.48316987 13.31575244 0.52288216 14.6875 0.5625 C16.07097645 0.60570835 17.45444027 0.64932339 18.83789062 0.69335938 C22.22515719 0.79958028 25.61249799 0.90162358 29 1 C29 1.33 29 1.66 29 2 C19.43 2.33 9.86 2.66 0 3 C1.44754255 4.44754255 3.03962913 4.55733561 5 5 C2.70507812 6.80664062 2.70507812 6.80664062 0.41015625 8.61328125 C-1.27155077 10.05683091 -1.27155077 10.05683091 -2 13 C-2.66 13 -3.32 13 -4 13 C-4.33 26.2 -4.66 39.4 -5 53 C-5.33 53 -5.66 53 -6 53 C-6.02529589 46.34310718 -6.04284396 39.6862267 -6.05493164 33.02929688 C-6.05996926 30.76334164 -6.06679952 28.49738967 -6.07543945 26.23144531 C-6.08752996 22.97980953 -6.09323392 19.72821661 -6.09765625 16.4765625 C-6.10281754 15.45881744 -6.10797882 14.44107239 -6.11329651 13.39248657 C-6.11337204 12.45166229 -6.11344757 11.51083801 -6.11352539 10.54150391 C-6.115746 9.71099518 -6.11796661 8.88048645 -6.12025452 8.02481079 C-6 6 -6 6 -5 4 C-6.65 4.33 -8.3 4.66 -10 5 C-10 20.84 -10 36.68 -10 53 C-10.33 53 -10.66 53 -11 53 C-11.00808685 52.40531418 -11.01617371 51.81062836 -11.02450562 51.19792175 C-11.11045549 45.01738829 -11.20995473 38.83717911 -11.31738281 32.65698242 C-11.35570416 30.34942056 -11.39055141 28.04179832 -11.421875 25.73413086 C-11.46745682 22.42019037 -11.52546288 19.10666673 -11.5859375 15.79296875 C-11.60326431 14.24128242 -11.60326431 14.24128242 -11.62094116 12.6582489 C-11.64081085 11.6974794 -11.66068054 10.7367099 -11.68115234 9.74682617 C-11.69447601 8.90077316 -11.70779968 8.05472015 -11.7215271 7.18302917 C-11.87258289 4.70908991 -11.87258289 4.70908991 -14 2 C-12.23225581 1.46877637 -10.46065917 0.95035927 -8.6875 0.4375 C-7.70136719 0.14746094 -6.71523437 -0.14257812 -5.69921875 -0.44140625 C-3 -1 -3 -1 0 0 Z " fill="#484848" transform="translate(221,179)"/>
<path d="M0 0 C2.14549069 3.21823603 2.80896176 5.62942721 3.6875 9.375 C3.95949219 10.49648437 4.23148438 11.61796875 4.51171875 12.7734375 C5.40584666 18.68183475 3.42719128 22.42266243 0.578125 27.55859375 C-0.12517031 28.84561007 -0.8282893 30.13272276 -1.53125 31.41992188 C-2.63125792 33.41562971 -3.73442659 35.40949084 -4.84179688 37.40112305 C-9.36387466 45.55905767 -13.15887516 53.487586 -16.00097656 62.38696289 C-17 65 -17 65 -19 66 C-17.10453514 55.3853968 -13.18710934 45.29426422 -8.3828125 35.671875 C-3.18880247 25.17443961 0.26423253 16.97145743 -0.74609375 5.140625 C-1 2 -1 2 0 0 Z " fill="#B8B8B8" transform="translate(227,74)"/>
<path d="M0 0 C1.08152344 -0.01417969 2.16304687 -0.02835938 3.27734375 -0.04296875 C6.0625 0.1875 6.0625 0.1875 8.0625 2.1875 C8.2578125 4.7890625 8.2578125 4.7890625 8.1875 7.8125 C8.16945312 8.81539062 8.15140625 9.81828125 8.1328125 10.8515625 C8.09800781 12.00785156 8.09800781 12.00785156 8.0625 13.1875 C5.17834117 14.62957941 2.64528472 14.28144887 -0.5625 14.25 C-1.75101563 14.24097656 -2.93953125 14.23195312 -4.1640625 14.22265625 C-5.07929688 14.21105469 -5.99453125 14.19945312 -6.9375 14.1875 C-6.96435938 12.04173363 -6.98383088 9.89587355 -7 7.75 C-7.01160156 6.55503906 -7.02320313 5.36007813 -7.03515625 4.12890625 C-6.8645196 -1.01066976 -4.59242306 0.02730335 0 0 Z " fill="#0A0A0A" transform="translate(158.9375,193.8125)"/>
<path d="M0 0 C0.99 0.33 1.98 0.66 3 1 C2.835 1.94875 2.67 2.8975 2.5 3.875 C2.32318306 5.24873161 2.15733975 6.62390154 2 8 C1.90847656 8.67933594 1.81695312 9.35867187 1.72265625 10.05859375 C1.11234806 18.64756513 4.90397318 25.59506464 8.5 33.125 C9.12803987 34.47575587 9.75435686 35.8273142 10.37890625 37.1796875 C11.89951927 40.46261433 13.44315709 43.73406971 15 47 C13.515 47.495 13.515 47.495 12 48 C11.65743164 47.33991943 11.31486328 46.67983887 10.96191406 45.99975586 C9.39274792 42.97823691 7.82139213 39.95786184 6.25 36.9375 C5.71117187 35.89916016 5.17234375 34.86082031 4.6171875 33.79101562 C4.08867187 32.77587891 3.56015625 31.76074219 3.015625 30.71484375 C2.5014502 29.72331299 1.98727539 28.73178223 1.45751953 27.71020508 C0.24086599 25.44788163 -1.05490353 23.29945532 -2.4296875 21.1328125 C-4.26002738 17.4812389 -4.23674989 15.87766967 -3.375 11.9375 C-3.1584375 10.91011719 -2.941875 9.88273437 -2.71875 8.82421875 C-1.95449372 5.82119001 -1.12384669 2.88989149 0 0 Z " fill="#898A8B" transform="translate(160,75)"/>
<path d="M0 0 C6.6 0 13.2 0 20 0 C17.54545455 8.59090909 17.54545455 8.59090909 13 12 C10.0625 12.75 10.0625 12.75 7 12 C2.67703112 8.39082365 1.11633445 5.58167224 0 0 Z " fill="#070707" transform="translate(184,149)"/>
<path d="M0 0 C1.70840281 1.63412443 2.93453047 2.86906094 4 5 C3.97671472 6.82048574 3.94737436 8.64112715 3.88500977 10.46069336 C3.58653634 19.88421288 4.74056687 28.60464254 6.6652832 37.82519531 C6.94118286 39.16275879 6.94118286 39.16275879 7.22265625 40.52734375 C7.48187866 41.71444946 7.48187866 41.71444946 7.74633789 42.92553711 C8 45 8 45 7 48 C4.99824039 44.5228055 4.28097782 41.10512245 3.5 37.1875 C2.786579 33.63202687 2.07909791 30.23331038 0.9140625 26.796875 C-0.35589585 21.52166339 -0.21219309 16.46511771 -0.125 11.0625 C-0.11597656 9.99708984 -0.10695312 8.93167969 -0.09765625 7.83398438 C-0.07423414 5.22241966 -0.04143452 2.61133063 0 0 Z " fill="#89898A" transform="translate(175,96)"/>
<path d="M0 0 C1 3 1 3 0.5 5.875 C-0.01278423 9.07990144 0.3423526 10.87034464 1 14 C1.80987053 22.40406635 0.05134255 29.19455677 -3 37 C-3.33 37 -3.66 37 -4 37 C-4.10911514 31.32601257 -3.74070036 25.81638623 -3.2109375 20.16796875 C-2.9330535 15.99456268 -3.06464793 11.86716978 -3.2578125 7.69140625 C-2.94891233 4.4666757 -1.82769845 2.63628755 0 0 Z " fill="#A5A6A6" transform="translate(212,96)"/>
<path d="M0 0 C2 1 2 1 3 2 C4.32594105 2.36162029 5.65938457 2.69728039 7 3 C5.47005208 4.20442708 3.94010417 5.40885417 2.41015625 6.61328125 C0.72844923 8.05683091 0.72844923 8.05683091 0 11 C-0.66 11 -1.32 11 -2 11 C-2.33 24.2 -2.66 37.4 -3 51 C-3.33 51 -3.66 51 -4 51 C-4.10139564 44.37985308 -4.17146336 37.75990628 -4.21972656 31.13916016 C-4.23984556 28.88680539 -4.26714408 26.63450287 -4.30175781 24.38232422 C-4.35026209 21.14537669 -4.37296605 17.90911953 -4.390625 14.671875 C-4.41127014 13.66445251 -4.43191528 12.65703003 -4.45318604 11.61907959 C-4.45544041 4.60000375 -4.45544041 4.60000375 -1.97558594 1.33300781 C-1.32364258 0.89311523 -0.67169922 0.45322266 0 0 Z " fill="#7E7E7E" transform="translate(219,181)"/>
<path d="M0 0 C0.66 0.33 1.32 0.66 2 1 C1.2265625 2.60875 1.2265625 2.60875 0.4375 4.25 C-0.9315556 7.38557897 -0.9076979 8.70959513 0 12 C-1.125 14.25 -1.125 14.25 -3 16 C-5.6875 16.25 -5.6875 16.25 -8 16 C-8.33 15.01 -8.66 14.02 -9 13 C-7.63671875 10.625 -7.63671875 10.625 -5.6875 8 C-5.05199219 7.13375 -4.41648438 6.2675 -3.76171875 5.375 C-3.18035156 4.59125 -2.59898437 3.8075 -2 3 C-1.34 2.01 -0.68 1.02 0 0 Z " fill="#B5B6B6" transform="translate(224,75)"/>
<path d="M0 0 C0.66 0 1.32 0 2 0 C3.7265625 2.1171875 3.7265625 2.1171875 5.625 4.875 C6.25664062 5.77992187 6.88828125 6.68484375 7.5390625 7.6171875 C9 10 9 10 9 12 C7.02 12.33 5.04 12.66 3 13 C1.4375 11.25 1.4375 11.25 0 9 C0.375 7.0625 0.375 7.0625 1 5 C0.61432869 2.31850007 0.61432869 2.31850007 0 0 Z " fill="#8F8F91" transform="translate(164,78)"/>
<path d="M0 0 C0.66 0.66 1.32 1.32 2 2 C1.46890625 3.03898437 0.9378125 4.07796875 0.390625 5.1484375 C-3.41570903 12.64598014 -7.10954862 20.08929097 -10 28 C-11.15305016 24.54084953 -10.82906922 23.79691727 -9.63671875 20.47265625 C-9.17168945 19.16071289 -9.17168945 19.16071289 -8.69726562 17.82226562 C-8.36404297 16.91154297 -8.03082031 16.00082031 -7.6875 15.0625 C-7.36587891 14.15564453 -7.04425781 13.24878906 -6.71289062 12.31445312 C-2.80204365 1.40102182 -2.80204365 1.40102182 0 0 Z " fill="#ADADAE" transform="translate(219,112)"/>
<path d="M0 0 C-0.24020598 7.08607633 -0.24020598 7.08607633 -2.3671875 9.64453125 C-6.4092219 13 -6.4092219 13 -8 13 C-8.46001702 9.85655034 -8.48859148 7.7555072 -6.734375 5.04296875 C-2.50280041 0 -2.50280041 0 0 0 Z " fill="#656667" transform="translate(114,104)"/>
<path d="M0 0 C5.94 0 11.88 0 18 0 C15.72249908 3.41625138 14.88192461 3.9648201 11 5 C5.23942584 4.79787459 4.27565605 4.27565605 0 0 Z " fill="#808181" transform="translate(185,149)"/>
<path d="M0 0 C2 1 2 1 3 2 C4.32594105 2.36162029 5.65938457 2.69728039 7 3 C5.47005208 4.20442708 3.94010417 5.40885417 2.41015625 6.61328125 C0.72844923 8.05683091 0.72844923 8.05683091 0 11 C-0.66 11 -1.32 11 -2 11 C-2.96891192 5.62694301 -2.96891192 5.62694301 -3 3 C-1.5625 1 -1.5625 1 0 0 Z " fill="#EAEAEA" transform="translate(219,181)"/>
<path d="M0 0 C2.62901288 1.52206009 4.84365964 2.84365964 7 5 C7.125 8.125 7.125 8.125 7 11 C1.125 7.125 1.125 7.125 0 6 C-0.04080783 4.00041636 -0.04254356 1.99954746 0 0 Z " fill="#E6E6E6" transform="translate(275,106)"/>
<path d="M0 0 C3.71888239 0.50712033 6.73454239 1.11608215 10 3 C10.86625 2.2265625 10.86625 2.2265625 11.75 1.4375 C14 0 14 0 16.25 0.3125 C16.8275 0.539375 17.405 0.76625 18 1 C16.576875 1.8971875 16.576875 1.8971875 15.125 2.8125 C11.86035803 4.81562526 11.86035803 4.81562526 10 8 C9.34 8 8.68 8 8 8 C6.65576661 6.34211215 5.32381517 4.67423683 4 3 C1.87396815 1.23676495 1.87396815 1.23676495 0 0 Z " fill="#929293" transform="translate(185,140)"/>
<path d="M0 0 C0.66 0.33 1.32 0.66 2 1 C0.86180149 4.41459553 -0.24005518 5.3324158 -2.9375 7.625 C-3.64777344 8.23601563 -4.35804688 8.84703125 -5.08984375 9.4765625 C-7 11 -7 11 -9 12 C-8.52379711 7.62346871 -7.33100111 5.93461995 -3.9375 3.1875 C-3.20402344 2.58292969 -2.47054687 1.97835938 -1.71484375 1.35546875 C-1.14894531 0.90816406 -0.58304688 0.46085938 0 0 Z " fill="#0F0F10" transform="translate(155,11)"/>
<path d="M0 0 C0.66 0.33 1.32 0.66 2 1 C0.84625622 4.46123134 -0.03672292 5.01149848 -2.9375 7.0625 C-5.14442927 8.63658929 -7.07911204 10.07911204 -9 12 C-9 9.375 -9 9.375 -8 6 C-5.53417612 3.68535771 -2.84145506 1.8252627 0 0 Z " fill="#0D0D0D" transform="translate(169,27)"/>
<path d="M0 0 C1.9375 0.3125 1.9375 0.3125 4 1 C4.33 1.99 4.66 2.98 5 4 C4.67 4.66 4.34 5.32 4 6 C1.69 6 -0.62 6 -3 6 C-2.01 4.02 -1.02 2.04 0 0 Z " fill="#0B0B0B" transform="translate(242,174)"/>
<path d="M0 0 C-1 2 -1 2 -3.8125 3.125 C-7 4 -7 4 -11 4 C-11.66 3.01 -12.32 2.02 -13 1 C-11.39796533 0.63631108 -9.79325797 0.28438048 -8.1875 -0.0625 C-7.29417969 -0.25972656 -6.40085938 -0.45695312 -5.48046875 -0.66015625 C-3 -1 -3 -1 0 0 Z " fill="#979898" transform="translate(203,35)"/>
<path d="M0 0 C-0.763125 0.556875 -1.52625 1.11375 -2.3125 1.6875 C-4.96431181 3.96929156 -6.31955095 5.97519171 -8 9 C-8.33 9 -8.66 9 -9 9 C-9.36337162 5.72965541 -9.28544288 4.39116247 -7.3125 1.6875 C-4.60883753 -0.28544288 -3.27034459 -0.36337162 0 0 Z " fill="#363636" transform="translate(343,183)"/>
<path d="M0 0 C0.185625 0.9590625 0.185625 0.9590625 0.375 1.9375 C0.684375 2.9584375 0.684375 2.9584375 1 4 C1.66 4.33 2.32 4.66 3 5 C1.68 8.3 0.36 11.6 -1 15 C-2.19126781 11.42619658 -1.7349445 9.49116698 -1.0625 5.8125 C-0.86785156 4.72582031 -0.67320312 3.63914063 -0.47265625 2.51953125 C-0.31667969 1.68808594 -0.16070312 0.85664063 0 0 Z " fill="#6F6F6F" transform="translate(207,129)"/>
<path d="M0 0 C1.11375 0.1546875 1.11375 0.1546875 2.25 0.3125 C1.486875 0.869375 0.72375 1.42625 -0.0625 2 C-2.71140888 4.27929369 -4.13288822 6.24849872 -5.75 9.3125 C-6.5 7.625 -6.5 7.625 -6.75 5.3125 C-3.87070875 0.43985327 -3.87070875 0.43985327 0 0 Z " fill="#313131" transform="translate(146.75,182.6875)"/>
<path d="M0 0 C0.33 0 0.66 0 1 0 C1.33 3.3 1.66 6.6 2 10 C1.01 10.33 0.02 10.66 -1 11 C-1 10.01 -1 9.02 -1 8 C-1.66 7.67 -2.32 7.34 -3 7 C-2.01 4.69 -1.02 2.38 0 0 Z " fill="#252525" transform="translate(225,76)"/>
<path d="M0 0 C3.27034459 -0.36337162 4.60883753 -0.28544288 7.3125 1.6875 C9.28544288 4.39116247 9.36337162 5.72965541 9 9 C8.443125 8.2575 7.88625 7.515 7.3125 6.75 C5.06972822 4.08292005 2.77925025 2.08443768 0 0 Z " fill="#272727" transform="translate(122,183)"/>
<path d="M0 0 C0.66 0.33 1.32 0.66 2 1 C0.02 3.97 -1.96 6.94 -4 10 C-5 6 -5 6 -4.00390625 4.296875 C-2.66927083 2.86458333 -1.33463542 1.43229167 0 0 Z " fill="#E2E2E2" transform="translate(143,181)"/>
<path d="M0 0 C5.94 0.99 5.94 0.99 12 2 C12 2.33 12 2.66 12 3 C11.06027344 3.09087891 11.06027344 3.09087891 10.1015625 3.18359375 C9.28429687 3.26738281 8.46703125 3.35117188 7.625 3.4375 C6.81289063 3.51871094 6.00078125 3.59992187 5.1640625 3.68359375 C2.95727195 3.89090114 2.95727195 3.89090114 1 5 C0.67 3.35 0.34 1.7 0 0 Z " fill="#7A7B7C" transform="translate(258,5)"/>
<path d="M0 0 C0.33 0.99 0.66 1.98 1 3 C-0.65 4.65 -2.3 6.3 -4 8 C-4.33 6.02 -4.66 4.04 -5 2 C-3.35 1.34 -1.7 0.68 0 0 Z " fill="#0E0E0E" transform="translate(176,184)"/>
<path d="M0 0 C0.598125 0.20625 1.19625 0.4125 1.8125 0.625 C0.31510417 1.86197917 -1.18229167 3.09895833 -2.6796875 4.3359375 C-3.89801161 5.37750992 -5.05410097 6.49160097 -6.1875 7.625 C-5.875 4.75 -5.875 4.75 -5.1875 1.625 C-2.1875 -0.375 -2.1875 -0.375 0 0 Z " fill="#1B1B1B" transform="translate(302.1875,183.375)"/>
<path d="M0 0 C0.86625 0.37125 0.86625 0.37125 1.75 0.75 C0.986875 1.3275 0.22375 1.905 -0.5625 2.5 C-2.91200917 4.46703093 -4.54323505 6.23476744 -6.25 8.75 C-6.62010337 5.4190697 -6.52461204 4.12268777 -4.5 1.375 C-2.25 -0.25 -2.25 -0.25 0 0 Z " fill="#1F1F1F" transform="translate(263.25,183.25)"/>
<path d="M0 0 C0.598125 0.20625 1.19625 0.4125 1.8125 0.625 C0.31510417 1.86197917 -1.18229167 3.09895833 -2.6796875 4.3359375 C-3.89801161 5.37750992 -5.05410097 6.49160097 -6.1875 7.625 C-5.875 4.75 -5.875 4.75 -5.1875 1.625 C-2.1875 -0.375 -2.1875 -0.375 0 0 Z " fill="#262626" transform="translate(224.1875,183.375)"/>
<path d="M0 0 C2.875 0.3125 2.875 0.3125 6 1 C8 4 8 4 7.625 6.1875 C7.41875 6.785625 7.2125 7.38375 7 8 C5.76302083 6.50260417 4.52604167 5.00520833 3.2890625 3.5078125 C2.24749008 2.28948839 1.13339903 1.13339903 0 0 Z " fill="#1B1B1B" transform="translate(84,183)"/>
<path d="M0 0 C0.66 0.33 1.32 0.66 2 1 C1.690625 1.721875 1.38125 2.44375 1.0625 3.1875 C0.07439461 5.80307309 -0.5287754 8.25118982 -1 11 C-2.55136786 8.53606281 -3.03039129 7.31910854 -2.75 4.375 C-2 2 -2 2 0 0 Z " fill="#EAEAEA" transform="translate(297,181)"/>
<path d="M0 0 C0.598125 0.226875 1.19625 0.45375 1.8125 0.6875 C0.31510417 1.92447917 -1.18229167 3.16145833 -2.6796875 4.3984375 C-3.89801161 5.44000992 -5.05410097 6.55410097 -6.1875 7.6875 C-5.82037028 4.97074005 -5.46005401 3.07686287 -3.875 0.8125 C-2.1875 -0.3125 -2.1875 -0.3125 0 0 Z " fill="#212121" transform="translate(185.1875,183.3125)"/>
<path d="M0 0 C0.78375 0.04125 1.5675 0.0825 2.375 0.125 C1.2303125 1.0221875 1.2303125 1.0221875 0.0625 1.9375 C-1.9733575 3.59459332 -3.8228279 5.22797674 -5.625 7.125 C-4.53409091 0.21590909 -4.53409091 0.21590909 0 0 Z " fill="#222222" transform="translate(30.625,182.875)"/>
<path d="M0 0 C0.66 0.33 1.32 0.66 2 1 C1.25 2.9375 1.25 2.9375 0 5 C-2.125 5.75 -2.125 5.75 -4 6 C-2.25 1.125 -2.25 1.125 0 0 Z " fill="#E6E6E6" transform="translate(336,181)"/>
<path d="M0 0 C0.99 0.33 1.98 0.66 3 1 C1.6875 3.5 1.6875 3.5 0 6 C-0.99 6 -1.98 6 -3 6 C-2.42655063 3.13275314 -2.1385485 2.1385485 0 0 Z " fill="#DFDFDF" transform="translate(258,181)"/>
<path d="M0 0 C0.99 0.33 1.98 0.66 3 1 C1.6875 3.5 1.6875 3.5 0 6 C-0.99 6 -1.98 6 -3 6 C-2.42655063 3.13275314 -2.1385485 2.1385485 0 0 Z " fill="#E1E1E1" transform="translate(180,181)"/>
<path d="M0 0 C-0.33 1.65 -0.66 3.3 -1 5 C-5.455 4.01 -5.455 4.01 -10 3 C-6.64781163 0.76520776 -4.01177204 0 0 0 Z " fill="#A1A1A2" transform="translate(130,5)"/>
<path d="M0 0 C3.25641717 3.25641717 4 7.47698969 4 12 C2 11 2 11 0.875 8.8125 C-0.08328236 5.73230669 -0.14915816 3.20690052 0 0 Z " fill="#878788" transform="translate(183,147)"/>
<path d="M0 0 C2.0625 1.75 2.0625 1.75 4 4 C3.75 6.25 3.75 6.25 3 8 C2.01 7.34 1.02 6.68 0 6 C-0.1875 2.875 -0.1875 2.875 0 0 Z " fill="#0B0B0B" transform="translate(172,194)"/>
<path d="M0 0 C1.77706209 2.66559313 2.87548273 5.0280615 4 8 C3.01 8.33 2.02 8.66 1 9 C-0.4783226 6.04335481 -0.06032783 3.25770263 0 0 Z " fill="#1B1B1B" transform="translate(162,76)"/>
<path d="M0 0 C0.66 0.33 1.32 0.66 2 1 C0.68 3.31 -0.64 5.62 -2 8 C-2.6875 6.25 -2.6875 6.25 -3 4 C-1.5625 1.75 -1.5625 1.75 0 0 Z " fill="#161717" transform="translate(163,31)"/>
</svg>
