<?xml version="1.0" encoding="UTF-8"?>
<svg version="1.1" xmlns="http://www.w3.org/2000/svg" width="374" height="154">
<path d="M0 0 C123.42 0 246.84 0 374 0 C374 50.82 374 101.64 374 154 C250.58 154 127.16 154 0 154 C0 103.18 0 52.36 0 0 Z " fill="#C4EFE5" transform="translate(0,0)"/>
<path d="M0 0 C98.67 0 197.34 0 299 0 C299 39.93 299 79.86 299 121 C262.04 121 225.08 121 187 121 C187 119.68 187 118.36 187 117 C222.64 117 258.28 117 295 117 C295 79.71 295 42.42 295 4 C198.97 4 102.94 4 4 4 C4 41.29 4 78.58 4 117 C39.64 117 75.28 117 112 117 C112 118.32 112 119.64 112 121 C75.04 121 38.08 121 0 121 C0 81.07 0 41.14 0 0 Z " fill="#59606D" transform="translate(36,5)"/>
<path d="M0 0 C1.11283607 -0.00574036 1.11283607 -0.00574036 2.24815369 -0.01159668 C3.81234092 -0.01431241 5.37657382 -0.00697477 6.94067383 0.00976562 C9.3358251 0.03121401 11.72798768 0.00994065 14.12304688 -0.015625 C15.64453787 -0.01298225 17.166027 -0.00785837 18.6875 0 C19.40317642 -0.00809692 20.11885284 -0.01619385 20.85621643 -0.02453613 C24.10773576 0.03687669 25.83174931 0.10865864 28.23999023 2.39257812 C29.47396946 4.93662567 29.51016534 6.73739095 29.27734375 9.53125 C26.30734375 9.53125 23.33734375 9.53125 20.27734375 9.53125 C20.27734375 10.85125 20.27734375 12.17125 20.27734375 13.53125 C22.75234375 14.52125 22.75234375 14.52125 25.27734375 15.53125 C25.17292969 16.11648437 25.06851563 16.70171875 24.9609375 17.3046875 C24.1818198 25.54107459 27.15562854 31.16813607 31.07592773 38.15966797 C33.4249719 42.41856088 35.06698451 45.51247553 34.27734375 50.53125 C31.07544662 53.73314713 27.37104228 52.82667548 23.00585938 52.85351562 C21.79607422 52.85029297 20.58628906 52.84707031 19.33984375 52.84375 C17.5309668 52.86791992 17.5309668 52.86791992 15.68554688 52.89257812 C13.95401367 52.89354492 13.95401367 52.89354492 12.1875 52.89453125 C11.12668213 52.89751221 10.06586426 52.90049316 8.97290039 52.90356445 C6.27734375 52.53125 6.27734375 52.53125 4.47045898 51.19604492 C3.27734375 49.53125 3.27734375 49.53125 2.27734375 46.53125 C1.14554688 46.56605469 0.01375 46.60085937 -1.15234375 46.63671875 C-2.63409978 46.66485336 -4.11587181 46.69215387 -5.59765625 46.71875 C-6.34402344 46.74388672 -7.09039062 46.76902344 -7.859375 46.79492188 C-10.02734375 46.82421875 -10.02734375 46.82421875 -13.72265625 46.53125 C-16.40192966 42.51233988 -15.87866873 40.28963077 -15.72265625 35.53125 C-14.40265625 35.53125 -13.08265625 35.53125 -11.72265625 35.53125 C-11.75407715 34.15404785 -11.75407715 34.15404785 -11.78613281 32.74902344 C-11.85440208 29.33469572 -11.9045001 25.92109557 -11.94238281 22.50634766 C-11.96246926 21.0299941 -11.98974426 19.55371981 -12.02441406 18.07763672 C-12.07306809 15.95260038 -12.09565298 13.82861766 -12.11328125 11.703125 C-12.13422852 10.4253418 -12.15517578 9.14755859 -12.17675781 7.83105469 C-11.72265625 4.53125 -11.72265625 4.53125 -10.1809082 2.11621094 C-6.83575729 -0.04057919 -3.85642319 -0.04375404 0 0 Z " fill="#BFE7DF" transform="translate(176.72265625,97.46875)"/>
<path d="M0 0 C4.29 0 8.58 0 13 0 C12.814375 1.44375 12.62875 2.8875 12.4375 4.375 C12.35523417 11.40415786 15.44753645 16.65209969 18.79858398 22.62841797 C21.14762815 26.88731088 22.78964076 29.98122553 22 35 C18.79810287 38.20189713 15.09369853 37.29542548 10.72851562 37.32226562 C9.51873047 37.31904297 8.30894531 37.31582031 7.0625 37.3125 C5.25362305 37.33666992 5.25362305 37.33666992 3.40820312 37.36132812 C2.25384766 37.36197266 1.09949219 37.36261719 -0.08984375 37.36328125 C-1.15066162 37.36626221 -2.21147949 37.36924316 -3.30444336 37.37231445 C-6 37 -6 37 -7.84008789 35.61376953 C-9 34 -9 34 -9.46875 31.81640625 C-8.77506954 27.64854282 -6.63844889 24.5361569 -4.5 20.9375 C-0.3500006 13.62378845 0.97316544 8.54222996 0 0 Z " fill="#616B76" transform="translate(189,113)"/>
<path d="M0 0 C2.63338493 2.03146837 4.0500554 3.63435306 4.48828125 6.9921875 C4.5287527 15.86892549 4.5287527 15.86892549 1.1875 19.6875 C-2.23426689 22.25382517 -5.65890421 22.05185051 -9.8125 21.6875 C-13.64382006 19.98469109 -15.2615927 18.5340234 -16.8125 14.6875 C-17.49399713 9.81400312 -17.5333758 5.90553152 -15 1.625 C-10.64230619 -2.23467166 -5.18779859 -2.42097267 0 0 Z " fill="#606472" transform="translate(150.8125,53.3125)"/>
<path d="M0 0 C14.84615385 0 14.84615385 0 19 3 C20.55024464 6.10048928 20.28992015 8.57894218 20 12 C17.86320715 15.38939556 16.8225233 16.72582557 13 18 C10.66700175 18.03954234 8.33291811 18.04401732 6 18 C6 21.3 6 24.6 6 28 C4.02 28 2.04 28 0 28 C0 18.76 0 9.52 0 0 Z " fill="#5B6474" transform="translate(108,47)"/>
<path d="M0 0 C4.95 0 9.9 0 15 0 C21.31640625 10.69921875 21.31640625 10.69921875 20 16 C16.04180389 16.08678303 12.08385066 16.14031733 8.125 16.1875 C6.99707031 16.21263672 5.86914062 16.23777344 4.70703125 16.26367188 C3.09248047 16.27817383 3.09248047 16.27817383 1.4453125 16.29296875 C-0.04718018 16.31653442 -0.04718018 16.31653442 -1.56982422 16.34057617 C-2.37178223 16.22818604 -3.17374023 16.1157959 -4 16 C-4.66 15.01 -5.32 14.02 -6 13 C-4.38523974 8.46625004 -2.13913508 4.32105286 0 0 Z " fill="#BEE6DE" transform="translate(188,132)"/>
<path d="M0 0 C3 1.625 3 1.625 5 5 C5.40952868 9.69628341 5.28626277 14.29892925 5 19 C5.99 19 6.98 19 8 19 C7.67 20.32 7.34 21.64 7 23 C2.44615385 23.36923077 2.44615385 23.36923077 0.1875 21.5 C-0.4003125 20.7575 -0.4003125 20.7575 -1 20 C-1.37125 20.495 -1.7425 20.99 -2.125 21.5 C-4 23 -4 23 -6.9375 23.4375 C-10 23 -10 23 -12.375 21.375 C-14 19 -14 19 -14.5625 16 C-14 13 -14 13 -12 10.625 C-8.00223382 8.45954332 -5.49937346 8.69495773 -1 9 C-1.33 7.68 -1.66 6.36 -2 5 C-3.32 5 -4.64 5 -6 5 C-6.33 5.66 -6.66 6.32 -7 7 C-8.98 7 -10.96 7 -13 7 C-12.64978759 4.46096004 -12.15988127 3.17906702 -10.4375 1.25 C-6.94059689 -0.54328365 -3.79121473 -0.73572088 0 0 Z " fill="#606573" transform="translate(230,52)"/>
<path d="M0 0 C1.11283607 -0.00574036 1.11283607 -0.00574036 2.24815369 -0.01159668 C3.81234092 -0.01431241 5.37657382 -0.00697477 6.94067383 0.00976562 C9.3358251 0.03121401 11.72798768 0.00994065 14.12304688 -0.015625 C15.64453787 -0.01298225 17.166027 -0.00785837 18.6875 0 C19.40317642 -0.00809692 20.11885284 -0.01619385 20.85621643 -0.02453613 C24.10773576 0.03687669 25.83174931 0.10865864 28.23999023 2.39257812 C29.47396946 4.93662567 29.51016534 6.73739095 29.27734375 9.53125 C26.30734375 9.53125 23.33734375 9.53125 20.27734375 9.53125 C20.27734375 10.52125 20.27734375 11.51125 20.27734375 12.53125 C19.61734375 12.53125 18.95734375 12.53125 18.27734375 12.53125 C18.27734375 9.56125 18.27734375 6.59125 18.27734375 3.53125 C14.13152488 3.50238249 9.98573159 3.48449673 5.83984375 3.46875 C4.65583984 3.46037109 3.47183594 3.45199219 2.25195312 3.44335938 C1.12724609 3.44013672 0.00253906 3.43691406 -1.15625 3.43359375 C-2.19837646 3.42835693 -3.24050293 3.42312012 -4.31420898 3.41772461 C-6.67394372 3.25819444 -6.67394372 3.25819444 -7.72265625 4.53125 C-7.88153717 6.82113781 -7.97403698 9.11568441 -8.0390625 11.41015625 C-8.0598436 12.0968187 -8.08062469 12.78348114 -8.10203552 13.49095154 C-8.16759768 15.69177935 -8.2264464 17.89272975 -8.28515625 20.09375 C-8.32833517 21.58269514 -8.37194925 23.07162773 -8.41601562 24.56054688 C-8.52410775 28.21732392 -8.62312999 31.87418947 -8.72265625 35.53125 C-3.77265625 35.53125 1.17734375 35.53125 6.27734375 35.53125 C6.27734375 36.19125 6.27734375 36.85125 6.27734375 37.53125 C-0.32265625 37.53125 -6.92265625 37.53125 -13.72265625 37.53125 C-13.39265625 39.84125 -13.06265625 42.15125 -12.72265625 44.53125 C-8.10265625 44.53125 -3.48265625 44.53125 1.27734375 44.53125 C1.27734375 45.19125 1.27734375 45.85125 1.27734375 46.53125 C-1.1816428 46.61201963 -3.63799367 46.67162143 -6.09765625 46.71875 C-6.79632813 46.74388672 -7.495 46.76902344 -8.21484375 46.79492188 C-10.24609375 46.82421875 -10.24609375 46.82421875 -13.72265625 46.53125 C-16.40192966 42.51233988 -15.87866873 40.28963077 -15.72265625 35.53125 C-14.40265625 35.53125 -13.08265625 35.53125 -11.72265625 35.53125 C-11.75407715 34.15404785 -11.75407715 34.15404785 -11.78613281 32.74902344 C-11.85440208 29.33469572 -11.9045001 25.92109557 -11.94238281 22.50634766 C-11.96246926 21.0299941 -11.98974426 19.55371981 -12.02441406 18.07763672 C-12.07306809 15.95260038 -12.09565298 13.82861766 -12.11328125 11.703125 C-12.13422852 10.4253418 -12.15517578 9.14755859 -12.17675781 7.83105469 C-11.72265625 4.53125 -11.72265625 4.53125 -10.1809082 2.11621094 C-6.83575729 -0.04057919 -3.85642319 -0.04375404 0 0 Z " fill="#67737D" transform="translate(176.72265625,97.46875)"/>
<path d="M0 0 C3.96 0 7.92 0 12 0 C12 8.58 12 17.16 12 26 C14.31 26 16.62 26 19 26 C19 27.32 19 28.64 19 30 C12.07 30 5.14 30 -2 30 C-2 28.68 -2 27.36 -2 26 C0.64 26 3.28 26 6 26 C6 18.74 6 11.48 6 4 C4.02 4 2.04 4 0 4 C0 2.68 0 1.36 0 0 Z " fill="#63666F" transform="translate(245,45)"/>
<path d="M0 0 C1.32 0 2.64 0 4 0 C4 1.98 4 3.96 4 6 C6.64 6 9.28 6 12 6 C12 7.32 12 8.64 12 10 C9.36 10 6.72 10 4 10 C4.33 14.62 4.66 19.24 5 24 C7.64 24.33 10.28 24.66 13 25 C12.67 26.32 12.34 27.64 12 29 C10.41820385 29.10867302 8.83422847 29.18589827 7.25 29.25 C6.36828125 29.29640625 5.4865625 29.3428125 4.578125 29.390625 C2 29 2 29 -0.3125 27.46875 C-2.61057296 24.10675437 -2.44239336 21.16446481 -2.25 17.25 C-2.23195312 16.55261719 -2.21390625 15.85523438 -2.1953125 15.13671875 C-2.14838554 13.42388461 -2.07664605 11.71176176 -2 10 C-2.99 10 -3.98 10 -5 10 C-5 8.68 -5 7.36 -5 6 C-3.68 6 -2.36 6 -1 6 C-0.67 4.02 -0.34 2.04 0 0 Z " fill="#616574" transform="translate(195,46)"/>
<path d="M0 0 C5.28 0 10.56 0 16 0 C14.86954662 7.91317365 14.86954662 7.91317365 12.1875 10.8125 C11.68605469 11.37582031 11.18460938 11.93914062 10.66796875 12.51953125 C6.99695153 15.77788143 5.07478082 16 0 16 C0 10.72 0 5.44 0 0 Z " fill="#ADD0CB" transform="translate(171,107)"/>
<path d="M0 0 C1.65 0 3.3 0 5 0 C5.66 0.66 6.32 1.32 7 2 C7.99 1.34 8.98 0.68 10 0 C12.33199388 -0.07905064 14.66832622 -0.08798769 17 0 C17 1.65 17 3.3 17 5 C15.906875 5.0825 14.81375 5.165 13.6875 5.25 C10.06914303 5.64279178 10.06914303 5.64279178 8.3125 7.625 C6.59935821 10.72497086 6.48868346 13.22633081 6.3125 16.75 C6.24675781 17.92046875 6.18101562 19.0909375 6.11328125 20.296875 C6.07589844 21.18890625 6.03851563 22.0809375 6 23 C4.02 23 2.04 23 0 23 C0 15.41 0 7.82 0 0 Z " fill="#646973" transform="translate(164,52)"/>
<path d="M0 0 C0.74330566 -0.0066568 1.48661133 -0.0133136 2.25244141 -0.02017212 C3.82256599 -0.03028826 5.39273348 -0.03498946 6.96289062 -0.03466797 C9.36660279 -0.0390472 11.768487 -0.07539 14.171875 -0.11328125 C15.69791039 -0.11914846 17.22395449 -0.12311849 18.75 -0.125 C19.82822021 -0.14655655 19.82822021 -0.14655655 20.92822266 -0.16854858 C24.19180412 -0.13861152 25.91709154 -0.09682241 28.33984375 2.19287109 C29.56964994 4.73891796 29.60784038 6.54185288 29.375 9.3359375 C26.405 9.3359375 23.435 9.3359375 20.375 9.3359375 C20.375 10.3259375 20.375 11.3159375 20.375 12.3359375 C19.715 12.3359375 19.055 12.3359375 18.375 12.3359375 C18.375 9.3659375 18.375 6.3959375 18.375 3.3359375 C14.29168161 3.30689858 10.2083898 3.28912561 6.125 3.2734375 C4.96613281 3.26505859 3.80726563 3.25667969 2.61328125 3.24804688 C1.49824219 3.24482422 0.38320312 3.24160156 -0.765625 3.23828125 C-1.79204102 3.23304443 -2.81845703 3.22780762 -3.87597656 3.22241211 C-6.30125656 3.32256799 -8.31197361 3.63670672 -10.625 4.3359375 C-10.625 3.6759375 -10.625 3.0159375 -10.625 2.3359375 C-6.98034893 -0.09382988 -4.21805671 0.01306028 0 0 Z " fill="#5C6571" transform="translate(176.625,97.6640625)"/>
<path d="M0 0 C2.5 -0.3125 2.5 -0.3125 5 0 C7 2 7 2 7.265625 4.53125 C7.26046875 5.5109375 7.2553125 6.490625 7.25 7.5 C7.25515625 8.4796875 7.2603125 9.459375 7.265625 10.46875 C7 13 7 13 5 15 C2.5 15.3125 2.5 15.3125 0 15 C-2.08133467 11.877998 -2.2737822 11.06733011 -2.25 7.5 C-2.25773438 6.33984375 -2.25773438 6.33984375 -2.265625 5.15625 C-2 3 -2 3 0 0 Z " fill="#C0ECE1" transform="translate(142,56)"/>
<path d="M0 0 C2.31 0 4.62 0 7 0 C7.06058594 0.66386719 7.12117187 1.32773438 7.18359375 2.01171875 C7.26738281 2.89472656 7.35117188 3.77773437 7.4375 4.6875 C7.51871094 5.55761719 7.59992188 6.42773438 7.68359375 7.32421875 C7.98843609 9.90220641 8.49089259 12.45446295 9 15 C5.37 15 1.74 15 -2 15 C-1.34 10.05 -0.68 5.1 0 0 Z " fill="#BEE7DF" transform="translate(192,115)"/>
<path d="M0 0 C4.29 0 8.58 0 13 0 C12.979375 1.69125 12.95875 3.3825 12.9375 5.125 C12.92696721 9.21172395 13.25853193 12.97488764 14 17 C13 18 13 18 9.83984375 18.09765625 C8.55207031 18.08605469 7.26429688 18.07445312 5.9375 18.0625 C4.64714844 18.05347656 3.35679687 18.04445312 2.02734375 18.03515625 C1.02832031 18.02355469 0.02929688 18.01195312 -1 18 C-1 17.67 -1 17.34 -1 17 C3.29 17 7.58 17 12 17 C11.34 15.35 10.68 13.7 10 12 C9.8046875 9.32421875 9.8046875 9.32421875 9.875 6.6875 C9.89304688 5.80449219 9.91109375 4.92148438 9.9296875 4.01171875 C9.96449219 3.01591797 9.96449219 3.01591797 10 2 C7.69 2 5.38 2 3 2 C3 5.3 3 8.6 3 12 C2.34 12 1.68 12 1 12 C0.67 8.04 0.34 4.08 0 0 Z " fill="#5B6370" transform="translate(189,113)"/>
<path d="M0 0 C4.78712933 -0.09886835 9.57366475 -0.17146623 14.36157227 -0.21972656 C15.99025829 -0.23984381 17.61887208 -0.26714137 19.24731445 -0.30175781 C21.58823458 -0.35027429 23.92820018 -0.37296632 26.26953125 -0.390625 C27.36186821 -0.42159271 27.36186821 -0.42159271 28.47627258 -0.45318604 C30.53833008 -0.45410156 30.53833008 -0.45410156 34 0 C35.9831543 2.02441406 35.9831543 2.02441406 37 4 C36 6 36 6 35 7 C32.66702567 7.04092937 30.33294775 7.04241723 28 7 C28.875 3.125 28.875 3.125 30 2 C15.15 1.505 15.15 1.505 0 1 C0 0.67 0 0.34 0 0 Z " fill="#68747D" transform="translate(169,98)"/>
<path d="M0 0 C0.99 0 1.98 0 3 0 C2.77110404 5.60795104 1.3841502 8.34479785 -2.33203125 12.51953125 C-5.7522072 15.55523777 -8.4720383 16.25155343 -13 16 C-13 14.35 -13 12.7 -13 11 C-12.34 11 -11.68 11 -11 11 C-11 11.66 -11 12.32 -11 13 C-4.92579973 10.85124107 -4.92579973 10.85124107 -1 6 C-0.27954633 2.84881675 -0.27954633 2.84881675 0 0 Z " fill="#6A7780" transform="translate(184,107)"/>
<path d="M0 0 C2.875 -0.125 2.875 -0.125 6 0 C8 2 8 2 8.1875 4.5625 C8 7 8 7 7 8 C4.66702567 8.04092937 2.33294775 8.04241723 0 8 C0 5.36 0 2.72 0 0 Z " fill="#C5EEE1" transform="translate(114,52)"/>
<path d="M0 0 C2.954889 3.5458668 5.45934985 7.63781033 7 12 C6.67 12.99 6.34 13.98 6 15 C4.0921945 12.6379551 2.92450182 10.79238 1.875 7.90625 C0.2313275 4.61351073 0.2313275 4.61351073 -3.57421875 4.1953125 C-4.94448986 4.14235516 -6.31621551 4.11987849 -7.6875 4.125 C-8.7403418 4.0940625 -8.7403418 4.0940625 -9.81445312 4.0625 C-11.54245468 4.01547955 -13.27136406 4.00425249 -15 4 C-15 3.67 -15 3.34 -15 3 C-14.00097656 2.95101562 -13.00195312 2.90203125 -11.97265625 2.8515625 C-10.68230469 2.77679688 -9.39195312 2.70203125 -8.0625 2.625 C-6.77472656 2.55539063 -5.48695313 2.48578125 -4.16015625 2.4140625 C-3.11730469 2.27742187 -2.07445312 2.14078125 -1 2 C-0.67 1.34 -0.34 0.68 0 0 Z " fill="#68747E" transform="translate(203,128)"/>
<path d="M0 0 C1.4540625 0.0309375 1.4540625 0.0309375 2.9375 0.0625 C2.6075 2.0425 2.2775 4.0225 1.9375 6.0625 C0.28135343 6.44468767 -1.38707024 6.77645102 -3.0625 7.0625 C-4.0625 6.0625 -4.0625 6.0625 -4.1875 3.5625 C-4.00295237 -0.12845252 -3.76342282 0.07680455 0 0 Z " fill="#BCE8DE" transform="translate(226.0625,63.9375)"/>
<path d="M0 0 C1.65 0.33 3.3 0.66 5 1 C5.33 1.99 5.66 2.98 6 4 C3.69 4 1.38 4 -1 4 C-0.67 2.68 -0.34 1.36 0 0 Z " fill="#BEE7DE" transform="translate(198,101)"/>
<path d="M0 0 C0.99 0 1.98 0 3 0 C2.25 6.75 2.25 6.75 0 9 C-1.15941038 5.52176885 -0.70820884 3.54104422 0 0 Z " fill="#707F87" transform="translate(184,107)"/>
<path d="M0 0 C0.99 0.33 1.98 0.66 3 1 C2.01 3.31 1.02 5.62 0 8 C-0.99 7.67 -1.98 7.34 -3 7 C-1.125 2.25 -1.125 2.25 0 0 Z " fill="#6D7A83" transform="translate(183,137)"/>
<path d="M0 0 C1.9375 0.75 1.9375 0.75 4 2 C4.75 4.125 4.75 4.125 5 6 C2.69 5.01 0.38 4.02 -2 3 C-1.34 2.01 -0.68 1.02 0 0 Z " fill="#77888F" transform="translate(201,98)"/>
</svg>
