<?xml version="1.0" encoding="UTF-8"?>
<svg version="1.1" xmlns="http://www.w3.org/2000/svg" width="1930" height="2070">
<path d="M0 0 C2.58286051 1.78544123 4.99575533 3.65605981 7.40625 5.66796875 C8.3653125 6.46203125 9.324375 7.25609375 10.3125 8.07421875 C10.83585938 8.50863281 11.35921875 8.94304688 11.8984375 9.390625 C15.05351024 12.00046628 18.22967025 14.58438101 21.40625 17.16796875 C22.08768066 17.72258789 22.76911133 18.27720703 23.47119141 18.84863281 C27.87095458 22.42038861 32.31058839 25.93555865 36.78125 29.41796875 C41.86730768 33.38167009 46.81008658 37.48286767 51.70874023 41.67504883 C55.51400511 44.91695321 59.39812521 48.03640102 63.34375 51.10546875 C68.62117499 55.21177562 73.81492721 59.40753765 78.96875 63.66796875 C79.68168213 64.25723145 80.39461426 64.84649414 81.12915039 65.45361328 C82.20024048 66.33895752 82.20024048 66.33895752 83.29296875 67.2421875 C92.36886432 74.74358842 101.49380089 82.17973533 110.78125 89.41796875 C115.86719746 93.38181608 120.81008028 97.48286228 125.70874023 101.67504883 C129.51400511 104.91695321 133.39812521 108.03640102 137.34375 111.10546875 C142.62117499 115.21177562 147.81492721 119.40753765 152.96875 123.66796875 C153.68168213 124.25723145 154.39461426 124.84649414 155.12915039 125.45361328 C156.20024048 126.33895752 156.20024048 126.33895752 157.29296875 127.2421875 C166.36886432 134.74358842 175.49380089 142.17973533 184.78125 149.41796875 C189.86719746 153.38181608 194.81008028 157.48286228 199.70874023 161.67504883 C203.51400511 164.91695321 207.39812521 168.03640102 211.34375 171.10546875 C216.62117499 175.21177562 221.81492721 179.40753765 226.96875 183.66796875 C227.68168213 184.25723145 228.39461426 184.84649414 229.12915039 185.45361328 C229.84321045 186.04384277 230.55727051 186.63407227 231.29296875 187.2421875 C240.36886432 194.74358842 249.49380089 202.17973533 258.78125 209.41796875 C263.86719746 213.38181608 268.81008028 217.48286228 273.70874023 221.67504883 C277.51400511 224.91695321 281.39812521 228.03640102 285.34375 231.10546875 C290.62117499 235.21177562 295.81492721 239.40753765 300.96875 243.66796875 C301.68168213 244.25723145 302.39461426 244.84649414 303.12915039 245.45361328 C303.84321045 246.04384277 304.55727051 246.63407227 305.29296875 247.2421875 C314.36886432 254.74358842 323.49380089 262.17973533 332.78125 269.41796875 C337.86719746 273.38181608 342.81008028 277.48286228 347.70874023 281.67504883 C351.51400511 284.91695321 355.39812521 288.03640102 359.34375 291.10546875 C364.62117499 295.21177562 369.81492721 299.40753765 374.96875 303.66796875 C375.68168213 304.25723145 376.39461426 304.84649414 377.12915039 305.45361328 C377.84321045 306.04384277 378.55727051 306.63407227 379.29296875 307.2421875 C388.36886432 314.74358842 397.49380089 322.17973533 406.78125 329.41796875 C411.86719746 333.38181608 416.81008028 337.48286228 421.70874023 341.67504883 C425.51400511 344.91695321 429.39812521 348.03640102 433.34375 351.10546875 C438.62117499 355.21177562 443.81492721 359.40753765 448.96875 363.66796875 C449.68168213 364.25723145 450.39461426 364.84649414 451.12915039 365.45361328 C451.84321045 366.04384277 452.55727051 366.63407227 453.29296875 367.2421875 C462.36886432 374.74358842 471.49380089 382.17973533 480.78125 389.41796875 C485.86719746 393.38181608 490.81008028 397.48286228 495.70874023 401.67504883 C499.51400511 404.91695321 503.39812521 408.03640102 507.34375 411.10546875 C512.62117499 415.21177562 517.81492721 419.40753765 522.96875 423.66796875 C523.68168213 424.25723145 524.39461426 424.84649414 525.12915039 425.45361328 C525.84321045 426.04384277 526.55727051 426.63407227 527.29296875 427.2421875 C536.36886432 434.74358842 545.49380089 442.17973533 554.78125 449.41796875 C559.86719746 453.38181608 564.81008028 457.48286228 569.70874023 461.67504883 C573.51400511 464.91695321 577.39812521 468.03640102 581.34375 471.10546875 C586.62117499 475.21177562 591.81492721 479.40753765 596.96875 483.66796875 C597.68168213 484.25723145 598.39461426 484.84649414 599.12915039 485.45361328 C599.84321045 486.04384277 600.55727051 486.63407227 601.29296875 487.2421875 C610.36886432 494.74358842 619.49380089 502.17973533 628.78125 509.41796875 C633.85662851 513.37357894 638.79659792 517.45833384 643.67578125 521.65307617 C646.54650186 524.1073488 649.45604852 526.48507475 652.44921875 528.7890625 C653.40828125 529.52769531 653.40828125 529.52769531 654.38671875 530.28125 C655.61970001 531.22441711 656.85775914 532.16099489 658.1015625 533.08984375 C661.08850834 535.37316725 663.30073307 537.19754749 664.59375 540.79296875 C659.57792644 542.32704006 654.61974807 543.38122656 649.43058777 544.1622467 C648.63261375 544.28606037 647.83463972 544.40987404 647.01248467 544.53743964 C644.33863452 544.95119188 641.66384444 545.35850837 638.98901367 545.76586914 C637.04888389 546.06472557 635.10881546 546.36398051 633.16880322 546.66359901 C627.83106728 547.48680173 622.49248447 548.30439224 617.1537528 549.12110877 C611.38695614 550.00433825 605.62097009 550.89282971 599.85488892 551.78071594 C589.81252043 553.32637413 579.76966057 554.86880538 569.72647095 556.40911865 C554.25322696 558.78229178 538.78088369 561.16130055 523.30871563 563.54147685 C517.03907683 564.50594806 510.76940991 565.47023643 504.4997406 566.43450928 C503.80258062 566.5417338 503.10542063 566.64895833 502.38713459 566.75943208 C491.61276158 568.41652251 480.83823255 570.07259598 470.06361389 571.72808838 C431.17574407 577.70319845 392.28941973 583.68825464 353.4046427 589.68345913 C351.34926932 590.00035356 349.29389507 590.31724231 347.23852062 590.63412976 C334.87888222 592.53968433 322.51926351 594.44536665 310.15967178 596.35122395 C290.84355228 599.32977014 271.52729077 602.30739401 252.2109375 605.28442383 C250.82328333 605.49828987 249.43562918 605.71215606 248.04797506 605.92602241 C242.48937595 606.78271743 236.93077631 607.63940902 231.37217593 608.49609584 C185.793348 615.52067562 140.21481224 622.54714845 94.63657624 629.57556784 C84.4879498 631.14053919 74.33930884 632.70541637 64.19065857 634.27023315 C63.4804897 634.37973411 62.77032084 634.48923506 62.0386317 634.60205422 C55.63832791 635.58891713 49.23802361 636.5757767 42.83771694 637.56262088 C27.86064426 639.87189256 12.88359763 642.18133271 -2.09335327 644.49139404 C-17.09991211 646.80600433 -32.10653753 649.12018244 -47.11328125 651.43359375 C-48.88121414 651.70613535 -48.88121414 651.70613535 -50.68486285 651.98418283 C-95.91972504 658.95711424 -141.16072323 665.88959134 -186.40625 672.79296875 C-185.90117075 667.28416948 -185.12056107 662.07496407 -183.66992188 656.71972656 C-183.49477963 656.06586629 -183.31963739 655.41200602 -183.13918781 654.73833179 C-182.55737654 652.57251221 -181.96620262 650.40936689 -181.375 648.24609375 C-180.95177782 646.6780103 -180.52916218 645.10976304 -180.10710144 643.54136658 C-179.19540319 640.1584695 -178.2795545 636.77673393 -177.36044312 633.39584351 C-175.87672964 627.93794086 -174.40221272 622.47757854 -172.92895508 617.0168457 C-171.09863426 610.23509338 -169.26604991 603.45396025 -167.4306345 596.67358494 C-164.02745541 584.10112217 -160.64033989 571.52439525 -157.26171875 558.9453125 C-157.00884031 558.00387579 -156.75596188 557.06243908 -156.49542046 556.09247398 C-155.46956592 552.27322469 -154.4437834 548.45395608 -153.41813946 544.63465023 C-150.80345692 534.89830489 -148.18586828 525.16274158 -145.56794548 515.42726707 C-144.77325368 512.47197267 -143.97860722 509.51666607 -143.18397522 506.56135559 C-141.3258209 499.65072047 -139.46760535 492.74010181 -137.60939026 485.82948303 C-133.64557738 471.08821649 -129.68196411 456.34689629 -125.71875 441.60546875 C-125.4585696 440.63772396 -125.19838921 439.66997917 -124.93032455 438.67290878 C-116.96452256 409.04371058 -109.0089087 379.41179343 -101.06118774 349.77774048 C-93.421384 321.29214275 -85.76766886 292.81029907 -78.10943604 264.32965088 C-70.31013386 235.32418414 -62.51959026 206.31638719 -54.73922348 177.30583572 C-46.39126907 146.17919006 -38.02915018 115.05636365 -29.66040039 83.93530273 C-29.40867632 82.99920355 -29.15695225 82.06310436 -28.89760017 81.09863853 C-28.39562428 79.23199236 -27.89361412 77.36535539 -27.39156914 75.4987278 C-26.1717649 70.96315307 -24.95265653 66.42739369 -23.73513794 61.89120483 C-21.50845293 53.59712983 -19.27622186 45.30469214 -17.02291965 37.01780224 C-15.9835978 33.19360491 -14.94798352 29.36840841 -13.91278648 25.54309273 C-13.42052255 23.7280662 -12.92646556 21.91352493 -12.43052101 20.09950066 C-11.74823068 17.60342414 -11.07206135 15.1057641 -10.3972168 12.60766602 C-10.09261441 11.50286361 -10.09261441 11.50286361 -9.78185844 10.37574196 C-8.88100787 7.01808943 -8.40625 4.30224359 -8.40625 0.79296875 C-3.09641846 -1.55323588 -3.09641846 -1.55323588 0 0 Z " fill="#FFFFFF" transform="translate(994.40625,678.20703125)"/>
<path d="M0 0 C-1.39453195 4.44326693 -3.37889409 6.55966128 -6.88180733 9.57514095 C-12.46761175 14.51670895 -17.79304799 19.6797805 -23.06547356 24.95359898 C-24.32634279 26.21394206 -24.32634279 26.21394206 -25.61268414 27.49974662 C-27.89175858 29.78097133 -30.16900973 32.0639967 -32.44538002 34.34791928 C-34.9402618 36.84991574 -37.43815314 39.34890478 -39.93565762 41.84828275 C-44.30258822 46.21928061 -48.66767847 50.59210935 -53.03154182 54.96616936 C-59.52058185 61.4703282 -66.01259109 67.97151735 -72.50528135 74.47203217 C-82.76167601 84.74086732 -93.01639542 95.01137336 -103.2699908 105.28300358 C-119.53733626 121.57888232 -135.80992047 137.86952194 -152.08426512 154.15841046 C-155.55064117 157.62790004 -159.01696617 161.09744064 -162.48329246 164.56697994 C-163.17418126 165.25850877 -163.86507006 165.95003759 -164.57689489 166.66252183 C-165.97682664 168.06375095 -167.37675799 169.46498048 -168.77668894 170.86621041 C-170.18171109 172.27253501 -171.58673473 173.67885812 -172.99175985 175.08517975 C-189.54352192 191.65222194 -206.09438589 208.22016112 -222.64453125 224.78881836 C-223.36834045 225.51343348 -224.09214965 226.23804861 -224.83789247 226.98462177 C-248.34034037 250.51331613 -271.83756116 274.04722371 -295.33263027 297.58328607 C-319.49805919 321.79080145 -343.6701357 345.99166118 -367.85009506 370.18466301 C-371.26192452 373.59834538 -374.67367039 377.01211127 -378.08536148 380.42593193 C-378.75679322 381.09777986 -379.42822496 381.7696278 -380.12000312 382.46183476 C-390.93595989 393.28491783 -401.7447377 404.11514327 -412.55076864 414.94813557 C-423.39924546 425.82341817 -434.25483718 436.69155577 -445.11783843 447.55233074 C-451.57513362 454.00875636 -458.02673184 460.47075761 -464.47042857 466.94075554 C-468.77085156 471.25764091 -473.07844474 475.56728037 -477.39202017 479.87102325 C-479.85207385 482.3258893 -482.3087989 484.78385659 -484.75684653 487.25070048 C-487.39199938 489.90274491 -490.03904891 492.54230296 -492.68957329 495.17897129 C-493.45169727 495.95188917 -494.21382124 496.72480705 -494.99903989 497.52114668 C-498.77438541 501.24995632 -501.625653 503.89248923 -507 505 C-512.4952224 499.5942116 -517.93076625 494.20752055 -522.94140625 488.34375 C-525.80792363 485.08016285 -528.77985698 481.91918139 -531.75 478.75 C-537.87897748 472.2072963 -543.95347671 465.6189752 -550 459 C-551.81165745 457.02006087 -553.62436315 455.04108438 -555.4375 453.0625 C-555.88891357 452.56983643 -556.34032715 452.07717285 -556.80541992 451.56958008 C-560.69971697 447.32207132 -564.60861298 443.08813942 -568.51928711 438.85571289 C-571.85452815 435.24473418 -575.18055733 431.62550329 -578.5 428 C-584.31495038 421.64966846 -590.15641886 415.32397831 -596 409 C-602.2977662 402.18449837 -608.58922018 395.36356557 -614.85571289 388.51928711 C-618.2280118 384.83772489 -621.61179586 381.1669253 -625 377.5 C-629.29645031 372.85011419 -633.58028402 368.18896933 -637.85546875 363.51953125 C-641.22787289 359.83790953 -644.61171781 356.16700977 -648 352.5 C-651.84236736 348.34155101 -655.67661574 344.17590951 -659.5 340 C-665.31495038 333.64966846 -671.15641886 327.32397831 -677 321 C-683.2977662 314.18449837 -689.58922018 307.36356557 -695.85571289 300.51928711 C-699.2280118 296.83772489 -702.61179586 293.1669253 -706 289.5 C-710.29645031 284.85011419 -714.58028402 280.18896933 -718.85546875 275.51953125 C-722.22787289 271.83790953 -725.61171781 268.16700977 -729 264.5 C-732.84236736 260.34155101 -736.67661574 256.17590951 -740.5 252 C-746.31495038 245.64966846 -752.15641886 239.32397831 -758 233 C-764.2977662 226.18449837 -770.58922018 219.36356557 -776.85571289 212.51928711 C-780.2280118 208.83772489 -783.61179586 205.1669253 -787 201.5 C-791.29645031 196.85011419 -795.58028402 192.18896933 -799.85546875 187.51953125 C-803.22787289 183.83790953 -806.61171781 180.16700977 -810 176.5 C-814.29645031 171.85011419 -818.58028402 167.18896933 -822.85546875 162.51953125 C-825.72458261 159.38734678 -828.6006915 156.26176979 -831.48339844 153.14208984 C-832.48762523 152.05477023 -833.49089459 150.9665655 -834.49316406 149.87744141 C-837.04479553 147.1060722 -839.61052654 144.35031048 -842.203125 141.6171875 C-842.71488281 141.07255859 -843.22664062 140.52792969 -843.75390625 139.96679688 C-844.72969425 138.92858902 -845.71122938 137.89574414 -846.69921875 136.86914062 C-850 133.3381862 -850 133.3381862 -850 130 C-849.36817568 129.9026627 -848.73635136 129.8053254 -848.08538085 129.70503849 C-754.91821582 115.35192704 -661.75111534 100.99839647 -374.3861599 56.7144227 C-370.5577593 56.12426921 -366.72935747 55.53412381 -362.9009552 54.94398117 C-309.13971151 46.65675763 -255.37874956 38.36771187 -201.6185627 30.0736351 C-194.48423631 28.97296089 -187.34989951 27.87235411 -180.21556091 26.77175903 C-175.58438077 26.0573142 -170.95320109 25.34286629 -166.32202148 24.62841797 C-165.19132701 24.45398769 -164.06063253 24.2795574 -162.89567459 24.09984136 C-150.88166023 22.24644884 -138.86767626 20.39285978 -126.85379028 18.53863525 C-122.7724011 17.90872432 -118.69101078 17.27882075 -114.60961914 16.64892578 C-113.62390635 16.49679619 -112.63819356 16.34466659 -111.62261069 16.18792701 C-96.29783817 13.82287744 -80.97255353 11.46116803 -65.64680767 9.10243416 C-57.15635601 7.79549933 -48.66654747 6.48456073 -40.17757893 5.16802216 C-35.73344693 4.47945824 -31.2888021 3.79425758 -26.84397697 3.11018372 C-24.92409892 2.81392061 -23.00445596 2.51612879 -21.08508492 2.21659851 C-18.58068619 1.8258784 -16.07552402 1.44051468 -13.57006836 1.05664062 C-12.87339743 0.9464711 -12.17672649 0.83630157 -11.45894432 0.72279358 C-7.604227 0.13914041 -3.89718485 -0.10185335 0 0 Z " fill="#FFFFFF" transform="translate(1688,1281)"/>
<path d="M0 0 C3.39273939 6.53176088 4.93544052 13.73642525 6.7890625 20.8203125 C7.16335433 22.23410182 7.53816626 23.64775353 7.91345215 25.0612793 C8.72569092 28.12425365 9.53474497 31.18804489 10.34136963 34.25250244 C11.65270312 39.23349025 12.97174279 44.21241652 14.29248047 49.19091797 C14.5196129 50.0471129 14.74674534 50.90330784 14.98076057 51.78544807 C15.44762036 53.5451948 15.91451231 55.304933 16.38143539 57.06466293 C17.10250009 59.78298676 17.82291797 62.50148141 18.54324341 65.22000122 C23.76005034 84.90113917 29.0504868 104.56236956 34.34379959 124.22304153 C36.72928827 133.08451803 39.11254664 141.94659486 41.49609375 150.80859375 C41.7623097 151.79830107 42.02852566 152.78800838 42.30280876 153.80770683 C48.61190784 177.2638313 54.90083809 200.72535378 61.1875 224.1875 C61.73557269 226.23286001 62.28364804 228.2782193 62.83172607 230.32357788 C63.92057522 234.38703857 65.00942246 238.45049976 66.0982666 242.51396179 C66.49908699 244.00978066 66.49908699 244.00978066 66.90800476 245.5358181 C67.44506968 247.54010029 67.98212821 249.54438419 68.5191803 251.54866982 C74.0919192 272.34607394 79.67002953 293.1420351 85.25 313.9375 C85.70144707 315.6199848 86.15289361 317.30246974 86.6043396 318.98495483 C88.39538236 325.65992021 90.18646312 332.3348754 91.97761536 339.0098114 C95.146831 350.82026367 98.31571814 362.63080405 101.484375 374.44140625 C101.71171577 375.2887779 101.93905655 376.13614956 102.17328644 377.00919914 C103.32251918 381.29276287 104.47174662 385.57632801 105.62097168 389.8598938 C107.68486831 397.55275198 109.74881187 405.24559757 111.81275177 412.93844414 C112.95850309 417.20896225 114.10425139 421.47948116 115.25 425.75 C115.70833332 427.45833334 116.16666665 429.16666667 116.625 430.875 C141.37499947 523.12499804 141.37499947 523.12499804 142.06251907 525.68757153 C142.52078854 527.39566652 142.97905829 529.10376143 143.43732834 530.81185627 C144.58414122 535.08633558 145.73094905 539.36081625 146.87774658 543.63529968 C148.9285444 551.2792638 150.97937462 558.92321922 153.03039932 566.56712246 C154.16091668 570.78041856 155.29140368 574.9937228 156.421875 579.20703125 C156.64632042 580.04354532 156.87076584 580.88005939 157.10201263 581.74192238 C160.28197217 593.59395337 163.46048153 605.44637258 166.63806152 617.29904175 C168.43297142 623.99419818 170.22825073 630.68925555 172.02361298 637.3842907 C173.48957146 642.85109451 174.95503371 648.31803103 176.42012405 653.78506756 C177.32304433 657.15386973 178.22643989 660.52254432 179.12996674 663.89118385 C179.54806281 665.45037279 179.96596088 667.00961483 180.3836441 668.56891441 C180.9560796 670.70583468 181.52922545 672.84256323 182.10253906 674.97924805 C182.42256897 676.17309616 182.74259888 677.36694427 183.07232666 678.5969696 C184.02002867 682.07347216 185.00300849 685.5373686 186 689 C182.63743102 687.49609874 180.06970558 685.54747098 177.25 683.1875 C176.27933594 682.38183594 175.30867188 681.57617188 174.30859375 680.74609375 C173.77862793 680.30507324 173.24866211 679.86405273 172.70263672 679.40966797 C169.59120821 676.83361574 166.45007034 674.29408912 163.3125 671.75 C161.93610442 670.6329277 160.55980352 669.51573871 159.18359375 668.3984375 C158.49249512 667.83737305 157.80139648 667.27630859 157.08935547 666.69824219 C155.02770573 665.0225194 152.96856144 663.34376854 150.91015625 661.6640625 C144.58826775 656.50922147 138.24740444 651.38830212 131.8125 646.375 C126.726478 642.41125249 121.78366515 638.31010256 116.88500977 634.11791992 C113.07974489 630.87601554 109.19562479 627.75656773 105.25 624.6875 C99.97257501 620.58119313 94.77882279 616.3854311 89.625 612.125 C88.55560181 611.24110596 88.55560181 611.24110596 87.46459961 610.33935547 C86.39350952 609.45401123 86.39350952 609.45401123 85.30078125 608.55078125 C76.22488568 601.04938033 67.09994911 593.61323342 57.8125 586.375 C52.72655254 582.41115267 47.78366972 578.31010647 42.88500977 574.11791992 C39.07974489 570.87601554 35.19562479 567.75656773 31.25 564.6875 C25.97257501 560.58119313 20.77882279 556.3854311 15.625 552.125 C14.91206787 551.5357373 14.19913574 550.94647461 13.46459961 550.33935547 C12.39350952 549.45401123 12.39350952 549.45401123 11.30078125 548.55078125 C2.22488568 541.04938033 -6.90005089 533.61323342 -16.1875 526.375 C-21.27344746 522.41115267 -26.21633028 518.31010647 -31.11499023 514.11791992 C-34.92025511 510.87601554 -38.80437521 507.75656773 -42.75 504.6875 C-48.02742499 500.58119313 -53.22117721 496.3854311 -58.375 492.125 C-59.08793213 491.5357373 -59.80086426 490.94647461 -60.53540039 490.33935547 C-61.24946045 489.74912598 -61.96352051 489.15889648 -62.69921875 488.55078125 C-71.77511432 481.04938033 -80.90005089 473.61323342 -90.1875 466.375 C-95.27344746 462.41115267 -100.21633028 458.31010647 -105.11499023 454.11791992 C-108.92025511 450.87601554 -112.80437521 447.75656773 -116.75 444.6875 C-122.02742499 440.58119313 -127.22117721 436.3854311 -132.375 432.125 C-133.08793213 431.5357373 -133.80086426 430.94647461 -134.53540039 430.33935547 C-135.24946045 429.74912598 -135.96352051 429.15889648 -136.69921875 428.55078125 C-145.77511432 421.04938033 -154.90005089 413.61323342 -164.1875 406.375 C-169.27344746 402.41115267 -174.21633028 398.31010647 -179.11499023 394.11791992 C-182.92025511 390.87601554 -186.80437521 387.75656773 -190.75 384.6875 C-196.02742499 380.58119313 -201.22117721 376.3854311 -206.375 372.125 C-207.08793213 371.5357373 -207.80086426 370.94647461 -208.53540039 370.33935547 C-209.24946045 369.74912598 -209.96352051 369.15889648 -210.69921875 368.55078125 C-219.77511432 361.04938033 -228.90005089 353.61323342 -238.1875 346.375 C-243.27344746 342.41115267 -248.21633028 338.31010647 -253.11499023 334.11791992 C-256.92025511 330.87601554 -260.80437521 327.75656773 -264.75 324.6875 C-270.02742499 320.58119313 -275.22117721 316.3854311 -280.375 312.125 C-281.08793213 311.5357373 -281.80086426 310.94647461 -282.53540039 310.33935547 C-283.24946045 309.74912598 -283.96352051 309.15889648 -284.69921875 308.55078125 C-293.77511432 301.04938033 -302.90005089 293.61323342 -312.1875 286.375 C-317.27344746 282.41115267 -322.21633028 278.31010647 -327.11499023 274.11791992 C-330.92025511 270.87601554 -334.80437521 267.75656773 -338.75 264.6875 C-344.02742499 260.58119313 -349.22117721 256.3854311 -354.375 252.125 C-355.08793213 251.5357373 -355.80086426 250.94647461 -356.53540039 250.33935547 C-357.24946045 249.74912598 -357.96352051 249.15889648 -358.69921875 248.55078125 C-367.77511432 241.04938033 -376.90005089 233.61323342 -386.1875 226.375 C-391.27344746 222.41115267 -396.21633028 218.31010647 -401.11499023 214.11791992 C-404.92025511 210.87601554 -408.80437521 207.75656773 -412.75 204.6875 C-418.02742499 200.58119313 -423.22117721 196.3854311 -428.375 192.125 C-429.08793213 191.5357373 -429.80086426 190.94647461 -430.53540039 190.33935547 C-431.24946045 189.74912598 -431.96352051 189.15889648 -432.69921875 188.55078125 C-441.75276347 181.06785373 -450.85368256 173.6492484 -460.125 166.4375 C-467.28835602 160.86267926 -474.15599947 154.95989712 -481 149 C-478.15719824 147.10479882 -476.07362559 146.26952384 -472.84765625 145.27026367 C-471.24631584 144.77026352 -471.24631584 144.77026352 -469.61262512 144.26016235 C-468.44108383 143.89973846 -467.26954254 143.53931458 -466.0625 143.16796875 C-464.1691572 142.57887447 -462.27581466 141.98977936 -460.38248158 141.40065384 C-458.34167988 140.76666831 -456.30014921 140.1350831 -454.25839233 139.50418091 C-449.94002285 138.16971138 -445.62376159 136.82851476 -441.30786133 135.48608398 C-436.78233676 134.07872615 -432.25671459 132.6716892 -427.73042297 131.26679993 C-413.42029546 126.82479667 -399.12155501 122.34683277 -384.82519531 117.86074829 C-380.64798804 116.5499957 -376.47051022 115.24010693 -372.29296875 113.93041992 C-370.88750203 113.48979189 -369.48203531 113.04916384 -368.0765686 112.60853577 C-367.38009846 112.39018633 -366.68362831 112.17183689 -365.96605301 111.9468708 C-363.1542657 111.06531368 -360.3425181 110.18362996 -357.53077126 109.30194378 C-348.43349316 106.44929634 -339.33594679 103.59750531 -330.23828125 100.74609375 C-329.202399 100.42142467 -329.202399 100.42142467 -328.14558983 100.09019661 C-324.65855606 98.99728501 -321.1715183 97.90438611 -317.68447876 96.81149292 C-311.40427618 94.84317171 -305.12410893 92.87473779 -298.84393883 90.90631294 C-295.35429398 89.8125374 -291.86464688 88.71876906 -288.375 87.625 C-286.97916666 87.18750003 -285.58333332 86.75000003 -284.1875 86.3125 C-236.72916667 71.4375 -189.27083333 56.5625 -141.8125 41.6875 C-141.12154362 41.47093152 -140.43058723 41.25436304 -139.71869278 41.03123188 C-138.32305032 40.59379183 -136.92740772 40.15635223 -135.53176498 39.71891308 C-132.0392601 38.62424953 -128.54675767 37.52957814 -125.05426025 36.43489075 C-118.80789957 34.47704149 -112.56152312 32.51924262 -106.31505203 30.56174564 C-102.87148063 29.48260955 -99.427924 28.40342632 -95.984375 27.32421875 C-94.95890186 27.00283715 -94.95890186 27.00283715 -93.9127121 26.674963 C-84.24066498 23.64365835 -74.5693245 20.61010744 -64.8984375 17.57510376 C-59.43930714 15.86188147 -53.97999635 14.14923448 -48.52064514 12.43671608 C-44.06648532 11.03945211 -39.61256817 9.6414181 -35.15883255 8.24280262 C-32.41197015 7.38040434 -29.66487557 6.51874755 -26.91771698 5.65729332 C-25.04425773 5.06956717 -23.17108043 4.4809425 -21.2979126 3.89228821 C-3.54278602 -1.67298229 -3.54278602 -1.67298229 0 0 Z " fill="#FFFFFF" transform="translate(1527,485)"/>
<path d="M0 0 C2.82354368 1.09171176 3.53343044 1.93677726 5.09277344 4.50170898 C5.59744141 5.31752441 6.10210938 6.13333984 6.62207031 6.97387695 C7.48155273 8.42818115 7.48155273 8.42818115 8.35839844 9.91186523 C9.05638826 11.07253197 9.75499252 12.23282933 10.45410156 13.39282227 C12.43885634 16.70151551 14.40100866 20.02312007 16.35742188 23.34863281 C18.48157827 26.9581234 20.61513105 30.56203141 22.74902344 34.16577148 C23.13608459 34.82194962 23.52314575 35.47812775 23.92193604 36.15419006 C27.03775639 41.42071346 30.26673717 46.61159453 33.54237366 51.77996826 C38.08613685 58.95029332 42.35089991 66.29309261 46.67089844 73.59936523 C51.98610077 82.5886422 57.31872474 91.55829568 62.85839844 100.41186523 C68.3070219 109.12419828 73.56355062 117.9437427 78.79589844 126.78686523 C85.96615894 138.90348156 93.21840018 150.96471958 100.56445312 162.97583008 C103.92138107 168.4698986 107.26574161 173.97160693 110.60839844 179.47436523 C110.96291077 180.05786743 111.3174231 180.64136963 111.68267822 181.24255371 C117.65538594 191.07617707 123.58252674 200.93667179 129.49356079 210.8074646 C135.23494867 220.39413663 141.02253302 229.95153901 146.83621216 239.49450684 C152.72963289 249.17378109 158.52486383 258.90922022 164.29589844 268.66186523 C169.29875568 277.11509199 174.29961325 285.56253256 179.55957031 293.859375 C183.89739135 300.71596125 188.08941292 307.66179838 192.29589844 314.59936523 C192.67369446 315.2222644 193.05149048 315.84516357 193.44073486 316.48693848 C195.74918582 320.2936986 198.05620032 324.1013193 200.35839844 327.91186523 C200.92888916 328.8204126 201.49937988 329.72895996 202.0871582 330.66503906 C203.35839844 332.91186523 203.35839844 332.91186523 203.35839844 334.91186523 C187.86966699 339.4992949 172.33924565 343.86399051 156.72167969 347.98999023 C154.59104674 348.55532548 152.46048975 349.12094707 150.33000183 349.68682861 C145.80310945 350.88869803 141.2757696 352.08886019 136.74804688 353.28759766 C129.50927398 355.20419995 122.27160577 357.12494982 115.03417969 359.04663086 C113.8066567 359.37256226 112.57913372 359.69849365 111.31441307 360.03430176 C108.81920617 360.69684948 106.32400444 361.35941669 103.82880783 362.02200317 C100.05184214 363.02484795 96.27478313 364.02734067 92.49771118 365.02978516 C69.30360053 371.18655782 46.12009068 377.38266366 22.93877792 383.5874176 C-14.22828299 393.53498916 -51.40579032 403.44280255 -88.58935547 413.32849121 C-122.44712722 422.3301307 -156.29808629 431.35677514 -190.14160156 440.41186523 C-226.26926796 450.07809734 -262.40617774 459.70907792 -298.54918671 469.31777954 C-337.53147903 479.68139255 -376.50422393 490.08031681 -415.46932411 500.5083847 C-419.5354186 501.59654477 -423.60157763 502.68446355 -427.66773605 503.77238464 C-430.40273387 504.50430218 -433.13760691 505.23668441 -435.87246704 505.96911621 C-447.1210241 508.98001499 -458.37816974 511.95710421 -469.64160156 514.91186523 C-469.64160156 515.57186523 -469.64160156 516.23186523 -469.64160156 516.91186523 C-480.86160156 519.88186523 -492.08160156 522.85186523 -503.64160156 525.91186523 C-509.34919019 507.36220218 -509.34919019 507.36220218 -508.64160156 503.91186523 C-507.00868495 502.19826414 -505.34359172 500.55512939 -503.64160156 498.91186523 C-502.37417206 497.64812643 -501.10919068 496.38192995 -499.8459959 495.11395824 C-499.12506563 494.39251552 -498.40413536 493.67107279 -497.66135871 492.92776817 C-496.88016768 492.14600544 -496.09897665 491.36424271 -495.29411316 490.55879021 C-493.54195637 488.80538609 -491.78979879 487.05198274 -490.03764057 485.29858005 C-489.09042246 484.35068426 -488.1432044 483.40278841 -487.19598639 482.4548925 C-445.30843197 440.53744556 -403.41938655 398.62148897 -361.52514648 356.71072388 C-360.47789561 355.66305883 -360.47789561 355.66305883 -359.40948816 354.59422884 C-344.24519389 339.42395192 -329.08067808 324.25389648 -313.9159351 309.08406811 C-306.48558189 301.65122037 -299.055278 294.21832332 -291.625 286.78540039 C-290.88562625 286.04576512 -290.1462525 285.30612986 -289.38447349 284.5440814 C-265.39321506 260.54429108 -241.40520854 236.54125354 -217.41887347 212.5365427 C-192.76434014 187.86315598 -168.10654143 163.19303722 -143.44461067 138.52704437 C-139.96423137 135.04608874 -136.48388955 131.56509565 -133.00357056 128.08407974 C-132.31859754 127.39897187 -131.63362451 126.71386401 -130.92789473 126.0079953 C-119.89023178 114.96796649 -108.85603104 103.92448351 -97.82311323 92.87971284 C-86.74283869 81.78768134 -75.65894933 70.69927267 -64.57132602 59.61458693 C-57.97933738 53.02412304 -51.39017127 46.4308658 -44.8049606 39.83362919 C-40.4102465 35.43143595 -36.01193626 31.03285803 -31.61064279 26.63724284 C-29.1002918 24.12992183 -26.59157482 21.62102212 -24.08721673 19.10771404 C-21.39321776 16.40416026 -18.69157345 13.70833211 -15.98908997 11.01325798 C-15.20789893 10.22681292 -14.4267079 9.44036786 -13.62184441 8.63009113 C-4.77722417 -0.15938798 -4.77722417 -0.15938798 0 0 Z " fill="#FFFFFF" transform="translate(735.6416015625,263.088134765625)"/>
<path d="M0 0 C1.90571005 1.40797073 1.90571005 1.40797073 3.74661076 3.25211811 C4.81157384 4.3043661 4.81157384 4.3043661 5.89805132 5.37787163 C6.66697929 6.15787935 7.43590725 6.93788706 8.22813606 7.74153137 C9.47133125 8.97870228 9.47133125 8.97870228 10.73964149 10.24086654 C13.0481108 12.54220828 15.34734264 14.85234779 17.64305996 17.16639791 C20.13901943 19.67787153 22.64656536 22.17773042 25.15269172 24.6790514 C29.54666713 29.06780703 33.93314596 33.46394603 38.31485367 37.86494827 C44.83046408 44.40916941 51.35749792 50.94190607 57.88700199 57.47226128 C68.87000568 68.4573084 79.84380249 79.45150936 90.81256485 90.45077515 C101.6774849 101.34579152 112.54695049 112.23624185 123.42238998 123.12075806 C124.43602722 124.1352431 124.43602722 124.1352431 125.47014197 125.1702228 C128.90193094 128.60482074 132.33381232 132.03932633 135.76573633 135.47378933 C160.08757866 159.81381963 184.40088662 184.16235791 208.70849609 208.51660156 C210.17900659 209.9899272 211.64951726 211.46325265 213.12002812 212.93657792 C214.21293314 214.03157574 214.21293314 214.03157574 215.32791704 215.14869473 C219.01417894 218.84201438 222.70044546 222.53532942 226.38671875 226.2286377 C227.11770541 226.96102128 227.84869208 227.69340486 228.60182985 228.44798189 C245.58328469 245.46180155 262.56730773 262.47305645 279.55224609 279.48339844 C280.27983856 280.21208313 281.00743102 280.94076783 281.75707174 281.69153388 C298.36034373 298.31968546 314.96480271 314.94665054 331.57160759 331.5712738 C332.26906334 332.26948034 332.9665191 332.96768688 333.68510987 333.6870512 C339.95821358 339.96688693 346.23136497 346.24667502 352.50476907 352.52621067 C368.16775553 368.20451281 383.8277539 383.8857802 399.48049365 399.5743129 C410.38636355 410.50510155 421.29541801 421.43270211 432.20791997 432.35686994 C438.6981996 438.85435117 445.18556411 445.35471348 451.66894068 451.85908294 C455.99328443 456.19689892 460.32118942 460.53113937 464.65206599 464.86243295 C467.12387104 467.33469639 469.59400803 469.80856882 472.05978979 472.28684103 C474.70981928 474.94865001 477.36583789 477.60433003 480.02354622 480.25846863 C480.79715652 481.03847634 481.57076681 481.81848406 482.36781985 482.62212837 C483.07278819 483.32362703 483.77775654 484.02512569 484.50408757 484.74788189 C485.41513014 485.66073484 485.41513014 485.66073484 486.34457762 486.59202927 C488.05786081 488.22692422 488.05786081 488.22692422 491 489 C491.66 488.67 492.32 488.34 493 488 C493 488.99 493 489.98 493 491 C492.02627441 491.48178711 491.05254883 491.96357422 490.04931641 492.45996094 C480.41111282 497.24447678 470.86786544 502.18403184 461.375 507.25 C459.96649048 507.99987317 458.55796153 508.74970983 457.14941406 509.49951172 C448.46028249 514.12974656 439.79893106 518.80854469 431.16552734 523.54199219 C423.8024426 527.57569403 416.40442376 531.54289234 409 535.5 C400.64706793 539.96447878 392.30774599 544.45184021 384 549 C373.99168693 554.47774769 363.93723885 559.86793306 353.87680054 565.24909973 C353.28581573 565.56521713 352.69483093 565.88133453 352.0859375 566.20703125 C351.49454987 566.52335007 350.90316223 566.83966888 350.29385376 567.16557312 C344.14839433 570.45370787 338.01098254 573.75672315 331.875 577.0625 C330.27833496 577.92270752 330.27833496 577.92270752 328.64941406 578.80029297 C326.50549163 579.95548805 324.36161132 581.11076131 322.21777344 582.26611328 C316.81254563 585.17870265 311.40621432 588.0892423 306 591 C303.83332811 592.16665696 301.66666144 593.33332363 299.5 594.5 C260.50000001 615.5 260.50000001 615.5 257.24902344 617.25048828 C255.08557015 618.41544967 252.92215859 619.58048855 250.75878906 620.74560547 C245.29329969 623.68900437 239.82705848 626.63099117 234.359375 629.5703125 C223.37935037 635.47472645 212.41316005 641.40223838 201.4765625 647.38671875 C193.32700426 651.83835606 185.13859844 656.21653729 176.94567871 660.58764648 C168.62418651 665.02842913 160.34217319 669.52937144 152.15136719 674.20751953 C147.21184374 677 147.21184374 677 145 677 C141.08417452 663.43633809 137.29683265 649.84489881 133.6484375 636.20703125 C133.15199844 634.35661511 132.65539114 632.5062441 132.15863037 630.65591431 C131.10795622 626.74130177 130.05824428 622.82643314 129.00933838 618.91134644 C126.48745415 609.49880597 123.95998884 600.08776323 121.4330864 590.67656898 C120.57771112 587.49064598 119.72251935 584.30467375 118.86734009 581.11869812 C114.16752438 563.6117624 109.44710749 546.11045563 104.71343231 528.61264801 C103.71976983 524.9395612 102.72636262 521.26640534 101.73291016 517.59326172 C101.32608208 516.08910068 100.91925224 514.58494012 100.51242065 513.08078003 C100.30865688 512.32741238 100.10489311 511.57404472 99.89495468 510.79784775 C99.47998421 509.26363598 99.0649985 507.72942833 98.64999771 506.19522476 C92.67629538 484.11121739 86.71324425 462.02433316 80.75 439.9375 C80.46357761 438.87666451 80.17715523 437.81582901 79.88205338 436.72284698 C67.3327668 390.24338294 54.79765879 343.76009983 42.26560974 297.27598572 C38.57312351 283.5797653 34.88046822 269.88359047 31.1875 256.1875 C30.81980185 254.82380468 30.81980185 254.82380468 30.44467545 253.43255997 C21.57286736 220.52963184 12.69134143 187.62933196 3.80673218 154.7298584 C-2.44493864 131.57998871 -8.69460804 108.42958262 -14.9375 85.27734375 C-15.21728195 84.23975544 -15.4970639 83.20216713 -15.7853241 82.13313675 C-18.46598076 72.19157094 -21.1462973 62.24991349 -23.82608032 52.30811214 C-24.79328535 48.71993384 -25.76060324 45.13178597 -26.72793579 41.54364204 C-27.38214361 39.11676965 -28.03616995 36.6898484 -28.69018555 34.26292419 C-28.99150894 33.14553785 -28.99150894 33.14553785 -29.29891968 32.00557804 C-29.68204168 30.58399762 -30.06457343 29.16225796 -30.44644165 27.74034023 C-31.26321329 24.70364973 -32.09294046 21.67188088 -32.94995117 18.64627075 C-33.22621338 17.66931244 -33.50247559 16.69235413 -33.78710938 15.68579102 C-34.02409546 14.86490494 -34.26108154 14.04401886 -34.50524902 13.19825745 C-35 11 -35 11 -35 7 C-30.82287195 5.82826887 -26.64205575 4.67111605 -22.45727539 3.52709961 C-21.03528491 3.13619386 -19.61436318 2.74137787 -18.19458008 2.3425293 C-16.14935847 1.76872106 -14.10066044 1.20925097 -12.05078125 0.65234375 C-10.82012939 0.31195068 -9.58947754 -0.02844238 -8.3215332 -0.37915039 C-4.93725676 -1.01172775 -3.2554022 -0.95612149 0 0 Z " fill="#FFFFFF" transform="translate(229,900)"/>
<path d="M0 0 C5.15085771 3.8116347 9.262005 8.38244803 13.4921875 13.171875 C16.22696572 16.25595511 19.01178483 19.28845097 21.8125 22.3125 C22.31869873 22.8597876 22.82489746 23.4070752 23.34643555 23.97094727 C24.38130763 25.08970584 25.41638363 26.20827583 26.45166016 27.32666016 C28.97037031 30.04870989 31.4850327 32.7744926 34 35.5 C37.01098786 38.76239454 40.02235528 42.02443595 43.03515625 45.28515625 C48.32042386 51.00632222 53.5960005 56.73604232 58.85571289 62.48071289 C62.2280118 66.16227511 65.61179586 69.8330747 69 73.5 C73.29645031 78.14988581 77.58028402 82.81103067 81.85546875 87.48046875 C85.22787289 91.16209047 88.61171781 94.83299023 92 98.5 C95.84236736 102.65844899 99.67661574 106.82409049 103.5 111 C109.31495038 117.35033154 115.15641886 123.67602169 121 130 C127.2977662 136.81550163 133.58922018 143.63643443 139.85571289 150.48071289 C143.2280118 154.16227511 146.61179586 157.8330747 150 161.5 C154.29645031 166.14988581 158.58028402 170.81103067 162.85546875 175.48046875 C166.22787289 179.16209047 169.61171781 182.83299023 173 186.5 C176.84236736 190.65844899 180.67661574 194.82409049 184.5 199 C190.31495038 205.35033154 196.15641886 211.67602169 202 218 C208.2977662 224.81550163 214.58922018 231.63643443 220.85571289 238.48071289 C224.2280118 242.16227511 227.61179586 245.8330747 231 249.5 C235.29645031 254.14988581 239.58028402 258.81103067 243.85546875 263.48046875 C247.22787289 267.16209047 250.61171781 270.83299023 254 274.5 C257.84236736 278.65844899 261.67661574 282.82409049 265.5 287 C271.31495038 293.35033154 277.15641886 299.67602169 283 306 C289.2977662 312.81550163 295.58922018 319.63643443 301.85571289 326.48071289 C305.2280118 330.16227511 308.61179586 333.8330747 312 337.5 C316.74370162 342.633929 321.47257636 347.78103198 326.1875 352.94140625 C328.19305533 355.13051847 330.21686289 357.30133112 332.25 359.46484375 C332.79205078 360.04427734 333.33410156 360.62371094 333.89257812 361.22070312 C334.93449332 362.33351413 335.97986399 363.44310382 337.02929688 364.54882812 C339.79810857 367.51299695 342.0575479 370.43665038 344 374 C333.36580136 372.4286239 323.07496382 369.46708904 312.71484375 366.671875 C310.6925109 366.12971846 308.67007274 365.58795459 306.64753723 365.04655457 C301.20943531 363.58970512 295.7727964 362.12746455 290.33641052 360.66422653 C284.60502114 359.12261836 278.87226662 357.58610344 273.13964844 356.04907227 C263.82333556 353.55052884 254.5077809 351.04917922 245.19287109 348.54541016 C233.62578512 345.43628136 222.05740177 342.33201729 210.48828125 339.23046875 C207.16575887 338.33964664 203.84325117 337.4487698 200.52075195 336.55786133 C199.71254218 336.34114619 198.90433241 336.12443106 198.07163143 335.9011488 C189.82507883 333.68974268 181.57909031 331.47623618 173.3331356 329.26260185 C149.47345615 322.85747351 125.61201884 316.45890708 101.75 310.0625 C100.72937344 309.7889053 99.70874687 309.51531059 98.65719223 309.23342514 C67.90409969 300.98966083 37.14775902 292.75810916 6.38905716 284.53530121 C-20.18153348 277.43203203 -46.74886203 270.316726 -73.3125 263.1875 C-74.14345058 262.96449093 -74.97440117 262.74148186 -75.83053207 262.51171494 C-80.05796906 261.37716185 -84.28540125 260.24259091 -88.51283264 259.10801697 C-89.36029619 258.88057234 -90.20775974 258.65312771 -91.08090401 258.41879082 C-92.80333097 257.95652013 -94.52575706 257.4942462 -96.2481823 257.03196907 C-147.47513591 243.28346724 -198.70612305 229.54992399 -249.94525719 215.84688377 C-255.41744566 214.38325547 -260.88920738 212.9180454 -266.3605938 211.45142174 C-270.66990134 210.2963616 -274.97941311 209.14206522 -279.2890625 207.98828125 C-280.11030231 207.76841427 -280.93154213 207.54854729 -281.777668 207.32201767 C-292.24501155 204.52117466 -302.72145239 201.75972498 -313.2109375 199.04296875 C-316.39037904 198.21479573 -319.5696459 197.38595484 -322.74890137 196.55706787 C-325.5074758 195.84292481 -328.26951883 195.14374732 -331.03222656 194.44580078 C-332.61802007 194.03357529 -334.20364638 193.62070579 -335.7890625 193.20703125 C-336.82430557 192.95399483 -336.82430557 192.95399483 -337.88046265 192.69584656 C-341.95226712 191.61284745 -344.30032642 190.24462817 -347 187 C-335.02772255 179.95616007 -322.75187492 173.47339409 -310.49874878 166.93685913 C-304.28224793 163.61967085 -298.07764903 160.28051069 -291.875 156.9375 C-290.27930176 156.07777588 -290.27930176 156.07777588 -288.65136719 155.20068359 C-286.5067832 154.04518252 -284.36225178 152.88958385 -282.21777344 151.73388672 C-276.81254562 148.82129734 -271.40620132 145.91078186 -266 143 C-264.92878906 142.42314453 -263.85757813 141.84628906 -262.75390625 141.25195312 C-257.31300166 138.32198344 -251.87170895 135.39273857 -246.4296875 132.46484375 C-235.94572995 126.82347611 -225.46621565 121.17422591 -215 115.5 C-203.43964536 109.23259009 -191.86255844 102.99651756 -180.28222656 96.76611328 C-174.85413451 93.84534432 -169.42711859 90.92257725 -164 88 C-161.83333856 86.83332363 -159.66667189 85.66665696 -157.5 84.5 C-156.4275 83.9225 -155.355 83.345 -154.25 82.75 C-66.5 35.5 -66.5 35.5 -63.24804688 33.74902344 C-61.08780695 32.58576736 -58.92765029 31.42235664 -56.76757812 30.25878906 C-51.25326519 27.28864767 -45.73739973 24.32145163 -40.21875 21.359375 C-37.97904953 20.15646806 -35.7394647 18.9533458 -33.5 17.75 C-32.42355225 17.17161377 -31.34710449 16.59322754 -30.23803711 15.99731445 C-22.89902607 12.04519248 -15.59571097 8.03360831 -8.33984375 3.93066406 C-5.58144457 2.37973016 -3.0105221 1.00350737 0 0 Z " fill="#FFFFFF" transform="translate(772,1446)"/>
<path d="M0 0 C5.81217678 0.60704294 11.24568726 1.70873198 16.87841797 3.24291992 C17.73482754 3.47156959 18.59123711 3.70021925 19.47359848 3.93579769 C22.31450752 4.6956428 25.15331861 5.46303975 27.9921875 6.23046875 C30.01878617 6.77413597 32.04551247 7.31732764 34.07235718 7.8600769 C39.53538129 9.32436155 44.99663461 10.7951524 50.45759583 12.26710892 C56.20863923 13.8160065 61.96132932 15.35876355 67.71386719 16.90209961 C77.06301288 19.4111135 86.41126479 21.92342892 95.75878906 24.43847656 C107.34545926 27.55590686 118.93388472 30.66674273 130.5234375 33.7734375 C133.84424582 34.66370886 137.16504399 35.55401807 140.48583984 36.44433594 C141.29346331 36.66085564 142.10108677 36.87737534 142.93318367 37.10045624 C151.17814008 39.31103904 159.42242772 41.52411162 167.66667557 43.73733521 C191.52638992 50.14258888 215.38791723 56.54107578 239.25 62.9375 C240.78093985 63.34789206 240.78093985 63.34789206 242.34280777 63.76657486 C273.09590031 72.01033917 303.85224098 80.24189084 334.61094284 88.46469879 C361.18153348 95.56796797 387.74886203 102.683274 414.3125 109.8125 C415.14345058 110.03550907 415.97440117 110.25851814 416.83053207 110.48828506 C421.05796906 111.62283815 425.28540125 112.75740909 429.51283264 113.89198303 C430.36029619 114.11942766 431.20775974 114.34687229 432.08090401 114.58120918 C433.80333097 115.04347987 435.52575706 115.5057538 437.2481823 115.96803093 C488.47544785 129.71661648 539.70687394 143.44976245 590.94610691 157.15368271 C596.41622301 158.61673656 601.88610408 160.08066474 607.35577869 161.54536819 C623.00181506 165.73492268 638.64887447 169.91879655 654.31640625 174.02734375 C656.50426198 174.60291252 658.69208909 175.17859012 660.87988281 175.75439453 C664.68295569 176.75523943 668.48842197 177.74603859 672.29589844 178.72998047 C673.89137998 179.1490185 675.48676584 179.56842115 677.08203125 179.98828125 C677.78767715 180.16729477 678.49332306 180.34630829 679.22035217 180.53074646 C680.83108317 180.95939424 682.41936045 181.47106534 684 182 C684.33 182.66 684.66 183.32 685 184 C650.20311612 195.10099414 615.39736547 206.16840453 580.52468872 217.0294342 C572.33529227 219.58106989 564.14952064 222.14421235 555.96484375 224.7109375 C555.30640409 224.91742039 554.64796444 225.12390327 553.96957207 225.33664322 C550.55004334 226.40903082 547.13055668 227.48155249 543.71109009 228.55413818 C523.97481519 234.74477665 504.23661201 240.92914684 484.4921875 247.09375 C482.82847076 247.61321988 481.16475413 248.13269009 479.5010376 248.65216064 C476.98743686 249.43698124 474.47383488 250.22179783 471.96023178 251.00661087 C469.43181574 251.79605646 466.90340563 252.58552104 464.375 253.375 C463.53972778 253.63580856 462.70445557 253.89661713 461.84387207 254.16532898 C436.38435567 262.11536709 410.93666443 270.10215222 385.5 278.125 C384.7330632 278.3668956 383.9661264 278.6087912 383.1759491 278.85801697 C381.63722465 279.34334123 380.09850038 279.82866609 378.55977631 280.31399155 C374.82895051 281.49069548 371.0980899 282.66728896 367.3671875 283.84375 C366.64948181 284.07006355 365.93177612 284.29637711 365.19232178 284.52954865 C350.50061275 289.16170883 335.79925474 293.76266197 321.09375 298.35083008 C319.21093189 298.93829582 317.32811947 299.52577982 315.4453125 300.11328125 C314.49440735 300.40999222 313.5435022 300.70670319 312.56378174 301.0124054 C296.46955847 306.0363385 280.38335007 311.08593892 264.29571533 316.13092041 C263.27529616 316.45090563 263.27529616 316.45090563 262.23426247 316.77735519 C260.87333364 317.20414431 259.51242127 317.63098589 258.1515255 318.0578804 C254.79863162 319.10950872 251.44539165 320.16000714 248.09140015 321.20812988 C241.90445941 323.14246575 235.72056939 325.0849592 229.54705048 327.06178379 C226.68759833 327.97651985 223.82623752 328.88519782 220.9646759 329.79331017 C219.62421581 330.22044202 218.2846353 330.65034736 216.9460907 331.0834446 C208.83270643 333.70757454 200.81620562 335.78587492 192.44194031 337.32215881 C185.47580226 338.69404062 178.67841182 340.77851442 171.86132812 342.74609375 C170.76884766 343.05160156 169.67636719 343.35710937 168.55078125 343.671875 C167.09152222 344.09098145 167.09152222 344.09098145 165.6027832 344.51855469 C163 345 163 345 159 344 C178.8 338.555 178.8 338.555 199 333 C197.44006521 329.10016302 195.92657295 326.0400041 193.75390625 322.51171875 C193.09100586 321.42898682 192.42810547 320.34625488 191.74511719 319.23071289 C191.39042358 318.65499542 191.03572998 318.07927795 190.67028809 317.4861145 C188.74684365 314.36319316 186.83633688 311.23238029 184.92578125 308.1015625 C184.52442963 307.44428665 184.123078 306.7870108 183.70956421 306.1098175 C179.15378758 298.6350922 174.70362086 291.0983534 170.25 283.5625 C164.59717857 274.00401078 158.87722858 264.49974653 152.98901367 255.08374023 C148.06001901 247.16841384 143.31052939 239.14958229 138.5625 231.125 C131.39223949 219.00838368 124.13999826 206.94714566 116.79394531 194.93603516 C113.43701736 189.44196663 110.09265682 183.94025831 106.75 178.4375 C106.39548767 177.8539978 106.04097534 177.27049561 105.67572021 176.66931152 C99.70301249 166.83568816 93.7758717 156.97519344 87.86483765 147.10440063 C82.12344977 137.51772861 76.33586542 127.96032622 70.52218628 118.4173584 C64.20595723 108.0436695 58.00494808 97.60364206 51.82058716 87.15093994 C47.2769433 79.47446195 42.70636856 71.82536817 37.91748047 64.29858398 C32.91420648 56.37442801 28.20589229 48.26791344 23.43948364 40.20004272 C17.69514173 30.47953275 11.87772589 20.81836988 5.83276367 11.28051758 C3.52197145 7.60725726 1.40160119 4.13845557 0 0 Z " fill="#FFFFFF" transform="translate(808,239)"/>
<path d="M0 0 C-1.74635165 0.53293835 -3.49727652 1.05090663 -5.25 1.5625 C-6.22453125 1.85253906 -7.1990625 2.14257812 -8.203125 2.44140625 C-10.96243932 2.99249836 -12.3912824 2.93789609 -15 2 C-13.25364835 1.46706165 -11.50272348 0.94909337 -9.75 0.4375 C-8.77546875 0.14746094 -7.8009375 -0.14257812 -6.796875 -0.44140625 C-4.03756068 -0.99249836 -2.6087176 -0.93789609 0 0 Z " fill="#FFFFFF" transform="translate(967,585)"/>
<path d="M0 0 C-7.42857143 2.42857143 -7.42857143 2.42857143 -11 1 C-3.57142857 -1.42857143 -3.57142857 -1.42857143 0 0 Z " fill="#FFFFFF" transform="translate(952,589)"/>
<path d="M0 0 C0.598125 0.20625 1.19625 0.4125 1.8125 0.625 C-0.4975 0.955 -2.8075 1.285 -5.1875 1.625 C-2.1875 -0.375 -2.1875 -0.375 0 0 Z " fill="#FFFFFF" transform="translate(928.1875,764.375)"/>
<path d="M0 0 C4 1 4 1 4 1 Z " fill="#FFFFFF" transform="translate(863,781)"/>
<path d="M0 0 C4 1 4 1 4 1 Z " fill="#FFFFFF" transform="translate(878,777)"/>
<path d="M0 0 C4 1 4 1 4 1 Z " fill="#FFFFFF" transform="translate(889,774)"/>
<path d="M0 0 C4 1 4 1 4 1 Z " fill="#FFFFFF" transform="translate(893,773)"/>
<path d="M0 0 C4 1 4 1 4 1 Z " fill="#FFFFFF" transform="translate(900,771)"/>
<path d="M0 0 C4 1 4 1 4 1 Z " fill="#FFFFFF" transform="translate(904,770)"/>
<path d="M0 0 C4 1 4 1 4 1 Z " fill="#FFFFFF" transform="translate(908,769)"/>
<path d="M0 0 C4 1 4 1 4 1 Z " fill="#FFFFFF" transform="translate(915,767)"/>
<path d="M0 0 C4 1 4 1 4 1 Z " fill="#FFFFFF" transform="translate(919,766)"/>
<path d="M0 0 C4 1 4 1 4 1 Z " fill="#FFFFFF" transform="translate(930,763)"/>
<path d="M0 0 C4 1 4 1 4 1 Z " fill="#FFFFFF" transform="translate(934,762)"/>
<path d="M0 0 C4 1 4 1 4 1 Z " fill="#FFFFFF" transform="translate(938,761)"/>
<path d="M0 0 C4 1 4 1 4 1 Z " fill="#FFFFFF" transform="translate(937,591)"/>
<path d="M0 0 C3 1 3 1 3 1 Z " fill="#FFFFFF" transform="translate(774,805)"/>
<path d="M0 0 C3 1 3 1 3 1 Z " fill="#FFFFFF" transform="translate(789,801)"/>
<path d="M0 0 C3 1 3 1 3 1 Z " fill="#FFFFFF" transform="translate(800,798)"/>
<path d="M0 0 C3 1 3 1 3 1 Z " fill="#FFFFFF" transform="translate(804,797)"/>
<path d="M0 0 C3 1 3 1 3 1 Z " fill="#FFFFFF" transform="translate(811,795)"/>
<path d="M0 0 C3 1 3 1 3 1 Z " fill="#FFFFFF" transform="translate(815,794)"/>
<path d="M0 0 C3 1 3 1 3 1 Z " fill="#FFFFFF" transform="translate(819,793)"/>
<path d="M0 0 C3 1 3 1 3 1 Z " fill="#FFFFFF" transform="translate(826,791)"/>
<path d="M0 0 C3 1 3 1 3 1 Z " fill="#FFFFFF" transform="translate(830,790)"/>
<path d="M0 0 C3 1 3 1 3 1 Z " fill="#FFFFFF" transform="translate(834,789)"/>
<path d="M0 0 C3 1 3 1 3 1 Z " fill="#FFFFFF" transform="translate(837,788)"/>
<path d="M0 0 C3 1 3 1 3 1 Z " fill="#FFFFFF" transform="translate(841,787)"/>
<path d="M0 0 C3 1 3 1 3 1 Z " fill="#FFFFFF" transform="translate(845,786)"/>
<path d="M0 0 C3 1 3 1 3 1 Z " fill="#FFFFFF" transform="translate(849,785)"/>
<path d="M0 0 C3 1 3 1 3 1 Z " fill="#FFFFFF" transform="translate(852,784)"/>
<path d="M0 0 C3 1 3 1 3 1 Z " fill="#FFFFFF" transform="translate(856,783)"/>
<path d="M0 0 C3 1 3 1 3 1 Z " fill="#FFFFFF" transform="translate(860,782)"/>
<path d="M0 0 C3 1 3 1 3 1 Z " fill="#FFFFFF" transform="translate(867,780)"/>
<path d="M0 0 C3 1 3 1 3 1 Z " fill="#FFFFFF" transform="translate(871,779)"/>
<path d="M0 0 C3 1 3 1 3 1 Z " fill="#FFFFFF" transform="translate(875,778)"/>
<path d="M0 0 C3 1 3 1 3 1 Z " fill="#FFFFFF" transform="translate(882,776)"/>
<path d="M0 0 C3 1 3 1 3 1 Z " fill="#FFFFFF" transform="translate(886,775)"/>
<path d="M0 0 C3 1 3 1 3 1 Z " fill="#FFFFFF" transform="translate(897,772)"/>
<path d="M0 0 C3 1 3 1 3 1 Z " fill="#FFFFFF" transform="translate(912,768)"/>
<path d="M0 0 C2 1 2 1 2 1 Z " fill="#FFFFFF" transform="translate(685,829)"/>
<path d="M0 0 C2 1 2 1 2 1 Z " fill="#FFFFFF" transform="translate(700,825)"/>
<path d="M0 0 C2 1 2 1 2 1 Z " fill="#FFFFFF" transform="translate(711,822)"/>
<path d="M0 0 C2 1 2 1 2 1 Z " fill="#FFFFFF" transform="translate(715,821)"/>
<path d="M0 0 C2 1 2 1 2 1 Z " fill="#FFFFFF" transform="translate(726,818)"/>
<path d="M0 0 C2 1 2 1 2 1 Z " fill="#FFFFFF" transform="translate(730,817)"/>
<path d="M0 0 C2 1 2 1 2 1 Z " fill="#FFFFFF" transform="translate(737,815)"/>
<path d="M0 0 C2 1 2 1 2 1 Z " fill="#FFFFFF" transform="translate(741,814)"/>
<path d="M0 0 C2 1 2 1 2 1 Z " fill="#FFFFFF" transform="translate(745,813)"/>
<path d="M0 0 C2 1 2 1 2 1 Z " fill="#FFFFFF" transform="translate(748,812)"/>
<path d="M0 0 C2 1 2 1 2 1 Z " fill="#FFFFFF" transform="translate(752,811)"/>
<path d="M0 0 C2 1 2 1 2 1 Z " fill="#FFFFFF" transform="translate(756,810)"/>
<path d="M0 0 C2 1 2 1 2 1 Z " fill="#FFFFFF" transform="translate(760,809)"/>
<path d="M0 0 C2 1 2 1 2 1 Z " fill="#FFFFFF" transform="translate(763,808)"/>
<path d="M0 0 C2 1 2 1 2 1 Z " fill="#FFFFFF" transform="translate(767,807)"/>
<path d="M0 0 C2 1 2 1 2 1 Z " fill="#FFFFFF" transform="translate(771,806)"/>
<path d="M0 0 C2 1 2 1 2 1 Z " fill="#FFFFFF" transform="translate(778,804)"/>
<path d="M0 0 C2 1 2 1 2 1 Z " fill="#FFFFFF" transform="translate(782,803)"/>
<path d="M0 0 C2 1 2 1 2 1 Z " fill="#FFFFFF" transform="translate(786,802)"/>
<path d="M0 0 C2 1 2 1 2 1 Z " fill="#FFFFFF" transform="translate(793,800)"/>
<path d="M0 0 C2 1 2 1 2 1 Z " fill="#FFFFFF" transform="translate(797,799)"/>
<path d="M0 0 C2 1 2 1 2 1 Z " fill="#FFFFFF" transform="translate(808,796)"/>
<path d="M0 0 C2 1 2 1 2 1 Z " fill="#FFFFFF" transform="translate(823,792)"/>
<path d="" fill="#FFFFFF" transform="translate(0,0)"/>
<path d="" fill="#FFFFFF" transform="translate(0,0)"/>
<path d="" fill="#FFFFFF" transform="translate(0,0)"/>
<path d="" fill="#FFFFFF" transform="translate(0,0)"/>
<path d="" fill="#FFFFFF" transform="translate(0,0)"/>
<path d="" fill="#FFFFFF" transform="translate(0,0)"/>
<path d="" fill="#FFFFFF" transform="translate(0,0)"/>
<path d="" fill="#FFFFFF" transform="translate(0,0)"/>
<path d="" fill="#FFFFFF" transform="translate(0,0)"/>
<path d="" fill="#FFFFFF" transform="translate(0,0)"/>
<path d="" fill="#FFFFFF" transform="translate(0,0)"/>
<path d="" fill="#FFFFFF" transform="translate(0,0)"/>
<path d="" fill="#FFFFFF" transform="translate(0,0)"/>
<path d="" fill="#FFFFFF" transform="translate(0,0)"/>
<path d="" fill="#FFFFFF" transform="translate(0,0)"/>
<path d="" fill="#FFFFFF" transform="translate(0,0)"/>
<path d="" fill="#FFFFFF" transform="translate(0,0)"/>
<path d="" fill="#FFFFFF" transform="translate(0,0)"/>
<path d="" fill="#FFFFFF" transform="translate(0,0)"/>
<path d="" fill="#FFFFFF" transform="translate(0,0)"/>
<path d="" fill="#FFFFFF" transform="translate(0,0)"/>
<path d="" fill="#FFFFFF" transform="translate(0,0)"/>
</svg>
