<?xml version="1.0" encoding="UTF-8"?>
<svg version="1.1" xmlns="http://www.w3.org/2000/svg" width="1669" height="257">
<path d="M0 0 C9.56563054 2.69145204 17.15784244 9.04748506 24 16 C26.79315108 14.72106257 28.84323282 13.36142555 31.0625 11.25 C40.17761451 3.21767447 50.34124759 -0.73740606 62.38671875 -0.37109375 C66.41732975 0.04286089 68.72083316 0.67283618 71.70703125 3.375 C77.20386198 10.28340357 78.19521932 17.42554278 78.1875 26.0625 C78.18814453 26.80749756 78.18878906 27.55249512 78.18945312 28.32006836 C78.12935705 34.68000905 77.34255083 40.77871534 76 47 C77.175625 47.165 78.35125 47.33 79.5625 47.5 C90.38872607 49.93247484 101.10768132 56.31323148 108 65 C109.61385767 68.22771533 109.30949745 71.70690777 109.375 75.25 C109.43107422 76.37728516 109.43107422 76.37728516 109.48828125 77.52734375 C109.55222974 81.59873073 109.29732048 84.16247773 106.65625 87.36328125 C105.34140625 88.66845703 105.34140625 88.66845703 104 90 C103.50757813 90.54527344 103.01515625 91.09054688 102.5078125 91.65234375 C98.59430052 95.28947776 94.22802558 97.54995165 89.4375 99.8125 C88.48157959 100.26580688 88.48157959 100.26580688 87.50634766 100.72827148 C83.68669369 102.45804744 80.16169164 103.50623997 76 104 C76.2165625 105.00353516 76.2165625 105.00353516 76.4375 106.02734375 C78.66217269 117.53693507 80.49078884 132.12736654 75 143 C72.5625 145.9375 72.5625 145.9375 70 148 C69.42636719 148.52335938 68.85273438 149.04671875 68.26171875 149.5859375 C63.31674782 152.6776119 56.58908883 152.0307851 51 151 C41.37230578 147.95722251 32.94851443 142.25733729 26 135 C22.98393853 136.34998385 20.96506661 137.87390474 18.625 140.1875 C10.06424387 147.70580243 0.97723112 152.05162487 -10.43041992 151.83618164 C-15.78962351 151.43369613 -18.99486015 149.86079155 -22.5859375 145.9375 C-27.48003026 139.23178174 -28.19475437 133.05422899 -28.1875 124.9375 C-28.18814453 124.19250244 -28.18878906 123.44750488 -28.18945312 122.67993164 C-28.12935705 116.31999095 -27.34255083 110.22128466 -26 104 C-26.64324219 103.86464844 -27.28648438 103.72929687 -27.94921875 103.58984375 C-39.59935722 100.81441847 -50.09577173 95.93326202 -57.4375 86.17578125 C-60.30413795 80.34933962 -60.27737608 74.28807782 -59 68 C-55.054061 60.87957524 -49.83177852 56.49255476 -42.75 52.8125 C-42.0912085 52.46445313 -41.43241699 52.11640625 -40.75366211 51.7578125 C-35.90440662 49.27583052 -31.42426764 47.76130072 -26 47 C-26.144375 46.33097656 -26.28875 45.66195312 -26.4375 44.97265625 C-28.55955753 33.99395585 -30.76170231 19.17900741 -25 9 C-18.39938614 -0.32381794 -10.92604781 -1.65448022 0 0 Z M-16 13 C-17.86979669 17.51597955 -18.27036833 21.38196924 -18.25 26.25 C-18.25515625 27.47203125 -18.2603125 28.6940625 -18.265625 29.953125 C-18.09470601 34.73397333 -17.04217904 39.3446171 -16 44 C-3.31122495 43.57723112 -3.31122495 43.57723112 8 38.78515625 C9.93170417 36.27620455 11.48494837 33.77615995 13 31 C13.96913592 29.76677455 14.96497276 28.55346852 16 27.375 C16.66 26.59125 17.32 25.8075 18 25 C16.48276747 21.03390092 14.11305655 19.34326976 10.6875 16.9375 C9.74261719 16.26589844 8.79773438 15.59429687 7.82421875 14.90234375 C-4.49973097 6.59558922 -4.49973097 6.59558922 -16 13 Z M48.125 11.625 C47.41335693 11.98746826 46.70171387 12.34993652 45.96850586 12.72338867 C37.22163356 17.1497336 37.22163356 17.1497336 32 25 C34.23979568 28.23776511 34.23979568 28.23776511 37 31 C37.66 31 38.32 31 39 31 C39.2475 31.721875 39.495 32.44375 39.75 33.1875 C41.20299239 36.45673287 42.42920091 38.48241809 45 41 C47.80277619 41.86599733 50.5820121 42.06174272 53.5 42.25 C62.32960957 42.99954241 62.32960957 42.99954241 66 44 C68.46857175 33.19999859 70.36088644 21.14739218 65 11 C62.92707392 8.78887885 61.84123629 8.1135976 58.859375 7.7109375 C54.80845291 8.12045695 51.71271734 9.7717006 48.125 11.625 Z M25 31 C23.83037314 32.30986273 22.66437056 33.6229626 21.5 34.9375 C20.8503125 35.66839844 20.200625 36.39929688 19.53125 37.15234375 C17.8936499 38.7283755 17.8936499 38.7283755 18 40 C22.95 40 27.9 40 33 40 C32.34 39.67 31.68 39.34 31 39 C30.71125 38.401875 30.4225 37.80375 30.125 37.1875 C28.80034915 34.61179002 27.10584139 32.96545196 25 31 Z M6.16796875 54.3359375 C5.39499917 55.86623267 4.66730474 57.42076295 4 59 C3.071875 60.7015625 3.071875 60.7015625 2.125 62.4375 C0.86600331 64.83878524 0.86600331 64.83878524 1 67 C0.34 67.33 -0.32 67.66 -1 68 C-2.88674744 70.49537564 -4.22580732 72.96236899 -5 76 C-4.17994747 78.98977485 -2.95261799 80.48215049 -1 83 C-0.34 83.33 0.32 83.66 1 84 C1.2475 84.804375 1.495 85.60875 1.75 86.4375 C3.49354973 91.40661672 6.21963762 97.21963762 10 101 C14.1998603 101.36224714 18.40509241 101.44227022 22.61816406 101.51489258 C24.03268331 101.54648113 25.44693971 101.59418641 26.86035156 101.65844727 C34.9180611 102.3509776 34.9180611 102.3509776 41.96069336 99.33520508 C43.24628217 97.26702102 44.14195925 95.27421657 45 93 C46.01281539 91.51533179 47.03204907 90.0349828 48.0625 88.5625 C49.04544623 87.04410674 50.02467044 85.52329697 51 84 C51.50015625 83.30261719 52.0003125 82.60523438 52.515625 81.88671875 C53.99878025 79.44308645 54.73400946 77.85939828 55 75 C53.29545331 70.25412172 50.74744807 66.20885662 48 62 C47.08321244 60.47923954 46.1665241 58.95841925 45.25 57.4375 C44.51793967 56.28012292 43.76812 55.13376616 43 54 C42.61851807 53.3198584 42.23703613 52.6397168 41.84399414 51.93896484 C39.17303767 49.13044687 37.17515677 49.40834477 33.35546875 49.29296875 C31.33250539 49.25039047 29.30929392 49.20884645 27.28588867 49.20385742 C25.20150901 49.1876092 23.12731563 49.10225812 21.04492188 49.01367188 C12.33731532 48.7884143 12.33731532 48.7884143 6.16796875 54.3359375 Z M52 51 C55.465 57.435 55.465 57.435 59 64 C61.22825644 61.77174356 61.69239369 60.34238372 62.625 57.375 C63.07875 55.93125 63.5325 54.4875 64 53 C58.06 52.01 58.06 52.01 52 51 Z M-9.125 52 C-10.03507812 52.185625 -10.94515625 52.37125 -11.8828125 52.5625 C-12.58148438 52.706875 -13.28015625 52.85125 -14 53 C-13.525625 53.886875 -13.05125 54.77375 -12.5625 55.6875 C-11.20262851 58.57042756 -10.45939614 60.87610623 -10 64 C-7.27324841 61.59310197 -5.88033404 59.07528977 -4.3125 55.8125 C-3.87550781 54.91144531 -3.43851563 54.01039062 -2.98828125 53.08203125 C-2.66214844 52.39496094 -2.33601563 51.70789063 -2 51 C-4.47675731 51 -6.69859695 51.5022763 -9.125 52 Z M-48 68 C-50.07911801 70.58314662 -50.82653792 72.17605514 -51.5 75.375 C-50.72770505 79.4295485 -48.89762171 82.17122028 -46 85 C-42.48534452 87.33939034 -38.81017935 89.19133757 -35 91 C-34.15050781 91.41636719 -33.30101563 91.83273438 -32.42578125 92.26171875 C-28.54764376 94.08860997 -26.39388956 95 -22 95 C-15.85193751 82.72295804 -15.85193751 82.72295804 -16.09375 69.44140625 C-17.71130572 64.78238103 -19.74459054 60.38193838 -22 56 C-31.03454258 56 -41.09903867 62.31867166 -48 68 Z M73 56 C72.75765625 56.6290625 72.5153125 57.258125 72.265625 57.90625 C70.58893848 62.18824943 68.87873175 66.32847446 66.6875 70.375 C64.80957037 74.28364329 64.80957037 74.28364329 66 78 C66.78559768 79.9899983 67.60072576 81.96847338 68.4375 83.9375 C69.99376383 87.61214087 71.53085945 91.28956595 73 95 C78.32213736 94.43275025 82.41588824 92.62639777 87.125 90.25 C87.82753906 89.91484375 88.53007812 89.5796875 89.25390625 89.234375 C94.81760693 86.45778336 97.55366702 83.16949947 101 78 C101.53098008 73.11966842 100.07375626 70.73544855 97.12109375 67.00390625 C92.69201553 62.81952849 86.18572498 59 80 59 C80 58.34 80 57.68 80 57 C77.69 56.67 75.38 56.34 73 56 Z M-10 87 C-10.28875 88.0725 -10.5775 89.145 -10.875 90.25 C-12 94 -12 94 -14 98 C-8.06 98.99 -8.06 98.99 -2 100 C-4.31 95.71 -6.62 91.42 -9 87 C-9.33 87 -9.66 87 -10 87 Z M59 87 C56.69 91.29 54.38 95.58 52 100 C55.96 99.34 59.92 98.68 64 98 C62.68 94.37 61.36 90.74 60 87 C59.67 87 59.34 87 59 87 Z M-16 107 C-18.7609437 117.47679528 -20.45899481 130.21145759 -15 140 C-12.82108941 142.2081584 -12.82108941 142.2081584 -10 143 C-5.76607307 142.72974934 -1.98126147 141.4218791 2 140 C2 139.34 2 138.68 2 138 C3.07507813 137.87238281 3.07507813 137.87238281 4.171875 137.7421875 C7.60436151 136.84139684 9.51103762 135.36373272 12.25 133.125 C13.12140625 132.42632812 13.9928125 131.72765625 14.890625 131.0078125 C17.22826986 129.09708133 17.22826986 129.09708133 18 126 C16.77114249 124.1320252 16.77114249 124.1320252 14.9375 122.3125 C12.92165409 120.19076335 11.18445859 118.33121339 9.7578125 115.76953125 C8.3570085 113.25632408 7.30160682 111.75782059 5 110 C0.90149922 109.00732777 -3.0260765 108.53517969 -7.22265625 108.25390625 C-10.26508819 108.04939945 -13.0394031 107.68676614 -16 107 Z M60.5625 107.9375 C56.88861067 108.72063235 53.49841505 109.05105555 49.75 109.125 C46.63785754 109.37534584 45.38054457 109.65660022 43.0390625 111.76953125 C40.01193924 115.49772755 40.01193924 115.49772755 39 120 C38.34 120 37.68 120 37 120 C35.64287834 121.55855981 35.64287834 121.55855981 34.375 123.5 C33.92898437 124.1496875 33.48296875 124.799375 33.0234375 125.46875 C32.68570313 125.9740625 32.34796875 126.479375 32 127 C38.78898636 134.44598504 49.57501459 142.68911361 59.875 143.1875 C63.96150051 141.63462981 65.03894773 139.84667946 67 136 C69.98170192 126.95616239 68.07083054 116.05988362 66 107 C64.16028684 107 62.35425339 107.55455115 60.5625 107.9375 Z M18 111 C18.928125 112.32 19.85625 113.64 20.8125 115 C21.33457031 115.7425 21.85664062 116.485 22.39453125 117.25 C22.92433594 117.8275 23.45414062 118.405 24 119 C24.99 119 25.98 119 27 119 C30.05076843 115.96344042 30.05076843 115.96344042 31 112 C31.66 111.67 32.32 111.34 33 111 C28.05 111 23.1 111 18 111 Z " fill="#5FDAFD" transform="translate(62,53)"/>
<path d="M0 0 C3.58305992 -0.11627503 7.16563417 -0.1872736 10.75 -0.25 C11.76578125 -0.28351563 12.7815625 -0.31703125 13.828125 -0.3515625 C14.8078125 -0.36445312 15.7875 -0.37734375 16.796875 -0.390625 C17.69760742 -0.41157227 18.59833984 -0.43251953 19.52636719 -0.45410156 C22.83321712 0.15295932 23.83493855 1.46828463 26 4 C26.96781921 6.31433105 26.96781921 6.31433105 27.6315918 8.88867188 C28.01670174 10.34037781 28.01670174 10.34037781 28.40959167 11.82141113 C28.67016861 12.86003296 28.93074554 13.89865479 29.19921875 14.96875 C29.61999443 16.57743958 29.61999443 16.57743958 30.04927063 18.21862793 C30.94163542 21.64254358 31.81475596 25.0710365 32.6875 28.5 C33.28585118 30.80892017 33.88544646 33.11751832 34.48632812 35.42578125 C36.35226736 42.61002463 38.20505458 49.79764772 40 57 C41.15187119 53.6061872 42.29587227 50.20977174 43.4375 46.8125 C43.79295898 45.75708008 44.14841797 44.70166016 44.51464844 43.61425781 C46.56786709 37.46532363 48.53596411 31.2997846 50.39453125 25.08984375 C50.59183334 24.43518631 50.78913544 23.78052887 50.99241638 23.10603333 C51.961218 19.89086075 52.91731619 16.673483 53.85327148 13.44848633 C54.38223022 11.68734497 54.38223022 11.68734497 54.921875 9.890625 C55.22706055 8.84938477 55.53224609 7.80814453 55.84667969 6.73535156 C57.13100376 3.6892959 58.43948736 2.07103409 61 0 C64.05859375 -0.56640625 64.05859375 -0.56640625 67.4375 -0.5625 C68.54996094 -0.58441406 69.66242188 -0.60632813 70.80859375 -0.62890625 C74.81563418 0.16073085 76.72151127 1.72994647 79 5 C80.57636323 8.59556925 81.6684018 12.30202369 82.76953125 16.06640625 C83.09539719 17.13745102 83.42126312 18.20849579 83.75700378 19.31199646 C84.44075105 21.56993078 85.1168929 23.83018043 85.78588867 26.0925293 C86.8113058 29.55846358 87.85956971 33.01682619 88.91210938 36.47460938 C89.57425957 38.67147069 90.23511171 40.86872375 90.89453125 43.06640625 C91.20695267 44.10189102 91.51937408 45.13737579 91.84126282 46.20423889 C92.12543564 47.16881516 92.40960846 48.13339142 92.70239258 49.12719727 C92.95378494 49.97371353 93.20517731 50.8202298 93.46418762 51.69239807 C94 54 94 54 94 58 C94.66 58 95.32 58 96 58 C96.11174561 56.73325439 96.22349121 55.46650879 96.33862305 54.16137695 C96.94114749 48.77387155 98.19763745 43.65135951 99.58203125 38.41796875 C99.83748215 37.44136795 100.09293304 36.46476715 100.35612488 35.45857239 C100.89486334 33.40970589 101.43709621 31.36175531 101.98266602 29.31469727 C102.81373052 26.18286284 103.62301275 23.04589497 104.43164062 19.90820312 C104.95961556 17.91110838 105.48886808 15.91435087 106.01953125 13.91796875 C106.25823441 12.98252731 106.49693756 12.04708588 106.74287415 11.08329773 C109.0427635 2.61527646 109.0427635 2.61527646 113 0 C115.38183594 -0.45410156 115.38183594 -0.45410156 117.984375 -0.390625 C118.91894531 -0.37773438 119.85351562 -0.36484375 120.81640625 -0.3515625 C121.78449219 -0.31804687 122.75257813 -0.28453125 123.75 -0.25 C125.22533203 -0.22292969 125.22533203 -0.22292969 126.73046875 -0.1953125 C129.15468833 -0.14824028 131.57667599 -0.07905593 134 0 C131.581145 10.45445191 128.42087993 20.65092274 125.23828125 30.890625 C124.6817803 32.68942679 124.12556671 34.48831751 123.56962585 36.28729248 C122.11759145 40.98324883 120.66169974 45.6780003 119.20495605 50.37249756 C117.71434903 55.17858893 116.22745585 59.9858289 114.74023438 64.79296875 C111.83042246 74.19643074 108.91618459 83.59851234 106 93 C99.07 93 92.14 93 85 93 C84.49025635 91.28377441 83.9805127 89.56754883 83.45532227 87.79931641 C81.77249164 82.13508611 80.0879514 76.47136582 78.40223789 70.80799294 C77.38004949 67.37358874 76.35855291 63.93898191 75.33862305 60.50390625 C74.16659511 56.55668159 72.99158445 52.61035041 71.81640625 48.6640625 C71.44971329 47.42757965 71.08302032 46.1910968 70.70521545 44.91714478 C70.19479958 43.20559708 70.19479958 43.20559708 69.67407227 41.45947266 C69.22439842 39.94723618 69.22439842 39.94723618 68.76564026 38.40444946 C68.07500744 36.02105792 68.07500744 36.02105792 67 34 C64.91788156 40.65257578 62.83668368 47.30543906 60.75610352 53.95849609 C60.04928063 56.2183269 59.34225269 58.47809358 58.63500977 60.73779297 C57.61419671 63.99950291 56.59413917 67.26144834 55.57421875 70.5234375 C55.26159592 71.52176605 54.94897308 72.5200946 54.62687683 73.54867554 C52.9054951 79.05692377 51.22824336 84.57344558 49.62825012 90.11831665 C49 92 49 92 48 93 C46.5112814 93.08669432 45.018555 93.10703494 43.52734375 93.09765625 C42.62822266 93.09443359 41.72910156 93.09121094 40.80273438 93.08789062 C39.38444336 93.07532227 39.38444336 93.07532227 37.9375 93.0625 C36.98810547 93.05798828 36.03871094 93.05347656 35.06054688 93.04882812 C32.70696935 93.0370011 30.35351523 93.02052025 28 93 C25.23407487 84.08850677 22.46918822 75.17669215 19.70554161 66.26449203 C18.42153209 62.1239305 17.13719649 57.98347076 15.85205078 53.84326172 C6.02525496 22.18357479 6.02525496 22.18357479 2.2890625 9.828125 C2.04650726 9.03194763 1.80395203 8.23577026 1.55404663 7.41546631 C0 2.23777538 0 2.23777538 0 0 Z " fill="#000000" transform="translate(609,85)"/>
<path d="M0 0 C52.23684211 0 52.23684211 0 61.375 9.04296875 C67.01092765 15.83046816 67.71125099 22.64387934 67.44140625 31.33984375 C66.40839241 39.9056311 62.45811239 45.2907106 55.8671875 50.625 C54.27744516 51.79568892 52.64270273 52.90486485 51 54 C51.69222656 54.61488281 52.38445312 55.22976562 53.09765625 55.86328125 C56.98768338 59.75878537 59.61269106 64.49930832 62.4375 69.1875 C62.98470703 70.08275391 63.53191406 70.97800781 64.09570312 71.90039062 C65.19088631 73.6954542 66.28127156 75.49345435 67.36669922 77.29443359 C68.4846754 79.14636364 69.61176506 80.99281414 70.74658203 82.83447266 C71.29556152 83.73085449 71.84454102 84.62723633 72.41015625 85.55078125 C72.90781494 86.35813721 73.40547363 87.16549316 73.91821289 87.99731445 C75 90 75 90 75 92 C71.08358289 92.11618764 67.16760899 92.18724654 63.25 92.25 C62.13882813 92.28351563 61.02765625 92.31703125 59.8828125 92.3515625 C58.81289063 92.36445313 57.74296875 92.37734375 56.640625 92.390625 C55.16384277 92.4220459 55.16384277 92.4220459 53.65722656 92.45410156 C50.17658674 91.85928439 49.18182077 90.74088727 47 88 C45.81125139 86.11931608 44.68764432 84.19653408 43.6171875 82.24609375 C42.70259766 80.59383789 42.70259766 80.59383789 41.76953125 78.90820312 C41.14433594 77.76287109 40.51914062 76.61753906 39.875 75.4375 C38.62332361 73.16485336 37.37076008 70.89269502 36.1171875 68.62109375 C35.56659668 67.6148999 35.01600586 66.60870605 34.44873047 65.57202148 C32.97799485 62.88578389 32.97799485 62.88578389 31 60 C28.03 59.67 25.06 59.34 22 59 C22 69.89 22 80.78 22 92 C14.74 92 7.48 92 0 92 C0 61.64 0 31.28 0 0 Z M22 17 C22 25.58 22 34.16 22 43 C34.53322244 43.72697443 34.53322244 43.72697443 43.3125 37.75 C45.42060246 34.31457376 45.93047959 32.0321836 46 28 C44.67816654 24.03449963 43.41579611 20.56184709 40 18 C36.37918537 16.79306179 33.0749281 16.89217921 29.3125 16.9375 C26.899375 16.958125 24.48625 16.97875 22 17 Z " fill="#000000" transform="translate(362,85)"/>
<path d="M0 0 C6.6 0 13.2 0 20 0 C20 31.35 20 62.7 20 95 C7 95 7 95 3 93 C1.75 90.375 1.75 90.375 1 88 C0.319375 88.598125 -0.36125 89.19625 -1.0625 89.8125 C-8.68530976 95.48906046 -15.61235288 95.97418979 -25 95 C-30.71814677 93.33220719 -34.70535756 88.77673083 -38 84 C-43.60777194 73.76636172 -43.52538009 59.75764729 -41.31640625 48.5234375 C-38.26384726 39.5304214 -33.60307164 33.28580023 -25.1484375 28.91015625 C-19.46592868 26.50283888 -12.82822389 25.85923127 -6.86328125 27.63671875 C-5.20736759 28.34837975 -3.59854089 29.16742662 -2 30 C-1.34 30.33 -0.68 30.66 0 31 C0 20.77 0 10.54 0 0 Z M-19 48 C-21.24998789 52.36529341 -21.33353178 56.56292939 -21.3125 61.375 C-21.32861328 62.10460937 -21.34472656 62.83421875 -21.36132812 63.5859375 C-21.36597005 68.78489835 -20.40431344 72.37857027 -18 77 C-15.32333129 79.67666871 -13.76050325 79.78714133 -10 80 C-6.02050352 78.65101814 -2.54096734 77.43049357 0 74 C0.67988617 69.364125 0.50930443 64.68012823 0.5 60 C0.52835938 58.70320313 0.55671875 57.40640625 0.5859375 56.0703125 C0.58851563 54.83023438 0.59109375 53.59015625 0.59375 52.3125 C0.60083984 51.17425781 0.60792969 50.03601563 0.61523438 48.86328125 C0.27879445 45.80536027 0.27879445 45.80536027 -2.39453125 44.13476562 C-9.09912359 41.21469954 -14.55935423 41.94457395 -19 48 Z " fill="#000000" transform="translate(945,83)"/>
<path d="M0 0 C0.9590625 0.58394531 0.9590625 0.58394531 1.9375 1.1796875 C8.10847337 5.67492241 11.76353748 13.23924912 13.65234375 20.51171875 C15.23803472 31.8609901 13.96487582 42.01303391 7.765625 51.703125 C2.86555465 58.0775528 -4.26775683 62.23541246 -12.26416016 63.30200195 C-14.64317593 63.43683786 -16.9924289 63.46798731 -19.375 63.4375 C-20.21135986 63.42920166 -21.04771973 63.42090332 -21.90942383 63.41235352 C-31.35539093 63.15402585 -38.28567634 60.58637521 -45.2421875 54.06640625 C-53.16261714 44.75550118 -53.79570868 33.9223658 -53.22216797 22.23974609 C-52.44562203 14.41113906 -48.71429662 7.60477427 -42.8984375 2.3984375 C-31.41833139 -6.05810157 -12.26753776 -7.61929103 0 0 Z M-29.75 16 C-32.40322719 20.24516351 -32.21710793 24.47325489 -32.25 29.3125 C-32.270625 30.05951172 -32.29125 30.80652344 -32.3125 31.57617188 C-32.35244015 37.26265085 -31.21822347 41.31964663 -27.5 45.8125 C-24.01547845 48.57107956 -20.23633156 48.35901115 -16 48 C-12.71641257 46.54764402 -10.72111965 45.3066905 -8.9609375 42.1171875 C-5.84517187 33.99290141 -5.84517187 25.00709859 -8.9609375 16.8828125 C-10.72111965 13.6933095 -12.71641257 12.45235598 -16 11 C-22.03681637 10.25863659 -25.734616 11.41098972 -29.75 16 Z " fill="#000000" transform="translate(796,115)"/>
<path d="M0 0 C6.04892757 5.10425878 9.70853494 11.90344174 10.86328125 19.74609375 C10.95235833 21.64029158 10.99345529 23.53730966 10.98828125 25.43359375 C10.99214844 26.86251953 10.99214844 26.86251953 10.99609375 28.3203125 C10.86328125 30.74609375 10.86328125 30.74609375 9.86328125 32.74609375 C6.06451854 34.01234799 2.43906199 33.97907922 -1.5234375 34.0625 C-2.74895073 34.09367165 -2.74895073 34.09367165 -3.9992218 34.12547302 C-6.60746909 34.19082454 -9.2158165 34.24978648 -11.82421875 34.30859375 C-13.59310929 34.35179267 -15.36198972 34.3954074 -17.13085938 34.43945312 C-21.46604338 34.54649118 -25.80132804 34.64779919 -30.13671875 34.74609375 C-29.6854121 36.04153188 -29.22540395 37.33394087 -28.76171875 38.625 C-28.50648438 39.34502197 -28.25125 40.06504395 -27.98828125 40.80688477 C-26.87024439 43.35291883 -25.57513877 44.45068311 -23.13671875 45.74609375 C-17.38725174 47.66258275 -12.93603662 47.33993043 -7.57421875 44.74609375 C-3.48045341 42.81507236 -0.70908758 41.64533829 3.86328125 42.74609375 C6.57861966 45.50410938 8.75109962 48.51041125 10.86328125 51.74609375 C6.03536191 57.37866631 -1.60444346 62.26080644 -9.15454102 62.9230957 C-29.66480088 63.46989074 -29.66480088 63.46989074 -37.13671875 58.74609375 C-37.77480469 58.35679687 -38.41289062 57.9675 -39.0703125 57.56640625 C-45.3907287 52.97221125 -49.86379421 44.41161734 -51.13671875 36.74609375 C-51.91550444 24.46426048 -51.5219476 14.9049743 -43.57421875 4.93359375 C-32.37080502 -6.61800651 -13.77502636 -8.0836992 0 0 Z M-28.13671875 13.74609375 C-30.14468259 16.80584818 -30.13671875 17.89095261 -30.13671875 21.74609375 C-22.87671875 21.74609375 -15.61671875 21.74609375 -8.13671875 21.74609375 C-8.13671875 15.58445601 -8.16198486 14.83773158 -12.13671875 10.74609375 C-17.8069167 7.91099477 -23.94510916 9.17342874 -28.13671875 13.74609375 Z " fill="#000000" transform="translate(492.13671875,115.25390625)"/>
<path d="M0 0 C5.88885849 5.07456743 8.60238558 11.11262721 9.94921875 18.6796875 C10.20120694 22.22528494 10.18342353 25.75164046 10.14453125 29.3046875 C10.14170135 30.29218994 10.13887146 31.27969238 10.13595581 32.29711914 C10.12483695 35.42476965 10.09974791 38.55212478 10.07421875 41.6796875 C10.06417823 43.81119376 10.05505426 45.94270454 10.046875 48.07421875 C10.02492487 53.276141 9.99153082 58.47789314 9.94921875 63.6796875 C8.35421995 63.70003716 6.75914573 63.71452954 5.1640625 63.7265625 C4.27581787 63.73526367 3.38757324 63.74396484 2.47241211 63.75292969 C-0.73551451 63.65981135 -3.16500206 63.08738467 -6.05078125 61.6796875 C-7.92578125 59.5546875 -7.92578125 59.5546875 -9.05078125 57.6796875 C-9.59347656 58.02902344 -10.13617187 58.37835938 -10.6953125 58.73828125 C-11.41074219 59.19332031 -12.12617187 59.64835937 -12.86328125 60.1171875 C-13.92482422 60.79587891 -13.92482422 60.79587891 -15.0078125 61.48828125 C-19.18922287 63.92677104 -23.16324651 63.8955984 -27.86328125 63.9296875 C-28.56259766 63.9503125 -29.26191406 63.9709375 -29.98242188 63.9921875 C-35.51819556 64.03361518 -39.56405735 62.94786322 -43.6953125 59.1796875 C-48.33620112 53.21948272 -48.94014834 48.07760465 -48.05078125 40.6796875 C-45.89281632 35.06153744 -42.4317742 31.37018398 -37.05078125 28.6796875 C-27.96404667 25.00415441 -19.79761066 24.15362174 -10.05078125 24.6796875 C-10.89291068 18.7364862 -10.89291068 18.7364862 -13.73828125 13.6171875 C-17.86101507 11.94580892 -21.31535539 12.0100698 -25.48046875 13.6171875 C-26.32867188 13.9884375 -27.176875 14.3596875 -28.05078125 14.7421875 C-32.48911201 16.61450306 -35.35455716 17.42926118 -40.05078125 15.6796875 C-42.23384548 13.59954689 -43.93284029 11.49200774 -45.05078125 8.6796875 C-44.96484375 6.64453125 -44.96484375 6.64453125 -44.05078125 4.6796875 C-42.01171875 3.046875 -42.01171875 3.046875 -39.42578125 1.5546875 C-38.58789062 1.05710937 -37.75 0.55953125 -36.88671875 0.046875 C-26.4792549 -4.97049738 -10.15852089 -6.27594485 0 0 Z M-27.05078125 39.6796875 C-28.85669709 42.51180123 -28.85669709 42.51180123 -29.05078125 45.6796875 C-28.42710421 48.23493247 -28.42710421 48.23493247 -26.05078125 49.6796875 C-21.47134761 50.55621972 -17.49029428 50.34627238 -13.55078125 47.7421875 C-11.75096734 46.26575658 -11.75096734 46.26575658 -10.05078125 44.6796875 C-9.97929926 43.32724833 -9.96678671 41.97134383 -9.98828125 40.6171875 C-10.00890625 39.3178125 -10.02953125 38.0184375 -10.05078125 36.6796875 C-16.42796394 36.33324096 -21.53009729 36.22926002 -27.05078125 39.6796875 Z " fill="#000000" transform="translate(558.05078125,114.3203125)"/>
<path d="M0 0 C0 0.66 0 1.32 0 2 C0.66 2.061875 1.32 2.12375 2 2.1875 C9.52820529 4.22638893 13.99113616 8.69787598 18.45703125 14.9140625 C19.88598254 16.98862641 19.88598254 16.98862641 21.54296875 18.3984375 C27.50569244 24.95263781 31.15198279 39.32595508 31.1875 48.1875 C31.0946875 49.5796875 31.0946875 49.5796875 31 51 C29.39536551 50.68991116 27.79130769 50.37683713 26.1875 50.0625 C25.29417969 49.88847656 24.40085937 49.71445313 23.48046875 49.53515625 C21 49 21 49 18 48 C17.32739258 46.31689453 17.32739258 46.31689453 16.89453125 44.1328125 C16.63265015 42.93507202 16.63265015 42.93507202 16.36547852 41.71313477 C16.18299561 40.85905029 16.0005127 40.00496582 15.8125 39.125 C13.5106829 29.44289703 10.13242615 21.42307963 1.75 15.375 C-5.18937633 11.90531183 -13.40898197 11.93310923 -20.75 14.25 C-22.17856065 14.80356725 -23.59638769 15.38591962 -25 16 C-25.639375 16.26683594 -26.27875 16.53367187 -26.9375 16.80859375 C-31.55121863 19.04584955 -33.59249933 21.94319843 -35.95703125 26.29296875 C-37 28 -37 28 -39 29 C-40.31669566 31.89014697 -41.12808171 34.95061733 -42 38 C-42.21011719 38.69867188 -42.42023438 39.39734375 -42.63671875 40.1171875 C-46.6866065 56.2592933 -45.21114354 76.66356138 -36.98828125 91.14453125 C-36 93 -36 93 -36 95 C-34.96875 95.061875 -33.9375 95.12375 -32.875 95.1875 C-28.07047303 96.19490082 -26.46470032 97.61779254 -23 101 C-21.39039759 104.21920482 -21.53841874 107.50888539 -22 111 C-23.81168887 114.69305808 -25.39486659 116.57365601 -28.75 118.9375 C-32.87877106 120.28729054 -35.85436788 120.2223204 -40 119 C-43.08164818 117.39218356 -44.55436645 116.19206975 -45.78125 112.91015625 C-46.64357213 109.50057995 -47.23759219 106.94889304 -46.37109375 103.48828125 C-45.88125369 100.20377471 -46.76636491 99.27644552 -48.6875 96.625 C-52.86460187 90.16506339 -54.34049895 83.44647906 -56 76 C-56.26369385 74.82256226 -56.26369385 74.82256226 -56.53271484 73.62133789 C-59.24668021 58.39675791 -58.85465951 37.29302999 -50 24 C-49.47921875 23.19820312 -48.9584375 22.39640625 -48.421875 21.5703125 C-35.35883828 2.46409524 -22.48052165 -1.31085959 0 0 Z " fill="#7C52BF" transform="translate(251,55)"/>
<path d="M0 0 C3.125 1.375 3.125 1.375 5 3 C5 3.66 5 4.32 5 5 C5.57363281 4.96519531 6.14726562 4.93039063 6.73828125 4.89453125 C13.24969667 4.68703546 19.45887092 5.36942764 25.875 6.375 C26.69524658 6.50108643 27.51549316 6.62717285 28.3605957 6.75708008 C42.64183706 9.10385916 55.44545646 17.38751489 66 27 C66.66644531 27.59683594 67.33289063 28.19367188 68.01953125 28.80859375 C76.56525265 36.87024379 82.97075331 47.23984276 83.53125 59.1640625 C83.54173003 61.31770803 83.53105933 63.47155295 83.5 65.625 C83.52320313 67.24535156 83.52320313 67.24535156 83.546875 68.8984375 C83.51432373 75.57144884 82.69647218 80.40063041 79 86 C78.505 86.75410156 78.01 87.50820312 77.5 88.28515625 C71.42274117 95.48607491 61.65268644 102.34426432 52.05249023 103.29052734 C48.51377487 103.34006456 44.9765882 103.3713192 41.4375 103.375 C40.22513672 103.39949219 39.01277344 103.42398438 37.76367188 103.44921875 C29.4662625 103.47591283 22.68451889 102.12767805 15 99 C15.495 97.02 15.495 97.02 16 95 C16.66 95 17.32 95 18 95 C18 94.34 18 93.68 18 93 C20.64846603 90.63785462 22.61516396 89.12827868 26 88 C27.91544371 88.74789559 29.83017347 89.49773616 31.73925781 90.26171875 C35.5856827 91.51782986 39.35738471 91.53118198 43.375 91.5 C44.20845947 91.49572998 45.04191895 91.49145996 45.90063477 91.48706055 C53.87746452 91.26675774 59.59662991 89.31380772 65.375 83.6875 C65.91125 82.800625 66.4475 81.91375 67 81 C67.36867188 80.47148437 67.73734375 79.94296875 68.1171875 79.3984375 C72.03187321 73.05394686 71.90140749 66.2269366 71 59 C67.45877289 46.31185863 58.74148987 34.90395713 47.36328125 28.1875 C42.41243879 25.69980395 37.21261798 23.8570752 32 22 C31.15695312 21.68804687 30.31390625 21.37609375 29.4453125 21.0546875 C24.63301822 19.33957916 20.09350361 18.35060445 15 18 C14.23300781 17.91234375 13.46601563 17.8246875 12.67578125 17.734375 C10.30476894 17.56193774 8.32802004 17.50563281 6 18 C4.28859531 19.96185416 2.62126675 21.96302383 1 24 C-2.99896261 25.55608168 -6.20309104 25.24520276 -10.25 24 C-13.73755678 21.46359507 -15.51856234 19.0365015 -17 15 C-17.62049484 10.57897423 -17.33830011 8.61827262 -15.1875 4.6875 C-10.74943632 -0.76497824 -6.59788821 -0.70391483 0 0 Z " fill="#784CBC" transform="translate(235,101)"/>
<path d="M0 0 C0.99 0.33 1.98 0.66 3 1 C4.62651749 5.22894547 5.85520324 8.74394551 4 13 C2.9881509 13.8892871 1.94077956 14.73861647 0.875 15.5625 C-6.51658771 21.52149133 -10.92659234 30.56594355 -12.04296875 39.9140625 C-11.93157602 47.91408591 -9.30269364 55.93742858 -3.6328125 61.70703125 C-0.94957245 63.83179789 1.77028664 64.92342888 5 66 C6.051875 66.391875 7.10375 66.78375 8.1875 67.1875 C22.95431153 70.33452541 38.37504319 65.92775938 51 58 C52.35625082 56.68998501 53.69063696 55.35688024 55 54 C56.42491857 52.94118805 57.8629002 51.89976149 59.3125 50.875 C66.0609583 45.70525847 70.55374333 38.70339726 74 31 C73.34 31 72.68 31 72 31 C70.26477143 27.52954285 70.53965425 23.79456421 71 20 C73.57660125 15.25905371 76.91909148 13.57683368 82 12 C86.41006646 12.17640266 89.48505409 13.34004093 93 16 C95.26711915 18.81435481 95.95603875 20.74111711 96.5625 24.3125 C95.80734679 29.26294885 93.63191521 32.57292166 90 36 C89.16726563 36.2990625 88.33453125 36.598125 87.4765625 36.90625 C84.17427122 38.36467517 83.5948005 39.96744822 82.0625 43.1875 C79.52781658 48.16517286 76.90574934 52.00548363 73 56 C72.34 56 71.68 56 71 56 C70.76796875 56.57105469 70.5359375 57.14210937 70.296875 57.73046875 C65.14295971 66.7498205 53.2741652 72.24356975 44 76 C43.13052734 76.35304199 42.26105469 76.70608398 41.36523438 77.06982422 C33.59191285 79.95848914 26.62591096 80.61175049 18.375 80.5 C17.22515625 80.51546875 16.0753125 80.5309375 14.890625 80.546875 C3.35029002 80.49429944 -5.70145335 77.12981465 -14 69 C-19.23540958 62.53677391 -22.12476284 57.89099556 -22.1328125 49.46875 C-22.13410156 48.18355469 -22.13539063 46.89835937 -22.13671875 45.57421875 C-22.13357666 44.57140869 -22.13357666 44.57140869 -22.13037109 43.54833984 C-22.12501943 41.50741135 -22.13032396 39.46670291 -22.13671875 37.42578125 C-22.13542969 36.14058594 -22.13414062 34.85539062 -22.1328125 33.53125 C-22.13168457 32.35111328 -22.13055664 31.17097656 -22.12939453 29.95507812 C-22 27 -22 27 -21 24 C-20.34 24 -19.68 24 -19 24 C-18.85884766 22.92685547 -18.85884766 22.92685547 -18.71484375 21.83203125 C-16.53539669 13.19760984 -8.90710544 6.61508565 -2.19921875 1.265625 C-1.47347656 0.84796875 -0.74773437 0.4303125 0 0 Z " fill="#7C52BE" transform="translate(186,124)"/>
<path d="M0 0 C6.6 0 13.2 0 20 0 C20 31.35 20 62.7 20 95 C13.4 95 6.8 95 0 95 C0 63.65 0 32.3 0 0 Z " fill="#000000" transform="translate(872,83)"/>
<path d="M0 0 C6.6 0 13.2 0 20 0 C20 31.35 20 62.7 20 95 C13.4 95 6.8 95 0 95 C0 63.65 0 32.3 0 0 Z " fill="#000000" transform="translate(582,83)"/>
<path d="M0 0 C1.60875 -0.00386719 1.60875 -0.00386719 3.25 -0.0078125 C6 0.125 6 0.125 8 1.125 C7.6919856 3.75059844 7.37879818 6.37539806 7.0625 9 C6.97548828 9.74636719 6.88847656 10.49273437 6.79882812 11.26171875 C6.11328125 16.8984375 6.11328125 16.8984375 5 19.125 C2.75473532 19.30426852 0.50197261 19.39311465 -1.75 19.4375 C-7.62026721 19.56474962 -7.62026721 19.56474962 -12.3125 22.625 C-12.869375 23.45 -13.42625 24.275 -14 25.125 C-14.33 25.455 -14.66 25.785 -15 26.125 C-15.1603556 29.15307044 -15.25960448 32.16085454 -15.31640625 35.19140625 C-15.33718735 36.10002914 -15.35796844 37.00865204 -15.37937927 37.94480896 C-15.44497672 40.85895946 -15.5038068 43.77320304 -15.5625 46.6875 C-15.60567554 48.65821291 -15.64928951 50.62891626 -15.69335938 52.59960938 C-15.80149686 57.44131209 -15.90049402 62.28308128 -16 67.125 C-22.6 67.125 -29.2 67.125 -36 67.125 C-36 45.345 -36 23.565 -36 1.125 C-30.72 1.125 -25.44 1.125 -20 1.125 C-17.77810176 3.34689824 -17.07401108 5.20982708 -16 8.125 C-15.44570313 7.63128906 -14.89140625 7.13757813 -14.3203125 6.62890625 C-13.59585938 5.98824219 -12.87140625 5.34757812 -12.125 4.6875 C-11.40570312 4.04941406 -10.68640625 3.41132812 -9.9453125 2.75390625 C-6.56372867 -0.07766094 -4.35197508 -0.01046148 0 0 Z " fill="#000000" transform="translate(856,110.875)"/>
<path d="M0 0 C2.95068004 2.95068004 4.57449236 5.71148473 6.4375 9.4375 C6.95699219 8.81101562 7.47648437 8.18453125 8.01171875 7.5390625 C8.70910156 6.72179687 9.40648437 5.90453125 10.125 5.0625 C10.80949219 4.25039062 11.49398438 3.43828125 12.19921875 2.6015625 C16.50028942 -1.55688978 20.53794819 -1.8559868 26.375 -1.875 C28.15197266 -1.90013672 28.15197266 -1.90013672 29.96484375 -1.92578125 C35.31186437 -1.36641914 38.45877099 0.43652715 42.1875 4.25 C46.84475521 10.84777821 46.71014122 16.94496281 46.6328125 24.7421875 C46.6299826 25.82130402 46.62715271 26.90042053 46.62423706 28.01223755 C46.6130766 31.44577299 46.5879793 34.87904391 46.5625 38.3125 C46.55246487 40.64582956 46.54333995 42.97916322 46.53515625 45.3125 C46.51315079 51.020923 46.47971427 56.72919259 46.4375 62.4375 C44.1275 62.4375 41.8175 62.4375 39.4375 62.4375 C39.43203156 61.58091797 39.43203156 61.58091797 39.42645264 60.70703125 C39.38447912 54.73640984 39.31503048 48.76654655 39.22998047 42.79638672 C39.20184228 40.57152914 39.18059235 38.34657293 39.16650391 36.12158203 C39.14497568 32.91387697 39.09827322 29.70734897 39.046875 26.5 C39.04564636 25.51322266 39.04441772 24.52644531 39.04315186 23.50976562 C38.91827303 17.55435946 38.26833939 12.22957282 34.4375 7.4375 C29.91629239 4.72108737 25.57649455 4.94148945 20.4375 5.4375 C17.16893897 6.40596253 15.32041925 7.19330485 13.32757568 10.00158691 C10.21300227 15.77422151 9.83638148 20.79707352 9.828125 27.28125 C9.81158875 28.29094849 9.79505249 29.30064697 9.77801514 30.34094238 C9.72974949 33.53985813 9.70821148 36.73829921 9.6875 39.9375 C9.65932246 42.11721111 9.62939255 44.29690031 9.59765625 46.4765625 C9.52399666 51.79678943 9.47222887 57.11688406 9.4375 62.4375 C7.1275 62.4375 4.8175 62.4375 2.4375 62.4375 C2.42291748 61.15174072 2.40833496 59.86598145 2.39331055 58.54125977 C2.33502431 53.73825262 2.25779439 48.9356995 2.17504883 44.13305664 C2.14194155 42.06054086 2.11386612 39.98793799 2.09106445 37.9152832 C2.05725624 34.92361589 2.00492832 31.93273651 1.94921875 28.94140625 C1.94282883 28.02541153 1.9364389 27.10941681 1.92985535 26.16566467 C1.77226794 19.15785584 0.87517925 12.4661318 -3.625 6.875 C-7.96244535 4.75242036 -11.82492721 4.68465938 -16.5625 5.4375 C-20.98664212 7.64957106 -23.973823 10.23511541 -26.5625 14.4375 C-27.17628395 18.0956077 -27.16743263 21.72283031 -27.171875 25.42578125 C-27.18841125 26.48411667 -27.20494751 27.54245209 -27.22198486 28.63285828 C-27.27047805 32.00529782 -27.29183946 35.37728635 -27.3125 38.75 C-27.34065846 41.03973625 -27.37058571 43.32945147 -27.40234375 45.61914062 C-27.47623729 51.22517851 -27.52787216 56.83108948 -27.5625 62.4375 C-29.8725 62.4375 -32.1825 62.4375 -34.5625 62.4375 C-34.5625 41.6475 -34.5625 20.8575 -34.5625 -0.5625 C-32.5825 -0.5625 -30.6025 -0.5625 -28.5625 -0.5625 C-28.2325 1.7475 -27.9025 4.0575 -27.5625 6.4375 C-27.10359375 6.02757813 -26.6446875 5.61765625 -26.171875 5.1953125 C-25.55828125 4.65648438 -24.9446875 4.11765625 -24.3125 3.5625 C-23.40757813 2.76199219 -23.40757813 2.76199219 -22.484375 1.9453125 C-16.07586724 -3.0825005 -7.34708008 -3.22240355 0 0 Z " fill="#777777" transform="translate(1219.5625,115.5625)"/>
<path d="M0 0 C0.69029297 -0.01611328 1.38058594 -0.03222656 2.09179688 -0.04882812 C7.84243262 -0.05427896 11.75318094 1.29016428 16.07421875 5.07421875 C22.04802759 11.93922518 24.48764377 18.18447991 25.0625 27.3125 C25.11535156 27.98796875 25.16820312 28.6634375 25.22265625 29.359375 C25.66018151 39.78388983 23.23533883 50.50388681 16.0625 58.3125 C10.62163133 63.16871393 4.25837701 64.93119673 -2.9375 65.3125 C-10.13070535 64.8437938 -13.77098993 63.42350671 -19.9375 59.3125 C-20.2675 67.8925 -20.5975 76.4725 -20.9375 85.3125 C-23.2475 85.3125 -25.5575 85.3125 -27.9375 85.3125 C-27.9375 57.5925 -27.9375 29.8725 -27.9375 1.3125 C-25.9575 1.3125 -23.9775 1.3125 -21.9375 1.3125 C-21.6075 3.9525 -21.2775 6.5925 -20.9375 9.3125 C-20.41800781 8.83039063 -19.89851563 8.34828125 -19.36328125 7.8515625 C-18.31720703 6.90410156 -18.31720703 6.90410156 -17.25 5.9375 C-16.56550781 5.31101562 -15.88101562 4.68453125 -15.17578125 4.0390625 C-10.385183 0.34369701 -5.90735725 -0.02742506 0 0 Z M-15.9375 11.3125 C-16.78554199 12.01028564 -17.63358398 12.70807129 -18.50732422 13.42700195 C-21.5035848 16.98464751 -21.66574245 19.60962479 -21.6015625 24.0625 C-21.60634613 24.79823242 -21.61112976 25.53396484 -21.61605835 26.29199219 C-21.6194488 27.84181873 -21.61030592 29.39171761 -21.58935547 30.94140625 C-21.56257002 33.30631786 -21.58912417 35.66648502 -21.62109375 38.03125 C-21.61778949 39.54167708 -21.6113829 41.05210123 -21.6015625 42.5625 C-21.61168365 43.2647168 -21.62180481 43.96693359 -21.63223267 44.69042969 C-21.54038932 48.56087848 -21.05412232 50.17238173 -18.54663086 53.18505859 C-11.72692457 58.74573237 -6.61267605 59.11109754 2.0625 58.3125 C7.9514743 56.31445515 11.74272329 52.62210925 14.8125 47.25 C17.0747218 41.93377877 17.27518728 37.27134685 17.3125 31.5625 C17.333125 30.7890625 17.35375 30.015625 17.375 29.21875 C17.43159099 20.78669314 14.98781855 14.38233852 9.0625 8.3125 C1.25484214 3.29698469 -9.33274932 5.44643854 -15.9375 11.3125 Z " fill="#777777" transform="translate(1624.9375,113.6875)"/>
<path d="M0 0 C0.69029297 -0.01611328 1.38058594 -0.03222656 2.09179688 -0.04882812 C7.84243262 -0.05427896 11.75318094 1.29016428 16.07421875 5.07421875 C22.04802759 11.93922518 24.48764377 18.18447991 25.0625 27.3125 C25.11535156 27.98796875 25.16820312 28.6634375 25.22265625 29.359375 C25.66018151 39.78388983 23.23533883 50.50388681 16.0625 58.3125 C10.62163133 63.16871393 4.25837701 64.93119673 -2.9375 65.3125 C-10.13070535 64.8437938 -13.77098993 63.42350671 -19.9375 59.3125 C-20.2675 67.8925 -20.5975 76.4725 -20.9375 85.3125 C-23.2475 85.3125 -25.5575 85.3125 -27.9375 85.3125 C-27.9375 57.5925 -27.9375 29.8725 -27.9375 1.3125 C-25.9575 1.3125 -23.9775 1.3125 -21.9375 1.3125 C-21.6075 3.9525 -21.2775 6.5925 -20.9375 9.3125 C-20.41800781 8.83039063 -19.89851563 8.34828125 -19.36328125 7.8515625 C-18.31720703 6.90410156 -18.31720703 6.90410156 -17.25 5.9375 C-16.56550781 5.31101562 -15.88101562 4.68453125 -15.17578125 4.0390625 C-10.385183 0.34369701 -5.90735725 -0.02742506 0 0 Z M-15.9375 11.3125 C-16.78554199 12.01028564 -17.63358398 12.70807129 -18.50732422 13.42700195 C-21.5035848 16.98464751 -21.66574245 19.60962479 -21.6015625 24.0625 C-21.60634613 24.79823242 -21.61112976 25.53396484 -21.61605835 26.29199219 C-21.6194488 27.84181873 -21.61030592 29.39171761 -21.58935547 30.94140625 C-21.56257002 33.30631786 -21.58912417 35.66648502 -21.62109375 38.03125 C-21.61778949 39.54167708 -21.6113829 41.05210123 -21.6015625 42.5625 C-21.61168365 43.2647168 -21.62180481 43.96693359 -21.63223267 44.69042969 C-21.54038932 48.56087848 -21.05412232 50.17238173 -18.54663086 53.18505859 C-11.72692457 58.74573237 -6.61267605 59.11109754 2.0625 58.3125 C7.9514743 56.31445515 11.74272329 52.62210925 14.8125 47.25 C17.0747218 41.93377877 17.27518728 37.27134685 17.3125 31.5625 C17.333125 30.7890625 17.35375 30.015625 17.375 29.21875 C17.43159099 20.78669314 14.98781855 14.38233852 9.0625 8.3125 C1.25484214 3.29698469 -9.33274932 5.44643854 -15.9375 11.3125 Z " fill="#777777" transform="translate(1557.9375,113.6875)"/>
<path d="M0 0 C0.69029297 -0.01611328 1.38058594 -0.03222656 2.09179688 -0.04882812 C7.84243262 -0.05427896 11.75318094 1.29016428 16.07421875 5.07421875 C22.04802759 11.93922518 24.48764377 18.18447991 25.0625 27.3125 C25.11535156 27.98796875 25.16820312 28.6634375 25.22265625 29.359375 C25.66018151 39.78388983 23.23533883 50.50388681 16.0625 58.3125 C10.62163133 63.16871393 4.25837701 64.93119673 -2.9375 65.3125 C-10.13070535 64.8437938 -13.77098993 63.42350671 -19.9375 59.3125 C-20.2675 67.8925 -20.5975 76.4725 -20.9375 85.3125 C-23.2475 85.3125 -25.5575 85.3125 -27.9375 85.3125 C-27.9375 57.5925 -27.9375 29.8725 -27.9375 1.3125 C-25.9575 1.3125 -23.9775 1.3125 -21.9375 1.3125 C-21.6075 3.9525 -21.2775 6.5925 -20.9375 9.3125 C-20.41800781 8.83039063 -19.89851563 8.34828125 -19.36328125 7.8515625 C-18.31720703 6.90410156 -18.31720703 6.90410156 -17.25 5.9375 C-16.56550781 5.31101562 -15.88101562 4.68453125 -15.17578125 4.0390625 C-10.385183 0.34369701 -5.90735725 -0.02742506 0 0 Z M-15.9375 11.3125 C-16.78554199 12.01028564 -17.63358398 12.70807129 -18.50732422 13.42700195 C-21.5035848 16.98464751 -21.66574245 19.60962479 -21.6015625 24.0625 C-21.60634613 24.79823242 -21.61112976 25.53396484 -21.61605835 26.29199219 C-21.6194488 27.84181873 -21.61030592 29.39171761 -21.58935547 30.94140625 C-21.56257002 33.30631786 -21.58912417 35.66648502 -21.62109375 38.03125 C-21.61778949 39.54167708 -21.6113829 41.05210123 -21.6015625 42.5625 C-21.61168365 43.2647168 -21.62180481 43.96693359 -21.63223267 44.69042969 C-21.54038932 48.56087848 -21.05412232 50.17238173 -18.54663086 53.18505859 C-11.72692457 58.74573237 -6.61267605 59.11109754 2.0625 58.3125 C7.9514743 56.31445515 11.74272329 52.62210925 14.8125 47.25 C17.0747218 41.93377877 17.27518728 37.27134685 17.3125 31.5625 C17.333125 30.7890625 17.35375 30.015625 17.375 29.21875 C17.43159099 20.78669314 14.98781855 14.38233852 9.0625 8.3125 C1.25484214 3.29698469 -9.33274932 5.44643854 -15.9375 11.3125 Z " fill="#777777" transform="translate(1312.9375,113.6875)"/>
<path d="M0 0 C6.17305029 3.87008009 10.15951893 9.55784824 12.375 16.4375 C14.02769461 25.45845808 14.02769461 25.45845808 11.375 29.4375 C9.42611694 29.79826355 9.42611694 29.79826355 7.01708984 29.77807617 C6.11630707 29.77784958 5.21552429 29.77762299 4.28744507 29.77738953 C3.31344757 29.76190567 2.33945007 29.74642181 1.3359375 29.73046875 C0.33994537 29.72622391 -0.65604675 29.72197906 -1.68222046 29.71760559 C-4.87175225 29.7007768 -8.06065833 29.66311676 -11.25 29.625 C-13.40884506 29.6099586 -15.5677 29.59626925 -17.7265625 29.58398438 C-23.02625612 29.55085967 -28.32558337 29.50061896 -33.625 29.4375 C-33.33600432 31.34475822 -33.03883637 33.25077918 -32.73828125 35.15625 C-32.57368408 36.21779297 -32.40908691 37.27933594 -32.23950195 38.37304688 C-31.13863363 43.86295517 -29.19419062 47.90854504 -25.1875 51.8125 C-18.33536588 56.15775579 -11.5745729 56.33810521 -3.625 55.4375 C-0.78773705 54.32954507 1.62960503 53.07190337 4.19140625 51.43359375 C6.97075728 50.16573237 8.49821075 50.59316994 11.375 51.4375 C11.06738119 54.30860893 10.41118633 55.40018285 8.375 57.5 C-0.4441017 63.19566985 -10.76171932 64.45063908 -20.91796875 62.27734375 C-28.87580384 59.80846274 -33.58805254 55.18923694 -37.47265625 47.92578125 C-42.12962117 37.8698943 -42.3876604 25.08544912 -38.66015625 14.6484375 C-35.316343 7.50655713 -30.66782133 2.93638565 -23.625 -0.5625 C-16.91437755 -2.79937415 -6.4749301 -2.95347689 0 0 Z M-27.8125 10.625 C-30.98054554 14.53308768 -33.625 19.27932215 -33.625 24.4375 C-20.425 24.4375 -7.225 24.4375 6.375 24.4375 C5.40610577 15.71745189 5.02274422 12.65098895 -1.25 7.125 C-9.55414218 1.22468845 -21.11641009 3.5063413 -27.8125 10.625 Z " fill="#777777" transform="translate(1416.625,115.5625)"/>
<path d="M0 0 C6.17305029 3.87008009 10.15951893 9.55784824 12.375 16.4375 C14.02769461 25.45845808 14.02769461 25.45845808 11.375 29.4375 C9.42611694 29.79826355 9.42611694 29.79826355 7.01708984 29.77807617 C6.11630707 29.77784958 5.21552429 29.77762299 4.28744507 29.77738953 C3.31344757 29.76190567 2.33945007 29.74642181 1.3359375 29.73046875 C0.33994537 29.72622391 -0.65604675 29.72197906 -1.68222046 29.71760559 C-4.87175225 29.7007768 -8.06065833 29.66311676 -11.25 29.625 C-13.40884506 29.6099586 -15.5677 29.59626925 -17.7265625 29.58398438 C-23.02625612 29.55085967 -28.32558337 29.50061896 -33.625 29.4375 C-33.33600432 31.34475822 -33.03883637 33.25077918 -32.73828125 35.15625 C-32.57368408 36.21779297 -32.40908691 37.27933594 -32.23950195 38.37304688 C-31.13863363 43.86295517 -29.19419062 47.90854504 -25.1875 51.8125 C-18.33536588 56.15775579 -11.5745729 56.33810521 -3.625 55.4375 C-0.78773705 54.32954507 1.62960503 53.07190337 4.19140625 51.43359375 C6.97075728 50.16573237 8.49821075 50.59316994 11.375 51.4375 C11.06738119 54.30860893 10.41118633 55.40018285 8.375 57.5 C-0.66824265 63.34042754 -11.8202673 64.03550165 -22.2578125 61.8984375 C-30.76576338 58.9546218 -34.72129777 53.16234882 -38.625 45.4375 C-42.14883571 35.98721334 -42.04929718 24.1380321 -38.66015625 14.6484375 C-35.316343 7.50655713 -30.66782133 2.93638565 -23.625 -0.5625 C-16.91437755 -2.79937415 -6.4749301 -2.95347689 0 0 Z M-27.8125 10.625 C-30.98054554 14.53308768 -33.625 19.27932215 -33.625 24.4375 C-20.425 24.4375 -7.225 24.4375 6.375 24.4375 C5.40610577 15.71745189 5.02274422 12.65098895 -1.25 7.125 C-9.55414218 1.22468845 -21.11641009 3.5063413 -27.8125 10.625 Z " fill="#777777" transform="translate(1042.625,115.5625)"/>
<path d="M0 0 C0.7022168 0.00644531 1.40443359 0.01289062 2.12792969 0.01953125 C7.04216357 0.19300165 10.68433089 0.8416254 14.58203125 3.87890625 C21.35481992 11.29502049 21.21159226 20.42882931 21.16015625 29.9296875 C21.1587413 30.92001984 21.15732635 31.91035217 21.15586853 32.93069458 C21.15029252 36.07882773 21.13774442 39.22688852 21.125 42.375 C21.1199819 44.51562397 21.11541954 46.65624906 21.11132812 48.796875 C21.10033094 54.03127449 21.08361675 59.26563207 21.0625 64.5 C18.0925 64.005 18.0925 64.005 15.0625 63.5 C14.4025 61.19 13.7425 58.88 13.0625 56.5 C12.54300781 56.90992188 12.02351563 57.31984375 11.48828125 57.7421875 C4.31449163 63.28496765 -2.09703605 66.1995929 -11.34375 65.25390625 C-16.11647243 64.35504353 -19.56506532 63.17000244 -22.9375 59.5 C-25.56278873 54.70205854 -26.5318773 50.94845861 -25.9375 45.5 C-24.1603356 40.56343222 -21.47172128 37.12878977 -16.9375 34.5 C-8.82616468 31.22469116 -1.37591368 29.35571576 7.375 29.4375 C8.62925781 29.44652344 9.88351562 29.45554688 11.17578125 29.46484375 C12.12839844 29.47644531 13.08101562 29.48804688 14.0625 29.5 C13.8060918 27.10182921 13.5329516 24.70756272 13.25 22.3125 C13.17974609 21.63896484 13.10949219 20.96542969 13.03710938 20.27148438 C12.51740732 16.00992756 11.72701503 12.89741194 9.0625 9.5 C4.36160779 6.24323781 -1.50375401 6.61677627 -6.9375 7.5 C-10.32585339 9.12103254 -13.33919253 10.9529459 -16.44140625 13.06640625 C-17.26511719 13.53949219 -18.08882812 14.01257813 -18.9375 14.5 C-19.9275 14.17 -20.9175 13.84 -21.9375 13.5 C-22.625 11.4375 -22.625 11.4375 -22.9375 9.5 C-21.75756945 8.55299081 -20.56804211 7.61793701 -19.375 6.6875 C-18.71371094 6.16542969 -18.05242187 5.64335938 -17.37109375 5.10546875 C-11.79919948 1.42962839 -6.63392007 -0.06357374 0 0 Z M-16.9375 41.5 C-19.3502262 44.64703418 -19.33353842 47.61882349 -18.9375 51.5 C-17.21197946 55.29614519 -15.79001495 56.98842295 -11.9375 58.5 C-4.32069166 59.43577931 1.66609743 58.73583993 8.0625 54.5 C9.2175 53.901875 10.3725 53.30375 11.5625 52.6875 C14.11283168 50.53695005 14.08709383 49.25510828 14.4296875 45.84375 C14.49834108 42.04838153 14.31966788 38.28608266 14.0625 34.5 C3.07941604 33.97421407 -7.77083876 34.92391694 -16.9375 41.5 Z " fill="#777777" transform="translate(1490.9375,113.5)"/>
<path d="M0 0 C0.7022168 0.00644531 1.40443359 0.01289062 2.12792969 0.01953125 C7.04216357 0.19300165 10.68433089 0.8416254 14.58203125 3.87890625 C21.35481992 11.29502049 21.21159226 20.42882931 21.16015625 29.9296875 C21.1587413 30.92001984 21.15732635 31.91035217 21.15586853 32.93069458 C21.15029252 36.07882773 21.13774442 39.22688852 21.125 42.375 C21.1199819 44.51562397 21.11541954 46.65624906 21.11132812 48.796875 C21.10033094 54.03127449 21.08361675 59.26563207 21.0625 64.5 C18.0925 64.005 18.0925 64.005 15.0625 63.5 C14.4025 61.19 13.7425 58.88 13.0625 56.5 C12.54300781 56.90992188 12.02351563 57.31984375 11.48828125 57.7421875 C10.44220703 58.55042969 10.44220703 58.55042969 9.375 59.375 C8.69050781 59.90867188 8.00601562 60.44234375 7.30078125 60.9921875 C2.38204614 64.30568096 -2.03304477 64.86415143 -7.875 64.875 C-8.56529297 64.89949219 -9.25558594 64.92398438 -9.96679688 64.94921875 C-15.12127575 64.97853332 -18.01266103 63.7871251 -21.9375 60.5 C-24.68681151 56.93471636 -25.83901068 53.31605438 -26.375 48.875 C-25.63818192 43.19097483 -23.52164528 39.22854281 -18.9453125 35.6640625 C-10.96284365 31.03609418 -1.71529178 29.352544 7.375 29.4375 C8.62925781 29.44652344 9.88351562 29.45554688 11.17578125 29.46484375 C12.12839844 29.47644531 13.08101562 29.48804688 14.0625 29.5 C13.8060918 27.10182921 13.5329516 24.70756272 13.25 22.3125 C13.17974609 21.63896484 13.10949219 20.96542969 13.03710938 20.27148438 C12.51740732 16.00992756 11.72701503 12.89741194 9.0625 9.5 C4.36160779 6.24323781 -1.50375401 6.61677627 -6.9375 7.5 C-10.32585339 9.12103254 -13.33919253 10.9529459 -16.44140625 13.06640625 C-17.26511719 13.53949219 -18.08882812 14.01257813 -18.9375 14.5 C-19.9275 14.17 -20.9175 13.84 -21.9375 13.5 C-22.625 11.4375 -22.625 11.4375 -22.9375 9.5 C-21.75756945 8.55299081 -20.56804211 7.61793701 -19.375 6.6875 C-18.71371094 6.16542969 -18.05242187 5.64335938 -17.37109375 5.10546875 C-11.79919948 1.42962839 -6.63392007 -0.06357374 0 0 Z M-16.9375 41.5 C-19.3502262 44.64703418 -19.33353842 47.61882349 -18.9375 51.5 C-17.21197946 55.29614519 -15.79001495 56.98842295 -11.9375 58.5 C-4.32069166 59.43577931 1.66609743 58.73583993 8.0625 54.5 C9.2175 53.901875 10.3725 53.30375 11.5625 52.6875 C14.11283168 50.53695005 14.08709383 49.25510828 14.4296875 45.84375 C14.49834108 42.04838153 14.31966788 38.28608266 14.0625 34.5 C3.07941604 33.97421407 -7.77083876 34.92391694 -16.9375 41.5 Z " fill="#777777" transform="translate(1145.9375,113.5)"/>
<path d="M0 0 C2.94552836 -0.31514657 5.13268359 -0.53294104 8 0 C10.17280589 2.16333145 11.45365573 3.76073546 13 6.3125 C13.84039999 7.59293775 14.68155683 8.87287905 15.5234375 10.15234375 C15.93432617 10.79671387 16.34521484 11.44108398 16.76855469 12.10498047 C18.61393164 14.94475365 20.61406641 17.64993628 22.625 20.375 C23.27726562 21.26960938 23.92953125 22.16421875 24.6015625 23.0859375 C25.06304688 23.71757812 25.52453125 24.34921875 26 25 C26.33209473 24.52691406 26.66418945 24.05382812 27.00634766 23.56640625 C28.54459476 21.37668509 30.08478779 19.18833933 31.625 17 C32.40810547 15.88431641 32.40810547 15.88431641 33.20703125 14.74609375 C34.26489271 13.24419168 35.32825312 11.74614831 36.39697266 10.25195312 C37.47583621 8.73635193 38.53782102 7.20860872 39.58349609 5.66992188 C40.34654053 4.5803418 40.34654053 4.5803418 41.125 3.46875 C41.57359375 2.81326172 42.0221875 2.15777344 42.484375 1.48242188 C44.46396988 -0.45380559 45.64339041 -0.49761223 48.375 -0.5 C49.57125 -0.335 50.7675 -0.17 52 0 C49.07520875 5.39258386 45.73558464 10.20346601 42 15.0625 C40.45706646 17.08091677 38.91869761 19.10164711 37.3984375 21.13720703 C36.50666494 22.32509541 35.59678309 23.49974728 34.6640625 24.65576172 C33.32817631 26.32407267 33.32817631 26.32407267 32 29 C32.8176582 33.89785355 36.81630296 38.21965302 39.6875 42.1875 C40.22407227 42.939104 40.76064453 43.69070801 41.31347656 44.46508789 C43.28440604 47.22575539 45.26540471 49.97910533 47.24658203 52.73242188 C48.25134691 54.13151799 49.25095025 55.53431719 50.25 56.9375 C50.79140625 57.68902344 51.3328125 58.44054687 51.890625 59.21484375 C53 61 53 61 53 63 C46.58384286 63.49355055 46.58384286 63.49355055 43.99511719 61.30517578 C40.3593301 57.10435571 37.36187319 52.46927782 34.25 47.875 C33.55261719 46.86050781 32.85523438 45.84601563 32.13671875 44.80078125 C31.47800781 43.83269531 30.81929687 42.86460937 30.140625 41.8671875 C29.53766602 40.98144043 28.93470703 40.09569336 28.31347656 39.18310547 C27 37 27 37 27 35 C26.34 35 25.68 35 25 35 C24.72905518 35.56984619 24.45811035 36.13969238 24.17895508 36.72680664 C22.03907763 40.85279524 19.30598211 44.60422819 16.6875 48.4375 C16.11837891 49.28376953 15.54925781 50.13003906 14.96289062 51.00195312 C11.95959813 55.40517301 9.09834718 59.55906687 5 63 C1.6875 63.3125 1.6875 63.3125 -1 63 C-0.39024731 59.89810281 0.60141014 57.8370064 2.44140625 55.27734375 C2.93930664 54.57859131 3.43720703 53.87983887 3.95019531 53.15991211 C4.48225586 52.42651611 5.01431641 51.69312012 5.5625 50.9375 C6.10100586 50.1854126 6.63951172 49.4333252 7.19433594 48.65844727 C8.78962991 46.43412042 10.39338605 44.21615972 12 42 C12.66781494 41.07574219 12.66781494 41.07574219 13.34912109 40.1328125 C15.55495677 37.08033683 17.77089219 34.03552034 20 31 C16.88804819 25.27309115 13.28768225 20.06589827 9.4375 14.8125 C8.86064453 14.01908203 8.28378906 13.22566406 7.68945312 12.40820312 C4.5587416 8.0954532 4.5587416 8.0954532 1.31274414 3.86987305 C0 2 0 2 0 0 Z " fill="#777777" transform="translate(1060,115)"/>
<path d="M0 0 C8.07978111 4.88338419 8.07978111 4.88338419 9.49609375 8.88671875 C10.33196034 14.27453351 10.73813764 20.20193955 7.8203125 24.9765625 C2.82211819 29.64878762 -0.91302534 32.59716944 -7.953125 32.42578125 C-13.31422133 31.34415655 -17.57231711 27.68134927 -21.2421875 23.7890625 C-22.96429473 18.62274082 -23.41351319 12.96516251 -21.30078125 7.84765625 C-16.59789427 0.66139661 -8.36318176 -3.92679861 0 0 Z " fill="#5AD9FD" transform="translate(93.1796875,113.0234375)"/>
<path d="M0 0 C2.31 0 4.62 0 7 0 C7 30.36 7 60.72 7 92 C4.69 92 2.38 92 0 92 C0 61.64 0 31.28 0 0 Z " fill="#777777" transform="translate(1352,86)"/>
<path d="M0 0 C1.6341326 0.23517037 3.25824132 0.54065614 4.875 0.875 C9.80109075 1.85122659 14.57440607 2.29843436 19.58984375 2.4609375 C24.99367499 3.66957398 28.05040121 9.57598706 31.21875 13.78125 C32.96453956 16.08163065 32.96453956 16.08163065 35.28125 18.03125 C37 20 37 20 36.96875 22.0390625 C33.82633667 28.39991529 25.17505712 33.8322064 19 37 C16.23123128 37.70025432 13.87497903 37.89545531 11 38 C13.5654594 35.4345406 15.47686668 35.45953913 19 35 C19 34.34 19 33.68 19 33 C20.175625 32.46375 21.35125 31.9275 22.5625 31.375 C26.96907884 29.19134774 30.4283659 26.34840697 34 23 C32.69333699 18.35408706 29.93996967 15.43992373 26.75390625 11.96484375 C25 10 25 10 23.7734375 7.828125 C21.0410181 5.01144597 17.79022924 5.10951692 14.0625 4.8125 C5.19078402 3.95806831 5.19078402 3.95806831 2 3 C-0.88624811 13.28225888 -2.21440459 25.31610577 3 35 C5.00959562 36.99416403 5.00959562 36.99416403 7 38 C4.00998387 37.67675501 2.43579795 37.45193862 0.3125 35.25 C-2.68982243 30.10316154 -3.32383318 25.72438183 -3.25 19.8125 C-3.24540771 19.06162109 -3.24081543 18.31074219 -3.23608398 17.53710938 C-2.99974221 2.99974221 -2.99974221 2.99974221 0 0 Z " fill="#92E6FE" transform="translate(45,158)"/>
<path d="M0 0 C7.54837521 0.51466195 14.2872604 3.6436302 21 7 C21 7.66 21 8.32 21 9 C22.1446875 9.4021875 22.1446875 9.4021875 23.3125 9.8125 C25.90483979 10.95795247 27.30075537 11.76415181 29 14 C29 14.99 29 15.98 29 17 C29.66 17 30.32 17 31 17 C31 19.97 31 22.94 31 26 C30.34 26 29.68 26 29 26 C28.7525 26.763125 28.505 27.52625 28.25 28.3125 C26.87869328 31.26080945 25.7648921 32.35834532 23 34 C22.34 34 21.68 34 21 34 C21 34.66 21 35.32 21 36 C7.55125285 42.70387244 7.55125285 42.70387244 0 43 C-0.33 40.03 -0.66 37.06 -1 34 C-1.66 34 -2.32 34 -3 34 C-7.84677829 22.30948757 -7.84677829 22.30948757 -6 17 C-5.02700574 14.75916474 -4.02179527 12.53781787 -2.98828125 10.32421875 C-1.55359311 6.9501498 -0.78054495 3.57749766 0 0 Z M2 2 C1.75765625 2.6290625 1.5153125 3.258125 1.265625 3.90625 C-0.41106152 8.18824943 -2.12126825 12.32847446 -4.3125 16.375 C-6.19042963 20.28364329 -6.19042963 20.28364329 -5 24 C-4.21440232 25.9899983 -3.39927424 27.96847338 -2.5625 29.9375 C-1.00623617 33.61214087 0.53085945 37.28956595 2 41 C7.32213736 40.43275025 11.41588824 38.62639777 16.125 36.25 C16.82753906 35.91484375 17.53007812 35.5796875 18.25390625 35.234375 C23.81760693 32.45778336 26.55366702 29.16949947 30 24 C30.53098008 19.11966842 29.07375626 16.73544855 26.12109375 13.00390625 C21.69201553 8.81952849 15.18572498 5 9 5 C9 4.34 9 3.68 9 3 C6.69 2.67 4.38 2.34 2 2 Z " fill="#A5EAFE" transform="translate(133,107)"/>
<path d="M0 0 C9.66893536 8.86012708 14.68713301 19.02977954 16 32 C18.64 32.66 21.28 33.32 24 34 C24 30.37 24 26.74 24 23 C26.56243214 28.12486428 27.10720499 31.31813568 27 37 C25.39536551 36.68991116 23.79130769 36.37683713 22.1875 36.0625 C21.29417969 35.88847656 20.40085937 35.71445313 19.48046875 35.53515625 C17 35 17 35 14 34 C13.32739258 32.31689453 13.32739258 32.31689453 12.89453125 30.1328125 C12.71994385 29.33431885 12.54535645 28.5358252 12.36547852 27.71313477 C12.18299561 26.85905029 12.0005127 26.00496582 11.8125 25.125 C9.5106829 15.44289703 6.13242615 7.42307963 -2.25 1.375 C-9.16351497 -2.08175749 -17.37634915 -2.08550652 -24.6875 0.25 C-28.95122899 1.8585187 -32.97191105 3.87609855 -37 6 C-35.48452683 1.45358049 -32.13979608 0.11702356 -28 -2 C-18.92221639 -5.17722426 -7.97004876 -6.16928461 0 0 Z " fill="#B7A0DB" transform="translate(255,69)"/>
<path d="M0 0 C0.73476562 0.00386719 1.46953125 0.00773437 2.2265625 0.01171875 C4.66625379 0.35327553 6.28190412 1.0227245 8.375 2.3125 C12.58416773 8.23651384 12.55712555 13.61134852 12.5625 20.625 C12.57474609 21.45451172 12.58699219 22.28402344 12.59960938 23.13867188 C12.61171946 28.25316434 12.14979445 32.49875926 10.375 37.3125 C9.715 37.9725 9.055 38.6325 8.375 39.3125 C6.37890625 39.10546875 6.37890625 39.10546875 3.9375 38.5 C-0.85966237 37.38973971 -5.45965001 37.00516719 -10.375 36.8515625 C-12.625 36.3125 -12.625 36.3125 -13.9375 34.2734375 C-14.164375 33.62632813 -14.39125 32.97921875 -14.625 32.3125 C-13.965 32.6425 -13.305 32.9725 -12.625 33.3125 C-9.81228295 33.68175926 -7.00775924 34.01440489 -4.1875 34.3125 C3.97670524 35.17973508 3.97670524 35.17973508 7.375 36.3125 C10.07921939 25.83364987 11.50789756 14.19808048 6.375 4.3125 C3.52430185 1.98020472 3.52430185 1.98020472 0.12890625 2.484375 C-3.8781406 3.36834371 -7.03519386 4.70196753 -10.6875 6.5625 C-11.85410156 7.14515625 -13.02070312 7.7278125 -14.22265625 8.328125 C-17.76341114 10.39322659 -20.56206813 12.60854188 -23.625 15.3125 C-23.625 14.3225 -23.625 13.3325 -23.625 12.3125 C-21.61271068 10.66445296 -19.66190749 9.23653906 -17.5 7.8125 C-16.64535156 7.22662109 -16.64535156 7.22662109 -15.7734375 6.62890625 C-5.75694433 -0.13222664 -5.75694433 -0.13222664 0 0 Z " fill="#97E7FD" transform="translate(119.625,59.6875)"/>
<path d="M0 0 C7.52219197 1.44832833 14.03598344 9.75217687 18.28515625 15.84179688 C23.64942484 24.59845135 25.79629968 33.75654421 24 44 C21.54662789 50.97409624 17.44276059 57.14611124 11 61 C8.7890625 61.6484375 8.7890625 61.6484375 7 62 C7 61.34 7 60.68 7 60 C8.051875 59.505 9.10375 59.01 10.1875 58.5 C14.64727433 55.97219269 16.67778565 52.45308519 19 48 C19.36609375 47.3915625 19.7321875 46.783125 20.109375 46.15625 C22.9934895 39.17365701 21.56868967 30.43284592 18.875 23.625 C14.97528602 15.37644768 9.53865463 9.25367695 3 3 C1.99770906 2.0022962 0.99698343 1.0030075 0 0 Z " fill="#AE94D7" transform="translate(285,130)"/>
<path d="M0 0 C4.78332101 5.89900179 4.1131557 12.74510784 4.25 20.0625 C4.27151123 20.73506836 4.29302246 21.40763672 4.31518555 22.10058594 C4.35235419 27.8371804 3.13723891 32.5461331 -0.6875 36.9375 C-1.120625 37.288125 -1.55375 37.63875 -2 38 C-3.485 37.505 -3.485 37.505 -5 37 C-4.38125 36.46375 -3.7625 35.9275 -3.125 35.375 C1.74453558 29.93257788 1.29132468 23.493987 1.203125 16.5703125 C0.93823642 11.91438637 0.16373088 7.50945716 -1 3 C-1.90878906 3.19916016 -1.90878906 3.19916016 -2.8359375 3.40234375 C-8.2124881 4.53555518 -13.48974605 5.32911006 -18.96875 5.75390625 C-21.06495754 5.89231607 -21.06495754 5.89231607 -23 7 C-22.29931641 5.06542969 -22.29931641 5.06542969 -21 3 C-18.84521484 2.27050781 -18.84521484 2.27050781 -16.2109375 1.953125 C-15.26992187 1.83066406 -14.32890625 1.70820313 -13.359375 1.58203125 C-12.37453125 1.47246094 -11.3896875 1.36289063 -10.375 1.25 C-8.88613281 1.06244141 -8.88613281 1.06244141 -7.3671875 0.87109375 C-4.91298582 0.56431854 -2.45796162 0.27472453 0 0 Z " fill="#98E7FD" transform="translate(128,158)"/>
<path d="M0 0 C3.71389572 2.70101507 4.2209486 6.72881084 5 11 C5.25652094 13.75809219 5.28589174 16.48152904 5.25 19.25 C5.24613281 19.9814624 5.24226562 20.7129248 5.23828125 21.46655273 C5.13910689 27.76481299 4.32931224 33.84006204 3 40 C4.175625 40.165 5.35125 40.33 6.5625 40.5 C16.812586 42.80302565 29.03433163 49.15739688 35 58 C35.6953125 60.73828125 35.6953125 60.73828125 36 63 C35.2265625 61.948125 35.2265625 61.948125 34.4375 60.875 C31.20495999 57.06226051 27.51671595 53.25835798 23 51 C23 50.34 23 49.68 23 49 C22.41992188 48.81824219 21.83984375 48.63648438 21.2421875 48.44921875 C16.59095393 46.95253468 12.37535964 45.18767982 8 43 C5.68222949 42.23683166 3.36376399 41.61457864 1 41 C1.16113281 39.9378125 1.32226562 38.875625 1.48828125 37.78125 C2.2034447 32.02956375 2.18407481 26.2885743 2.1875 20.5 C2.19974609 19.41074219 2.21199219 18.32148437 2.22460938 17.19921875 C2.23567184 11.10011464 1.79229493 5.83735583 0 0 Z " fill="#92E6FD" transform="translate(135,60)"/>
<path d="M0 0 C8.28844897 -1.13763025 14.19609561 2.5235337 21 7 C24.5109849 9.83389841 27.80312126 12.81755412 31 16 C30.67 17.32 30.34 18.64 30 20 C29.34 20 28.68 20 28 20 C27.75378906 20.55429688 27.50757813 21.10859375 27.25390625 21.6796875 C25.75926837 24.445466 23.9336261 26.69776863 21.9375 29.125 C19.19551253 32.38551023 19.19551253 32.38551023 17 36 C14.41698067 36.48264029 11.91843118 36.84340248 9.3125 37.125 C8.60416016 37.21136719 7.89582031 37.29773438 7.16601562 37.38671875 C3.08907789 37.86104392 -0.88851005 38.09064702 -5 38 C-4.67 37.34 -4.34 36.68 -4 36 C-2.06640625 35.40234375 -2.06640625 35.40234375 0.4375 34.9375 C1.33984375 34.7621875 2.2421875 34.586875 3.171875 34.40625 C6 34 6 34 8.640625 33.96875 C13.80380873 33.90553495 13.80380873 33.90553495 18.0078125 31.1484375 C19.79781971 28.83150176 21.40457576 26.45387586 23 24 C23.95970404 22.79671626 24.93630765 21.60648995 25.9375 20.4375 C26.618125 19.633125 27.29875 18.82875 28 18 C26.51889439 14.23517848 24.51225319 12.66563295 21.1875 10.4375 C20.33542969 9.85871094 19.48335937 9.27992187 18.60546875 8.68359375 C17.74566406 8.12800781 16.88585937 7.57242188 16 7 C15.18789062 6.46890625 14.37578125 5.9378125 13.5390625 5.390625 C10.78147474 3.8803154 8.23083984 3.08250165 5.1875 2.3125 C4.21167969 2.06113281 3.23585938 1.80976562 2.23046875 1.55078125 C1.49441406 1.36902344 0.75835937 1.18726563 0 1 C0 0.67 0 0.34 0 0 Z " fill="#A8EBFE" transform="translate(51,60)"/>
<path d="M0 0 C13.32359676 -1.09011246 22.29963079 0.85526093 33.09375 9.46875 C35.47405852 11.58160813 37.76806404 13.73206507 40 16 C42.79315108 14.72106257 44.84323282 13.36142555 47.0625 11.25 C52.6691011 6.30940983 59.86586919 2.2626046 67 0 C69.3125 0.375 69.3125 0.375 71 1 C70.2265625 1.30292969 69.453125 1.60585938 68.65625 1.91796875 C62.92668989 4.22255666 57.62476904 6.58428283 52.5234375 10.08203125 C51 11 51 11 49 11 C48.67 11.99 48.34 12.98 48 14 C46.12382302 15.84499398 44.07262391 17.3683599 42 19 C38.91955007 17.61652359 36.71453095 15.98399475 34.25 13.6875 C23.22118341 3.86368374 13.44499058 1.4921683 -1 2 C-0.67 1.34 -0.34 0.68 0 0 Z " fill="#93E6FD" transform="translate(46,53)"/>
<path d="M0 0 C0.495 0.99 0.495 0.99 1 2 C-0.07816239 4.30307465 -1.19997022 6.39032794 -2.5 8.5625 C-2.82742187 9.16513672 -3.15484375 9.76777344 -3.4921875 10.38867188 C-5.41949092 13.61654283 -6.56062664 14.87842582 -10.21875 15.890625 C-11.4665625 15.92671875 -12.714375 15.9628125 -14 16 C-15.05670898 16.04435181 -15.05670898 16.04435181 -16.13476562 16.08959961 C-18.42495128 16.16971617 -20.70849662 16.1855776 -23 16.1875 C-23.76828125 16.19974609 -24.5365625 16.21199219 -25.328125 16.22460938 C-30.26686728 16.23720821 -34.34539796 15.69420381 -39 14 C-42 10.90322581 -42 10.90322581 -42 8 C-42.66 8 -43.32 8 -44 8 C-43.67 6.68 -43.34 5.36 -43 4 C-42.81236084 4.56444824 -42.62472168 5.12889648 -42.43139648 5.71044922 C-41.23027957 8.3818837 -40.179321 10.01879909 -38 12 C-33.70163184 13.12843066 -29.56710093 13.23604895 -25.13500977 13.15283203 C-23.06588282 13.12504543 -21.01485986 13.19312712 -18.94726562 13.26953125 C-15.02610441 13.25797009 -11.76477005 13.1066471 -8 12 C-5.03527245 8.99789367 -3.60794295 5.85151896 -2 2 C-1.34 1.34 -0.68 0.68 0 0 Z " fill="#80E2FD" transform="translate(110,141)"/>
<path d="M0 0 C3.2054573 1.60272865 3.81069797 4.8080227 5 8 C5.309375 8.804375 5.61875 9.60875 5.9375 10.4375 C6.01732574 13.71035524 4.74359848 15.77991355 3.19140625 18.59765625 C0.91720971 23.18333125 -0.47254143 28.12513221 -2 33 C-11.96359633 32.80072807 -21.54918643 27.35634378 -29 21 C-28.67 20.34 -28.34 19.68 -28 19 C-27.48953125 19.37511719 -26.9790625 19.75023437 -26.453125 20.13671875 C-19.34282692 25.14166261 -11.54388402 29.1126337 -3 31 C-2.81824219 30.31035156 -2.63648437 29.62070313 -2.44921875 28.91015625 C-2.19785156 27.97042969 -1.94648437 27.03070313 -1.6875 26.0625 C-1.42066406 25.05703125 -1.15382813 24.0515625 -0.87890625 23.015625 C-0.1036043 20.35547787 0.83913925 17.87748852 1.875 15.3125 C3.60571963 10.36885468 2.15841083 7.63658624 0 3 C0 2.01 0 1.02 0 0 Z " fill="#86E3FD" transform="translate(43,117)"/>
<path d="M0 0 C14.8693317 0.24672564 29.22340495 4.10348974 41.03125 13.49609375 C37.23394278 13.49609375 34.34689122 12.12393107 30.90625 10.68359375 C29.54886283 10.12982654 28.1907913 9.57773377 26.83203125 9.02734375 C26.1767041 8.76179688 25.52137695 8.49625 24.84619141 8.22265625 C18.61075163 5.72646728 12.74658104 3.94549449 6.03125 3.49609375 C5.26425781 3.42003906 4.49726563 3.34398438 3.70703125 3.265625 C-0.82567883 2.98841794 -2.37234988 3.00923651 -6.03125 5.99609375 C-6.670625 6.82109375 -7.31 7.64609375 -7.96875 8.49609375 C-4.36260603 0.72901443 -4.36260603 0.72901443 0 0 Z " fill="#9674CB" transform="translate(243.96875,115.50390625)"/>
<path d="M0 0 C0.99 0.33 1.98 0.66 3 1 C4.24533268 4.23786496 4.95585952 7.09512022 5.125 10.5625 C3.27152661 14.578359 -0.38580766 16.60425975 -4 19 C-3.00282832 16.77554009 -2.22929851 15.2026488 -0.38671875 13.57421875 C1.58599447 11.33477248 1.30157965 9.74054425 1.1875 6.8125 C1.16042969 5.91144531 1.13335937 5.01039063 1.10546875 4.08203125 C1.07066406 3.39496094 1.03585938 2.70789063 1 2 C-10.24350612 8.98506647 -16.67589536 19.74474865 -21 32 C-21.33 32 -21.66 32 -22 32 C-21.67 29.36 -21.34 26.72 -21 24 C-20.34 24 -19.68 24 -19 24 C-18.85884766 22.92685547 -18.85884766 22.92685547 -18.71484375 21.83203125 C-16.53539669 13.19760984 -8.90710544 6.61508565 -2.19921875 1.265625 C-1.47347656 0.84796875 -0.74773437 0.4303125 0 0 Z " fill="#B9A2DC" transform="translate(186,124)"/>
<path d="M0 0 C1.24770219 2.49540439 0.82542264 3.42392113 0.3125 6.125 C-0.21513346 10.54571274 0.33363315 13.48103667 2.578125 17.33203125 C5.18618777 20.3914895 8.08990674 21.40797884 12 22 C16.60999611 22.16903319 19.95257104 21.62400023 23.9375 19.25 C28.10128174 14.70769264 28.39862755 9.91349574 29 4 C29.33 4 29.66 4 30 4 C30.39530988 14.08040201 30.39530988 14.08040201 28 18 C23.00180569 22.67222512 19.26666216 25.62060694 12.2265625 25.44921875 C6.86546617 24.36759405 2.60737039 20.70478677 -1.0625 16.8125 C-2.56195428 12.31413716 -2.55928535 7.69218617 -2 3 C-1.34 2.01 -0.68 1.02 0 0 Z " fill="#A0E9FD" transform="translate(73,120)"/>
<path d="M0 0 C4.44269785 1.97453238 7.84676434 5.04365823 11.5625 8.125 C13.66736346 9.74412574 15.58483414 10.92659295 18 12 C18 12.66 18 13.32 18 14 C11.73197909 12.04124347 6.49994383 7.68161858 2 3 C-1.01606147 4.34998385 -3.03493339 5.87390474 -5.375 8.1875 C-10.97050488 13.20343281 -19.33855804 18.69504585 -26.92578125 19.19140625 C-27.61027344 19.12824219 -28.29476562 19.06507813 -29 19 C-26.3628615 17.24190766 -24.49979035 16.43588933 -21.5625 15.4375 C-13.26099556 12.20710547 -6.12940026 6.39084387 0 0 Z " fill="#9AE7FE" transform="translate(86,185)"/>
<path d="M0 0 C1.98 0.99 3.96 1.98 6 3 C6 3.66 6 4.32 6 5 C6.86044922 4.94779297 6.86044922 4.94779297 7.73828125 4.89453125 C14.24969667 4.68703546 20.45887092 5.36942764 26.875 6.375 C28.10536987 6.56412964 28.10536987 6.56412964 29.3605957 6.75708008 C33.44180874 7.42772944 37.28335324 8.09066382 41 10 C41.495 10.99 41.495 10.99 42 12 C37.03006983 11.50300698 32.30440418 10.63248054 27.4375 9.5 C20.96163015 8.03455531 14.88327109 7.643863 8.27734375 7.6015625 C4.10539227 6.8357931 2.61103051 5.26748998 0 2 C0 1.34 0 0.68 0 0 Z " fill="#9F80D0" transform="translate(234,101)"/>
<path d="M0 0 C0.66 0 1.32 0 2 0 C3.25841946 6.74153283 4.26404456 13.13484138 4 20 C3.09121094 20.23783203 3.09121094 20.23783203 2.1640625 20.48046875 C-3.59683943 22.08465836 -8.69888912 24.1850054 -13.96875 27.01171875 C-16 28 -16 28 -18 28 C-18 28.66 -18 29.32 -18 30 C-19.98 30.99 -21.96 31.98 -24 33 C-22.76278894 29.14128579 -20.41160526 27.7804928 -16.94555664 25.90429688 C-15.9515686 25.39479492 -15.9515686 25.39479492 -14.9375 24.875 C-14.26517334 24.52244141 -13.59284668 24.16988281 -12.90014648 23.80664062 C-7.99969083 21.31610041 -3.47251355 19.76807208 2 19 C1.855625 18.21496094 1.71125 17.42992188 1.5625 16.62109375 C0.57001253 11.00389036 -0.2593193 5.70502463 0 0 Z " fill="#90E5FD" transform="translate(34,81)"/>
<path d="M0 0 C1.08535034 0.4316748 1.08535034 0.4316748 2.19262695 0.87207031 C7.2286404 2.64248865 11.69749785 2.83458796 16.9934082 2.70019531 C18.24154297 2.69246094 18.24154297 2.69246094 19.51489258 2.68457031 C23.25211824 2.63661874 26.56608988 2.46513094 30.1809082 1.45019531 C30.6759082 2.44019531 30.6759082 2.44019531 31.1809082 3.45019531 C26.12186379 5.10803561 21.58576498 5.77122197 16.2434082 5.70019531 C15.54046631 5.69705322 14.83752441 5.69391113 14.11328125 5.69067383 C9.13001624 5.61146426 4.93840256 4.79665598 0.1809082 3.45019531 C-3.25348878 3.76241322 -5.81636934 4.78201617 -8.8190918 6.45019531 C-8.8190918 5.79019531 -8.8190918 5.13019531 -8.8190918 4.45019531 C-2.74074727 -0.82836704 -2.74074727 -0.82836704 0 0 Z " fill="#8D69C7" transform="translate(261.819091796875,189.5498046875)"/>
<path d="M0 0 C3.56906558 1.45580307 5.24274055 3.28665866 7.5 6.375 C9.32745218 8.85867365 10.97639804 10.97890373 13.28125 13.0390625 C15 15 15 15 14.96875 17.0390625 C11.82633667 23.39991529 3.17505712 28.8322064 -3 32 C-5.76876872 32.70025432 -8.12502097 32.89545531 -11 33 C-8.4345406 30.4345406 -6.52313332 30.45953913 -3 30 C-3 29.34 -3 28.68 -3 28 C-1.824375 27.46375 -0.64875 26.9275 0.5625 26.375 C4.96907884 24.19134774 8.4283659 21.34840697 12 18 C10.682426 13.31529246 7.88085029 10.45018532 4.6875 6.9375 C2.80468014 4.77574386 1.34419415 2.53024781 0 0 Z " fill="#97E7FD" transform="translate(67,163)"/>
<path d="M0 0 C0 3.59857954 -0.95830515 5.09451118 -3 8 C-3.66 8 -4.32 8 -5 8 C-5.28875 8.598125 -5.5775 9.19625 -5.875 9.8125 C-7 12 -7 12 -9 15 C-5.2567748 19.02951393 -1.35278875 21.92492169 3.3125 24.8125 C3.95767578 25.21919922 4.60285156 25.62589844 5.26757812 26.04492188 C6.84136655 27.0358257 8.42017212 28.01875372 10 29 C9.34 29.33 8.68 29.66 8 30 C1.29211592 27.19488484 -8.54216748 22.63136351 -12.046875 16.02734375 C-11.97520399 12.92757261 -10.42742001 11.75335968 -8.3125 9.5625 C-7.57644531 8.78132812 -6.84039062 8.00015625 -6.08203125 7.1953125 C-5.05142578 6.10863281 -5.05142578 6.10863281 -4 5 C-2.65027159 3.3465827 -1.306607 1.68770071 0 0 Z " fill="#A2EAFE" transform="translate(104,165)"/>
<path d="M0 0 C15.10497919 3.83097298 27.15441566 15.61032392 36 28 C35.67 28.66 35.34 29.32 35 30 C34.443125 29.28714844 33.88625 28.57429688 33.3125 27.83984375 C24.2846062 16.50922704 13.84888264 7.06165098 0 2 C0 1.34 0 0.68 0 0 Z " fill="#B49DDA" transform="translate(276,113)"/>
<path d="M0 0 C0.66 0 1.32 0 2 0 C1.03283596 7.34521878 -4.00213909 12.69692231 -9.73046875 17.09765625 C-12.43552846 18.85501228 -15.16282324 20.46639094 -18 22 C-18.65226562 22.3609375 -19.30453125 22.721875 -19.9765625 23.09375 C-24.41964413 25.28485875 -28.17001142 25.25420993 -33 25 C-32.67 24.34 -32.34 23.68 -32 23 C-30.1661944 22.46599581 -28.30565761 22.02248034 -26.4375 21.625 C-15.93016922 19.13215759 -8.34656799 14.66687359 -1.98046875 5.74609375 C-0.91637389 3.85107223 -0.43181289 2.12191927 0 0 Z " fill="#A98DD5" transform="translate(315,179)"/>
<path d="M0 0 C0.99 0 1.98 0 3 0 C3.28875 0.61875 3.5775 1.2375 3.875 1.875 C4.93720042 4.13325765 4.93720042 4.13325765 7 6 C7.125 9.625 7.125 9.625 7 13 C4.38952199 11.694761 4.31933577 10.64173426 3.375 7.9375 C3.11460938 7.20402344 2.85421875 6.47054687 2.5859375 5.71484375 C2.39257812 5.14894531 2.19921875 4.58304688 2 4 C-0.6486859 7.19668988 -2.93992341 10.39486597 -5 14 C-1.7 13.67 1.6 13.34 5 13 C5 13.66 5 14.32 5 15 C1.98509443 16.00496852 -0.04181692 16.10335303 -3.1875 16.0625 C-4.53908203 16.04896484 -4.53908203 16.04896484 -5.91796875 16.03515625 C-6.60503906 16.02355469 -7.29210937 16.01195312 -8 16 C-6.58550246 11.88509805 -4.49064734 8.48128408 -2.12109375 4.8671875 C-0.84348324 2.89250091 -0.84348324 2.89250091 0 0 Z " fill="#A4EAFE" transform="translate(120,138)"/>
<path d="M0 0 C0.99 0.33 1.98 0.66 3 1 C2.38125 1.53625 1.7625 2.0725 1.125 2.625 C-4.64453278 9.07330134 -3.30216161 17.91070216 -3 26 C-2.7734428 28.70716652 -2.43794514 31.31758601 -2 34 C-2.99 34 -3.98 34 -5 34 C-8.12456855 11.25723873 -8.12456855 11.25723873 -3.5625 4 C-1 1 -1 1 0 0 Z " fill="#99E7FE" transform="translate(48,61)"/>
<path d="M0 0 C0.66 0 1.32 0 2 0 C5.08532644 4.11376858 5.08532644 4.11376858 4.828125 6.78515625 C1.2877701 16.25393563 -6.9439174 25.17134421 -15 31 C-17.796875 32.23828125 -17.796875 32.23828125 -20 33 C-18.72548955 29.17646864 -17.27807997 28.66884972 -13.9375 26.5 C-5.96706469 20.88234599 -1.18539273 13.7025544 3 5 C2.34 5 1.68 5 1 5 C0.67 3.35 0.34 1.7 0 0 Z " fill="#A689D3" transform="translate(257,150)"/>
<path d="M0 0 C0 0.33 0 0.66 0 1 C-1.68416016 0.94779297 -1.68416016 0.94779297 -3.40234375 0.89453125 C-15.01862714 0.58582252 -15.01862714 0.58582252 -26 4 C-26.763125 4.35964844 -27.52625 4.71929687 -28.3125 5.08984375 C-30.22648301 6.02357504 -32.11622395 7.00673626 -34 8 C-32.48452683 3.45358049 -29.13979608 2.11702356 -25 0 C-17.01235015 -2.79567745 -7.81981127 -3.60254559 0 0 Z " fill="#9E7FCF" transform="translate(252,67)"/>
<path d="M0 0 C0.33 0 0.66 0 1 0 C1.24234375 1.11117187 1.4846875 2.22234375 1.734375 3.3671875 C3.93869441 13.24329396 6.43548201 22.31718011 11.3125 31.25 C13.16308231 34.79274901 13.17037269 37.09875771 12 41 C11.87367188 40.41992188 11.74734375 39.83984375 11.6171875 39.2421875 C11.00229164 37.00832533 10.18880702 35.17839495 9.125 33.125 C8.79757813 32.48820312 8.47015625 31.85140625 8.1328125 31.1953125 C7.27989197 29.54241133 6.39865471 27.90407569 5.50390625 26.2734375 C3.72758672 22.40705889 2.74650786 18.63580134 1.8125 14.5 C1.63525391 13.76652344 1.45800781 13.03304687 1.27539062 12.27734375 C0.30826735 8.1026572 -0.19803506 4.31579859 0 0 Z " fill="#B39AD9" transform="translate(194,120)"/>
<path d="M0 0 C0 0.66 0 1.32 0 2 C-1.299375 2.20625 -2.59875 2.4125 -3.9375 2.625 C-12.51112651 4.54667491 -20.0177046 10.72280271 -26 17 C-27.98958527 20.21628365 -27.98958527 20.21628365 -29 23 C-29.66 23 -30.32 23 -31 23 C-28.04933565 12.50874899 -17.65119431 6.2490505 -8.81640625 1.171875 C-5.66898648 -0.13773101 -3.37563214 -0.21874494 0 0 Z " fill="#A98ED5" transform="translate(234,55)"/>
<path d="M0 0 C4.78691353 0.89484077 7.10601193 3.56903227 10.4375 6.9375 C11.30701294 7.81450562 11.30701294 7.81450562 12.1940918 8.70922852 C17.53794233 14.27305303 21.63337492 19.74714902 22.3125 27.625 C22.209375 28.40875 22.10625 29.1925 22 30 C19.77986049 27.77986049 19.28401865 26.3047195 18.25 23.375 C14.98118055 14.99186525 9.41921792 9.13944571 3 3 C1.99770906 2.0022962 0.99698343 1.0030075 0 0 Z " fill="#BDA8DE" transform="translate(285,130)"/>
<path d="M0 0 C1.60355101 3.50776784 2.22036864 6.14354879 2 10 C0.0549 7.08235 -0.45276317 5.37462715 -1 2 C-8.31283796 4.48858935 -15.16093277 7.4158899 -22 11 C-23.33196442 11.6693975 -24.66484685 12.33698545 -26 13 C-26 12.34 -26 11.68 -26 11 C-24.0462736 9.5777355 -22.12598491 8.30713266 -20.0625 7.0625 C-19.47218994 6.70349609 -18.88187988 6.34449219 -18.27368164 5.97460938 C-12.295995 2.43396085 -6.97494106 0 0 0 Z " fill="#97E7FD" transform="translate(41,107)"/>
<path d="M0 0 C0 4.24342627 -2.16219204 7.12382779 -4.25 10.6875 C-5.85091886 13.44869392 -7.4336512 16.2190507 -9 19 C-9.41282227 19.71365723 -9.82564453 20.42731445 -10.25097656 21.16259766 C-10.6322168 21.85788574 -11.01345703 22.55317383 -11.40625 23.26953125 C-11.75494141 23.89061768 -12.10363281 24.5117041 -12.46289062 25.15161133 C-13.19468603 27.03640413 -13.19468603 27.03640413 -12.36523438 29.0456543 C-11.16525043 31.2428143 -11.16525043 31.2428143 -9 34 C-9.99 34.495 -9.99 34.495 -11 35 C-15.01923077 28.78846154 -15.01923077 28.78846154 -14.9375 25.4375 C-13.81250791 22.51252057 -12.47760779 19.76248412 -11 17 C-10.34 17 -9.68 17 -9 17 C-8.89558594 16.45601562 -8.79117188 15.91203125 -8.68359375 15.3515625 C-7.83767011 12.44158518 -6.52477047 10.0278232 -5.0625 7.375 C-4.53785156 6.41335937 -4.01320313 5.45171875 -3.47265625 4.4609375 C-2 2 -2 2 0 0 Z " fill="#BCEFFE" transform="translate(71,102)"/>
<path d="M0 0 C0.33 0.66 0.66 1.32 1 2 C0.328125 3.6015625 0.328125 3.6015625 -0.75 5.625 C-5.4803271 15.7894745 -6.39222364 27.93427871 -7 39 C-7.33 39 -7.66 39 -8 39 C-8.41928239 30.34647727 -8.19581307 22.27544219 -6.1875 13.8125 C-6.02217773 13.10681885 -5.85685547 12.4011377 -5.68652344 11.67407227 C-4.58047753 7.34518354 -3.226102 3.226102 0 0 Z " fill="#A285D1" transform="translate(202,78)"/>
<path d="M0 0 C5.45479185 0.56820748 9.91059256 1.94637945 15 4 C15.26404456 10.86515862 14.25841946 17.25846717 13 24 C12.34 24 11.68 24 11 24 C11.14179038 21.77057252 11.28859698 19.54146372 11.4375 17.3125 C11.51871094 16.07113281 11.59992187 14.82976562 11.68359375 13.55078125 C11.94491317 10.61819663 12.34798379 7.86558383 13 5 C12.22914062 4.80664062 11.45828125 4.61328125 10.6640625 4.4140625 C9.15972656 4.02347656 9.15972656 4.02347656 7.625 3.625 C6.62726562 3.36976563 5.62953125 3.11453125 4.6015625 2.8515625 C2 2 2 2 0 0 Z " fill="#94E6FD" transform="translate(23,152)"/>
<path d="M0 0 C0.66 1.32 1.32 2.64 2 4 C1.01 3.67 0.02 3.34 -1 3 C-3.19231368 3.2819248 -3.19231368 3.2819248 -5.5625 3.875 C-10.03142644 4.85278273 -14.41090156 5.40052876 -18.96875 5.75390625 C-21.06495754 5.89231607 -21.06495754 5.89231607 -23 7 C-22.29931641 5.06542969 -22.29931641 5.06542969 -21 3 C-18.84521484 2.27050781 -18.84521484 2.27050781 -16.2109375 1.953125 C-15.26992187 1.83066406 -14.32890625 1.70820313 -13.359375 1.58203125 C-12.37453125 1.47246094 -11.3896875 1.36289063 -10.375 1.25 C-8.88613281 1.06244141 -8.88613281 1.06244141 -7.3671875 0.87109375 C-4.91298582 0.56431854 -2.45796162 0.27472453 0 0 Z " fill="#84E3FD" transform="translate(128,158)"/>
<path d="M0 0 C4.15991431 1.95322142 8.00429772 4.48004982 11 8 C10.6875 10.1875 10.6875 10.1875 10 12 C9.1028125 10.576875 9.1028125 10.576875 8.1875 9.125 C5.90754595 5.86792278 4.45643275 4.32932078 0.546875 3.4453125 C-6.13502494 2.68006698 -9.52854501 3.04192618 -15 7 C-15.99 7.495 -15.99 7.495 -17 8 C-15.7839926 4.21686586 -13.45489693 2.57102304 -9.98828125 0.76953125 C-6.58223316 -0.54872312 -3.51538468 -0.78862242 0 0 Z " fill="#94E6FD" transform="translate(91,112)"/>
<path d="M0 0 C0.33 0 0.66 0 1 0 C1.36424607 4.49236818 1.36424607 4.49236818 -0.23046875 6.71484375 C-2 8 -2 8 -4.09375 7.890625 C-4.8878125 7.67921875 -5.681875 7.4678125 -6.5 7.25 C-11.28577755 6.08170724 -15.83274547 5.6927267 -20.75 5.5390625 C-23 5 -23 5 -24.3125 2.9609375 C-24.539375 2.31382813 -24.76625 1.66671875 -25 1 C-24.01 1.495 -24.01 1.495 -23 2 C-20.20762786 2.39601965 -17.426573 2.74837014 -14.625 3.0625 C-13.85671875 3.15337891 -13.0884375 3.24425781 -12.296875 3.33789062 C-8.81307883 3.738708 -5.5201063 4 -2 4 C-1.34 4 -0.68 4 0 4 C0 2.68 0 1.36 0 0 Z " fill="#86E3FD" transform="translate(130,91)"/>
<path d="M0 0 C2.31 0 4.62 0 7 0 C7 0.66 7 1.32 7 2 C7.66 2.061875 8.32 2.12375 9 2.1875 C16.45611234 4.20686376 21.42051234 8.98074917 26 15 C25.67 15.66 25.34 16.32 25 17 C24.46632813 16.40832031 23.93265625 15.81664063 23.3828125 15.20703125 C16.81490768 8.24141593 9.87521676 2.77962238 0 2 C0 1.34 0 0.68 0 0 Z " fill="#A486D2" transform="translate(244,55)"/>
<path d="M0 0 C3.2054573 1.60272865 3.81069797 4.8080227 5 8 C5.309375 8.804375 5.61875 9.60875 5.9375 10.4375 C6.02020889 13.82856468 4.80172173 15.79599141 3.19140625 18.73046875 C1.1214346 22.67359507 -0.400725 26.84869042 -2 31 C-3 29 -3 29 -2.51513672 27.24755859 C-2.10158936 26.20849365 -2.10158936 26.20849365 -1.6796875 25.1484375 C-1.24849609 23.99408203 -1.24849609 23.99408203 -0.80859375 22.81640625 C-0.19299491 21.20657666 0.43694231 19.602147 1.08203125 18.00390625 C2.66585949 13.68242014 3.38658861 10.98414643 1.6796875 6.6015625 C1.12539063 5.41304688 0.57109375 4.22453125 0 3 C0 2.01 0 1.02 0 0 Z " fill="#B7EEFE" transform="translate(43,117)"/>
<path d="M0 0 C2.46030396 2.18474991 2.96186526 2.78390312 3.5625 6.1875 C2.80885619 11.2955303 0.63523989 14.39048115 -3 18 C-4.65583225 18.69313908 -6.32110979 19.36474424 -8 20 C-9.84274976 23.01696409 -9.84274976 23.01696409 -11 26 C-11.33 25.01 -11.66 24.02 -12 23 C-10.05878644 19.19522142 -8.95705997 17.34454159 -4.875 15.875 C-3.92625 15.58625 -2.9775 15.2975 -2 15 C0.20733143 11.8067272 0.21559254 9.05488647 0.125 5.25 C0.09792969 3.77273437 0.09792969 3.77273437 0.0703125 2.265625 C0.04710937 1.51796875 0.02390625 0.7703125 0 0 Z " fill="#B39BD9" transform="translate(279,142)"/>
<path d="M0 0 C0.66 0.33 1.32 0.66 2 1 C-2.16331482 4.74118946 -6.43895046 6.70058019 -11.5625 8.75 C-12.31724609 9.06582031 -13.07199219 9.38164062 -13.84960938 9.70703125 C-17.60303639 11.23485793 -19.83892843 12 -24 12 C-24 11.34 -24 10.68 -24 10 C-22.824375 9.835 -21.64875 9.67 -20.4375 9.5 C-14.76323634 8.29444558 -10.03424056 5.52364448 -5.05444336 2.65625 C-3.39882351 1.71737549 -1.70194502 0.85202439 0 0 Z " fill="#9673CB" transform="translate(244,190)"/>
<path d="M0 0 C0.99 0 1.98 0 3 0 C4.36402043 2.2863012 5.71634274 4.57821749 7.0625 6.875 C7.45244141 7.52597656 7.84238281 8.17695313 8.24414062 8.84765625 C9.22444533 10.53065725 10.11898432 12.26296199 11 14 C10.67 14.66 10.34 15.32 10 16 C6.48901975 11.98745115 4.23462006 7.79016959 2 3 C1.01 5.31 0.02 7.62 -1 10 C-2.46726798 6.18510326 -1.43336419 3.70988378 0 0 Z " fill="#B9EFFE" transform="translate(51,138)"/>
<path d="M0 0 C0.66 0.33 1.32 0.66 2 1 C-5.24045837 7.08198503 -12.94650517 8.15344906 -22 8 C-18.63436884 5.75624589 -15.42636733 4.94837012 -11.5625 4 C-6.47794198 2.78391198 -6.47794198 2.78391198 -1.65234375 0.8125 C-1.10707031 0.544375 -0.56179687 0.27625 0 0 Z " fill="#A183D1" transform="translate(229,186)"/>
<path d="M0 0 C8.91727477 0.68594421 15.31260199 5.87906862 21.46875 11.9375 C23.22393754 14.30163016 23.63812835 16.10502677 24 19 C23.484375 18.29875 22.96875 17.5975 22.4375 16.875 C19.20495999 13.06226051 15.51671595 9.25835798 11 7 C11 6.34 11 5.68 11 5 C10.37351563 4.80664062 9.74703125 4.61328125 9.1015625 4.4140625 C8.28429687 4.15367188 7.46703125 3.89328125 6.625 3.625 C5.81289062 3.36976562 5.00078125 3.11453125 4.1640625 2.8515625 C2 2 2 2 0 0 Z " fill="#A3EAFE" transform="translate(147,104)"/>
<path d="M0 0 C3.11728368 1.36508501 5.08663738 2.86919698 7.3125 5.4375 C7.84488281 6.03433594 8.37726563 6.63117188 8.92578125 7.24609375 C9.45751953 8.11427734 9.45751953 8.11427734 10 9 C9.67 9.99 9.34 10.98 9 12 C9 11.34 9 10.68 9 10 C8.34 10 7.68 10 7 10 C5.7109375 8.46875 5.7109375 8.46875 4.375 6.5 C3.92898437 5.8503125 3.48296875 5.200625 3.0234375 4.53125 C2.51683594 3.77328125 2.51683594 3.77328125 2 3 C-0.41066845 5.34551525 -2.70194579 7.59155534 -4.6875 10.3125 C-5.3371875 11.1478125 -5.3371875 11.1478125 -6 12 C-6.66 12 -7.32 12 -8 12 C-7.67 10.68 -7.34 9.36 -7 8 C-6.34 8 -5.68 8 -5 8 C-4.34 6.35 -3.68 4.7 -3 3 C-2.34 3 -1.68 3 -1 3 C-0.67 2.01 -0.34 1.02 0 0 Z " fill="#A7EBFD" transform="translate(86,82)"/>
<path d="M0 0 C3.48872415 1.16290805 4.09976864 2.13967609 6.1875 5.0625 C6.71730469 5.79597656 7.24710937 6.52945313 7.79296875 7.28515625 C8.19128906 7.85105469 8.58960937 8.41695312 9 9 C11.96404505 6.19195732 14.44499019 3.81684226 16 0 C16.66 0 17.32 0 18 0 C17.41463247 3.66060821 15.916761 5.54535164 13.4375 8.25 C12.79683594 8.95640625 12.15617187 9.6628125 11.49609375 10.390625 C11.00238281 10.92171875 10.50867188 11.4528125 10 12 C6.40690966 10.80230322 5.57906747 9.5323211 3.3125 6.5625 C2.68988281 5.75941406 2.06726563 4.95632812 1.42578125 4.12890625 C0 2 0 2 0 0 Z " fill="#ACECFD" transform="translate(78,163)"/>
<path d="M0 0 C2.56243214 5.12486428 3.10720499 8.31813568 3 14 C-0.3 13.34 -3.6 12.68 -7 12 C-7 11.34 -7 10.68 -7 10 C-4.69 10.33 -2.38 10.66 0 11 C0 7.37 0 3.74 0 0 Z " fill="#A183D1" transform="translate(279,92)"/>
<path d="M0 0 C0.66 0 1.32 0 2 0 C2.16435547 0.96099609 2.16435547 0.96099609 2.33203125 1.94140625 C3.77532775 9.81499936 5.59587304 15.85047621 11 22 C6.90003769 20.48149544 4.27067415 17.64270694 2 14 C0.21043153 9.39300836 -0.24671075 4.93421509 0 0 Z " fill="#A8EBFE" transform="translate(34,180)"/>
<path d="M0 0 C7.20196248 0.62625761 14.87355824 2.49855824 20.125 7.75 C20.74375 8.4925 21.3625 9.235 22 10 C20.96552734 9.58041016 20.96552734 9.58041016 19.91015625 9.15234375 C17.88531193 8.35055976 15.85049963 7.57368591 13.80859375 6.81640625 C12.13990234 6.19572266 12.13990234 6.19572266 10.4375 5.5625 C9.32246094 5.15128906 8.20742188 4.74007812 7.05859375 4.31640625 C4.31005784 3.13344763 2.27911173 1.91133331 0 0 Z " fill="#9F80CF" transform="translate(263,120)"/>
<path d="M0 0 C0.66 0 1.32 0 2 0 C2 0.99 2 1.98 2 3 C2.73605469 3.12117187 3.47210938 3.24234375 4.23046875 3.3671875 C5.20628906 3.53476563 6.18210937 3.70234375 7.1875 3.875 C8.15042969 4.03742188 9.11335938 4.19984375 10.10546875 4.3671875 C12.91032604 4.98039517 15.37224747 5.85666343 18 7 C18 7.33 18 7.66 18 8 C11.11168659 8.62621031 5.41097745 6.35806067 -1 4 C-0.67 2.68 -0.34 1.36 0 0 Z " fill="#A487D2" transform="translate(251,196)"/>
<path d="M0 0 C0.7940625 0.27199219 1.588125 0.54398438 2.40625 0.82421875 C3.2003125 1.08847656 3.994375 1.35273438 4.8125 1.625 C6.90625 2.51171875 6.90625 2.51171875 8.90625 4.51171875 C8.00261719 4.40472656 7.09898437 4.29773438 6.16796875 4.1875 C4.39873047 4.00767578 4.39873047 4.00767578 2.59375 3.82421875 C0.83611328 3.63279297 0.83611328 3.63279297 -0.95703125 3.4375 C-4.07793763 3.18793032 -4.07793763 3.18793032 -5.88671875 4.9921875 C-6.48419922 5.74435547 -6.48419922 5.74435547 -7.09375 6.51171875 C-7.75375 6.51171875 -8.41375 6.51171875 -9.09375 6.51171875 C-9.09375 5.85171875 -9.09375 5.19171875 -9.09375 4.51171875 C-3.07315993 -0.71668842 -3.07315993 -0.71668842 0 0 Z " fill="#9E7FCF" transform="translate(262.09375,189.48828125)"/>
<path d="M0 0 C0.66 0 1.32 0 2 0 C2.53107314 2.74837849 3.05015881 5.49812375 3.5625 8.25 C3.71396484 9.02730469 3.86542969 9.80460937 4.02148438 10.60546875 C4.16005859 11.35957031 4.29863281 12.11367187 4.44140625 12.890625 C4.57232666 13.58188477 4.70324707 14.27314453 4.83813477 14.98535156 C5.01710362 17.21287942 4.65206197 18.87506962 4 21 C1.25545087 13.75880117 -0.51783416 7.76751234 0 0 Z " fill="#A689D3" transform="translate(204,117)"/>
<path d="M0 0 C-2.54112232 0.33801152 -5.08276746 0.67053379 -7.625 1 C-8.33785156 1.09539062 -9.05070312 1.19078125 -9.78515625 1.2890625 C-13.88821609 1.81606101 -17.85245742 2.10466984 -22 2 C-21.67 1.34 -21.34 0.68 -21 0 C-14.1228697 -2.13428182 -6.50355308 -3.54739259 0 0 Z " fill="#84E2FD" transform="translate(68,96)"/>
<path d="M0 0 C0.66 0 1.32 0 2 0 C2 0.66 2 1.32 2 2 C6.62 2.99 11.24 3.98 16 5 C16 5.66 16 6.32 16 7 C4.47835991 6.22095672 4.47835991 6.22095672 -1 4 C-0.67 2.68 -0.34 1.36 0 0 Z " fill="#82E2FD" transform="translate(47,148)"/>
<path d="M0 0 C0.33 0.66 0.66 1.32 1 2 C-0.14453125 4.06640625 -0.14453125 4.06640625 -1.8125 6.5625 C-4.84011844 11.38842544 -6.09695228 15.40110413 -7 21 C-7.33 21 -7.66 21 -8 21 C-8.44950807 13.80787095 -6.96622193 8.1188404 -2.3125 2.5 C-1.549375 1.675 -0.78625 0.85 0 0 Z " fill="#C0ABDF" transform="translate(181,143)"/>
<path d="M0 0 C3.3 0 6.6 0 10 0 C10.33 0.99 10.66 1.98 11 3 C7.04 3 3.08 3 -1 3 C-0.67 2.01 -0.34 1.02 0 0 Z " fill="#84E3FE" transform="translate(82,100)"/>
<path d="M0 0 C0.66 0 1.32 0 2 0 C1.21990585 9.20511096 1.21990585 9.20511096 -2 13 C-4.6875 13.8125 -4.6875 13.8125 -7 14 C-6.401875 13.360625 -5.80375 12.72125 -5.1875 12.0625 C-2.46756681 8.25459354 -1.28274627 4.46045863 0 0 Z " fill="#AAEBFE" transform="translate(130,182)"/>
<path d="M0 0 C0 0.99 0 1.98 0 3 C-7.92 6.96 -7.92 6.96 -16 11 C-15 8 -15 8 -12.3828125 6.46484375 C-11.30773437 5.96082031 -10.23265625 5.45679688 -9.125 4.9375 C-5.90824121 3.41438409 -2.96456363 1.97637575 0 0 Z " fill="#94E6FD" transform="translate(162,144)"/>
<path d="M0 0 C0.66 0 1.32 0 2 0 C5 4.38461538 5 4.38461538 5 7 C8.63 7.66 12.26 8.32 16 9 C15.34 9.66 14.68 10.32 14 11 C9.71789145 10.9192055 7.55906362 10.4472509 4.1875 7.75 C2.13950631 5.17537936 0.97979898 3.11754221 0 0 Z " fill="#A78BD3" transform="translate(218,115)"/>
<path d="M0 0 C0.66 0 1.32 0 2 0 C2.103125 0.598125 2.20625 1.19625 2.3125 1.8125 C3.09385053 4.29861534 4.14895416 5.22943442 6 7 C6 7.66 6 8.32 6 9 C6.66 9 7.32 9 8 9 C9.38938077 10.96147874 10.7260411 12.96166576 12 15 C11.67 15.66 11.34 16.32 11 17 C9.15428983 14.92657234 7.32374443 12.84260111 5.5 10.75 C4.71302734 9.87021484 4.71302734 9.87021484 3.91015625 8.97265625 C3.41386719 8.39902344 2.91757813 7.82539062 2.40625 7.234375 C1.94541016 6.71069336 1.48457031 6.18701172 1.00976562 5.64746094 C0 4 0 4 0 0 Z " fill="#B5EDFE" transform="translate(93,75)"/>
<path d="M0 0 C0.66 0 1.32 0 2 0 C5.1130137 4.15068493 5.1130137 4.15068493 4.7421875 6.9375 C3.92572185 9.20641507 2.88177333 10.82430222 1.4375 12.75 C0.75494141 13.67039063 0.75494141 13.67039063 0.05859375 14.609375 C-0.29074219 15.06828125 -0.64007813 15.5271875 -1 16 C-1 12.80389448 -0.45328458 11.58282374 1 8.8125 C1.37125 8.09707031 1.7425 7.38164062 2.125 6.64453125 C2.558125 5.83048828 2.558125 5.83048828 3 5 C2.34 5 1.68 5 1 5 C0.67 3.35 0.34 1.7 0 0 Z " fill="#C6B5E3" transform="translate(257,150)"/>
<path d="M0 0 C1.89551022 -0.05441656 3.7914792 -0.09298035 5.6875 -0.125 C6.74324219 -0.14820312 7.79898438 -0.17140625 8.88671875 -0.1953125 C12.02251859 0.00141271 14.17645373 0.66942346 17 2 C17 2.33 17 2.66 17 3 C14.35319096 2.88660796 11.70822482 2.75987127 9.0625 2.625 C8.30775391 2.5940625 7.55300781 2.563125 6.77539062 2.53125 C4.84492605 2.4273685 2.92057919 2.22104386 1 2 C0.67 1.34 0.34 0.68 0 0 Z " fill="#916DC9" transform="translate(235,65)"/>
<path d="M0 0 C0.66 0 1.32 0 2 0 C3.76171875 2.5546875 3.76171875 2.5546875 5.6875 5.875 C6.33074219 6.96554688 6.97398438 8.05609375 7.63671875 9.1796875 C8.08660156 10.11039063 8.53648438 11.04109375 9 12 C8.67 12.66 8.34 13.32 8 14 C0 4.57142857 0 4.57142857 0 0 Z " fill="#BFF0FE" transform="translate(102,102)"/>
<path d="M0 0 C1.875 0.625 1.875 0.625 4 2 C5.66783878 5.75263725 6.24045528 8.91226018 6 13 C5.34 13 4.68 13 4 13 C3.69255859 11.84371094 3.69255859 11.84371094 3.37890625 10.6640625 C3.10949219 9.66117188 2.84007812 8.65828125 2.5625 7.625 C2.16224609 6.12839844 2.16224609 6.12839844 1.75390625 4.6015625 C1.09815644 2.04582299 1.09815644 2.04582299 0 0 Z " fill="#ADECFE" transform="translate(126,63)"/>
<path d="M0 0 C0.33 0.66 0.66 1.32 1 2 C-0.328125 4.6015625 -0.328125 4.6015625 -2.25 7.625 C-2.87390625 8.62789062 -3.4978125 9.63078125 -4.140625 10.6640625 C-4.75421875 11.43492187 -5.3678125 12.20578125 -6 13 C-6.99 13 -7.98 13 -9 13 C-6.23793154 8.43805907 -3.44868587 4.08733141 0 0 Z " fill="#C8F2FE" transform="translate(110,141)"/>
<path d="M0 0 C3.67056937 1.47797262 5.41085783 3.47615477 7.75 6.625 C8.67039062 7.85089844 8.67039062 7.85089844 9.609375 9.1015625 C10.29773438 10.04128906 10.29773438 10.04128906 11 11 C10.67 11.66 10.34 12.32 10 13 C2.51708428 4.738041 2.51708428 4.738041 0 0 Z " fill="#B5EEFE" transform="translate(67,163)"/>
<path d="M0 0 C0.68707031 0.42152344 1.37414063 0.84304687 2.08203125 1.27734375 C2.98308594 1.82519531 3.88414063 2.37304688 4.8125 2.9375 C5.70582031 3.48277344 6.59914063 4.02804688 7.51953125 4.58984375 C10.00703562 6.11009578 10.00703562 6.11009578 13 7 C13 7.66 13 8.32 13 9 C7.99971686 7.65846062 3.80932497 5.51629997 0 2 C0 1.34 0 0.68 0 0 Z " fill="#96E7FE" transform="translate(14,136)"/>
<path d="M0 0 C0.33 0.66 0.66 1.32 1 2 C0.26821134 4.07196631 -0.55899003 6.1108552 -1.4375 8.125 C-1.91058594 9.22070312 -2.38367188 10.31640625 -2.87109375 11.4453125 C-3.24363281 12.28835937 -3.61617187 13.13140625 -4 14 C-4.66 13.67 -5.32 13.34 -6 13 C-5.57476184 11.39253944 -5.13429874 9.78910164 -4.6875 8.1875 C-4.44386719 7.29417969 -4.20023438 6.40085937 -3.94921875 5.48046875 C-2.9799181 2.94752262 -2.04990396 1.7283504 0 0 Z " fill="#C8B7E4" transform="translate(202,78)"/>
<path d="M0 0 C0 3.80345877 -1.13786331 4.77701015 -3.5 7.6875 C-4.1496875 8.49574219 -4.799375 9.30398437 -5.46875 10.13671875 C-5.9740625 10.75160156 -6.479375 11.36648437 -7 12 C-7.66 11.67 -8.32 11.34 -9 11 C-7.68823998 9.35357683 -6.3755713 7.70787757 -5.0625 6.0625 C-4.33160156 5.14597656 -3.60070312 4.22945312 -2.84765625 3.28515625 C-1 1 -1 1 0 0 Z " fill="#C2ADE1" transform="translate(266,168)"/>
<path d="M0 0 C2.475 0.99 2.475 0.99 5 2 C5 2.66 5 3.32 5 4 C7.31 4.66 9.62 5.32 12 6 C12 6.66 12 7.32 12 8 C7.39571066 6.68448876 3.81679612 4.90803514 0 2 C0 1.34 0 0.68 0 0 Z " fill="#9FE9FE" transform="translate(11,144)"/>
<path d="M0 0 C1.41655793 -0.0272415 2.83327045 -0.04650467 4.25 -0.0625 C5.43335938 -0.07990234 5.43335938 -0.07990234 6.640625 -0.09765625 C8.90691002 -0.00385306 10.8288895 0.36758937 13 1 C13 1.66 13 2.32 13 3 C11.39504433 2.88557539 9.79101881 2.75805306 8.1875 2.625 C7.29417969 2.55539063 6.40085937 2.48578125 5.48046875 2.4140625 C3 2 3 2 0 0 Z " fill="#926FC9" transform="translate(251,107)"/>
<path d="M0 0 C6.50313209 -0.46450943 10.4174808 0.67424388 16 4 C15.34 4.66 14.68 5.32 14 6 C13.40832031 5.72285156 12.81664062 5.44570312 12.20703125 5.16015625 C6.30953569 2.44225847 6.30953569 2.44225847 0 1 C0 0.67 0 0.34 0 0 Z " fill="#8BE4FD" transform="translate(51,60)"/>
<path d="M0 0 C0.66 0 1.32 0 2 0 C0.35821735 4.77609498 -2.26546702 8.79382904 -5 13 C-5.33 12.34 -5.66 11.68 -6 11 C-4.78515625 8.3984375 -4.78515625 8.3984375 -3.0625 5.375 C-2.21365234 3.87066406 -2.21365234 3.87066406 -1.34765625 2.3359375 C-0.90292969 1.56507812 -0.45820312 0.79421875 0 0 Z " fill="#C3F1FE" transform="translate(60,103)"/>
<path d="M0 0 C0 0.33 0 0.66 0 1 C-4.40914783 2.10228696 -8.48382401 2.07654536 -13 2 C-7.89905865 -1.40062757 -5.96067238 -0.86525889 0 0 Z " fill="#9673CB" transform="translate(220,192)"/>
<path d="M0 0 C4.67802059 0.27517768 6.74638753 2.33193886 9.86328125 5.52734375 C11 7 11 7 11 9 C7.26790586 7.75596862 5.69291525 5.82756102 3 3 C2.401875 2.401875 1.80375 1.80375 1.1875 1.1875 C0.795625 0.795625 0.40375 0.40375 0 0 Z " fill="#AB90D5" transform="translate(250,68)"/>
<path d="M0 0 C1.15628906 -0.03867187 1.15628906 -0.03867187 2.3359375 -0.078125 C5.14530769 0.32458336 6.50766036 1.41303867 8.625 3.25 C7.94953125 3.16621094 7.2740625 3.08242188 6.578125 2.99609375 C5.68609375 2.89425781 4.7940625 2.79242188 3.875 2.6875 C2.99328125 2.58308594 2.1115625 2.47867188 1.203125 2.37109375 C-1.25932451 2.25543324 -3.04038064 2.51361305 -5.375 3.25 C-5.705 2.59 -6.035 1.93 -6.375 1.25 C-4.06222219 0.09361109 -2.57408779 0.05131072 0 0 Z " fill="#87E3FD" transform="translate(119.375,59.75)"/>
<path d="M0 0 C0.33 0 0.66 0 1 0 C0.50769231 6.4 0.50769231 6.4 -2.0625 9.4375 C-3.0215625 10.2109375 -3.0215625 10.2109375 -4 11 C-4.66 10.67 -5.32 10.34 -6 10 C-5.65066406 9.52949219 -5.30132812 9.05898437 -4.94140625 8.57421875 C-4.48636719 7.95160156 -4.03132812 7.32898438 -3.5625 6.6875 C-2.88380859 5.76517578 -2.88380859 5.76517578 -2.19140625 4.82421875 C-0.82663692 2.90322899 -0.82663692 2.90322899 0 0 Z " fill="#B8EEFE" transform="translate(170,132)"/>
<path d="M0 0 C0.99 0.33 1.98 0.66 3 1 C3.73046875 3.06640625 3.73046875 3.06640625 4.1875 5.5625 C4.34605469 6.38878906 4.50460938 7.21507812 4.66796875 8.06640625 C4.77753906 8.70449219 4.88710937 9.34257812 5 10 C4.01 9.67 3.02 9.34 2 9 C1.26953125 6.93359375 1.26953125 6.93359375 0.8125 4.4375 C0.65394531 3.61121094 0.49539062 2.78492187 0.33203125 1.93359375 C0.16767578 0.97646484 0.16767578 0.97646484 0 0 Z " fill="#B9A3DC" transform="translate(186,124)"/>
<path d="M0 0 C7.57142857 4 7.57142857 4 10 8 C6.01328937 6.63312778 3.11505367 4.84804907 0 2 C0 1.34 0 0.68 0 0 Z " fill="#A385D1" transform="translate(287,118)"/>
<path d="M0 0 C0.33 0.66 0.66 1.32 1 2 C-0.32 2.33 -1.64 2.66 -3 3 C-3 3.66 -3 4.32 -3 5 C-4.98 5.99 -6.96 6.98 -9 8 C-7.50164772 3.33845958 -4.11536409 2.13389249 0 0 Z " fill="#A5EAFE" transform="translate(19,106)"/>
<path d="M0 0 C6.15234375 0.5859375 6.15234375 0.5859375 8 1 C8.33 1.66 8.66 2.32 9 3 C2.25 3.125 2.25 3.125 0 2 C0 1.34 0 0.68 0 0 Z " fill="#916DC9" transform="translate(260,201)"/>
<path d="M0 0 C-3.00617269 3.00617269 -5.82381598 2.59585316 -10 3 C-10 2.34 -10 1.68 -10 1 C-3.71428571 -1.42857143 -3.71428571 -1.42857143 0 0 Z " fill="#9472CA" transform="translate(293,192)"/>
<path d="M0 0 C2.7972908 2.06756277 3.02692273 3.14440371 3.6875 6.6875 C3.790625 7.780625 3.89375 8.87375 4 10 C1.2027092 7.93243723 0.97307727 6.85559629 0.3125 3.3125 C0.209375 2.219375 0.10625 1.12625 0 0 Z " fill="#CBBCE6" transform="translate(198,139)"/>
<path d="M0 0 C0.66 0.33 1.32 0.66 2 1 C1.21654285 2.17219543 0.42297164 3.33763668 -0.375 4.5 C-0.81585938 5.1496875 -1.25671875 5.799375 -1.7109375 6.46875 C-2.13632813 6.9740625 -2.56171875 7.479375 -3 8 C-3.66 8 -4.32 8 -5 8 C-4.67 6.68 -4.34 5.36 -4 4 C-3.34 4 -2.68 4 -2 4 C-1.34 2.68 -0.68 1.36 0 0 Z " fill="#BCEFFE" transform="translate(83,86)"/>
<path d="M0 0 C0.66 0.33 1.32 0.66 2 1 C-0.68841859 3.25245881 -2.64641875 4.88213958 -6 6 C-4.98545548 3.4636387 -4.3146444 2.20648539 -2 0.6875 C-1.34 0.460625 -0.68 0.23375 0 0 Z " fill="#9F80D0" transform="translate(244,190)"/>
<path d="M0 0 C3.31467895 1.53406629 5.03944771 2.86311633 7 6 C7 6.66 7 7.32 7 8 C6.34 8 5.68 8 5 8 C3.7109375 6.25 3.7109375 6.25 2.375 4 C1.92898437 3.2575 1.48296875 2.515 1.0234375 1.75 C0.68570313 1.1725 0.34796875 0.595 0 0 Z " fill="#BEA8DF" transform="translate(222,152)"/>
<path d="" fill="#AA8ED6" transform="translate(0,0)"/>
</svg>
