<?xml version="1.0" encoding="UTF-8" standalone="no"?>
<!-- Created with Inkscape (http://www.inkscape.org/) -->
<svg version="1.1" id="svg1" width="1040" height="988" viewBox="0 0 1040 988" xmlns="http://www.w3.org/2000/svg" xmlns:svg="http://www.w3.org/2000/svg">
  <defs id="defs1"/>
  <g id="g1">
    <g id="g2" transform="translate(-0.80017444,-1.7125667)">
      <path style="fill:#f9faf9" d="m 486.48275,780.7081 c -37.34032,-26.22909 -59.10083,-39.37477 -65.17847,-39.37477 -3.69842,0 -5.30489,-3.02164 -5.28113,-9.93333 0.0563,-16.37178 6.49841,-34.26193 19.80994,-55.01343 7.43102,-11.5843 12.27137,-21.89909 14.57216,-31.05324 0.82941,-3.3 1.80871,-7.2 2.17622,-8.66666 0.36751,-1.46667 0.41525,1.32281 0.10609,6.19884 -0.60692,9.57229 -3.63749,22.56165 -10.74541,46.05607 -7.80497,25.7984 -8.66723,44.28883 -2.39577,51.37496 9.6732,10.92977 53.04628,42.37013 58.45107,42.37013 0.4381,0 2.35147,-1.65 4.25192,-3.66667 3.39569,-3.60333 3.42618,-3.60909 1.765,-0.33333 -2.35607,4.64606 -5.46053,8 -7.40494,8 -0.90416,0 -5.46117,-2.68136 -10.12668,-5.95857 z m 51.04235,4.18964 c -5.3526,-6.4495 -7.28918,-21.78582 -3.44416,-27.27535 1.14452,-1.63402 3.78307,-3.85116 5.86345,-4.92697 2.28769,-1.18301 4.94216,-4.47327 6.7169,-8.32571 8.71597,-18.91989 11.1638,-23.29711 14.10637,-25.22516 2.95881,-1.93868 3.51263,-1.93426 6.5445,0.0523 1.82169,1.19362 3.68674,3.66263 4.14455,5.48668 1.04659,4.16997 1.51709,4.14382 6.29866,-0.3502 l 3.90128,-3.66666 -2.13036,4.2066 c -6.63234,13.09616 -23.20404,29.56967 -38.52629,38.29801 -3.48333,1.98429 -6.33333,4.5123 -6.33333,5.61781 0,2.88193 3.27271,8.80609 6.45653,11.68741 2.67062,2.41687 2.88948,2.38359 10.13651,-1.54157 4.07383,-2.20648 7.40696,-3.80251 7.40696,-3.54673 0,0.25577 -3.39768,2.89806 -7.55039,5.87175 -7.94726,5.6909 -11.1711,6.55379 -13.59118,3.63779 z m -42.19177,-25.50713 c -10.61296,-6.90773 -24.91498,-20.83914 -28.59746,-27.85642 -1.73147,-3.29945 -1.67694,-4.15069 0.52821,-8.24541 5.98443,-11.11241 13.80442,-5.01792 22.13676,17.25224 2.00965,5.37128 4.46387,8.77189 9.18088,12.72119 3.9109,3.27439 6.71504,6.83229 7.14374,9.064 0.38815,2.02059 0.60871,3.74878 0.49013,3.84044 -0.11857,0.0917 -5.01559,-2.95756 -10.88226,-6.77604 z m 86.62816,-0.96677 c 21.74692,-18.16961 23.74074,-20.65958 24.4555,-30.54106 0.74364,-10.2807 -1.39512,-21.86455 -8.49673,-46.01977 -3.25614,-11.07534 -5.90939,-20.67534 -5.89611,-21.33333 0.0133,-0.65799 1.70088,1.80365 3.7502,5.47032 2.04933,3.66667 5.8564,9.96667 8.46015,14 11.43697,17.71636 17.09883,34.54701 17.09883,50.82856 v 9.06866 l -5,1.37074 c -6.34566,1.73966 -20.68183,9.11257 -31.38262,16.13967 -7.28488,4.78391 -7.64542,4.90648 -2.98922,1.01621 z m 0.95461,-43.54234 c 0.98747,-3.89034 0.82021,-6.26492 -0.69708,-9.8963 -4.29804,-10.28667 -14.48584,-12.89776 -54.30873,-13.91911 -30.97249,-0.79437 -51.78855,0.78399 -62.42532,4.73334 -4.54388,1.68711 -6.83497,3.57003 -8.96556,7.36831 -3.11613,5.55525 -3.81365,5.2835 -5.18371,-2.01952 -0.83277,-4.43906 -0.51424,-5.13058 3.92179,-8.5141 7.39557,-5.64088 20.1743,-8.59497 44.54012,-10.29645 38.05527,-2.65742 72.8906,1.21537 86.53572,9.62054 3.35154,2.06449 4.33334,3.5866 4.33334,6.71814 0,3.67209 -6.98762,21.32365 -8.44128,21.32365 -0.33468,0 -0.0239,-2.30333 0.69071,-5.1185 z M 408.04158,651.77317 c -18.71582,-30.15565 -35.20874,-70.85165 -36.92038,-91.10041 -0.46521,-5.50335 -1.35779,-10.00609 -1.98351,-10.00609 -0.62573,0 -1.13769,0.53047 -1.13769,1.17883 0,0.64836 -2.37197,6.79836 -5.27104,13.66667 L 357.45792,578 l -0.0623,-24.87056 -0.0623,-24.87055 9,3.77717 c 28.6437,12.02137 61.84144,7.18859 86.04585,-12.52617 l 7.17451,-5.84372 1.37609,9.50025 c 1.18311,8.16794 0.74694,14.80608 -3.11018,47.33451 -2.46745,20.80884 -4.53992,40.30884 -4.60549,43.33333 l -0.11922,5.49907 -1.72669,-6 c -3.85256,-13.38711 -3.52368,-13.5551 -11.04406,5.64094 -7.31318,18.66715 -16.47012,35.61103 -22.04886,40.7989 l -3.34055,3.1065 z M 617.18317,657 c -4.97574,-5.39058 -16.81752,-28.75413 -21.97517,-43.35644 -2.13106,-6.03348 -4.26597,-10.97152 -4.74423,-10.97343 -0.47826,-0.002 -1.58899,1.94654 -2.46828,4.32987 -0.87929,2.38333 -1.81772,3.73333 -2.08541,3 C 584.31805,605.63861 572,548.80678 572,545.82302 c 0,-2.73345 6.40847,-18.53523 8.75572,-21.58957 0.18311,-0.23826 2.72572,1.15027 5.65025,3.08563 2.92453,1.93536 9.72958,5.08603 15.12234,7.0015 8.59332,3.05227 11.94708,3.49103 27.13836,3.55036 19.90397,0.0777 28.35071,-2.13275 43,-11.25296 L 680,521.4299 679.9491,549.71495 679.8982,578 674.0588,564 c -6.40016,-15.34444 -5.87342,-15.50651 -8.64003,2.65841 -2.02373,13.28729 -7.96239,30.36964 -17.61709,50.67492 -8.97708,18.88017 -23.45133,44 -25.35315,44 -0.69605,0 -3.06548,-1.95 -5.26539,-4.33333 z M 381.71472,506.13645 c -14.25191,-4.63362 -26.5369,-15.38381 -32.91535,-28.80312 -3.66222,-7.70477 -4.11783,-9.99852 -4.1051,-20.66666 0.0122,-10.1823 0.55244,-13.15487 3.56677,-19.62409 11.21776,-24.07504 39.0357,-36.60726 65.79216,-29.63991 16.07118,4.18491 27.62438,13.52631 34.87618,28.19932 4.46367,9.03163 4.91327,10.94702 4.89139,20.83857 -0.0179,8.09941 -0.79634,12.87065 -3.03548,18.60555 -4.23625,10.84987 -15.27534,22.43076 -26.59629,27.90161 -7.98619,3.85933 -10.23023,4.31564 -22.85567,4.64749 -9.17761,0.24123 -15.93537,-0.26125 -19.61861,-1.45876 z m 50.95195,-24.94149 c 15.71114,-4.29159 22.47769,-19.32006 14.68551,-32.61642 -5.81005,-9.91409 -20.15906,-14.15097 -30.80923,-9.09714 -19.37594,9.19449 -17.14371,35.69518 3.50576,41.61981 6.17094,1.77053 6.47127,1.77276 12.61796,0.0937 z m 0.28541,-24.68732 c -1.92668,-1.92669 -0.88027,-7.11892 1.71459,-8.50764 4.07798,-2.18247 8.26862,0.57088 7.74657,5.08968 -0.33456,2.89593 -1.18396,3.65248 -4.46116,3.97351 -2.22636,0.21809 -4.47636,-0.0319 -5,-0.55555 z m 176.67929,48.93647 c -9.8218,-3.63479 -14.9352,-7.04391 -22.17577,-14.78467 -12.04724,-12.87947 -16.3889,-29.04193 -12.20746,-45.44408 8.59693,-33.72248 48.29767,-49.77225 81.37509,-32.89741 8.55893,4.36644 19.98659,16.97886 23.4778,25.91187 4.56549,11.68178 4.40007,27.80063 -0.39108,38.10704 -4.95536,10.65966 -15.52002,21.41281 -26.20589,26.67344 -7.91949,3.89875 -10.04561,4.33438 -22.78594,4.66869 -11.30021,0.29651 -15.42895,-0.14107 -21.08675,-2.23488 z m 53.40508,-24.19095 c 6.15573,-1.70946 13.39098,-7.84716 15.63407,-13.26246 2.35087,-5.67551 1.04973,-16.09942 -2.65985,-21.30905 -6.17287,-8.66899 -20.58139,-11.83222 -30.60442,-6.71885 -15.58116,7.94891 -17.27383,28.77783 -3.05419,37.58295 7.9406,4.91699 13.03843,5.83071 20.68439,3.70741 z m -0.75104,-24.74552 C 660.35873,454.58095 661.40515,449.38872 664,448 c 4.07798,-2.18247 8.26862,0.57088 7.74658,5.08968 -0.33457,2.89593 -1.18397,3.65248 -4.46117,3.97351 -2.22635,0.21809 -4.47635,-0.0319 -5,-0.55555 z m -185.40212,30.24212 c -0.44232,-2.21159 -0.15586,-7.48503 0.63657,-11.71875 0.79243,-4.23372 1.15825,-13.24768 0.81292,-20.03101 -0.34532,-6.78333 -0.37994,-12.33333 -0.0769,-12.33333 0.30301,0 2.3841,3.91741 4.62465,8.70535 3.63625,7.7705 4.01392,9.73929 3.51686,18.33333 -0.82975,14.34593 -7.62061,26.51172 -9.51407,17.04441 z M 824,474.53142 c 2.56667,-1.53557 6.91283,-4.95135 9.65814,-7.59062 l 4.99147,-4.79867 -12.2233,-2.46942 c -21.19614,-4.28217 -46.82825,-15.00446 -65.75964,-27.50824 L 751.33333,426 761,425.60825 c 5.31667,-0.21546 9.66667,-0.85513 9.66667,-1.42149 0,-2.23668 -17.33401,-11.1326 -28.98823,-14.87693 -12.89352,-4.1425 -32.10689,-7.9765 -39.97275,-7.9765 -6.9862,0 -18.91072,-11.06483 -21.9405,-20.35874 -1.24188,-3.80945 -2.14708,-7.02819 -2.01157,-7.15274 0.13551,-0.12456 3.84638,0.16751 8.24638,0.64904 10.38016,1.13601 25.49659,-0.30597 34.3301,-3.27479 l 7.00323,-2.35368 L 720,366.60309 c -19.54027,-5.96689 15.38705,-4.07175 38.66667,2.09803 6.96666,1.84637 18.96666,6.49395 26.66666,10.32796 l 14,6.97092 -10.66666,1.05614 c -21.7107,2.14964 -23.38399,3.12076 -10.66667,6.19054 3.66667,0.88508 14.76667,4.66063 24.66667,8.39011 9.9,3.72947 29.1,10.50606 42.66666,15.05907 22.85464,7.67009 61.33334,24.10153 61.33334,26.19099 0,1.55955 -14.75191,10.34737 -28.66667,17.07695 -14.10024,6.81928 -30.06311,12.29125 -45.08717,15.4556 -12.4925,2.63116 -14.46629,2.43451 -8.91283,-0.88798 z m -623.33333,-0.66625 c -21.55063,-5.15239 -44.64776,-14.85829 -62.38726,-26.21645 l -9.05392,-5.79699 14.59824,-6.38146 c 12.82607,-5.60677 56.99297,-21.10737 109.80852,-38.53786 9.33107,-3.07949 16.98107,-6.03765 17,-6.57367 0.0491,-1.38971 -4.42074,-2.31112 -16.63225,-3.42857 l -10.66667,-0.97609 11.33334,-6.20827 c 18.32063,-10.03584 38.97932,-15.72158 56.66666,-15.59595 l 8,0.0568 -6.23904,2.22999 c -3.43148,1.2265 -6.59634,2.59486 -7.03303,3.0408 -1.65087,1.68585 16.45588,4.43446 28.96999,4.39765 12.64818,-0.0372 13.34387,-0.20086 23.66666,-5.56713 5.84948,-3.04083 10.63542,-5.39795 10.63542,-5.23803 0,0.15991 -2.02484,4.94859 -4.49964,10.64149 -3.95986,9.10904 -5.71377,11.38669 -14.62048,18.98631 -8.90217,7.59575 -10.78351,8.63557 -15.62424,8.63557 -7.75334,0 -30.08406,4.73717 -41.5672,8.81794 -10.10826,3.59218 -26.3551,12.30013 -26.3551,14.12577 0,0.58096 4.35,1.08068 9.66666,1.11048 l 9.66667,0.0542 -4.66667,4.02129 c -6.38908,5.5055 -39.5179,21.58672 -53.17994,25.81432 -6.14896,1.90275 -15.29022,4.16438 -20.31391,5.02585 l -9.13397,1.5663 2.98058,3.24598 c 1.63932,1.78528 5.3206,4.96465 8.18063,7.06526 4.66749,3.42814 4.87232,3.80791 2,3.70821 -1.76003,-0.0611 -6.80005,-0.97179 -11.20005,-2.02375 z m 232.66666,-84.53184 c -1.20172,-0.77661 -1.36617,-1.30065 -0.41202,-1.31291 0.87339,-0.0112 1.9588,0.57958 2.41202,1.31291 1.02308,1.65537 0.5615,1.65537 -2,0 z m -46.66666,-87.72224 c 0,-0.58057 3.3,-2.67405 7.33333,-4.65218 4.03333,-1.97813 7.33333,-3.40483 7.33333,-3.17045 0,0.23438 -2.64808,2.32787 -5.88463,4.65218 -5.79763,4.16354 -8.78203,5.24096 -8.78203,3.17045 z" id="path8"/>
      <path style="fill:#2ce1f9" d="m 279.57178,952.50013 c -0.3926,-1.37507 -1.10937,-6.76669 -1.59283,-11.98137 l -0.87902,-9.48124 7.78337,-0.81859 c 22.1392,-2.32839 41.8488,-3.92969 42.32715,-3.43885 0.29655,0.30429 1.06656,5.7279 1.71113,12.05246 l 1.17196,11.4992 -18.04677,1.57793 c -9.92572,0.86786 -21.13252,1.91827 -24.90398,2.33425 -5.93229,0.65432 -6.95349,0.41911 -7.57101,-1.74379 z M 280,913.78112 c 0,-0.67656 -1.25683,-10.20409 -2.79296,-21.17228 -1.5443,-11.02657 -2.50448,-23.26492 -2.1477,-27.37439 1.70798,-19.67268 18.68907,-46.16622 38.77887,-60.502 8.21986,-5.86557 21.45996,-11.99025 23.36922,-10.81026 0.77809,0.48088 4.73648,34.7036 4.78353,41.35648 0.005,0.70327 -1.79096,1.65484 -3.99096,2.1146 -10.53424,2.20147 -20.61772,10.42892 -26.03984,21.24677 -2.73348,5.45367 -2.92264,7.19374 -2.17422,20 0.45087,7.71464 1.21313,18.28876 1.69392,23.49804 l 0.87417,9.47141 -6.51035,0.80576 C 289.59943,914.42574 280,914.93308 280,913.78112 Z m 82.21356,-68.74696 c -1.96189,-1.47172 -2.84276,-5.39513 -4.39908,-19.59366 -1.07029,-9.76439 -1.64468,-18.05474 -1.27644,-18.42299 0.92782,-0.92781 23.7555,-3.16841 24.51747,-2.40645 1.09606,1.09607 4.32552,33.29251 3.63523,36.24187 -0.80976,3.45981 -2.29306,4.08548 -12.26738,5.17453 -5.61831,0.61343 -8.43297,0.3396 -10.2098,-0.9933 z m 38.5444,-17.36749 c -1.59652,-7.64889 -3.52664,-34.74868 -2.53611,-35.6083 0.61132,-0.53054 12.63494,-1.99579 26.71916,-3.25614 l 25.60768,-2.29153 8.82235,7.27709 c 4.85229,4.0024 12.4068,9.18758 16.7878,11.52262 l 7.96545,4.24554 -7.72881,5.36487 c -4.25085,2.95068 -8.92881,6.45388 -10.39548,7.78489 -2.1654,1.96512 -8.1318,2.94081 -31.74036,5.19049 -35.41321,3.37457 -32.7456,3.39284 -33.50168,-0.22953 z m 174.91196,-18.79379 c -4.94821,-2.31342 -8.98274,-4.50621 -8.96562,-4.87288 0.0171,-0.36667 3.08829,-2.74126 6.82481,-5.27687 3.73653,-2.53561 11.20248,-8.72753 16.591,-13.75982 l 9.79732,-9.14962 80.37462,-8.38503 c 44.20604,-4.61177 80.70896,-7.87157 81.1176,-7.24402 0.9758,1.49855 4.32832,35.85517 3.5725,36.61099 -0.7175,0.7175 -171.54467,16.5874 -176.64715,16.41058 -2.01758,-0.0699 -7.71687,-2.01991 -12.66508,-4.33333 z m 211.26878,-2.36652 c -1.57241,-0.58167 -3.17107,-2.43356 -3.5526,-4.1153 C 782.38019,797.95702 780,777.36422 780,773.0954 c 0,-4.00613 0.55618,-4.19613 16.8126,-5.74342 l 8.14593,-0.77533 0.82568,6.02397 c 0.45412,3.31318 1.22237,11.66742 1.70722,18.56496 0.80486,11.45013 0.66236,12.65487 -1.63828,13.85022 -3.50858,1.82298 -15.4681,2.76545 -18.91445,1.49056 z M 365.98741,276.82071 c -0.44681,-2.28473 -1.49322,-7.39781 -2.32536,-11.36241 l -1.51299,-7.20836 4.59214,-3.86219 c 10.70807,-9.00598 29.05638,-17.05442 38.87956,-17.05442 7.64081,0 5.0087,-2.15812 -5.56534,-4.56314 -14.39322,-3.27366 -31.67576,-2.25692 -43.05542,2.53297 -1.45397,0.61201 -2.33333,0.39296 -2.33333,-0.58123 0,-0.85985 -2.0476,-5.99513 -4.55022,-11.41172 l -4.55021,-9.84834 6.51536,-4.1809 c 8.2006,-5.26231 23.01557,-10.54937 29.66376,-10.58618 7.50611,-0.0416 4.83413,-2.19762 -5.68994,-4.59126 -11.31153,-2.57276 -23.86116,-2.6949 -33.01163,-0.3213 l -6.87068,1.78223 -6.18633,-9.05401 c -3.40249,-4.97971 -8.21652,-11.61956 -10.69787,-14.75522 l -4.51153,-5.70121 2.67954,-2.85224 c 3.87731,-4.1272 14.3777,-9.53647 22.68259,-11.68491 l 7.19382,-1.86101 -6,-1.64236 c -8.32191,-2.27792 -23.1913,-1.10007 -31.25797,2.47605 l -6.5913,2.92206 -8.39177,-8.31718 -8.39177,-8.31718 3.64974,-3.84091 c 4.53054,-4.76785 13.24224,-9.98082 19.92106,-11.92052 l 5.06201,-1.47013 -6,-1.132 c -7.95305,-1.50048 -22.13477,0.89525 -28.67879,4.84473 l -5.12426,3.09262 -13.1267,-10.08292 -13.12671,-10.08291 4.36157,-4.5005 c 5.75042,-5.933598 15.50524,-12.113447 20.78901,-13.1702 7.52372,-1.504743 4.51242,-3.181177 -5.71419,-3.181177 -11.66307,0 -20.73577,2.673669 -27.68782,8.159427 l -4.97457,3.925352 -13.34203,-8.059303 C 196.53447,73.548086 149.55034,51.917553 118,41.152996 c -5.18434,-1.76883 -4.90499,-1.83114 10,-2.230529 42.02334,-1.126044 96.2475,12.610912 146,36.987118 60.9284,29.851835 115.33946,83.648965 148.54446,146.868415 7.25949,13.82145 16.12221,33.52419 16.12221,35.84136 0,0.50559 -4.85421,1.66235 -10.78712,2.57058 -13.8765,2.12425 -34.07525,8.14252 -49.17086,14.6506 l -11.9089,5.13421 z m 296.67926,-2.2398 c -16.65711,-6.72711 -37.57759,-12.65414 -49.58621,-14.04837 l -7.5862,-0.88078 2.03801,-5.49254 c 1.1209,-3.02091 6.21505,-14.02827 11.32033,-24.46081 20.80677,-42.5182 54.49993,-84.66854 92.74784,-116.02808 54.29631,-44.517661 142.14687,-76.434524 205.73289,-74.744528 l 15.33334,0.407531 -7.33334,2.510804 C 892.49319,53.088021 850.52398,72.243739 824.84725,87.708311 l -15.81942,9.527713 -4.43514,-3.382844 c -7.37134,-5.622396 -16.87336,-8.519847 -27.94033,-8.519847 -5.76824,0 -9.98569,0.563133 -9.98569,1.333334 0,0.733333 0.91994,1.333333 2.04432,1.333333 5.55946,0 26.00791,14.02019 25.91836,17.77056 -0.0205,0.85953 -4.56021,4.85939 -10.08821,8.88859 -5.528,4.02921 -10.98123,8.35383 -12.1183,9.61028 -1.94373,2.1478 -2.46111,2.08494 -8.64931,-1.05086 -8.67266,-4.39477 -19.2332,-6.27223 -27.33615,-4.85985 L 730,119.48078 l 5.33333,1.74543 c 6.24049,2.0423 16.56163,8.30777 20.06811,12.18238 2.41476,2.66828 2.31479,2.85049 -6.2792,11.44448 l -8.73302,8.73302 -5.86128,-2.99282 c -7.35316,-3.7546 -20.99338,-4.88327 -30.71303,-2.54137 l -7.14824,1.72233 7.67815,1.75125 c 8.67654,1.97897 12.5569,3.79804 20.60047,9.65733 l 5.61196,4.08799 -8.59151,11.39128 c -4.72534,6.2652 -9.47423,13.09825 -10.5531,15.18455 l -1.96158,3.79328 -7.0161,-1.81996 C 698.5761,192.81898 691.66667,192 687.08066,192 c -8.68719,0 -28.41399,3.71602 -28.41399,5.35246 0,0.51762 3.45,1.29668 7.66666,1.73123 5.29016,0.54518 11.48976,2.68752 20,6.91123 6.78334,3.36663 12.33334,6.59489 12.33334,7.17393 0,3.28097 -9.50387,22.10249 -10.96699,21.71908 -15.49408,-4.06021 -18.501,-4.47057 -28.32493,-3.86554 -12.33995,0.75998 -24.70808,3.30693 -24.70808,5.0881 0,0.67256 2.25,1.2355 5,1.25097 7.52994,0.0423 21.69427,5.56571 32.22343,12.56548 5.16501,3.43369 9.67399,6.70107 10.01994,7.26083 0.34595,0.55977 -0.39228,6.09554 -1.64052,12.3017 L 678,280.77341 Z" id="path7"/>
      <path style="fill:#4de844" d="m 525.66056,943.65164 c -5.91545,-2.97149 -5.65164,-2.99122 -17.16384,1.28341 -0.84898,0.31524 -1.88388,-1.47056 -2.37772,-4.10296 -1.60568,-8.55903 -10.68286,-20.12516 -21.19443,-27.0059 -20.27758,-13.27344 -28.26065,-22.41794 -34.49334,-39.51168 l -2.8849,-7.91213 -1.86079,3.55144 c -2.3742,4.53131 -5.6234,19.77991 -5.69204,26.71285 L 439.9407,902 l -2.62356,-3.33333 c -7.50044,-9.52959 -24.52589,-50.56903 -22.01889,-53.07603 0.40241,-0.40242 7.47563,-1.3064 15.71826,-2.00886 l 14.9866,-1.27719 11.67083,6.69194 c 14.766,8.46667 30.51253,15.24336 45.53661,19.59717 14.07367,4.07839 16.931,4.15288 30.89284,0.80539 25.81425,-6.18924 53.3275,-20.00106 73.24489,-36.7694 5.24709,-4.41749 8.17946,-5.83122 13.65812,-6.58473 l 6.97651,-0.95951 -0.76498,4.45727 c -4.45645,25.96612 -7.92231,37.4093 -16.29188,53.79061 -7.71124,15.09279 -10.34239,18.77751 -11.41413,15.9846 -0.46489,-1.21148 -0.84525,-3.98518 -0.84525,-6.16377 0,-5.98741 -3.9522,-22.1213 -5.79316,-23.64916 -1.20808,-1.00262 -2.37558,0.75781 -4.58136,6.90808 -3.82615,10.66824 -15.13014,25.54823 -23.62548,31.09936 -20.88832,13.6491 -28.17663,21.44687 -31.29967,33.48756 -0.80838,3.11667 -1.59666,5.62945 -1.75173,5.58395 -0.15506,-0.0455 -2.83469,-1.36503 -5.95471,-2.93231 z M 491.03474,779.41431 c -17.44283,-9.9735 -48.43027,-34.19919 -53.34941,-41.70806 -1.84841,-2.82154 -2.29646,-6.02922 -2.09262,-14.98158 0.25429,-11.16833 2.22892,-20.2997 10.14827,-46.92918 6.00286,-20.18511 7.59917,-30.64589 7.54065,-49.41449 -0.0378,-12.1319 1.3754,-29.68951 4.4845,-55.71433 3.95876,-33.13685 4.35884,-39.2505 3.12621,-47.77117 -0.89253,-6.16968 -0.9489,-10.39763 -0.15294,-11.47081 5.83404,-7.86598 9.24467,-13.62667 11.82174,-19.96742 2.92282,-7.19145 4.77219,-8.40207 4.77219,-3.12394 0,3.97984 3.05474,2.03827 5.92025,-3.76287 1.55675,-3.15161 2.80658,-9.02997 3.13855,-14.76166 0.47609,-8.21989 0.0523,-10.63716 -3.09364,-17.64731 -2.00491,-4.46754 -4.46726,-8.80497 -5.47189,-9.63873 -1.00463,-0.83377 -1.8266,-2.573 -1.8266,-3.86496 0,-1.29196 -2.42247,-7.18896 -5.38327,-13.10445 -6.0849,-12.15726 -17.15155,-24.38399 -27.46533,-30.3444 -3.56661,-2.06117 -6.91222,-4.37639 -7.43471,-5.14493 -0.52249,-0.76855 -2.02249,-1.47205 -3.33334,-1.56334 -1.31084,-0.0913 -5.98335,-1.2809 -10.38335,-2.64359 -5.85426,-1.81307 -12.11266,-2.47337 -23.33333,-2.4618 -13.62245,0.014 -16.64712,0.47078 -27.1077,4.09337 l -11.77437,4.07756 0.81155,-4.78311 c 0.44635,-2.63071 2.74482,-9.41931 5.1077,-15.08578 C 369.68998,362.13811 370.43297,361.20935 376,358.82676 387.01638,354.11194 396.39645,352 406.32069,352 c 5.76435,0 9.51762,-0.51626 9.06599,-1.24702 -1.2202,-1.97432 -15.31687,-6.8683 -23.70901,-8.23112 -14.21635,-2.30862 -27.47506,0.99947 -54.56548,13.61425 -14.91322,6.94441 -17.8753,7.86933 -25.33333,7.91041 -18.58659,0.10237 -38.76579,5.64933 -57.11219,15.69929 L 243.33333,385.95408 254,386.93017 c 12.21151,1.11745 16.68133,2.03886 16.63225,3.42857 -0.0189,0.53602 -7.66893,3.47685 -17,6.53517 -9.33107,3.05832 -31.66558,10.62282 -49.63225,16.81 -17.96667,6.18718 -34.46667,11.64681 -36.66667,12.1325 -2.2,0.4857 5.6,-4.10752 17.33334,-10.20715 38.22554,-19.87172 62.71997,-35.87764 91.07148,-59.51079 C 308.28974,328.98422 337.48108,316 365.93315,316 c 14.3956,0 24.84007,2.46221 36.33388,8.56544 4.6198,2.45313 8.38133,3.77945 8.35896,2.94739 -0.0928,-3.44999 -10.38845,-16.4663 -15.98114,-20.20412 l -6.02183,-4.02462 7.75394,-5.67686 c 14.02508,-10.26812 36.43441,-15.47426 63.29242,-14.7041 8.2515,0.23661 15.0015,0.15274 15,-0.18638 -10e-4,-0.33912 -1.60649,-1.89538 -3.56666,-3.45837 l -3.56395,-2.84179 10.56395,-2.8416 c 27.27162,-7.33581 49.67431,-7.34913 79.7924,-0.0475 l 11.89511,2.88379 -3.56178,3.06372 c -1.95898,1.68504 -3.55997,3.2425 -3.55776,3.46101 0.002,0.2185 9.15222,0.42556 20.33334,0.46011 24.50107,0.0757 37.48581,2.82918 56.9159,12.06922 l 12.74674,6.06175 -4,2.09167 c -7.68463,4.01842 -13.90759,9.89507 -17.93828,16.93999 -2.23395,3.90453 -4.06172,7.50548 -4.06172,8.0021 0,0.49662 3.77056,-1.20567 8.37903,-3.78287 12.72396,-7.11564 22.83498,-9.23718 40.28763,-8.45331 11.77161,0.5287 17.16695,1.49782 27.33334,4.90962 21.86317,7.33722 36.57871,16.32429 63.24225,38.62332 8.01658,6.70435 18.66307,14.98258 23.65887,18.39606 4.9958,3.41348 8.91432,6.37529 8.70781,6.5818 -0.2065,0.2065 -6.35299,-2.58539 -13.65886,-6.20421 -7.30588,-3.61881 -18.8536,-8.05341 -25.66162,-9.85465 -14.81476,-3.91965 -36.25124,-6.66996 -43.25625,-5.54982 -4.09161,0.65428 -7.82351,-0.33254 -19.57785,-5.17695 -7.98743,-3.29193 -19.14231,-7.25272 -24.78862,-8.80176 -18.45611,-5.06336 -37.88396,-3.2672 -50.66573,4.68418 l -5.33334,3.31781 10.66667,0.0613 c 13.91429,0.08 25.26153,2.85412 39.51329,9.66007 11.30852,5.4004 11.62548,5.68034 13.69821,12.09819 2.17088,6.72173 2.75433,15.06395 1.31577,18.81279 -0.71553,1.86463 -1.20228,1.8212 -4.33334,-0.38662 -12.04333,-8.49218 -32.09708,-14.84462 -46.74055,-14.80604 -37.73746,0.0994 -70.03106,24.64263 -78.23825,59.46122 -2.90286,12.31522 -1.94887,32.56614 2.09706,44.51563 3.70527,10.94337 13.11736,25.20126 20.78237,31.48217 3.24799,2.66148 5.90318,5.51678 5.90042,6.34511 -0.003,0.82833 -1.8005,5.10605 -3.99498,9.50605 -2.19448,4.4 -3.99223,9.66091 -3.99498,11.69091 -0.003,2.03 3.89498,20.8375 8.66165,41.79444 6.93473,30.48897 8.66666,40.32971 8.66666,49.24346 0,13.33219 1.10916,19.11503 8.68305,45.27119 6.62931,22.8941 8.65029,32.89928 8.65029,42.82475 0,11.89491 -1.71597,14.32357 -21.88637,30.97657 -15.17672,12.53014 -18.74325,15.0416 -30.50621,21.48163 -10.21175,5.59078 -10.44033,5.64657 -13.13651,3.20656 -3.19297,-2.88959 -6.47091,-8.81275 -6.47091,-11.69276 0,-1.10129 3.74743,-4.19865 8.32763,-6.88303 17.58795,-10.30802 30.50804,-24.75001 41.59646,-46.49626 7.52606,-14.75987 7.89093,-19.67196 1.74257,-23.45925 -13.64512,-8.40517 -48.48045,-12.27796 -86.53572,-9.62054 -24.36582,1.70148 -37.14455,4.65557 -44.54012,10.29645 -4.27605,3.2615 -4.73537,4.17735 -4.01657,8.00885 2.10065,11.19742 17.07356,35.43398 28.96589,46.88691 3.91959,3.77476 11.41386,9.58066 16.65393,12.90199 5.24007,3.32133 9.91459,6.66527 10.38782,7.43097 1.55237,2.51178 -6.43474,14.83831 -9.58189,14.78777 -0.55,-0.009 -3.53437,-1.46517 -6.63193,-3.2363 z M 838,414.14378 c -11.73333,-3.93919 -28.53333,-9.89686 -37.33333,-13.23924 -8.8,-3.34239 -19,-6.79483 -22.66667,-7.67209 -12.80614,-3.06389 -11.23886,-3.93283 11.25944,-6.24253 l 11.25944,-1.15591 12.07389,7.57274 c 6.64065,4.165 20.4739,12.14767 30.74056,17.73926 10.26667,5.59159 18.06667,10.16505 17.33334,10.16324 -0.73334,-0.002 -10.93334,-3.22627 -22.66667,-7.16547 z" id="path5"/>
      <path style="fill:#010202;stroke-width:1.00157;stroke-dasharray:none" d="m 485.00883,966.10695 c -1.06821,-17.12207 -9.49871,-33.21267 -20.87845,-39.849 L 460,923.84924 l 10e-4,5.74205 c 6.6e-4,3.60222 1.48218,8.87287 3.97554,14.14338 l 3.9745,8.40134 -8.24267,-5.73467 c -4.53346,-3.15407 -14.1305,-11.36596 -21.32675,-18.24865 -19.46143,-18.61344 -33.03543,-37.80685 -41.68945,-58.9482 -2.39753,-5.85706 -4.61209,-10.90214 -4.92123,-11.21128 -0.30915,-0.30915 -3.47945,0.31591 -7.04511,1.38902 -8.15905,2.45551 -22.14904,2.51745 -27.7687,0.12294 -2.35978,-1.00549 -5.67783,-3.33388 -7.37345,-5.17421 -2.61272,-2.83572 -3.76648,-3.19189 -7.56467,-2.33526 -9.63884,2.17391 -16.67827,10.69503 -16.69233,20.20581 -0.004,2.45583 0.7069,12.11516 1.57895,21.46516 l 1.58555,17 4.75439,0.0204 c 8.92411,0.0383 9.45742,1.39287 12.21157,31.01609 1.51376,16.28169 1.47398,18.60375 -0.34996,20.4277 -1.58388,1.58387 -13.08095,3.10489 -49.91588,6.60365 -26.32191,2.50019 -49.49418,4.55773 -51.49395,4.57231 -5.73243,0.0418 -7.25071,-4.07594 -9.57687,-25.9735 -1.16852,-11 -2.12367,-20.75 -2.12256,-21.66666 0.004,-2.95089 5.22575,-7 9.02792,-7 h 3.69256 l -2.38915,-20.33334 c -3.55654,-30.26872 -2.11553,-42.20139 7.60801,-63 10.5405,-22.54607 29.27759,-41.60755 52.06269,-52.96405 8.09151,-4.03296 30.12458,-11.70261 33.61877,-11.70261 1.38863,0 4.55299,-2.09258 7.03191,-4.65018 6.8934,-7.11218 13.61245,-9.10636 28.48994,-8.45567 l 12.57781,0.55011 0.8676,-7.66856 c 1.03078,-9.11086 7.49857,-35.93819 11.29533,-46.85112 l 2.69357,-7.74209 -9.6208,-11.37026 -9.6208,-11.37026 -0.36731,7.77901 c -0.54632,11.56997 -0.73495,11.78737 -7.11663,8.20187 -17.50839,-9.83693 -35.92027,-40.30746 -48.59565,-80.42285 -2.78057,-8.8 -5.30869,-16.3 -5.61805,-16.66667 -1.66562,-1.97414 -12.1517,14.61193 -15.59482,24.66667 -0.86671,2.531 -1.00122,2.49709 -2.64403,-0.66667 -4.34089,-8.35976 -8.98851,-36.14292 -11.37516,-68 -0.79663,-10.63333 -1.75827,-22.38494 -2.137,-26.11468 l -0.68859,-6.78135 -9.59805,1.90101 c -12.19464,2.41531 -62.09083,1.39225 -82.91676,-1.7001 C 144.81735,508.19777 97.008466,482.363 55.889541,441.38592 41.022339,426.57 28,411.39162 28,408.87884 28,408.39548 35.09427,408 43.765045,408 c 42.471716,0 79.680305,-13.77583 152.901625,-56.60916 53.50248,-31.29812 79.30629,-43.59955 105.91287,-50.49176 6.65518,-1.72397 12.34135,-3.38152 12.63594,-3.68345 C 316.23222,296.17358 311.91995,272.62306 308.03481,258 283.22485,164.61913 198.13663,88.516457 79.118373,53.25775 59.279396,47.380529 54.666667,44.418384 54.666667,37.555657 c 0,-5.862092 3.383363,-9.133039 12.629637,-12.210001 36.234416,-12.058038 85.316326,-12.305204 132.470136,-0.667091 97.42847,24.046492 172.18067,75.899155 225.83774,156.654765 10.86577,16.35334 27.75725,47.823 33.52599,62.46059 1.49942,3.80463 2.90502,5.55539 4.09388,5.09918 0.99576,-0.38211 9.5277,-2.05622 18.95988,-3.72025 22.77416,-4.01784 47.96023,-4.04769 71.1494,-0.0843 9.16667,1.56672 18.76271,3.46273 21.32453,4.21336 7.85893,2.30272 8.44542,1.91243 12.49994,-8.31831 9.93084,-25.05836 32.28891,-62.52407 52.30625,-87.65024 21.84172,-27.41616 59.69281,-61.409609 89.86928,-80.71013 51.3027,-32.81261 128.62838,-56.569593 184.26505,-56.61226 25.06825,-0.01923 61.86412,6.502318 71.19951,12.619096 4.54209,2.976096 6.39283,8.219163 4.50773,12.770213 -1.83855,4.438651 -4.30288,5.726343 -18.99853,9.927337 -50.16222,14.339705 -100.25008,39.363802 -139.64042,69.764924 -12.83286,9.90429 -39.13529,35.57929 -48.73672,47.57416 -16.17801,20.21082 -32.15328,48.98958 -40.39593,72.7715 -4.49895,12.98049 -10.29503,37.94024 -11.60882,49.99125 l -0.88263,8.09609 9.14538,2.47175 c 24.67735,6.66962 49.88009,18.89257 101.81205,49.37731 75.53985,44.34287 112.1978,57.92434 156.41618,57.9509 l 13.08282,0.008 -4.4162,6.33092 C 997.82919,426.0629 964.30527,458.79557 950,469.447 c -27.69053,20.61786 -56.23371,34.8653 -85.97816,42.91634 -14.77993,4.00054 -16.37914,4.159 -42.68851,4.22979 -25.91809,0.0697 -28.01815,-0.11779 -40.55965,-3.62174 -13.38988,-3.74097 -24.29066,-9.70011 -38.03173,-20.79085 -3.79851,-3.06587 -5.60197,-3.94093 -5.02539,-2.43838 2.14064,5.57843 4.92065,18.47083 6.3801,29.58795 2.06934,15.7629 0.90559,64.02734 -1.91296,79.33656 -2.06892,11.23755 -5.90819,23.84434 -6.0908,20 C 735.81698,612.85798 723.21969,592 719.98742,592 c -0.60988,0 -1.52536,1.95 -2.03441,4.33333 -1.96602,9.20487 -10.55552,32.92901 -16.54301,45.69169 -10.33431,22.02819 -20.52448,36.04374 -32.61005,44.8518 -7.83077,5.70714 -8.62494,5.20494 -9.07487,-5.73852 l -0.39175,-9.52836 -10.29775,12.11736 -10.29775,12.11736 2.03595,4.87272 c 1.11978,2.67999 4.12933,13.04051 6.6879,23.02337 2.55857,9.98286 4.91575,18.41446 5.23818,18.73689 0.32243,0.32243 24.73411,-1.60732 54.24818,-4.28834 l 53.66193,-4.87457 4.69502,-5.31899 c 6.19422,-7.01743 12.48652,-9.38055 25.87698,-9.71829 10.0075,-0.25241 11.49988,0.0529 16.53856,3.38353 3.04614,2.01354 6.52333,5.56554 7.72708,7.89333 2.21107,4.27574 8.50271,55.80684 8.53623,69.91518 0.0317,13.32647 -8.96527,20.90727 -26.64295,22.44932 -11.57587,1.00977 -17.9095,-0.7455 -24.10603,-6.68065 l -3.4318,-3.28704 -51.90153,4.75935 c -28.54584,2.61764 -54.53819,5.18192 -57.76078,5.6984 l -5.85926,0.93906 -3.00731,13.32604 c -4.07213,18.04445 -7.71386,28.24101 -15.65272,43.82637 -13.58028,26.66044 -37.53648,53.23175 -62.57717,69.40823 l -3.62237,2.34008 3.79997,-7.79099 c 4.13215,-8.47208 5.81947,-15.26313 4.589,-18.46968 -0.57706,-1.50378 -4.53888,1.58719 -15.04796,11.74028 -26.53502,25.63614 -44.12098,35.28035 -70.90501,38.88459 l -6.14209,0.82652 z M 309.78692,952.73872 c 10.8828,-1.02746 20.06987,-2.15106 20.4157,-2.49689 0.67345,-0.67345 -1.57823,-23.39521 -2.39983,-24.21682 -0.55053,-0.55053 -44.08656,3.09259 -48.87854,4.09018 -2.13041,0.44351 -2.88005,1.34382 -2.439,2.92923 0.35022,1.2589 1.03379,6.92065 1.51904,12.58167 l 0.88229,10.29275 5.55671,-0.656 c 3.05619,-0.36081 14.46082,-1.49666 25.34363,-2.52412 z m 226.02095,-17.40539 c 3.14223,-7.71031 11.29732,-16.03215 23.78638,-24.27272 15.47893,-10.21337 22.97118,-19.37318 29.03087,-35.49233 l 3.03932,-8.08476 2.00563,3.92491 c 2.50134,4.89497 4.9966,16.43175 4.9966,23.10164 0,2.77502 0.41925,5.46474 0.93168,5.97717 1.20171,1.20171 8.90929,-10.78986 13.80006,-21.47034 4.92677,-10.75911 9.99404,-26.87092 11.87024,-37.74247 0.81704,-4.73427 1.83243,-10.3439 2.25642,-12.46583 l 0.77089,-3.85808 -7.02114,0.93139 c -5.61457,0.7448 -8.38211,2.08684 -13.81465,6.69904 -21.53105,18.27974 -59.34191,35.80451 -83.4737,38.6888 -13.04799,1.55953 -38.00708,-6.64866 -63.7537,-20.96642 l -14.18399,-7.88775 -14.16066,0.92506 c -7.78837,0.50879 -14.82606,1.33631 -15.63933,1.83893 -3.99676,2.47013 8.41228,34.31045 20.65173,52.99021 l 2.3724,3.62074 1.6343,-12.20079 c 0.89886,-6.71044 2.7475,-14.75361 4.10809,-17.87372 l 2.47378,-5.67292 2.38774,7.30009 c 5.08703,15.55271 14.08487,26.77321 29.41245,36.67796 15.75346,10.17995 27.24133,24.093 27.3481,33.12151 0.0185,1.56493 0.71414,2.21319 1.8905,1.76177 9.60127,-3.68435 12.35643,-3.8652 17.58494,-1.15426 l 5.22051,2.70679 1.15051,-2.89514 c 0.63278,-1.59233 2.1286,-5.29514 3.32403,-8.22848 z M 297.7062,913.92418 c 10.34924,-0.72534 13.29276,-1.38705 14.2669,-3.20724 0.77542,-1.4489 0.48835,-8.87654 -0.77964,-20.17182 -2.35869,-21.01126 -1.84448,-26.13601 3.57443,-35.62417 4.46859,-7.8242 12.79991,-14.04647 22.23211,-16.60412 6.62402,-1.79617 6.39672,-0.29396 3.67936,-24.31683 -1.07837,-9.53333 -1.97238,-18.08333 -1.98668,-19 -0.0413,-2.64364 -4.06794,-1.96228 -12.69268,2.14777 -18.7802,8.94954 -33.96085,24.40763 -44.04723,44.85223 -8.22199,16.66555 -9.11778,23.78125 -5.91056,46.95032 3.79261,27.39798 3.76439,27.2803 6.36405,26.53541 1.24323,-0.35621 8.1282,-1.05892 15.29994,-1.56155 z m 84.66379,-69.33312 c 3.50937,-2.45806 3.66767,-5.458 1.39502,-26.43787 l -1.57218,-14.51348 -12.62254,0.88727 c -6.9424,0.48801 -13.01219,1.1281 -13.48843,1.42243 -1.71885,1.0623 2.75158,35.95412 4.91784,38.38392 2.75966,3.09538 17.07254,3.268 21.37029,0.25773 z m 154.08581,-10.5477 c 10.73285,-1.91299 30.96188,-10.41618 29.68708,-12.47884 -1.4914,-2.41313 -20.96527,-7.20251 -25.26141,-6.21276 -2.31814,0.53406 -12.0148,1.36514 -21.54814,1.84684 -15.78217,0.79745 -18.04227,1.23937 -25.25539,4.93814 -4.35714,2.23427 -8.12613,4.67448 -8.37553,5.42269 -0.45059,1.35177 15.31351,6.51104 22.96426,7.51574 8.43418,1.10757 17.7206,0.76277 27.78913,-1.03181 z m -98.06709,-5.90911 c 25.48827,-2.36348 25.76093,-2.42221 30,-6.46157 2.35288,-2.24203 7.1824,-5.89561 10.73228,-8.11906 l 6.45431,-4.04265 -5.78765,-2.94315 c -6.56871,-3.34035 -18.30049,-11.30753 -24.90586,-16.91383 l -4.45154,-3.77825 -26.88179,2.5176 c -14.78499,1.38468 -27.00329,2.63414 -27.15179,2.77657 -0.38419,0.3685 3.59894,37.18416 4.22064,39.01095 0.32163,0.94508 2.68288,1.29326 6.28233,0.92637 3.17187,-0.3233 17.34195,-1.66114 31.48907,-2.97298 z M 680,805.90039 c 46.56667,-4.22415 85.06099,-8.0298 85.54294,-8.457 0.82899,-0.73481 -2.63191,-37.54833 -3.62988,-38.61097 -0.25874,-0.2755 -36.04503,3.18799 -79.52508,7.69665 -43.48006,4.50865 -79.7641,8.18406 -80.63121,8.16758 -0.86711,-0.0165 -6.68273,4.7006 -12.92359,10.48242 -6.24086,5.78181 -14.0595,12.23181 -17.37475,14.33333 -3.31525,2.10151 -6.04964,4.12731 -6.07641,4.50176 -0.0268,0.37445 4.30131,2.85459 9.61798,5.51141 7.22785,3.61187 11.01222,4.73276 15,4.44284 2.93333,-0.21326 43.43333,-3.84387 90,-8.06802 z m 126.92162,-1.56275 c 2.51729,-2.51729 2.54626,-3.22945 0.80575,-19.80774 l -1.80543,-17.19657 -13.26501,0.41515 c -7.29575,0.22833 -13.44059,0.59074 -13.6552,0.80534 -0.21461,0.21461 0.22822,6.3278 0.98406,13.58486 2.72649,26.17781 2.94204,26.52653 15.75991,25.49764 6.06221,-0.48662 9.3277,-1.45046 11.17592,-3.29868 z M 500.51285,785.5033 c 1.24272,-1.37319 3.38708,-5.58168 4.76525,-9.3522 2.15355,-5.89186 2.28669,-7.7368 0.94717,-13.12524 -1.25459,-5.04681 -2.62244,-6.98299 -7.01273,-9.92652 -4.59845,-3.08308 -6.23624,-5.54368 -10.43925,-15.68376 -8.82589,-21.29319 -17.99505,-26.09586 -23.16087,-12.13132 -1.12185,3.03267 -1.4983,2.68642 -6.17862,-5.68277 -3.91624,-7.00289 -4.79693,-9.76383 -4.11087,-12.88746 1.19948,-5.46119 7.29251,-10.19612 15.34211,-11.92245 27.24664,-5.84336 83.90475,-4.79181 102.04786,1.89397 6.15336,2.26753 9.95377,7.60721 9.95377,13.98533 0,4.98733 -3.12081,12.12016 -6.73327,15.38939 -2.41637,2.18679 -2.58943,2.17611 -3.43762,-0.21211 -1.38302,-3.89416 -6.04453,-8.51483 -8.59008,-8.51483 -3.81861,0 -10.0151,8.45012 -14.75604,20.12273 -3.727,9.17618 -5.44031,11.71492 -10.15984,15.05456 -7.61099,5.38571 -9.74779,12.30619 -6.93114,22.44797 1.35166,4.86688 7.14606,13.04141 9.24421,13.04141 0.58621,0 9.98287,-6.35938 20.88147,-14.13195 24.18533,-17.2483 41.50808,-27.60425 51.51346,-30.796 7.2465,-2.31166 7.57068,-2.6132 8.31963,-7.73872 0.95025,-6.50307 -2.07128,-24.01299 -5.88093,-34.08032 -1.543,-4.07751 -5.00083,-10.97751 -7.68406,-15.33333 -10.54685,-17.12122 -16.55873,-28.12538 -17.80281,-32.58635 -0.71579,-2.56666 -1.30479,-10.07062 -1.30888,-16.67547 -0.004,-6.60484 -0.62603,-14.10484 -1.38208,-16.66666 -1.33786,-4.53325 0.48898,-15.99636 2.54792,-15.98774 0.4547,0.002 2.5638,4.92154 4.6869,10.93251 7.29723,20.66012 22.80583,47.7307 27.34469,47.7307 1.65531,0 16.81412,-26.34365 25.34911,-44.05277 9.60844,-19.93644 16.81006,-40.94559 19.10497,-55.73456 l 1.68565,-10.86271 5.28844,13.57003 c 4.41527,11.32948 5.43809,13.03424 6.19479,10.32501 1.11776,-4.00189 1.11646,-31.84372 -0.002,-44.83608 l -0.82573,-9.59107 -7.33333,4.4912 c -4.03333,2.47016 -12.13333,6.12777 -18,8.12802 -9.07263,3.09334 -12.85847,3.63683 -25.33333,3.63683 -12.4751,0 -16.25863,-0.54318 -25.32054,-3.63513 -40.21784,-13.72243 -60.87931,-50.15053 -52.05726,-91.7818 8.52386,-40.22408 51.94841,-66.69266 94.59438,-57.65814 9.43749,1.99932 23.33094,7.83591 30.06231,12.62907 3.31606,2.36124 3.87375,2.4328 4.58171,0.58791 0.44333,-1.15532 0.80606,-3.55151 0.80606,-5.32486 0,-1.77336 0.42939,-3.22429 0.9542,-3.22429 0.52482,0 3.67482,2.61059 7,5.80131 l 6.0458,5.80131 16.19869,2.19398 c 21.94874,2.97278 45.78722,10.97058 55.80131,18.72131 2.47976,1.91929 1.98913,2.06692 -7,2.10636 -5.31666,0.0233 -9.66666,0.59542 -9.66666,1.27133 0,2.06677 15.86052,11.88768 31.33333,19.40174 15.96371,7.75245 36.22893,14.6888 47.14577,16.13697 3.80275,0.50445 7.20619,1.38982 7.56321,1.96749 0.92075,1.4898 -8.1649,8.71775 -16.04231,12.76221 L 814,478.92018 l 6.66667,-0.86733 c 18.01326,-2.34352 43.49886,-10.10804 59.78454,-18.21413 C 888.29277,455.93563 908,443.54309 908,442.51514 c 0,-0.47206 -1.95,-1.64142 -4.33333,-2.59858 -2.38334,-0.95715 -14.3291,-6.38998 -26.54615,-12.07293 C 833.00917,407.32452 793.96146,383.27193 764.13896,358.24932 729.31006,329.02608 700.71734,316 671.40018,316 c -14.3956,0 -24.84007,2.46221 -36.33387,8.56544 -4.61981,2.45313 -8.39964,4.02248 -8.39964,3.48744 0,-0.53503 2.29353,-4.51581 5.09674,-8.84616 4.54863,-7.02665 10.14584,-12.02934 18.23659,-16.29954 2.33548,-1.23264 1.09352,-2.15119 -10,-7.39595 -20.16069,-9.53152 -31.51438,-11.97019 -56.25343,-12.08273 l -20.92009,-0.0952 3.36572,-3.5235 3.36573,-3.52351 -15.1123,-3.61557 c -26.45928,-6.3303 -50.36768,-6.04392 -76.33893,0.91442 l -10.55998,2.82927 3.63433,3.12611 3.63432,3.12612 h -17.26039 c -24.65244,0 -45.47869,4.49945 -63.79395,13.78251 -8.10375,4.10737 -9.45506,5.71171 -5.79052,6.87479 5.40809,1.71647 15.46619,11.07292 19.11271,17.77942 2.06243,3.79314 3.39532,6.89661 2.96197,6.89661 -0.43334,0 -4.22079,-1.73254 -8.41655,-3.85009 -12.14428,-6.12907 -20.80477,-8.15087 -34.87064,-8.14057 -28.6563,0.021 -59.20634,13.05849 -88.16497,37.62519 -36.53858,30.99706 -79.13525,56.85217 -131.2597,79.67132 -8.8,3.85248 -16.47998,7.44467 -17.06664,7.98264 -1.02348,0.93855 9.09397,7.97596 21.73331,15.11709 14.82932,8.37844 43.7143,18.0608 60.66667,20.3357 l 6.66666,0.89463 -8,-5.25461 c -7.56107,-4.9663 -12.35191,-9.31567 -11.19,-10.15885 0.28784,-0.20888 4.95209,-1.10597 10.365,-1.99355 12.98727,-2.12956 27.07258,-6.92141 43.93474,-14.94669 14.41418,-6.8602 32.2236,-17.94219 32.2236,-20.05127 0,-0.67702 -4.35,-1.23351 -9.66667,-1.23665 l -9.66667,-0.006 6,-4.00569 c 11.84898,-7.91057 38.17279,-15.93248 59.33334,-18.08123 9.06413,-0.92041 9.5833,-1.17717 18,-8.90197 8.54589,-7.84337 8.67268,-7.9043 9.09867,-4.37217 0.33653,2.79035 0.92591,3.36326 2.66667,2.59213 33.44545,-14.81583 67.822,-9.53589 92.87848,14.26531 16.31334,15.49607 22.02284,29.80215 22.02284,55.18171 0,24.89005 -4.8627,37.48801 -20.64387,53.48274 -15.96979,16.18592 -34.44773,23.71051 -58.02279,23.62807 -12.02865,-0.0421 -15.59586,-0.608 -25.33334,-4.01913 -6.23333,-2.1836 -12.31973,-4.41231 -13.52534,-4.95269 -1.95253,-0.87516 -2.28044,0.95723 -3.00151,16.77259 -0.44523,9.76529 -0.35883,21.33604 0.19201,25.71276 l 1.00151,7.95767 5.15017,-13.02972 c 2.8326,-7.16635 5.35779,-12.82211 5.61155,-12.56835 0.25375,0.25375 1.1513,4.93617 1.99454,10.40538 2.17856,14.12993 9.2104,34.68827 18.52574,54.16202 8.19138,17.1241 23.91099,44.44866 25.57097,44.44866 0.50622,0 3.43449,-2.85 6.50727,-6.33334 6.09698,-6.9116 16.25024,-26.92167 22.09463,-43.54416 l 3.70728,-10.54416 2.51838,7.21083 c 2.02158,5.78833 2.40612,9.84113 1.94932,20.54416 -0.69087,16.18751 -4.9025,28.14121 -16.18609,45.94035 -14.38963,22.69874 -19.8471,38.31921 -19.1702,54.8693 l 0.39311,9.61151 6.68225,2.26689 c 12.50752,4.24304 22.82883,10.54414 62.37314,38.0784 5.7138,3.97845 10.87081,7.23355 11.46002,7.23355 0.58921,0 2.08805,-1.12352 3.33077,-2.4967 z M 682,373.81686 c -1.46667,-0.39462 -8.50067,-3.36808 -15.63111,-6.60769 C 650.40794,359.95755 639.85664,357.38013 626,357.34806 L 615.33333,357.32337 620,354.47671 c 8.58772,-5.2385 18.45382,-7.81119 29.8754,-7.79034 14.39613,0.0263 23.18263,2.27781 49.22369,12.61343 12.05629,4.78511 23.34111,8.76011 25.07738,8.83334 1.93535,0.0816 0.0614,1.15466 -4.84314,2.77317 -7.91541,2.61212 -31.58428,4.45737 -37.33333,2.91055 z m -367.18413,-1.92485 c -6.93225,-1.36156 -8.097,-2.19446 -4.67337,-3.34186 1.38829,-0.46528 11.82417,-5.22124 23.19083,-10.5688 26.83153,-12.62317 36.17005,-15.47327 50.66667,-15.46342 11.36049,0.008 23.23132,2.92465 29.35353,7.21281 2.39948,1.68066 1.72379,1.88444 -6.76829,2.04126 -14.25587,0.26326 -29.90626,5.19638 -44.3032,13.96469 -3.51155,2.13868 -9.15691,4.72283 -12.54524,5.74257 -6.72646,2.02437 -25.58089,2.24722 -34.92093,0.41275 z m 97.8508,135.62885 c 26.92398,-7.19202 43.50354,-28.84808 41.67296,-54.43282 -0.90418,-12.63718 -6.6264,-23.93078 -16.9838,-33.51989 C 425.64653,408.72739 417.86945,406 398.66667,406 c -14.64427,0 -15.73819,0.19799 -24.34217,4.40566 -11.04361,5.40074 -20.816,14.9212 -25.85998,25.19332 -3.40728,6.93895 -3.79785,9.10767 -3.79785,21.08819 0,12.36979 0.31932,14.00302 4.33324,22.16344 11.17106,22.71105 39.02286,35.25321 63.66676,28.67025 z m 4.66735,-27.68546 C 409.43827,476.68693 404,468.57032 404,459.93439 c 0,-20.53647 25.14214,-29.77265 40.16121,-14.75357 13.72328,13.72328 2.82745,36.34677 -17.37092,36.068 -3.36799,-0.0465 -7.62332,-0.68253 -9.45627,-1.41342 z m 24.22766,-23.37538 c 3.12453,-2.82766 3.08007,-4.79927 -0.17462,-7.74473 -5.65345,-5.1163 -13.71042,1.77079 -8.63392,7.38026 2.85332,3.15288 5.60172,3.2666 8.80854,0.36447 z m 200.76375,50.98026 c 16.86734,-4.49036 30.73654,-15.52127 37.40386,-29.74928 3.16444,-6.75289 3.60369,-9.31733 3.60118,-21.02433 -0.003,-12.3869 -0.30356,-13.90891 -4.23907,-21.44192 -5.52525,-10.57594 -14.88474,-19.66101 -25.71664,-24.96262 C 645.11631,406.22008 643.87493,406 629.33333,406 c -19.51305,0 -27.05157,2.70952 -39.22712,14.09915 C 577.92442,431.49462 574,440.56705 574,457.33333 c 0,11.31627 0.41814,13.51955 3.92216,20.66667 11.43771,23.32938 39.37916,36.10209 64.40327,29.44028 z m 2.46659,-29.12888 c -7.14455,-4.08545 -10.38427,-8.93215 -11.12525,-16.64363 -0.94682,-9.85381 2.90585,-16.44712 12.29473,-21.04067 6.04835,-2.95918 8.40657,-3.44138 13.26621,-2.71263 16.31713,2.4469 24.97722,17.6546 17.85838,31.36052 -5.80357,11.17363 -21.08082,15.44846 -32.29407,9.03641 z m 26.45484,-22.21585 c 5.0765,-5.60947 -2.98047,-12.49656 -8.63392,-7.38026 -3.18839,2.88545 -3.26766,4.35128 -0.40629,7.51306 2.8468,3.14568 6.1167,3.09765 9.04021,-0.1328 z M 376.45842,277.42677 c 17.1157,-7.6793 35.54637,-12.94766 58.44616,-16.70671 l 4.90458,-0.80509 -2.04375,-5.99809 C 433.85255,242.43326 417.47714,211.22738 407.02346,195.33333 359.45511,123.00915 297.44854,77.05199 212.84339,51.413677 181.08704,41.790396 139.98866,36.00387 120,38.341613 l -8.66667,1.013597 16,5.834289 c 31.96445,11.655615 67.34557,28.252531 94.1202,44.15081 7.40367,4.396163 13.7473,7.993024 14.09695,7.993024 0.34964,0 3.24424,-1.79471 6.43243,-3.988244 6.4968,-4.469916 18.38222,-8.011756 26.8852,-8.011756 6.77174,0 8.75506,2.098279 3.14747,3.329911 -7.01068,1.539805 -25.2096,16.571626 -22.45694,18.548836 7.21022,5.17904 18.63356,14.00479 21.33676,16.48493 l 3.56207,3.26814 7.62694,-3.73152 c 6.12838,-2.99834 9.8821,-3.82688 19.1046,-4.21688 l 11.47766,-0.48536 -8,4.04111 c -4.4,2.22262 -10.4,6.11261 -13.33334,8.64444 L 286,135.82026 l 9.07829,9.20222 9.07828,9.20223 5.81884,-2.94587 c 7.8703,-3.98446 18.84267,-5.20102 28.35368,-3.14372 l 7.67091,1.65927 -5.54167,1.01194 c -6.45272,1.1783 -13.46541,4.58768 -21.53827,10.47132 l -5.7466,4.18822 3.7466,4.281 c 2.06063,2.35455 7.04661,9.22399 11.07994,15.26542 6.58223,9.85937 7.67475,10.90192 10.66667,10.17887 12.69849,-3.06884 29.90281,-2.85654 41.8995,0.51704 3.66078,1.02944 3.4159,1.20141 -4,2.80899 -7.53796,1.63404 -23.74001,8.76899 -29.07781,12.80508 -2.42948,1.83702 -2.3662,2.23902 1.93425,12.28844 2.44524,5.71411 4.84549,10.8793 5.33389,11.47821 0.4884,0.5989 4.41799,0.0513 8.73242,-1.2168 9.47875,-2.78609 28.79322,-2.86155 38.51108,-0.15045 l 6.66667,1.85988 -6,1.01006 c -13.47676,2.26872 -42.52685,18.37497 -40.88047,22.66537 0.34994,0.91193 1.40821,6.25218 2.3517,11.86721 0.94349,5.61503 2.14251,10.20914 2.66448,10.20914 0.52197,0 4.86719,-1.75795 9.65604,-3.90656 z M 679.12556,279 c 0.35122,-1.28333 1.36062,-6.38876 2.2431,-11.34539 1.83646,-10.31488 1.6185,-10.80461 -7.64529,-17.17827 -9.11167,-6.26899 -20.37761,-11.37423 -29.0567,-13.16723 -9.51663,-1.96603 -7.92145,-3.01026 7.97631,-5.22144 11.1707,-1.5537 17.34541,-1.08835 29.03222,2.188 4.22136,1.18344 7.8861,1.90554 8.14387,1.60468 0.25777,-0.30086 2.58988,-5.50176 5.18248,-11.55756 l 4.71382,-11.01055 -3.71478,-2.64515 c -6.32556,-4.5042 -20.1394,-10.50646 -27.91394,-12.1289 -6.29116,-1.31289 -6.96271,-1.71895 -4.41425,-2.66914 9.28434,-3.46168 29.57412,-3.73477 41.84729,-0.56326 3.2481,0.83934 4.15214,9.8e-4 11.71612,-10.8648 4.50804,-6.47588 9.51953,-13.4621 11.13666,-15.52494 l 2.94022,-3.75062 -3.32301,-2.62254 c -6.65748,-5.25412 -14.21456,-9.15194 -21.35534,-11.01474 -7.13578,-1.86149 -7.21049,-1.92994 -3.30101,-3.02467 8.39364,-2.35038 22.22484,-1.24235 30.17905,2.41767 l 7.51239,3.45672 8.88835,-8.95699 8.88836,-8.95699 -6.16732,-5.68484 c -3.39203,-3.12666 -9.27236,-7.14161 -13.06741,-8.9221 L 732.66667,118.61968 744,119.08223 c 9.11348,0.37196 12.7198,1.17223 18.41186,4.08575 l 7.07853,3.6232 12.66266,-9.64348 c 6.96446,-5.30392 12.9194,-10.05892 13.23321,-10.56667 1.07074,-1.7325 -12.73584,-13.377905 -19.6688,-16.589989 -5.37277,-2.489241 -6.38858,-3.40636 -4.55305,-4.110716 6.72479,-2.580547 28.41934,3.169777 33.61384,8.909635 1.26594,1.398855 2.83765,2.543373 3.49267,2.543373 0.65502,0 7.31203,-3.624085 14.79335,-8.053523 27.98244,-16.567462 64.59102,-33.589031 96.26906,-44.761372 L 934,39.345739 924.66667,38.353714 c -12.81531,-1.362118 -41.94967,1.044746 -62,5.121981 -25.50898,5.187248 -65.06727,18.851163 -90,31.087089 -34.76997,17.063628 -59.59181,34.921026 -88.08924,63.373406 -19.1011,19.07092 -32.3724,35.40857 -47.12898,58.01824 -14.12487,21.64176 -34.04118,61.23062 -31.88736,63.38443 0.35257,0.35258 5.70363,1.52389 11.89124,2.60292 15.48894,2.70104 32.95526,7.90828 47.21434,14.07601 14.03345,6.07015 13.6362,5.98821 14.45889,2.98221 z" id="path2"/>
    </g>
    <path d="m 535.63263,832.09747 c 10.73285,-1.91299 30.96188,-10.41618 29.68708,-12.47884 -1.4914,-2.41313 -20.96527,-7.20251 -25.26141,-6.21276 -2.31814,0.53406 -12.0148,1.36514 -21.54814,1.84684 -15.78217,0.79745 -18.04227,1.23937 -25.25539,4.93814 -4.35714,2.23427 -8.12613,4.67448 -8.37553,5.42269 -0.45059,1.35177 15.31351,6.51104 22.96426,7.51574 8.43418,1.10757 17.7206,0.76277 27.78913,-1.03181 z" style="fill:#ee0791;fill-opacity:1;stroke-width:1.00157;stroke-dasharray:none" id="path1"/>
  </g>
</svg>