<?xml version="1.0" encoding="UTF-8"?>
<svg version="1.1" xmlns="http://www.w3.org/2000/svg" width="316" height="376">
<path d="M0 0 C1.39477821 -0.00128403 1.39477821 -0.00128403 2.81773376 -0.00259399 C5.93841477 -0.00424711 9.05904193 0.00127112 12.17971802 0.00672913 C14.4532426 0.00703549 16.72676728 0.00690191 19.00029182 0.00636387 C25.08916647 0.00613809 31.17802147 0.01193438 37.26689148 0.0189743 C42.98026593 0.02466881 48.6936356 0.0249374 54.40701294 0.02565002 C71.11656958 0.03089756 87.82612256 0.0448587 104.53567505 0.05775452 C160.53255005 0.08869202 160.53255005 0.08869202 217.66067505 0.12025452 C217.66067505 103.08025452 217.66067505 206.04025452 217.66067505 312.12025452 C217.00067505 312.12025452 216.34067505 312.12025452 215.66067505 312.12025452 C215.66067505 312.78025452 215.66067505 313.44025452 215.66067505 314.12025452 C214.01067505 314.45025452 212.36067505 314.78025452 210.66067505 315.12025452 C210.33067505 316.11025452 210.00067505 317.10025452 209.66067505 318.12025452 C209.33067505 318.45025452 209.00067505 318.78025452 208.66067505 319.12025452 C209.65067505 319.12025452 210.64067505 319.12025452 211.66067505 319.12025452 C211.66067505 319.78025452 211.66067505 320.44025452 211.66067505 321.12025452 C208.18742324 322.27800512 205.30000057 322.18892104 201.66067505 322.12025452 C201.33067505 323.11025452 201.00067505 324.10025452 200.66067505 325.12025452 C193.45278942 328.94944376 185.02461908 329.41419523 177.03651428 329.32279968 C176.11002518 329.32042498 175.18353607 329.31805028 174.22897154 329.31560361 C171.14740411 329.30524811 168.06613143 329.28038409 164.98464966 329.25550842 C162.76660551 329.24507461 160.54855698 329.23554082 158.33050537 329.22683716 C152.32495665 329.2007301 146.31954721 329.16206171 140.31408381 329.1211133 C134.03207313 329.08042365 127.75000895 329.05132059 121.46794128 329.02098083 C110.92903355 328.96852516 100.39018473 328.90895148 89.85134888 328.84388733 C78.99980926 328.77691222 68.14825876 328.71425331 57.29666138 328.65736389 C56.62695188 328.65385145 55.95724239 328.65033901 55.26723867 328.64672013 C51.90725871 328.62912447 48.54727832 328.61161329 45.1872977 328.59414411 C17.34501153 328.44908875 -10.4971759 328.28947319 -38.33932495 328.12025452 C-38.33932495 328.78025452 -38.33932495 329.44025452 -38.33932495 330.12025452 C-39.32932495 329.79025452 -40.31932495 329.46025452 -41.33932495 329.12025452 C-42.52682495 326.55775452 -42.52682495 326.55775452 -43.33932495 324.12025452 C-42.67932495 324.12025452 -42.01932495 324.12025452 -41.33932495 324.12025452 C-41.33932495 323.46025452 -41.33932495 322.80025452 -41.33932495 322.12025452 C-41.99932495 322.12025452 -42.65932495 322.12025452 -43.33932495 322.12025452 C-43.33932495 226.09025452 -43.33932495 130.06025452 -43.33932495 31.12025452 C-42.67932495 31.12025452 -42.01932495 31.12025452 -41.33932495 31.12025452 C-41.00932495 29.47025452 -40.67932495 27.82025452 -40.33932495 26.12025452 C-39.67932495 26.12025452 -39.01932495 26.12025452 -38.33932495 26.12025452 C-38.33932495 22.82025452 -38.33932495 19.52025452 -38.33932495 16.12025452 C-37.34932495 15.79025452 -36.35932495 15.46025452 -35.33932495 15.12025452 C-35.33932495 14.46025452 -35.33932495 13.80025452 -35.33932495 13.12025452 C-34.67932495 12.79025452 -34.01932495 12.46025452 -33.33932495 12.12025452 C-33.33932495 11.46025452 -33.33932495 10.80025452 -33.33932495 10.12025452 C-32.67932495 10.12025452 -32.01932495 10.12025452 -31.33932495 10.12025452 C-31.33932495 9.46025452 -31.33932495 8.80025452 -31.33932495 8.12025452 C-30.67932495 7.79025452 -30.01932495 7.46025452 -29.33932495 7.12025452 C-29.33932495 6.13025452 -29.33932495 5.14025452 -29.33932495 4.12025452 C-28.63807495 4.34712952 -27.93682495 4.57400452 -27.21432495 4.80775452 C-23.43583516 5.21845993 -21.5989336 3.96264201 -18.33932495 2.12025452 C-12.2346495 0.0853627 -6.36213301 -0.02140999 0 0 Z " fill="#5467BD" transform="translate(70.33932495117188,21.879745483398438)"/>
<path d="M0 0 C1.32 0 2.64 0 4 0 C4 102.96 4 205.92 4 312 C3.34 312 2.68 312 2 312 C2 312.66 2 313.32 2 314 C0.35 314.33 -1.3 314.66 -3 315 C-3.33 315.99 -3.66 316.98 -4 318 C-4.33 318.33 -4.66 318.66 -5 319 C-4.01 319 -3.02 319 -2 319 C-2 319.66 -2 320.32 -2 321 C-5.47325181 322.1577506 -8.36067448 322.06866652 -12 322 C-12.33 322.99 -12.66 323.98 -13 325 C-15.4375 326.25 -15.4375 326.25 -18 327 C-20 326 -20 326 -21 323 C-24.79014366 320.90934987 -27.53628745 320.90403629 -31.76171875 321.4375 C-32.88255859 321.52515625 -34.00339844 321.6128125 -35.15820312 321.703125 C-37.46681593 321.89731933 -39.7711579 322.15543503 -42.06445312 322.484375 C-46.05766429 322.71966903 -49.3587619 322.6871161 -53 321 C-55.13574946 318.98800364 -56.94803906 316.81892167 -58.82336807 314.56304932 C-64.76961857 307.50601746 -70.05903096 302.15402755 -79.46787167 300.92008972 C-84.73850549 300.59294898 -89.95749043 300.62092004 -95.234375 300.75 C-97.52924829 300.74802686 -99.82412329 300.74009698 -102.11895752 300.7265625 C-106.89828661 300.71813463 -111.67147369 300.77186034 -116.44970703 300.87304688 C-122.54040412 300.99831487 -128.62054873 300.98035512 -134.71187973 300.9175415 C-139.43997516 300.8823112 -144.165666 300.91609999 -148.89350128 300.9708252 C-151.1370458 300.99005757 -153.38084867 300.99009831 -155.62438202 300.96960449 C-170.27076595 300.81541814 -170.27076595 300.81541814 -182.51356888 308.00146484 C-186.08760188 311.75616777 -189.12765741 315.69148611 -192 320 C-192.66 320 -193.32 320 -194 320 C-195.31537364 317.56401192 -196.62739143 315.1263175 -197.9375 312.6875 C-198.31068359 311.99720703 -198.68386719 311.30691406 -199.06835938 310.59570312 C-199.42607422 309.92861328 -199.78378906 309.26152344 -200.15234375 308.57421875 C-200.48226318 307.96151123 -200.81218262 307.34880371 -201.15209961 306.7175293 C-202 305 -202 305 -203 302 C-218.18 301.67 -233.36 301.34 -249 301 C-249 282.52 -249 264.04 -249 245 C-230.52 245 -212.04 245 -193 245 C-193.33 242.36 -193.66 239.72 -194 237 C-200.6 237 -207.2 237 -214 237 C-214.1180794 227.70124697 -213.78829705 218.67539591 -212.75 209.4375 C-212.61650146 208.22658691 -212.48300293 207.01567383 -212.34545898 205.76806641 C-211.20033236 195.85235547 -209.58180681 186.10183015 -207.49414062 176.34375 C-207.0250961 174.1190329 -206.59381808 171.89030609 -206.171875 169.65625 C-197.76551385 126.76225334 -175.1066122 76.01700216 -139.234375 48.91015625 C-137.18609651 47.5414167 -135.13444845 46.22892487 -133 45 C-136.9223288 41.65093464 -140.99666237 39.19833768 -145.5 36.75 C-152.80920048 32.71351266 -159.93051298 28.44263996 -167 24 C-163.28125 22.8828125 -163.28125 22.8828125 -160.75 23.9375 C-159.88375 24.4634375 -159.88375 24.4634375 -159 25 C-158.505 23.515 -158.505 23.515 -158 22 C-157.34 22.33 -156.68 22.66 -156 23 C-155.505 24.485 -155.505 24.485 -155 26 C-153.19747131 26.70194993 -153.19747131 26.70194993 -151 27 C-150.0925 27.185625 -149.185 27.37125 -148.25 27.5625 C-147.5075 27.706875 -146.765 27.85125 -146 28 C-146 27.34 -146 26.68 -146 26 C-144.906875 25.87625 -143.81375 25.7525 -142.6875 25.625 C-138.92618198 25.24535199 -138.92618198 25.24535199 -136 23 C-133.5 23.125 -133.5 23.125 -131 24 C-129.99357052 25.32848691 -128.99307821 26.66150329 -128 28 C-126.68 28 -125.36 28 -124 28 C-124 28.66 -124 29.32 -124 30 C-123.34 30 -122.68 30 -122 30 C-122.33 31.98 -122.66 33.96 -123 36 C-122.21625 35.814375 -121.4325 35.62875 -120.625 35.4375 C-118 35 -118 35 -116 36 C-115.67 35.34 -115.34 34.68 -115 34 C-112.6859378 33.26924352 -110.35171131 32.59861742 -108 32 C-108 31.34 -108 30.68 -108 30 C-107.01 29.505 -107.01 29.505 -106 29 C-105.195625 28.505 -105.195625 28.505 -104.375 28 C-100.95899264 26.56168111 -97.68441581 26.36844158 -94 26 C-94.99 22.7 -95.98 19.4 -97 16 C-92.05 16 -87.1 16 -82 16 C-78.875 26.75 -78.875 26.75 -80 29 C-79.34 29 -78.68 29 -78 29 C-78 29.66 -78 30.32 -78 31 C-76.83855469 30.96519531 -75.67710937 30.93039063 -74.48046875 30.89453125 C-52.12083702 30.91910768 -30.35749615 43.69875842 -15 59 C-15.99 60.98 -16.98 62.96 -18 65 C-22.09623296 63.6913966 -26.00323989 62.16940162 -29.9375 60.4375 C-34.38622971 58.55385355 -38.19094646 57.32789001 -43 57 C-43.33 57.99 -43.66 58.98 -44 60 C-40.37 60.66 -36.74 61.32 -33 62 C-33 63.65 -33 65.3 -33 67 C-35.64 67.33 -38.28 67.66 -41 68 C-40.67 68.99 -40.34 69.98 -40 71 C-39.34 70.67 -38.68 70.34 -38 70 C-38 71.32 -38 72.64 -38 74 C-37.34 74 -36.68 74 -36 74 C-35.8046875 75.98567708 -35.609375 77.97135417 -35.4140625 79.95703125 C-35.07334609 82.29988142 -35.07334609 82.29988142 -33 85 C-39.51604873 83.69155648 -45.5455189 81.86502549 -51.75 79.5 C-52.57371094 79.19191406 -53.39742187 78.88382812 -54.24609375 78.56640625 C-57.46774301 77.3576393 -60.66093801 76.14996066 -63.80859375 74.7578125 C-66.26795715 73.90733746 -67.76556584 73.94331624 -70.3125 74.375 C-72.1378125 74.684375 -72.1378125 74.684375 -74 75 C-74.2165625 73.6078125 -74.2165625 73.6078125 -74.4375 72.1875 C-76.21595993 68.55944174 -76.73856417 68.34032802 -80.375 67.0625 C-83.64189992 66.06276307 -85.78712968 65.74666247 -89 67 C-108.33259497 80.15947191 -117.18675143 106.90292228 -121.54345703 128.72167969 C-127.68136987 162.52591464 -121.1898979 200.17989775 -107.86328125 231.6875 C-107 234 -107 234 -107 237 C-121.19 237.33 -135.38 237.66 -150 238 C-136.66755333 243.7624307 -136.66755333 243.7624307 -123.25 244.6875 C-122.20457031 244.70232422 -121.15914063 244.71714844 -120.08203125 244.73242188 C-113.43655493 244.66190184 -108.79550057 243.43030359 -103.04980469 240.06958008 C-101 239 -101 239 -98 239 C-98.33 237.68 -98.66 236.36 -99 235 C-97 235.66666667 -95 236.33333333 -93 237 C-92.67 236.01 -92.34 235.02 -92 234 C-92 234.66 -92 235.32 -92 236 C-90.68445015 235.5504955 -89.37261642 235.09010284 -88.0625 234.625 C-87.33160156 234.36976563 -86.60070312 234.11453125 -85.84765625 233.8515625 C-83.81317884 233.14728587 -83.81317884 233.14728587 -83 231 C-80.69 231 -78.38 231 -76 231 C-76 230.34 -76 229.68 -76 229 C-74.68 229 -73.36 229 -72 229 C-72 228.34 -72 227.68 -72 227 C-69.36 226.67 -66.72 226.34 -64 226 C-64 225.34 -64 224.68 -64 224 C-62.906875 223.690625 -61.81375 223.38125 -60.6875 223.0625 C-58.44592006 222.41662103 -56.2130649 221.7376883 -54 221 C-53.26676204 218.98491642 -53.26676204 218.98491642 -53 217 C-52.67 217.99 -52.34 218.98 -52 220 C-51.21625 219.566875 -50.4325 219.13375 -49.625 218.6875 C-46.03304205 217.01538165 -42.5674803 215.90627811 -38.7734375 214.8125 C-31.27835463 212.61675741 -23.92622987 210.09306147 -16.7421875 207.02734375 C-14.1246772 206.04670955 -11.50713881 205.23225217 -8.82861328 204.43579102 C-7.92523224 204.16662369 -7.0218512 203.89745636 -6.09109497 203.62013245 C-5.40103363 203.41548874 -4.71097229 203.21084503 -4 203 C-3.99245791 202.44008677 -3.98491583 201.88017353 -3.9771452 201.30329323 C-3.79277232 187.69128905 -3.5918924 174.07961518 -3.37313366 160.46811867 C-3.26784621 153.88573144 -3.1680931 147.30335567 -3.08081055 140.72070312 C-2.99643929 134.37275177 -2.89776254 128.02517184 -2.78899574 121.67759323 C-2.74996445 119.25107917 -2.7161633 116.82447536 -2.68758202 114.3978157 C-2.64679238 111.00912985 -2.58771976 107.62123457 -2.52416992 104.23291016 C-2.51625427 103.22087021 -2.50833862 102.20883026 -2.50018311 101.16612244 C-2.4792308 100.24623032 -2.4582785 99.3263382 -2.43669128 98.37857056 C-2.42470798 97.57661066 -2.41272467 96.77465076 -2.40037823 95.94838905 C-2 94 -2 94 1 92 C1.33 159.32 1.66 226.64 2 296 C2.33 198.65 2.66 101.3 3 1 C2.01 0.67 1.02 0.34 0 0 Z " fill="#2864A6" transform="translate(284,22)"/>
<path d="M0 0 C4.95 0 9.9 0 15 0 C18.125 10.75 18.125 10.75 17 13 C17.66 13 18.32 13 19 13 C19 13.66 19 14.32 19 15 C20.16144531 14.96519531 21.32289063 14.93039063 22.51953125 14.89453125 C44.87916298 14.91910768 66.64250385 27.69875842 82 43 C81.01 44.98 80.02 46.96 79 49 C74.90376704 47.6913966 70.99676011 46.16940162 67.0625 44.4375 C62.61377029 42.55385355 58.80905354 41.32789001 54 41 C53.67 41.99 53.34 42.98 53 44 C56.63 44.66 60.26 45.32 64 46 C64 47.65 64 49.3 64 51 C61.36 51.33 58.72 51.66 56 52 C56.33 52.99 56.66 53.98 57 55 C57.66 54.67 58.32 54.34 59 54 C59 55.32 59 56.64 59 58 C59.66 58 60.32 58 61 58 C61.1953125 59.98567708 61.390625 61.97135417 61.5859375 63.95703125 C61.92665391 66.29988142 61.92665391 66.29988142 64 69 C57.48395127 67.69155648 51.4544811 65.86502549 45.25 63.5 C44.42628906 63.19191406 43.60257813 62.88382813 42.75390625 62.56640625 C39.53225699 61.3576393 36.33906199 60.14996066 33.19140625 58.7578125 C30.73204285 57.90733746 29.23443416 57.94331624 26.6875 58.375 C25.470625 58.58125 24.25375 58.7875 23 59 C22.7834375 57.6078125 22.7834375 57.6078125 22.5625 56.1875 C20.78404007 52.55944174 20.26143583 52.34032802 16.625 51.0625 C13.35810008 50.06276307 11.21287032 49.74666247 8 51 C-11.33259497 64.15947191 -20.18675143 90.90292228 -24.54345703 112.72167969 C-30.68136987 146.52591464 -24.1898979 184.17989775 -10.86328125 215.6875 C-10 218 -10 218 -10 221 C-45.31 221 -80.62 221 -117 221 C-117 211.6015324 -116.79230043 202.71101457 -115.75 193.4375 C-115.61650146 192.22658691 -115.48300293 191.01567383 -115.34545898 189.76806641 C-114.20033236 179.85235547 -112.58180681 170.10183015 -110.49414062 160.34375 C-110.0250961 158.1190329 -109.59381808 155.89030609 -109.171875 153.65625 C-100.76551385 110.76225334 -78.1066122 60.01700216 -42.234375 32.91015625 C-40.18609651 31.5414167 -38.13444845 30.22892487 -36 29 C-39.9223288 25.65093464 -43.99666237 23.19833768 -48.5 20.75 C-55.80920048 16.71351266 -62.93051298 12.44263996 -70 8 C-66.28125 6.8828125 -66.28125 6.8828125 -63.75 7.9375 C-63.1725 8.288125 -62.595 8.63875 -62 9 C-61.67 8.01 -61.34 7.02 -61 6 C-60.34 6.33 -59.68 6.66 -59 7 C-58.505 8.485 -58.505 8.485 -58 10 C-56.19747131 10.70194993 -56.19747131 10.70194993 -54 11 C-52.63875 11.2784375 -52.63875 11.2784375 -51.25 11.5625 C-50.5075 11.706875 -49.765 11.85125 -49 12 C-49 11.34 -49 10.68 -49 10 C-47.3603125 9.814375 -47.3603125 9.814375 -45.6875 9.625 C-41.92618198 9.24535199 -41.92618198 9.24535199 -39 7 C-36.5 7.125 -36.5 7.125 -34 8 C-32.99357052 9.32848691 -31.99307821 10.66150329 -31 12 C-29.68 12 -28.36 12 -27 12 C-27 12.66 -27 13.32 -27 14 C-26.34 14 -25.68 14 -25 14 C-25.33 15.98 -25.66 17.96 -26 20 C-25.21625 19.814375 -24.4325 19.62875 -23.625 19.4375 C-21 19 -21 19 -19 20 C-18.67 19.34 -18.34 18.68 -18 18 C-15.6859378 17.26924352 -13.35171131 16.59861742 -11 16 C-11 15.34 -11 14.68 -11 14 C-10.34 13.67 -9.68 13.34 -9 13 C-8.46375 12.67 -7.9275 12.34 -7.375 12 C-3.95899264 10.56168111 -0.68441581 10.36844158 3 10 C2.01 6.7 1.02 3.4 0 0 Z " fill="#FDFDFE" transform="translate(187,38)"/>
<path d="M0 0 C0.9257785 0.00321762 1.85155701 0.00643524 2.8053894 0.00975037 C5.91226363 0.02180065 9.01904829 0.04121206 12.12588501 0.06056213 C14.38939534 0.07089217 16.65290777 0.08077058 18.91642189 0.0902338 C24.97838282 0.11682487 31.04029561 0.14959759 37.10221863 0.18364716 C42.79034949 0.21466164 48.47849994 0.2401061 54.16665649 0.26600647 C70.80234483 0.34500252 87.43798972 0.43294336 104.07363892 0.51979065 C141.23988892 0.70541565 178.40613892 0.89104065 216.69863892 1.08229065 C216.69863892 98.76229065 216.69863892 196.44229065 216.69863892 297.08229065 C216.03863892 296.75229065 215.37863892 296.42229065 214.69863892 296.08229065 C214.36863892 229.09229065 214.03863892 162.10229065 213.69863892 93.08229065 C212.1279036 94.65302597 212.53494585 96.23591283 212.49331665 98.41847229 C212.47337143 99.33935135 212.45342621 100.26023041 212.43287659 101.20901489 C212.41616409 102.21004745 212.3994516 103.21108002 212.38223267 104.2424469 C212.35106102 105.77185158 212.35106102 105.77185158 212.31925964 107.33215332 C212.2536504 110.60296113 212.19482657 113.87385202 212.13613892 117.14479065 C212.0929645 119.35638793 212.04935058 121.56797668 212.00527954 123.77955627 C211.89795752 129.21371216 211.79621268 134.64795147 211.69863892 140.08229065 C211.36863892 140.08229065 211.03863892 140.08229065 210.69863892 140.08229065 C210.69863892 96.19229065 210.69863892 52.30229065 210.69863892 7.08229065 C176.84891434 7.05627164 176.84891434 7.05627164 142.99942017 7.09596252 C129.20100385 7.12675066 115.40284587 7.15018869 101.60440063 7.12696838 C91.55622402 7.11009215 81.50841531 7.11761371 71.46028733 7.15463823 C66.13797677 7.17339194 60.81628866 7.1797887 55.49398041 7.15698433 C50.48682113 7.13591535 45.48080408 7.14740717 40.47374535 7.18413544 C38.63389558 7.19184422 36.79395127 7.1875422 34.95416451 7.17047691 C32.444991 7.148981 29.93972967 7.1703108 27.43075562 7.20254517 C26.69923586 7.18604622 25.9677161 7.16954728 25.21402907 7.15254837 C22.90642681 7.13755779 22.90642681 7.13755779 19.69863892 8.08229065 C17.78502934 10.30151926 16.91983498 12.3506621 15.69863892 15.08229065 C1.02895178 40.69329458 1.02895178 40.69329458 -5.33651733 50.8752594 C-7.95789418 55.1538884 -10.47605931 59.48922292 -12.98886108 63.83229065 C-13.44099976 64.61338196 -13.89313843 65.39447327 -14.35897827 66.19923401 C-17.00102316 70.78107564 -19.59281842 75.38733723 -22.13803101 80.0236969 C-23.347018 82.16308374 -24.6229789 84.24928429 -25.92636108 86.33229065 C-26.33241577 86.98842346 -26.73847046 87.64455627 -27.15682983 88.3205719 C-28.30136108 90.08229065 -28.30136108 90.08229065 -30.23886108 92.51979065 C-31.97600717 96.70937827 -30.81523922 100.01303174 -29.30136108 104.08229065 C-27.87224166 107.11100821 -26.37991674 110.08997955 -24.83505249 113.06056213 C-19.83298553 122.74942102 -15.62662285 132.81193667 -11.29769897 142.81422424 C-10.6660038 144.25221693 -10.00376578 145.67748127 -9.30136108 147.08229065 C-8.87961122 151.96865134 -9.89482411 155.01283727 -12.07479858 159.36354065 C-12.65229858 160.53529846 -13.22979858 161.70705627 -13.82479858 162.9143219 C-14.44135342 164.13729731 -15.05854644 165.35995118 -15.67636108 166.58229065 C-16.87719007 168.98586077 -18.07024209 171.39308652 -19.26229858 173.80104065 C-19.79645386 174.86258362 -20.33060913 175.92412659 -20.88095093 177.01783752 C-23.07928022 181.7606064 -24.6110651 185.81732239 -24.30136108 191.08229065 C-24.96136108 190.42229065 -25.62136108 189.76229065 -26.30136108 189.08229065 C-27.0955997 190.64348487 -27.88663232 192.20631029 -28.67636108 193.76979065 C-29.11722046 194.63990784 -29.55807983 195.51002502 -30.01229858 196.4065094 C-31.22800376 198.93001864 -32.29397067 201.46966597 -33.30136108 204.08229065 C-31.84729858 204.23697815 -31.84729858 204.23697815 -30.36386108 204.39479065 C-27.49305035 204.80490647 -24.88588479 205.48224805 -22.14511108 206.42604065 C-21.35950806 206.69392395 -20.57390503 206.96180725 -19.76449585 207.23780823 C-18.54524414 207.65582703 -18.54524414 207.65582703 -17.30136108 208.08229065 C-15.69641244 208.61900469 -14.09094515 209.15417038 -12.48495483 209.6877594 C-8.09042358 211.15260315 -3.69589233 212.6174469 0.69863892 214.08229065 C0.36863892 221.67229065 0.03863892 229.26229065 -0.30136108 237.08229065 C6.29863892 237.08229065 12.89863892 237.08229065 19.69863892 237.08229065 C20.02863892 239.72229065 20.35863892 242.36229065 20.69863892 245.08229065 C2.21863892 245.08229065 -16.26136108 245.08229065 -35.30136108 245.08229065 C-35.30136108 263.56229065 -35.30136108 282.04229065 -35.30136108 301.08229065 C-20.12136108 301.08229065 -4.94136108 301.08229065 10.69863892 301.08229065 C19.69863892 318.08229065 19.69863892 318.08229065 19.69863892 320.08229065 C22.43864941 317.44950375 24.91705431 314.85525121 27.20079041 311.81713867 C31.557759 306.34807493 35.71210238 302.11794123 42.79345703 300.81620789 C48.95403003 300.12055053 55.11216906 300.13851046 61.30410767 300.1799469 C63.59656267 300.15844091 65.88899052 300.13384276 68.18138123 300.10632324 C72.97244364 300.06475851 77.76037776 300.07228544 82.55142212 300.11280823 C88.64630615 300.15879241 94.72968812 300.0645283 100.82293224 299.93036747 C105.55529982 299.84518788 110.28497432 299.84504234 115.01793861 299.86829948 C117.26123577 299.8677388 119.50472406 299.83968401 121.7472744 299.78180122 C131.60495833 299.56160142 140.19901895 299.39302617 147.9178009 306.18017578 C151.10808141 309.31124666 153.96413527 312.62098304 156.81213379 316.06129456 C159.40472085 319.06365554 161.15019732 320.64862557 165.06304932 321.48231506 C169.06118295 321.74431322 172.66503011 321.53512538 176.63613892 321.01979065 C179.2477814 320.79206991 181.8610067 320.6103486 184.47598267 320.4221344 C185.60254272 320.29185852 186.72910278 320.16158264 187.88980103 320.02735901 C190.69863892 320.08229065 190.69863892 320.08229065 192.60708618 321.39308167 C193.69863892 323.08229065 193.69863892 323.08229065 193.38613892 325.76979065 C193.04582642 326.91447815 193.04582642 326.91447815 192.69863892 328.08229065 C186.13984297 328.84745912 179.70676966 329.21863916 173.1060791 329.1645813 C172.19506978 329.16135217 171.28406046 329.15812304 170.3454448 329.15479606 C167.32234345 329.14282524 164.29933763 329.12343181 161.27627563 329.10401917 C159.09749045 329.09386529 156.91870308 329.08417284 154.73991394 329.0749054 C148.84603564 329.04853536 142.95220881 329.01573367 137.05837011 328.9817555 C130.89112474 328.94730213 124.72385192 328.91879397 118.55657959 328.88964844 C106.88732749 328.83360154 95.21810977 328.7722272 83.548895 328.70892709 C70.2599391 328.63710091 56.9709575 328.57123167 43.68196845 328.50585663 C16.35415631 328.37128462 -10.97361296 328.22925184 -38.30136108 328.08229065 C-38.30136108 328.74229065 -38.30136108 329.40229065 -38.30136108 330.08229065 C-39.29136108 329.75229065 -40.28136108 329.42229065 -41.30136108 329.08229065 C-42.48886108 326.51979065 -42.48886108 326.51979065 -43.30136108 324.08229065 C-42.64136108 324.08229065 -41.98136108 324.08229065 -41.30136108 324.08229065 C-41.30136108 323.42229065 -41.30136108 322.76229065 -41.30136108 322.08229065 C-41.96136108 322.08229065 -42.62136108 322.08229065 -43.30136108 322.08229065 C-43.30136108 226.05229065 -43.30136108 130.02229065 -43.30136108 31.08229065 C-42.64136108 31.08229065 -41.98136108 31.08229065 -41.30136108 31.08229065 C-40.97136108 29.43229065 -40.64136108 27.78229065 -40.30136108 26.08229065 C-39.64136108 26.08229065 -38.98136108 26.08229065 -38.30136108 26.08229065 C-38.30136108 22.78229065 -38.30136108 19.48229065 -38.30136108 16.08229065 C-37.31136108 15.75229065 -36.32136108 15.42229065 -35.30136108 15.08229065 C-35.30136108 14.42229065 -35.30136108 13.76229065 -35.30136108 13.08229065 C-34.64136108 12.75229065 -33.98136108 12.42229065 -33.30136108 12.08229065 C-33.30136108 11.42229065 -33.30136108 10.76229065 -33.30136108 10.08229065 C-32.64136108 10.08229065 -31.98136108 10.08229065 -31.30136108 10.08229065 C-31.30136108 9.42229065 -31.30136108 8.76229065 -31.30136108 8.08229065 C-30.64136108 7.75229065 -29.98136108 7.42229065 -29.30136108 7.08229065 C-29.30136108 6.09229065 -29.30136108 5.10229065 -29.30136108 4.08229065 C-28.60011108 4.30916565 -27.89886108 4.53604065 -27.17636108 4.76979065 C-23.39787129 5.18049606 -21.56096973 3.92467815 -18.30136108 2.08229065 C-12.19902762 0.0481795 -6.35780834 -0.05019451 0 0 Z " fill="#21568D" transform="translate(70.30136108398438,21.917709350585938)"/>
<path d="M0 0 C3.37736176 1.05275359 6.35062856 2.06338933 9.46875 3.76953125 C10.90625 6.95703125 10.90625 6.95703125 11.46875 9.76953125 C11.984375 9.41890625 12.5 9.06828125 13.03125 8.70703125 C16.47579431 7.38220652 19.01245693 7.85931042 22.46875 8.76953125 C23.78166016 9.06150391 23.78166016 9.06150391 25.12109375 9.359375 C29.04111835 10.61227724 32.24871716 11.88787775 34.56542969 15.4609375 C36.70077554 19.70211801 38.25464727 24.1519858 39.75732422 28.64941406 C40.71926943 31.51610323 41.80901965 34.32722031 42.90625 37.14453125 C43.29683594 38.17191406 43.68742187 39.19929688 44.08984375 40.2578125 C46.77116471 47.08644577 49.6742295 53.82409455 52.54052734 60.57666016 C54.19506305 64.48540285 55.82436993 68.40443414 57.43359375 72.33203125 C58.06990688 73.83036857 58.74238541 75.31467262 59.47265625 76.76953125 C61.72537609 81.29517469 61.85440569 84.99358838 60.46875 89.76953125 C59.77519947 91.40617924 59.04185097 93.02622757 58.28125 94.6328125 C55.14281688 101.4090774 52.3045114 108.30002939 49.46875 115.20703125 C48.9559174 116.45255148 48.44289718 117.69799447 47.9296875 118.94335938 C47.17558594 120.77350586 47.17558594 120.77350586 46.40625 122.640625 C45.42709212 125.0169307 44.44792572 127.3932329 43.46875 129.76953125 C43.00879639 130.8886792 42.54884277 132.00782715 42.07495117 133.16088867 C41.64158447 134.20994385 41.20821777 135.25899902 40.76171875 136.33984375 C40.19360474 137.71873779 40.19360474 137.71873779 39.61401367 139.12548828 C38.08072714 142.66535038 36.35979159 146.09329157 34.58203125 149.515625 C33.40138712 151.8072697 33.40138712 151.8072697 32.46875 154.47265625 C31.46875 156.76953125 31.46875 156.76953125 29.15625 158.08203125 C26.46734913 158.76988961 24.23067463 158.92735551 21.46875 158.76953125 C21.46875 159.42953125 21.46875 160.08953125 21.46875 160.76953125 C19.49128397 161.50033391 17.48802511 162.16374872 15.46875 162.76953125 C14.80875 162.43953125 14.14875 162.10953125 13.46875 161.76953125 C13.46875 162.42953125 13.46875 163.08953125 13.46875 163.76953125 C12.14875 163.76953125 10.82875 163.76953125 9.46875 163.76953125 C9.46875 164.42953125 9.46875 165.08953125 9.46875 165.76953125 C7.15875 166.09953125 4.84875 166.42953125 2.46875 166.76953125 C2.46875 167.42953125 2.46875 168.08953125 2.46875 168.76953125 C1.87707031 168.89070312 1.28539062 169.011875 0.67578125 169.13671875 C-3.56928585 170.03697768 -7.55564661 170.97409746 -11.53125 172.76953125 C-11.53125 172.10953125 -11.53125 171.44953125 -11.53125 170.76953125 C-12.19125 170.43953125 -12.85125 170.10953125 -13.53125 169.76953125 C-13.20125 171.08953125 -12.87125 172.40953125 -12.53125 173.76953125 C-23.95998728 181.40383687 -37.24535251 181.635301 -50.53125 179.76953125 C-56.56934005 178.22863176 -62.06272489 175.71817202 -67.53125 172.76953125 C-67.53125 172.43953125 -67.53125 172.10953125 -67.53125 171.76953125 C-52.35125 171.76953125 -37.17125 171.76953125 -21.53125 171.76953125 C-23.51125 166.15953125 -25.49125 160.54953125 -27.53125 154.76953125 C-28.64909695 151.01902077 -29.72769324 147.29991009 -30.71875 143.51953125 C-30.95271484 142.65585938 -31.18667969 141.7921875 -31.42773438 140.90234375 C-32.15200743 138.1967948 -32.84667022 135.48538577 -33.53125 132.76953125 C-33.78962646 131.76365967 -34.04800293 130.75778809 -34.31420898 129.72143555 C-36.32111657 121.5500546 -37.41565831 113.45086103 -38.21875 105.08203125 C-38.34830078 103.84130859 -38.47785156 102.60058594 -38.61132812 101.32226562 C-41.59741436 71.47720268 -35.04957635 37.85435588 -16.53125 13.58203125 C-4.9761018 -0.453071 -4.9761018 -0.453071 0 0 Z " fill="#2D5CA4" transform="translate(198.53125,87.23046875)"/>
<path d="M0 0 C4.56448233 0.54501282 7.74784436 2.51842346 11.5 5 C20.02947443 10.49026022 28.76972058 15.60256792 37.53662109 20.70019531 C46.10171563 25.68059659 54.58600104 30.76747035 63 36 C60.23717622 38.79450884 57.62189421 41.4079577 54.375 43.625 C13.01208679 74.29862103 -7.03709156 134.47454118 -14.3125 183.0625 C-14.7396706 186.0760496 -15.15761753 189.09072914 -15.57275391 192.10595703 C-16.25976041 196.75954283 -17.12041339 201.37947306 -18 206 C-24.25442925 204.94205946 -29.83746032 203.41329799 -35.6875 200.9453125 C-38.73031876 199.70145753 -41.8241556 198.8389023 -45 198 C-46.31327759 197.62773234 -47.6257949 197.25277107 -48.9375 196.875 C-49.948125 196.58625 -50.95875 196.2975 -52 196 C-51.40536257 191.91186766 -50.04720696 188.94776984 -48 185.375 C-46.39272992 182.5545501 -45.02779032 180.08337095 -44 177 C-42.89017773 174.6300159 -41.76327973 172.27224139 -40.62109375 169.91796875 C-39.94014964 168.49703483 -39.25983057 167.07580125 -38.58007812 165.65429688 C-37.51036646 163.41990259 -36.43743881 161.18737421 -35.35375977 158.9597168 C-34.30706187 156.80497519 -33.27542878 154.64354775 -32.24609375 152.48046875 C-31.92112411 151.82088669 -31.59615448 151.16130463 -31.26133728 150.48173523 C-29.37436737 146.47684556 -28.54589788 143.41731754 -29 139 C-29.9322709 136.41854472 -30.90380623 134.03511051 -32.0625 131.5625 C-32.37759521 130.86801758 -32.69269043 130.17353516 -33.01733398 129.45800781 C-34.00035917 127.29999276 -34.999211 125.1498248 -36 123 C-36.60475625 121.6812598 -37.20894252 120.36225803 -37.8125 119.04296875 C-40.51726837 113.16587633 -43.32006909 107.36291363 -46.3125 101.625 C-51.38461986 91.2877992 -51.38461986 91.2877992 -51 87 C-48.31228851 80.71768052 -44.27431178 75.3251204 -40.2265625 69.8671875 C-38.69974623 67.54292578 -37.52630909 65.1272098 -36.3125 62.625 C-32.34428118 54.47488903 -27.66179736 46.76606936 -23 39 C-22.61408691 38.35627441 -22.22817383 37.71254883 -21.83056641 37.04931641 C-20.35737466 34.59271635 -18.88315682 32.13674163 -17.40625 29.68237305 C-14.47313283 24.80399287 -11.57395506 19.90611962 -8.6875 15 C-8.27886719 14.30583984 -7.87023437 13.61167969 -7.44921875 12.89648438 C-4.93434027 8.61540012 -2.45551444 4.3154121 0 0 Z " fill="#2A64AA" transform="translate(89,30)"/>
<path d="M0 0 C1.32 0.66 2.64 1.32 4 2 C3.02481062 3.96779285 2.04029802 5.92507087 1 7.859375 C0.67 8.48328125 0.34 9.1071875 0 9.75 C-0.495 10.67039062 -0.495 10.67039062 -1 11.609375 C-3.62335562 17.88083453 -4.29499508 23.84330224 -4.27174377 30.55088806 C-4.27683061 31.3750522 -4.28191745 32.19921635 -4.28715843 33.04835516 C-4.30174366 35.79262042 -4.30235127 38.53670466 -4.30297852 41.28100586 C-4.31064785 43.25864506 -4.31919576 45.23628102 -4.32855225 47.21391296 C-4.34681834 51.47420037 -4.35886691 55.73444401 -4.36609077 59.99476433 C-4.37766996 66.79510488 -4.40318749 73.59535179 -4.43040466 80.39564514 C-4.4721 91.22495147 -4.5044504 102.05426272 -4.53287882 112.88361126 C-4.58945801 134.36196646 -4.66297044 155.84026896 -4.74140882 177.3185544 C-4.75388486 180.77142382 -4.76588121 184.22429467 -4.77782059 187.67716599 C-4.89668474 221.46286182 -5.2657992 255.22069538 -6 289 C9.18 289 24.36 289 40 289 C49 306 49 306 49 308 C51.74001049 305.3672131 54.2184154 302.77296056 56.50215149 299.73484802 C60.85912008 294.26578428 65.01346347 290.03565058 72.09481812 288.73391724 C78.25539111 288.03825988 84.41353015 288.05621981 90.60546875 288.09765625 C92.89792375 288.07615026 95.19035161 288.05155211 97.48274231 288.02403259 C102.27380472 287.98246786 107.06173885 287.98999479 111.8527832 288.03051758 C117.94766724 288.07650176 124.03104921 287.98223765 130.12429333 287.84807682 C134.85666091 287.76289723 139.5863354 287.76275169 144.3192997 287.78600883 C146.56259686 287.78544815 148.80608514 287.75739336 151.04863548 287.69951057 C160.90631942 287.47931077 169.50038003 287.31073552 177.21916199 294.09788513 C180.40944249 297.22895601 183.26549635 300.53869239 186.11349487 303.97900391 C188.70608193 306.98136489 190.45155841 308.56633492 194.3644104 309.40002441 C198.36254404 309.66202257 201.9663912 309.45283473 205.9375 308.9375 C208.54914248 308.70977926 211.16236779 308.52805795 213.77734375 308.33984375 C214.90390381 308.20956787 216.03046387 308.07929199 217.19116211 307.94506836 C220 308 220 308 221.90844727 309.31079102 C223 311 223 311 222.6875 313.6875 C222.3471875 314.8321875 222.3471875 314.8321875 222 316 C215.44120406 316.76516847 209.00813075 317.13634851 202.40744019 317.08229065 C201.49643087 317.07906152 200.58542155 317.07583239 199.64680588 317.07250541 C196.62370454 317.06053459 193.60069872 317.04114116 190.57763672 317.02172852 C188.39885153 317.01157465 186.22006416 317.00188219 184.04127502 316.99261475 C178.14739672 316.96624471 172.25356989 316.93344302 166.3597312 316.89946485 C160.19248583 316.86501148 154.025213 316.83650332 147.85794067 316.80735779 C136.18868857 316.75131089 124.51947085 316.68993655 112.85025609 316.62663645 C99.56130019 316.55481026 86.27231858 316.48894102 72.98332953 316.42356598 C45.6555174 316.28899397 18.32774812 316.14696119 -9 316 C-9 316.66 -9 317.32 -9 318 C-9.99 317.67 -10.98 317.34 -12 317 C-13.1875 314.4375 -13.1875 314.4375 -14 312 C-13.34 312 -12.68 312 -12 312 C-12 311.34 -12 310.68 -12 310 C-12.66 310 -13.32 310 -14 310 C-14 213.97 -14 117.94 -14 19 C-13.34 19 -12.68 19 -12 19 C-11.67 17.35 -11.34 15.7 -11 14 C-10.34 14 -9.68 14 -9 14 C-8.7525 12.948125 -8.505 11.89625 -8.25 10.8125 C-6.83217742 5.84509322 -4.29026522 2.86017681 0 0 Z " fill="#0E4B77" transform="translate(41,34)"/>
<path d="M0 0 C15.18 0 30.36 0 46 0 C55 17 55 17 55 19 C57.74001049 16.3672131 60.2184154 13.77296056 62.50215149 10.73484802 C66.85912008 5.26578428 71.01346347 1.03565058 78.09481812 -0.26608276 C84.25539111 -0.96174012 90.41353015 -0.94378019 96.60546875 -0.90234375 C98.89792375 -0.92384974 101.19035161 -0.94844789 103.48274231 -0.97596741 C108.27380472 -1.01753214 113.06173885 -1.01000521 117.8527832 -0.96948242 C123.94766724 -0.92349824 130.03104921 -1.01776235 136.12429333 -1.15192318 C140.85666091 -1.23710277 145.5863354 -1.23724831 150.3192997 -1.21399117 C152.56259686 -1.21455185 154.80608514 -1.24260664 157.04863548 -1.30048943 C166.90631942 -1.52068923 175.50038003 -1.68926448 183.21916199 5.09788513 C186.40944249 8.22895601 189.26549635 11.53869239 192.11349487 14.97900391 C194.70608193 17.98136489 196.45155841 19.56633492 200.3644104 20.40002441 C204.36254404 20.66202257 207.9663912 20.45283473 211.9375 19.9375 C214.54914248 19.70977926 217.16236779 19.52805795 219.77734375 19.33984375 C220.90390381 19.20956787 222.03046387 19.07929199 223.19116211 18.94506836 C226 19 226 19 227.90844727 20.31079102 C229 22 229 22 228.6875 24.6875 C228.460625 25.450625 228.23375 26.21375 228 27 C226.0625 26.1875 226.0625 26.1875 224 25 C223.67 24.01 223.34 23.02 223 22 C197.87654552 21.86882656 172.75308725 21.73840302 147.62962437 21.60884857 C135.9618213 21.54866399 124.29401955 21.48824297 112.6262207 21.42724609 C102.44504015 21.37402157 92.26385731 21.32126028 82.08267158 21.26903296 C76.70233004 21.24141736 71.32198982 21.21358496 65.9416523 21.18519592 C60.86948256 21.15844125 55.79730997 21.13230632 50.72513473 21.10661602 C48.81306594 21.09682774 46.90099824 21.08682277 44.98893178 21.07658863 C36.21619844 21.0297814 27.44419881 20.98926423 18.6713562 21.02172852 C17.47302878 21.02579964 16.27470137 21.02987076 15.040061 21.03406525 C12.91542939 21.04354175 10.79081021 21.05737779 8.66624546 21.07671356 C6.44404342 21.08764905 4.2216595 21.05030475 2 21 C-2.97214463 16.02785537 0.35114506 7.02290122 0 0 Z " fill="#184A8C" transform="translate(35,323)"/>
<path d="M0 0 C4.29 0 8.58 0 13 0 C13 10.23 13 20.46 13 31 C17.62 30.67 22.24 30.34 27 30 C26.67 29.01 26.34 28.02 26 27 C25.33795959 18.29162226 26.06004211 12.61993383 30.75 5.25 C35.3934753 0.6065247 39.69775258 -0.19360075 46.0625 -0.375 C51.52854097 -0.2114277 55.4689061 0.40666609 59.4296875 4.46484375 C61.21298054 6.52520209 62.77887854 8.55775708 64 11 C64.33 7.37 64.66 3.74 65 0 C69.29 0 73.58 0 78 0 C81.96 6.93 85.92 13.86 90 21 C90 14.07 90 7.14 90 0 C93.63 0 97.26 0 101 0 C101 13.53 101 27.06 101 41 C97.37 41 93.74 41 90 41 C87.28253962 37.86446879 85.82198108 35.60873049 84 32 C82.71655487 29.80766617 81.42477589 27.62019138 80.125 25.4375 C79.09375 23.643125 78.0625 21.84875 77 20 C76.67 27.26 76.34 34.52 76 42 C72.7 42 69.4 42 66 42 C64.26043342 40.26043342 64.62809614 37.8063378 64.4375 35.4375 C64.35371094 34.42558594 64.26992187 33.41367187 64.18359375 32.37109375 C64.12300781 31.58863281 64.06242187 30.80617188 64 30 C63.72027344 30.53109375 63.44054687 31.0621875 63.15234375 31.609375 C60.3740067 36.50496569 57.64800982 40.41180743 52 42 C46.42435042 42.66824265 40.28647123 43.37564799 35.375 40.1875 C31.24615385 36.38461538 31.24615385 36.38461538 30 35 C29.67 37.31 29.34 39.62 29 42 C19.43 42 9.86 42 0 42 C0 28.14 0 14.28 0 0 Z " fill="#F7F9FC" transform="translate(142,274)"/>
<path d="M0 0 C0.33 0 0.66 0 1 0 C1 34.98 1 69.96 1 106 C-3.62765613 107.9832812 -7.73933762 109.61339931 -12.5 111 C-17.16383989 112.4023391 -21.54602555 114.0204558 -26 116 C-33.21562432 118.82251551 -40.49488722 121.08380099 -48 123 C-47.40181773 118.28661203 -46.04402141 114.21439088 -44.1875 109.875 C-43.74204834 108.81200684 -43.74204834 108.81200684 -43.28759766 107.72753906 C-41.23308123 102.84590231 -39.13468258 97.98297099 -37.04296875 93.1171875 C-36.7832579 92.5126474 -36.52354706 91.9081073 -36.25596619 91.2852478 C-34.95916269 88.26747442 -33.65882442 85.25137856 -32.35229492 82.23779297 C-31.86220947 81.10229004 -31.37212402 79.96678711 -30.8671875 78.796875 C-30.38475586 77.68119141 -29.90232422 76.56550781 -29.40527344 75.41601562 C-27.53263813 70.86391118 -25.93161681 66.22475988 -24.37548828 61.55566406 C-22.67187687 58.39034559 -21.35419978 58.03257926 -18 57 C-16.48382093 55.30136062 -16.48382093 55.30136062 -16 53 C-16.185625 52.113125 -16.37125 51.22625 -16.5625 50.3125 C-17.0847196 46.35855156 -16.25470519 44.11431723 -14.89453125 40.4375 C-13.96306208 37.8993482 -13.1908559 35.34618034 -12.4375 32.75 C-11.45165577 29.41888424 -10.38337839 26.19241166 -9 23 C-8.34 23 -7.68 23 -7 23 C-6.89816406 22.01902344 -6.79632813 21.03804687 -6.69140625 20.02734375 C-6.06208074 15.62206517 -4.56330598 11.68548362 -2.9375 7.5625 C-2.65583984 6.83095703 -2.37417969 6.09941406 -2.08398438 5.34570312 C-1.39586753 3.56126454 -0.69885394 1.78026095 0 0 Z " fill="#5363BB" transform="translate(280,119)"/>
<path d="M0 0 C5.77159348 1.84021821 11.31358389 3.92757367 16.8359375 6.42578125 C17.90714844 6.71001953 17.90714844 6.71001953 19 7 C19.99 6.34 20.98 5.68 22 5 C23.32 5 24.64 5 26 5 C24.51003129 9.6134925 22.95561675 14.18601534 21.203125 18.70703125 C12.64963021 40.90767503 7.66644505 63.57893389 4.42724609 87.10595703 C3.74023959 91.75954283 2.87958661 96.37947306 2 101 C-4.25442925 99.94205946 -9.83746032 98.41329799 -15.6875 95.9453125 C-18.73031876 94.70145753 -21.8241556 93.8389023 -25 93 C-26.31327759 92.62773234 -27.6257949 92.25277107 -28.9375 91.875 C-29.948125 91.58625 -30.95875 91.2975 -32 91 C-31.40536257 86.91186766 -30.04720696 83.94776984 -28 80.375 C-26.39272992 77.5545501 -25.02779032 75.08337095 -24 72 C-22.91366773 69.66515833 -21.81046442 67.34248178 -20.69140625 65.0234375 C-20.01972163 63.61610519 -19.34851313 62.20854555 -18.67773438 60.80078125 C-17.62451965 58.5936499 -16.56875122 56.38793524 -15.50463867 54.18603516 C-11.82139135 46.55467006 -8.49506839 39.40448049 -7 31 C-6.18654304 28.78887607 -5.318031 26.59654465 -4.375 24.4375 C-3.92898437 23.40496094 -3.48296875 22.37242187 -3.0234375 21.30859375 C-2.68570313 20.54675781 -2.34796875 19.78492188 -2 19 C-3.32 18.34 -4.64 17.68 -6 17 C-5.19126545 14.35296109 -4.37821309 11.7073879 -3.5625 9.0625 C-3.33240234 8.30775391 -3.10230469 7.55300781 -2.86523438 6.77539062 C-1.11328125 1.11328125 -1.11328125 1.11328125 0 0 Z " fill="#265C96" transform="translate(69,135)"/>
<path d="M0 0 C0.79545982 0.00149363 1.59091965 0.00298725 2.41048431 0.00452614 C3.71166639 0.01472991 3.71166639 0.01472991 5.03913498 0.02513981 C6.42523468 0.02996624 6.42523468 0.02996624 7.8393364 0.03489017 C10.95242531 0.04697743 14.06542641 0.06638105 17.17847824 0.08570194 C19.44174508 0.09602807 21.70501401 0.10590691 23.96828461 0.11537361 C30.03865214 0.14200354 36.10897218 0.17476919 42.17930222 0.20878696 C47.87188373 0.23976369 53.56448462 0.26523214 59.25709152 0.29114628 C75.91418257 0.37019409 92.5712306 0.45810605 109.22828293 0.54493046 C146.43578293 0.73055546 183.64328293 0.91618046 221.97828293 1.10743046 C221.97828293 98.78743046 221.97828293 196.46743046 221.97828293 297.10743046 C221.31828293 296.77743046 220.65828293 296.44743046 219.97828293 296.10743046 C219.64828293 229.11743046 219.31828293 162.12743046 218.97828293 93.10743046 C217.40754761 94.67816578 217.81458986 96.26105264 217.77296066 98.4436121 C217.75301544 99.36449116 217.73307022 100.28537022 217.7125206 101.2341547 C217.69580811 102.23518726 217.67909561 103.23621983 217.66187668 104.26758671 C217.63070503 105.79699139 217.63070503 105.79699139 217.59890366 107.35729313 C217.53329441 110.62810094 217.47447059 113.89899182 217.41578293 117.16993046 C217.37260851 119.38152774 217.32899459 121.59311649 217.28492355 123.80469608 C217.17760153 129.23885197 217.07585669 134.67309127 216.97828293 140.10743046 C216.64828293 140.10743046 216.31828293 140.10743046 215.97828293 140.10743046 C215.97828293 96.21743046 215.97828293 52.32743046 215.97828293 7.10743046 C144.36828293 7.10743046 72.75828293 7.10743046 -1.02171707 7.10743046 C-1.35171707 6.11743046 -1.68171707 5.12743046 -2.02171707 4.10743046 C-4.33171707 4.10743046 -6.64171707 4.10743046 -9.02171707 4.10743046 C-8.69171707 3.11743046 -8.36171707 2.12743046 -8.02171707 1.10743046 C-5.35164415 0.10378386 -2.83110952 -0.01412416 0 0 Z " fill="#0E4C7A" transform="translate(65.0217170715332,21.892569541931152)"/>
<path d="M0 0 C0.66 0.33 1.32 0.66 2 1 C2 100.99 2 200.98 2 304 C1.01 303.67 0.02 303.34 -1 303 C-2.1875 300.4375 -2.1875 300.4375 -3 298 C-2.34 298 -1.68 298 -1 298 C-1 297.34 -1 296.68 -1 296 C-1.66 296 -2.32 296 -3 296 C-3 199.97 -3 103.94 -3 5 C-2.34 5 -1.68 5 -1 5 C-0.67 3.35 -0.34 1.7 0 0 Z " fill="#E1ECF3" transform="translate(30,48)"/>
<path d="M0 0 C4.29 0 8.58 0 13 0 C16.96 6.93 20.92 13.86 25 21 C25 14.07 25 7.14 25 0 C28.63 0 32.26 0 36 0 C36 13.53 36 27.06 36 41 C32.37 41 28.74 41 25 41 C22.28253962 37.86446879 20.82198108 35.60873049 19 32 C17.71655487 29.80766617 16.42477589 27.62019138 15.125 25.4375 C14.09375 23.643125 13.0625 21.84875 12 20 C11.67 27.26 11.34 34.52 11 42 C7.7 42 4.4 42 1 42 C-2.49420379 38.50579621 -1.08260832 24.32877068 -1.125 19.375 C-1.07662376 12.88452107 -0.56826983 6.46406935 0 0 Z " fill="#F1F5F9" transform="translate(207,274)"/>
<path d="M0 0 C5.77159348 1.84021821 11.31358389 3.92757367 16.8359375 6.42578125 C17.55007812 6.61527344 18.26421875 6.80476562 19 7 C19.99 6.34 20.98 5.68 22 5 C23.32 5 24.64 5 26 5 C24.51003129 9.6134925 22.95561675 14.18601534 21.203125 18.70703125 C14.77184327 35.41786102 9.05363485 53.14117539 7 71 C6.67 71 6.34 71 6 71 C6 68.36 6 65.72 6 63 C4.68 63 3.36 63 2 63 C1.67 60.69 1.34 58.38 1 56 C0.34 56 -0.32 56 -1 56 C-1.18175781 55.443125 -1.36351563 54.88625 -1.55078125 54.3125 C-2.83149107 50.42439635 -4.14604883 46.56758824 -5.625 42.75 C-8.08572054 36.03894397 -7.94106192 32.7697696 -5.0625 26.1875 C-4.77181641 25.49462891 -4.48113281 24.80175781 -4.18164062 24.08789062 C-3.46608352 22.38697619 -2.73460121 20.69277669 -2 19 C-3.32 18.34 -4.64 17.68 -6 17 C-5.19126545 14.35296109 -4.37821309 11.7073879 -3.5625 9.0625 C-3.33240234 8.30775391 -3.10230469 7.55300781 -2.86523438 6.77539062 C-1.11328125 1.11328125 -1.11328125 1.11328125 0 0 Z " fill="#4068AE" transform="translate(69,135)"/>
<path d="M0 0 C1.32 0 2.64 0 4 0 C4 102.96 4 205.92 4 312 C3.34 312 2.68 312 2 312 C2 312.66 2 313.32 2 314 C0.35 314.33 -1.3 314.66 -3 315 C-3.33 315.99 -3.66 316.98 -4 318 C-4.99 317.67 -5.98 317.34 -7 317 C-6.67 315.02 -6.34 313.04 -6 311 C-7.65 311.33 -9.3 311.66 -11 312 C-10.38511719 310.85724609 -10.38511719 310.85724609 -9.7578125 309.69140625 C-9.21898437 308.65886719 -8.68015625 307.62632812 -8.125 306.5625 C-7.32449219 305.04849609 -7.32449219 305.04849609 -6.5078125 303.50390625 C-3.55511769 296.64233308 -2.70176 289.86829784 -2.74171448 282.45228577 C-2.73803877 281.64154726 -2.73436307 280.83080875 -2.73057598 279.99550241 C-2.72067404 277.30561088 -2.72473095 274.61592925 -2.72875977 271.92602539 C-2.72436853 269.98707868 -2.71906493 268.04813385 -2.71292114 266.10919189 C-2.70145628 261.94810395 -2.69596436 257.78706669 -2.69503975 253.62596321 C-2.69309503 247.05067964 -2.67502288 240.47550085 -2.65428162 233.9002533 C-2.60516212 217.57834752 -2.57415355 201.25641358 -2.55297852 184.93444824 C-2.53647743 172.23012713 -2.51375021 159.5258965 -2.46995777 146.82163614 C-2.4481264 140.27985272 -2.44012846 133.73824102 -2.44235051 127.19642365 C-2.44068982 123.13845091 -2.42668018 119.08059153 -2.40913773 115.0226593 C-2.40351526 113.13519549 -2.40307392 111.2477084 -2.40807533 109.36024284 C-2.4141678 106.79284263 -2.40207522 104.22616571 -2.38526917 101.65882874 C-2.39148098 100.90427668 -2.3976928 100.14972463 -2.40409285 99.37230736 C-2.37917423 97.29757786 -2.37917423 97.29757786 -2 94 C-0.515 93.01 -0.515 93.01 1 92 C1.33 159.32 1.66 226.64 2 296 C2.33 198.65 2.66 101.3 3 1 C2.01 0.67 1.02 0.34 0 0 Z " fill="#0D4C7A" transform="translate(284,22)"/>
<path d="M0 0 C0.79545982 0.00149363 1.59091965 0.00298725 2.41048431 0.00452614 C3.71166639 0.01472991 3.71166639 0.01472991 5.03913498 0.02513981 C6.42523468 0.02996624 6.42523468 0.02996624 7.8393364 0.03489017 C10.95242531 0.04697743 14.06542641 0.06638105 17.17847824 0.08570194 C19.44174508 0.09602807 21.70501401 0.10590691 23.96828461 0.11537361 C30.03865214 0.14200354 36.10897218 0.17476919 42.17930222 0.20878696 C47.87188373 0.23976369 53.56448462 0.26523214 59.25709152 0.29114628 C75.91418257 0.37019409 92.5712306 0.45810605 109.22828293 0.54493046 C146.43578293 0.73055546 183.64328293 0.91618046 221.97828293 1.10743046 C221.97828293 98.78743046 221.97828293 196.46743046 221.97828293 297.10743046 C221.31828293 296.77743046 220.65828293 296.44743046 219.97828293 296.10743046 C219.97828293 199.41743046 219.97828293 102.72743046 219.97828293 3.10743046 C144.40828293 3.43743046 68.83828293 3.76743046 -9.02171707 4.10743046 C-8.69171707 3.11743046 -8.36171707 2.12743046 -8.02171707 1.10743046 C-5.35164415 0.10378386 -2.83110952 -0.01412416 0 0 Z " fill="#043E66" transform="translate(65.0217170715332,21.892569541931152)"/>
<path d="M0 0 C15.18 0 30.36 0 46 0 C49.3 6.27 52.6 12.54 56 19 C52.72383255 21.18411163 51.78777771 21.24895195 47.99365234 21.24291992 C46.97604828 21.24599655 45.95844421 21.24907318 44.91000366 21.25224304 C43.81306183 21.24505753 42.71612 21.23787201 41.5859375 21.23046875 C40.46055573 21.23001053 39.33517395 21.22955231 38.1756897 21.2290802 C35.79680324 21.22605825 33.41791875 21.21817366 31.0390625 21.20581055 C27.38274184 21.18753869 23.72667407 21.18530095 20.0703125 21.18554688 C17.76301863 21.18063237 15.45572648 21.17480435 13.1484375 21.16796875 C12.0474472 21.16685593 10.94645691 21.1657431 9.81210327 21.16459656 C8.29515366 21.15502678 8.29515366 21.15502678 6.74755859 21.14526367 C5.8528183 21.14145187 4.958078 21.13764008 4.03622437 21.13371277 C2 21 2 21 1 20 C0.67 13.4 0.34 6.8 0 0 Z " fill="#225488" transform="translate(35,323)"/>
<path d="M0 0 C10.23 0 20.46 0 31 0 C31 3.3 31 6.6 31 10 C24.73 10 18.46 10 12 10 C12 11.98 12 13.96 12 16 C16.95 16 21.9 16 27 16 C27 18.97 27 21.94 27 25 C22.05 25 17.1 25 12 25 C12 27.31 12 29.62 12 32 C17.94 32 23.88 32 30 32 C30 34.97 30 37.94 30 41 C20.1 41 10.2 41 0 41 C0 27.47 0 13.94 0 0 Z " fill="#FBFCFD" transform="translate(245,274)"/>
<path d="M0 0 C4.40887017 2.32217939 7.09290556 5.37478913 9.5 9.6875 C10 12 10 12 10 16 C5.9472484 16.98248524 2.16138263 17.08159574 -2 17 C-2.33 14.69 -2.66 12.38 -3 10 C-5.31 10 -7.62 10 -10 10 C-12.14650403 13.49768983 -12.29840526 16.37351737 -12.3125 20.4375 C-12.32925781 21.54996094 -12.34601563 22.66242188 -12.36328125 23.80859375 C-11.96756708 27.28492148 -11.00367286 29.17159635 -9 32 C-6.54775306 31.89386164 -6.54775306 31.89386164 -4 31 C-3.34 29.35 -2.68 27.7 -2 26 C1.96 26 5.92 26 10 26 C9.09459753 32.63961808 8.0198455 35.81537208 2.65625 39.90625 C-1.90681459 42.91959454 -6.68489365 42.3969789 -12 42 C-17.58328286 40.77768576 -20.84499589 37.68743468 -24 33 C-26.85130832 26.07539407 -27.16579021 17.86754622 -24.9375 10.6875 C-20.40862941 0.10561968 -10.34288662 -1.39187643 0 0 Z " fill="#F8FAFC" transform="translate(131,274)"/>
<path d="M0 0 C4.40887017 2.32217939 7.09290556 5.37478913 9.5 9.6875 C10 12 10 12 10 16 C5.9472484 16.98248524 2.16138263 17.08159574 -2 17 C-2.66 14.69 -3.32 12.38 -4 10 C-5.98 10 -7.96 10 -10 10 C-12.17515642 13.51635959 -12.23948201 16.34982397 -12.1875 20.4375 C-12.18105469 21.54996094 -12.17460938 22.66242188 -12.16796875 23.80859375 C-12.01836796 26.65100884 -11.64625807 29.23401547 -11 32 C-8.08347826 32.16681109 -8.08347826 32.16681109 -5 32 C-2.62841973 29.9714169 -2.62841973 29.9714169 -2 26 C1.96 26 5.92 26 10 26 C9.09459753 32.63961808 8.0198455 35.81537208 2.65625 39.90625 C-1.90681459 42.91959454 -6.68489365 42.3969789 -12 42 C-17.58328286 40.77768576 -20.84499589 37.68743468 -24 33 C-26.73737996 26.48242866 -27.29020264 18.45706368 -25.3125 11.625 C-20.33432616 0.67301755 -11.33258675 -1.52506364 0 0 Z " fill="#F9FAFC" transform="translate(61,274)"/>
<path d="M0 0 C1.04027344 -0.01160156 1.04027344 -0.01160156 2.1015625 -0.0234375 C5.81172435 -0.00922232 8.60012102 0.20420231 11.75 2.25 C11.42 3.57 11.09 4.89 10.75 6.25 C14.38 6.91 18.01 7.57 21.75 8.25 C21.75 9.9 21.75 11.55 21.75 13.25 C19.11 13.58 16.47 13.91 13.75 14.25 C14.245 15.735 14.245 15.735 14.75 17.25 C15.41 16.92 16.07 16.59 16.75 16.25 C16.75 17.57 16.75 18.89 16.75 20.25 C17.41 20.25 18.07 20.25 18.75 20.25 C18.9453125 22.23567708 19.140625 24.22135417 19.3359375 26.20703125 C19.67665391 28.54988142 19.67665391 28.54988142 21.75 31.25 C15.23395127 29.94155648 9.2044811 28.11502549 3 25.75 C2.17628906 25.44191406 1.35257813 25.13382813 0.50390625 24.81640625 C-2.71774301 23.6076393 -5.91093801 22.39996066 -9.05859375 21.0078125 C-11.51795715 20.15733746 -13.01556584 20.19331624 -15.5625 20.625 C-16.779375 20.83125 -17.99625 21.0375 -19.25 21.25 C-19.4665625 19.8578125 -19.4665625 19.8578125 -19.6875 18.4375 C-20.88532751 15.16360845 -20.88532751 15.16360845 -23.31640625 14.25390625 C-24.91740262 13.75793145 -26.53148083 13.30209252 -28.15625 12.890625 C-30.25 12.25 -30.25 12.25 -32.25 10.25 C-29.75494359 8.94796813 -27.25462318 7.65839734 -24.75 6.375 C-24.05390625 6.01019531 -23.3578125 5.64539063 -22.640625 5.26953125 C-15.14406821 1.45184029 -8.39450827 -0.09575485 0 0 Z " fill="#A1B1DA" transform="translate(229.25,75.75)"/>
<path d="M0 0 C4.62 0 9.24 0 14 0 C15.52994792 2.83203125 17.05989583 5.6640625 18.58984375 8.49609375 C19.77699468 10.86670493 19.77699468 10.86670493 21 12 C22.98 8.04 24.96 4.08 27 0 C30.63 0 34.26 0 38 0 C37.00408945 3.51017652 35.76882538 6.54016225 33.87109375 9.63671875 C27.27567356 20.50269032 25.65304076 29.35680535 26 42 C24.02090602 42.02686553 22.04171029 42.04633375 20.0625 42.0625 C18.96035156 42.07410156 17.85820313 42.08570313 16.72265625 42.09765625 C14 42 14 42 13 41 C13.0191731 39.00599769 13.03937016 37.01200004 13.06469727 35.01806641 C13.05467405 23.53146524 9.72424998 16.09494878 3.12915039 6.82666016 C2 5 2 5 0 0 Z " fill="#F4F7FA" transform="translate(69,274)"/>
<path d="M0 0 C0.33 0 0.66 0 1 0 C1 49.83 1 99.66 1 151 C0.67 151 0.34 151 0 151 C0 137.47 0 123.94 0 110 C-0.66 110 -1.32 110 -2 110 C-2 108.35 -2 106.7 -2 105 C-6.95 105 -11.9 105 -17 105 C-16.10708173 101.42832691 -14.98684139 98.25233699 -13.63671875 94.8359375 C-12.92418945 93.02802734 -12.92418945 93.02802734 -12.19726562 91.18359375 C-11.69404977 89.9140469 -11.19079434 88.64451574 -10.6875 87.375 C-10.19574085 86.12899412 -9.70420236 84.88290112 -9.21289062 83.63671875 C-5.07222992 73.14853107 -5.07222992 73.14853107 -3.95883179 70.85897827 C-0.51999046 63.39953277 -0.39564235 56.34570563 -0.390625 48.2421875 C-0.37561256 46.84398514 -0.35887908 45.4458003 -0.34051514 44.04763794 C-0.29717194 40.40139873 -0.27691694 36.75539855 -0.26177979 33.10894775 C-0.24208813 29.37457332 -0.20013257 25.64045262 -0.16015625 21.90625 C-0.08521307 14.60423545 -0.03470588 7.30232858 0 0 Z " fill="#1F5690" transform="translate(281,162)"/>
<path d="M0 0 C0.99 0.33 1.98 0.66 3 1 C3.33 1.99 3.66 2.98 4 4 C5.80252869 4.70194993 5.80252869 4.70194993 8 5 C8.9075 5.185625 9.815 5.37125 10.75 5.5625 C11.4925 5.706875 12.235 5.85125 13 6 C13 5.34 13 4.68 13 4 C14.093125 3.87625 15.18625 3.7525 16.3125 3.625 C20.07381802 3.24535199 20.07381802 3.24535199 23 1 C25.5 1.125 25.5 1.125 28 2 C29.00642948 3.32848691 30.00692179 4.66150329 31 6 C32.32 6 33.64 6 35 6 C35 6.66 35 7.32 35 8 C35.66 8 36.32 8 37 8 C36.67 9.98 36.34 11.96 36 14 C37.65 13.67 39.3 13.34 41 13 C41.66 13.99 42.32 14.98 43 16 C42.18015625 16.33773437 41.3603125 16.67546875 40.515625 17.0234375 C39.43796875 17.46945313 38.3603125 17.91546875 37.25 18.375 C36.18265625 18.81585938 35.1153125 19.25671875 34.015625 19.7109375 C31.1089713 20.83793983 31.1089713 20.83793983 29.15576172 22.26025391 C27 23 27 23 24.40966797 21.9453125 C23.44689941 21.34460938 22.48413086 20.74390625 21.4921875 20.125 C20.42226562 19.46886719 19.35234375 18.81273438 18.25 18.13671875 C16.579375 17.07904297 16.579375 17.07904297 14.875 16 C13.78445312 15.32582031 12.69390625 14.65164062 11.5703125 13.95703125 C9.41132707 12.62186921 7.2559739 11.28081391 5.10449219 9.93359375 C0.76933842 7.23349798 -3.60992803 4.60957839 -8 2 C-4.28125 0.8828125 -4.28125 0.8828125 -1.75 1.9375 C-1.1725 2.288125 -0.595 2.63875 0 3 C0 2.01 0 1.02 0 0 Z " fill="#9BACD7" transform="translate(125,44)"/>
<path d="M0 0 C15.61909625 1.10390605 15.61909625 1.10390605 20 2 C21.26338576 4.52677153 20.85376414 5.41713614 20.22265625 8.1328125 C20.03896484 8.93847656 19.85527344 9.74414062 19.66601562 10.57421875 C19.46685547 11.41597656 19.26769531 12.25773438 19.0625 13.125 C18.86720703 13.97449219 18.67191406 14.82398438 18.47070312 15.69921875 C17.98660741 17.80090258 17.49409097 19.90064351 17 22 C9.74395934 22.22661187 3.10357496 21.51254828 -4 20 C-3.42978625 13.04339229 -1.98697306 6.68572695 0 0 Z " fill="#F9FAFC" transform="translate(48,204)"/>
<path d="M0 0 C0.99 0 1.98 0 3 0 C3.56098799 12.3625131 2.94246488 26.17260536 -1 38 C-7.26034088 36.98768956 -12.84615109 35.40963157 -18.6875 32.9453125 C-21.73031876 31.70145753 -24.8241556 30.8389023 -28 30 C-29.31327759 29.62773234 -30.6257949 29.25277107 -31.9375 28.875 C-32.948125 28.58625 -33.95875 28.2975 -35 28 C-34.40165275 23.85701333 -32.99335715 20.81805623 -30.9375 17.1875 C-30.38964844 16.21167969 -29.84179688 15.23585937 -29.27734375 14.23046875 C-28.85582031 13.49441406 -28.43429688 12.75835937 -28 12 C-26 15 -26 15 -26.2421875 17.69921875 C-26.828125 20.46614583 -27.4140625 23.23307292 -28 26 C-17.605 26.99 -17.605 26.99 -7 28 C-6.67 25.36 -6.34 22.72 -6 20 C-5.66874634 18.16238847 -5.31832935 16.32798089 -4.9375 14.5 C-4.76089844 13.6440625 -4.58429688 12.788125 -4.40234375 11.90625 C-4.26957031 11.2771875 -4.13679688 10.648125 -4 10 C-3.34 10.33 -2.68 10.66 -2 11 C-1.67 10.34 -1.34 9.68 -1 9 C-0.01 9 0.98 9 2 9 C1.34 6.03 0.68 3.06 0 0 Z " fill="#255E9C" transform="translate(72,198)"/>
<path d="M0 0 C1.32 0 2.64 0 4 0 C4 102.96 4 205.92 4 312 C3.34 312 2.68 312 2 312 C2 312.66 2 313.32 2 314 C0.35 314.33 -1.3 314.66 -3 315 C-3.33 315.99 -3.66 316.98 -4 318 C-4.66 317.34 -5.32 316.68 -6 316 C-5.38511719 315.12988281 -5.38511719 315.12988281 -4.7578125 314.2421875 C-4.21898437 313.46101563 -3.68015625 312.67984375 -3.125 311.875 C-2.59132813 311.10929687 -2.05765625 310.34359375 -1.5078125 309.5546875 C2.4564631 302.83801329 2.29124667 296.48072612 2.2784729 288.88931274 C2.2842653 287.65912049 2.2900577 286.42892823 2.29602563 285.16145742 C2.31007702 281.75448091 2.31525502 278.34770064 2.31667423 274.94070935 C2.32037235 271.26386503 2.33552988 267.58706575 2.34928894 263.9102478 C2.37155267 257.54245095 2.38657128 251.17467014 2.39665604 244.8068428 C2.41124734 235.60006225 2.43678545 226.39333761 2.46498732 217.18658988 C2.51044709 202.24891978 2.54706528 187.31124163 2.578125 172.37353516 C2.60831387 157.86375515 2.6426657 143.35399484 2.68261719 128.84423828 C2.68507874 127.94971595 2.68754028 127.05519362 2.69007643 126.13356455 C2.70245109 121.64596679 2.71490761 117.15836926 2.72740483 112.67077184 C2.83096043 75.4472084 2.92016772 38.2236215 3 1 C2.01 0.67 1.02 0.34 0 0 Z " fill="#E5FEFD" transform="translate(284,22)"/>
<path d="M0 0 C1.06057617 -0.01160156 1.06057617 -0.01160156 2.14257812 -0.0234375 C6.20786012 -0.00816884 8.20384128 0.38317064 11.9375 2.25 C11.2775 6.21 10.6175 10.17 9.9375 14.25 C10.5975 14.58 11.2575 14.91 11.9375 15.25 C11.9375 16.24 11.9375 17.23 11.9375 18.25 C12.5975 18.58 13.2575 18.91 13.9375 19.25 C13.2775 19.25 12.6175 19.25 11.9375 19.25 C11.6075 20.24 11.2775 21.23 10.9375 22.25 C5.1875 23.375 5.1875 23.375 2.9375 22.25 C2.6075 22.91 2.2775 23.57 1.9375 24.25 C1.6075 22.93 1.2775 21.61 0.9375 20.25 C0.2775 20.25 -0.3825 20.25 -1.0625 20.25 C-1.3925 17.61 -1.7225 14.97 -2.0625 12.25 C-3.7125 11.92 -5.3625 11.59 -7.0625 11.25 C-7.3925 9.27 -7.7225 7.29 -8.0625 5.25 C-9.3825 5.25 -10.7025 5.25 -12.0625 5.25 C-12.3925 4.26 -12.7225 3.27 -13.0625 2.25 C-8.73152933 0.11417885 -4.73608277 -0.05209257 0 0 Z " fill="#A7BBDB" transform="translate(229.0625,75.75)"/>
<path d="M0 0 C5.99932374 1.8331267 11.44920563 4.07321751 17 7 C16.35083537 13.00477279 14.14204997 18.400781 12 24 C9.18424175 23.0504654 6.37263511 22.09091375 3.5625 21.125 C2.76005859 20.85558594 1.95761719 20.58617187 1.13085938 20.30859375 C0.36708984 20.04433594 -0.39667969 19.78007812 -1.18359375 19.5078125 C-1.89056396 19.26691895 -2.59753418 19.02602539 -3.32592773 18.77783203 C-5 18 -5 18 -6 16 C-5.2820034 13.42863819 -4.50326522 10.95316927 -3.625 8.4375 C-3.39039062 7.73947266 -3.15578125 7.04144531 -2.9140625 6.32226562 C-1.14721788 1.14721788 -1.14721788 1.14721788 0 0 Z " fill="#F8FAFC" transform="translate(69,135)"/>
<path d="M0 0 C1.32 0.33 2.64 0.66 4 1 C4 1.66 4 2.32 4 3 C5.32 3.66 6.64 4.32 8 5 C-2.70580867 13.04731927 -16.21283233 12.78629278 -29 11 C-35.0387019 9.46136319 -40.53155242 6.94859897 -46 4 C-46 3.67 -46 3.34 -46 3 C-30.82 3 -15.64 3 0 3 C0 2.01 0 1.02 0 0 Z " fill="#4468B3" transform="translate(177,256)"/>
<path d="M0 0 C4.95 0 9.9 0 15 0 C18.125 10.75 18.125 10.75 17 13 C17.66 13 18.32 13 19 13 C19 13.66 19 14.32 19 15 C17.14761719 15.14695312 17.14761719 15.14695312 15.2578125 15.296875 C3.56153804 16.30293119 -7.61101132 18.16650765 -19 21 C-18.505 19.515 -18.505 19.515 -18 18 C-14.4375 16.8125 -14.4375 16.8125 -11 16 C-11 15.34 -11 14.68 -11 14 C-10.34 13.67 -9.68 13.34 -9 13 C-8.195625 12.505 -8.195625 12.505 -7.375 12 C-3.95899264 10.56168111 -0.68441581 10.36844158 3 10 C1.515 5.05 1.515 5.05 0 0 Z " fill="#6472C8" transform="translate(187,38)"/>
<path d="M0 0 C3.89006773 1.38780795 6.96558708 3.2152227 10.3125 5.625 C11.19550781 6.25664063 12.07851562 6.88828125 12.98828125 7.5390625 C13.98408203 8.26222656 13.98408203 8.26222656 15 9 C13.71455342 12.56305823 12.20155344 15.32844233 9.875 18.3125 C9.33617188 19.00988281 8.79734375 19.70726563 8.2421875 20.42578125 C7.83226563 20.94527344 7.42234375 21.46476562 7 22 C3.04093183 20.56691865 -0.28718181 18.66858051 -3.8125 16.375 C-4.78832031 15.74335937 -5.76414062 15.11171875 -6.76953125 14.4609375 C-7.50558594 13.97882813 -8.24164063 13.49671875 -9 13 C-8.06398754 11.58235006 -7.1261208 10.16592432 -6.1875 8.75 C-5.66542969 7.96109375 -5.14335938 7.1721875 -4.60546875 6.359375 C-3.12865878 4.18907519 -1.59310127 2.08586232 0 0 Z " fill="#F7F9FC" transform="translate(103,80)"/>
<path d="M0 0 C2.5 0.5 2.5 0.5 4.25 2.3125 C7.18187275 7.44327731 7.09032819 12.74430011 6.5 18.5 C5.51581637 21.31348146 4.6759701 22.3240299 2.5 24.5 C-0.0625 25.1875 -0.0625 25.1875 -2.5 24.5 C-5.71667614 20.41165862 -5.90544362 17.04695371 -5.875 11.9375 C-5.88273438 10.63683594 -5.89046875 9.33617187 -5.8984375 7.99609375 C-5.39814485 3.60627101 -4.55571219 0.91114244 0 0 Z " fill="#2D68A7" transform="translate(187.5,282.5)"/>
<path d="M0 0 C3.67662664 0.25682318 7.33580527 0.60413179 11 1 C11.78246094 1.06445312 12.56492188 1.12890625 13.37109375 1.1953125 C15.4375 1.5 15.4375 1.5 19 3 C21.55929832 6.76282104 23 10.44425524 23 15 C19.33142609 15.05970554 15.66869926 15.03955471 12 15 C10.700625 15.020625 9.40125 15.04125 8.0625 15.0625 C5 14 5 14 3.72265625 12.10546875 C1.8780051 8.14701806 0.77659192 4.2940965 0 0 Z " fill="#F8F9FB" transform="translate(171,224)"/>
<path d="M0 0 C1.45792884 -0.05399736 2.91642712 -0.09279177 4.375 -0.125 C5.18710938 -0.14820312 5.99921875 -0.17140625 6.8359375 -0.1953125 C9 0 9 0 11 2 C11 2.99 11 3.98 11 5 C11.99 5 12.98 5 14 5 C14 6.32 14 7.64 14 9 C14.66 9 15.32 9 16 9 C17.00824858 11.41979659 17.93602818 13.67100208 18.4375 16.25 C18.623125 16.8275 18.80875 17.405 19 18 C19.99 18.33 20.98 18.66 22 19 C22 20.32 22 21.64 22 23 C20.35 23 18.7 23 17 23 C17 22.34 17 21.68 17 21 C16.113125 20.938125 15.22625 20.87625 14.3125 20.8125 C10.07461574 19.77301895 8.5525195 18.52848284 6 15 C5.58935994 12.19309328 5.75768703 9.85929305 6 7 C5.34 7 4.68 7 4 7 C2.66666667 5.66666667 1.33333333 4.33333333 0 3 C0 2.01 0 1.02 0 0 Z " fill="#7B8CCD" transform="translate(242,89)"/>
<path d="M0 0 C1.80078125 1.7421875 1.80078125 1.7421875 3.3125 3.875 C4.08013672 4.92300781 4.08013672 4.92300781 4.86328125 5.9921875 C6 8 6 8 6 11 C4.03125 12.60546875 4.03125 12.60546875 1.5 14.1875 C0.6646875 14.71730469 -0.170625 15.24710938 -1.03125 15.79296875 C-1.6809375 16.19128906 -2.330625 16.58960937 -3 17 C-6.18419421 15.62845314 -7.97112596 14.13830017 -10.125 11.4375 C-12.20903634 8.78974334 -12.20903634 8.78974334 -15 7 C-15 6.34 -15 5.68 -15 5 C-12.98828125 3.45703125 -12.98828125 3.45703125 -10.3125 1.8125 C-9.00732422 0.98685547 -9.00732422 0.98685547 -7.67578125 0.14453125 C-4.49910875 -1.21424984 -3.20382352 -1.23831995 0 0 Z " fill="#F8F8FC" transform="translate(153,46)"/>
<path d="M0 0 C1.32 0.33 2.64 0.66 4 1 C4 1.66 4 2.32 4 3 C7.465 2.505 7.465 2.505 11 2 C11.33 3.32 11.66 4.64 12 6 C10.69675781 6.36351562 10.69675781 6.36351562 9.3671875 6.734375 C0.63129585 9.26060561 0.63129585 9.26060561 -7 14 C-8.32 13.34 -9.64 12.68 -11 12 C-14.68006822 15.38168431 -16.9785845 18.42521756 -19 23 C-19.33 23 -19.66 23 -20 23 C-20 20.36 -20 17.72 -20 15 C-19.01 14.67 -18.02 14.34 -17 14 C-17 13.34 -17 12.68 -17 12 C-16.34 11.67 -15.68 11.34 -15 11 C-15 10.34 -15 9.68 -15 9 C-14.34 9 -13.68 9 -13 9 C-13 8.34 -13 7.68 -13 7 C-12.34 6.67 -11.68 6.34 -11 6 C-11 5.01 -11 4.02 -11 3 C-10.29875 3.226875 -9.5975 3.45375 -8.875 3.6875 C-5.12299725 4.09532639 -3.20568943 2.86377293 0 1 C0 0.67 0 0.34 0 0 Z " fill="#225B84" transform="translate(52,23)"/>
<path d="M0 0 C5.7813414 1.52140563 11.64618632 3.82589345 16 8 C17.13122631 11.72127388 17.23385735 15.13447554 17 19 C11.00067626 17.1668733 5.55079437 14.92678249 0 12 C0 8.04 0 4.08 0 0 Z " fill="#F2F4F9" transform="translate(164,174)"/>
<path d="M0 0 C-0.020625 0.94875 -0.04125 1.8975 -0.0625 2.875 C-0.22551826 5.90666283 -0.22551826 5.90666283 1 8 C1.99 8 2.98 8 4 8 C4 8.66 4 9.32 4 10 C0.52674819 11.1577506 -2.36067448 11.06866652 -6 11 C-6.33 11.99 -6.66 12.98 -7 14 C-9.4375 15.25 -9.4375 15.25 -12 16 C-14 15 -14 15 -15 12 C-15.99 11.34 -16.98 10.68 -18 10 C-16.75193533 7.50387065 -15.81007774 7.2762644 -13.3125 6.125 C-10.60365846 4.83368844 -8.13580134 3.48472608 -5.6875 1.75 C-3 0 -3 0 0 0 Z " fill="#1E5882" transform="translate(278,333)"/>
<path d="M0 0 C0.99 1.485 0.99 1.485 2 3 C2.79857422 3.64388672 2.79857422 3.64388672 3.61328125 4.30078125 C5.69488187 6.85147497 5.29159398 8.96058657 5.1875 12.1875 C5.14689453 13.81751953 5.14689453 13.81751953 5.10546875 15.48046875 C5.07066406 16.31191406 5.03585938 17.14335937 5 18 C5.9075 18.28875 6.815 18.5775 7.75 18.875 C10.32202908 19.76531776 12.61346766 20.71494413 15 22 C14.67 22.66 14.34 23.32 14 24 C11.98177083 23.67447917 9.96354167 23.34895833 7.9453125 23.0234375 C7.30335938 23.01570313 6.66140625 23.00796875 6 23 C3.74459622 24.79392033 3.74459622 24.79392033 3.953125 27.25 C4.55647095 32.83888879 5.40673564 38.26683885 6.58984375 43.76171875 C7.09777827 46.53359 7.1478878 49.19013184 7 52 C6.67 52 6.34 52 6 52 C3.64187345 42.80571762 2.21857221 33.75446555 1.3125 24.3125 C1.18294922 23.07177734 1.05339844 21.83105469 0.91992188 20.55273438 C0.23198921 13.67704754 -0.18929782 6.90987111 0 0 Z " fill="#456EAD" transform="translate(159,168)"/>
<path d="M0 0 C1.73639798 1.46325672 3.46137239 2.93554277 5.16796875 4.43359375 C7.06962124 6.1079674 7.06962124 6.1079674 9.5625 7.8125 C11 10 11 10 10.79296875 12.24609375 C10.2953972 14.5406503 9.70771116 16.76210254 9 19 C4.37609644 19 2.10381199 16.45249338 -1.23046875 13.44140625 C-3 11 -3 11 -3.17578125 8.27734375 C-1.87736913 1.87736913 -1.87736913 1.87736913 0 0 Z " fill="#F4F6FA" transform="translate(171,135)"/>
<path d="M0 0 C4.95 0 9.9 0 15 0 C17 6 17 6 17 10 C12.71 10 8.42 10 4 10 C0 2.25 0 2.25 0 0 Z " fill="#F9F9FC" transform="translate(187,38)"/>
<path d="M0 0 C0.66 0.66 1.32 1.32 2 2 C-0.07836402 4.75378742 -2.16355763 7.50232965 -4.25 10.25 C-4.83652344 11.02730469 -5.42304687 11.80460937 -6.02734375 12.60546875 C-8.83478193 16.29614591 -11.57608871 19.8472896 -15 23 C-15.66 22.34 -16.32 21.68 -17 21 C-16.24508052 14.01699483 -12.92121202 7.94260859 -8 3 C-5.32480461 1.54692625 -2.96271371 0.81730033 0 0 Z " fill="#29599F" transform="translate(127,85)"/>
<path d="M0 0 C1.18851563 0.00902344 2.37703125 0.01804687 3.6015625 0.02734375 C4.51679688 0.03894531 5.43203125 0.05054687 6.375 0.0625 C6.4022616 2.10409095 6.42151345 4.14578963 6.4375 6.1875 C6.44910156 7.32445313 6.46070313 8.46140625 6.47265625 9.6328125 C6.380327 12.8754156 5.98889906 15.88182612 5.375 19.0625 C4.715 19.0625 4.055 19.0625 3.375 19.0625 C3.045 16.4225 2.715 13.7825 2.375 11.0625 C0.725 10.7325 -0.925 10.4025 -2.625 10.0625 C-2.955 8.0825 -3.285 6.1025 -3.625 4.0625 C-4.945 4.0625 -6.265 4.0625 -7.625 4.0625 C-7.955 3.0725 -8.285 2.0825 -8.625 1.0625 C-5.74084117 -0.37957941 -3.20778472 -0.03144887 0 0 Z " fill="#8388D2" transform="translate(224.625,76.9375)"/>
<path d="M0 0 C2.92650183 2.63385165 4.99930443 5.61951439 7 9 C7 10.32 7 11.64 7 13 C7.763125 12.9175 8.52625 12.835 9.3125 12.75 C12 13 12 13 13.71875 14.6875 C15.37097746 17.66956908 15.002896 18.98841599 14.1875 22.25 C13.97480469 23.14203125 13.76210937 24.0340625 13.54296875 24.953125 C13.36378906 25.62859375 13.18460938 26.3040625 13 27 C13.66 27 14.32 27 15 27 C15.625 29.8125 15.625 29.8125 16 33 C15.34 33.99 14.68 34.98 14 36 C11.366929 29.87481752 8.74033999 23.74690091 6.12011719 17.61621094 C5.18066105 15.42196248 4.2360508 13.23006494 3.2890625 11.0390625 C2.84304687 9.99492187 2.39703125 8.95078125 1.9375 7.875 C1.55464844 6.98554688 1.17179688 6.09609375 0.77734375 5.1796875 C0 3 0 3 0 0 Z " fill="#948ADC" transform="translate(241,123)"/>
<path d="M0 0 C4.02910796 1.34303599 4.94524488 3.38604949 7.04296875 6.94140625 C8 9 8 9 8.0625 11.6875 C7 14 7 14 3 19 C0.36 15.37 -2.28 11.74 -5 8 C-3.47524303 4.95048605 -2.07114674 2.63600494 0 0 Z " fill="#EFF3F9" transform="translate(187,102)"/>
<path d="M0 0 C0.66 0.33 1.32 0.66 2 1 C2 1.66 2 2.32 2 3 C3.32 3.66 4.64 4.32 6 5 C5.34 5 4.68 5 4 5 C4.3609375 5.78761719 4.721875 6.57523438 5.09375 7.38671875 C8.56766915 15.54077897 9.65011068 22.17294165 9 31 C8.34 31.33 7.68 31.66 7 32 C6.03503207 29.0229423 5.07929122 26.04299559 4.125 23.0625 C3.85558594 22.23169922 3.58617187 21.40089844 3.30859375 20.54492188 C-1.60921342 5.13179453 -1.60921342 5.13179453 0 0 Z " fill="#496CAE" transform="translate(167,219)"/>
<path d="M0 0 C-1 3 -1 3 -2 5 C-2.66 5 -3.32 5 -4 5 C-4.33 5.99 -4.66 6.98 -5 8 C-7.5625 9.6875 -7.5625 9.6875 -10 11 C-9.67 11.99 -9.34 12.98 -9 14 C-8.34 14 -7.68 14 -7 14 C-7 14.99 -7 15.98 -7 17 C-8.65 16.67 -10.3 16.34 -12 16 C-14.25590249 18.1099784 -14.25590249 18.1099784 -16 21 C-15.37963682 24.28104472 -15.37963682 24.28104472 -14 27 C-14.66 27 -15.32 27 -16 27 C-16 26.34 -16 25.68 -16 25 C-17.98 25.99 -17.98 25.99 -20 27 C-20 26.01 -20 25.02 -20 24 C-19.34 24 -18.68 24 -18 24 C-18 23.01 -18 22.02 -18 21 C-18.66 21 -19.32 21 -20 21 C-18.68474673 12.94175815 -10.61629349 6.33361333 -4.76171875 1.1796875 C-3 0 -3 0 0 0 Z " fill="#2A569B" transform="translate(199,87)"/>
<path d="M0 0 C0.33 0 0.66 0 1 0 C1 15.84 1 31.68 1 48 C-1.57833439 45.42166561 -2.3761471 42.89674219 -3.6875 39.5 C-4.14511719 38.3346875 -4.60273438 37.169375 -5.07421875 35.96875 C-6 33 -6 33 -5 31 C-4.01 31 -3.02 31 -2 31 C-1.01 15.655 -1.01 15.655 0 0 Z " fill="#586DC1" transform="translate(280,176)"/>
<path d="M0 0 C0.99 0.33 1.98 0.66 3 1 C3.33 1.99 3.66 2.98 4 4 C5.80252869 4.70194993 5.80252869 4.70194993 8 5 C8.9075 5.185625 9.815 5.37125 10.75 5.5625 C11.4925 5.706875 12.235 5.85125 13 6 C13 5.34 13 4.68 13 4 C13.99 4.33 14.98 4.66 16 5 C15.67 5.66 15.34 6.32 15 7 C14.34 7 13.68 7 13 7 C13.33 8.98 13.66 10.96 14 13 C13.01 13.495 13.01 13.495 12 14 C9.93701172 13.01196289 9.93701172 13.01196289 7.4296875 11.47265625 C6.53378906 10.92802734 5.63789063 10.38339844 4.71484375 9.82226562 C3.30912109 8.95118164 3.30912109 8.95118164 1.875 8.0625 C0.93011719 7.48564453 -0.01476562 6.90878906 -0.98828125 6.31445312 C-3.33000119 4.88340205 -5.66688189 3.44501781 -8 2 C-4.28125 0.8828125 -4.28125 0.8828125 -1.75 1.9375 C-1.1725 2.288125 -0.595 2.63875 0 3 C0 2.01 0 1.02 0 0 Z " fill="#7586CC" transform="translate(125,44)"/>
<path d="M0 0 C1.31626692 3.61973402 2 6.09567131 2 10 C-3.75 13 -3.75 13 -6 13 C-9 6.5 -9 6.5 -9 2 C-3.375 0 -3.375 0 0 0 Z " fill="#F5F6FB" transform="translate(216,84)"/>
<path d="M0 0 C0.99 0 1.98 0 3 0 C3.49901509 11.32949069 1.99128224 21.88200748 0 33 C-0.33 33 -0.66 33 -1 33 C-1 28.05 -1 23.1 -1 18 C-2.98 18.99 -2.98 18.99 -5 20 C-4.67 16.7 -4.34 13.4 -4 10 C-3.34 10.33 -2.68 10.66 -2 11 C-1.67 10.34 -1.34 9.68 -1 9 C-0.01 9 0.98 9 2 9 C1.34 6.03 0.68 3.06 0 0 Z " fill="#34649B" transform="translate(72,198)"/>
<path d="M0 0 C2.1875 1 2.1875 1 4 2 C3.34 2.66 2.68 3.32 2 4 C2.66 4.33 3.32 4.66 4 5 C4 9 4 13 4 17 C2.35 16.67 0.7 16.34 -1 16 C-0.71125 15.13375 -0.4225 14.2675 -0.125 13.375 C0.35432898 10.09891912 0.35432898 10.09891912 -1.26953125 8.3359375 C-2.36804828 7.2914459 -3.49588929 6.27683186 -4.65234375 5.296875 C-5.09707031 4.86890625 -5.54179687 4.4409375 -6 4 C-6 3.34 -6 2.68 -6 2 C-3 0 -3 0 0 0 Z " fill="#4965AC" transform="translate(268,71)"/>
<path d="M0 0 C0.66 0.33 1.32 0.66 2 1 C1.67 1.66 1.34 2.32 1 3 C2.32 3.66 3.64 4.32 5 5 C2.09399739 6.25664978 0.20395416 7 -3 7 C-2.67 8.65 -2.34 10.3 -2 12 C-3.46067199 11.54917531 -4.91848032 11.08906463 -6.375 10.625 C-7.59316406 10.24214844 -7.59316406 10.24214844 -8.8359375 9.8515625 C-11 9 -11 9 -13 7 C-10.88002166 5.80266012 -8.75486324 4.61701287 -6.625 3.4375 C-6.02171875 3.09525391 -5.4184375 2.75300781 -4.796875 2.40039062 C-3.23021759 1.53872905 -1.61709138 0.76281817 0 0 Z " fill="#BDC7E4" transform="translate(210,79)"/>
<path d="M0 0 C3.3 0.99 6.6 1.98 10 3 C9.01 3.495 9.01 3.495 8 4 C7.79029441 8.14093698 7.79029441 8.14093698 9 12 C9.13415472 14.6723621 9.04318541 17.32250488 9 20 C8.34 20 7.68 20 7 20 C5.82685974 17.23174812 4.66129785 14.46071514 3.5 11.6875 C2.99919922 10.50897461 2.99919922 10.50897461 2.48828125 9.30664062 C2.17246094 8.54931641 1.85664063 7.79199219 1.53125 7.01171875 C1.23798828 6.31522217 0.94472656 5.61872559 0.64257812 4.90112305 C0 3 0 3 0 0 Z " fill="#7E77D6" transform="translate(232,101)"/>
<path d="M0 0 C5.86809507 0.52393706 10.54873741 1.76108858 16 4 C15.01 5.485 15.01 5.485 14 7 C13.34 7 12.68 7 12 7 C12 7.99 12 8.98 12 10 C12.66 10 13.32 10 14 10 C14.33 11.98 14.66 13.96 15 16 C14.34 16 13.68 16 13 16 C13 15.01 13 14.02 13 13 C11.68 12.67 10.36 12.34 9 12 C9.66 12 10.32 12 11 12 C11 10.02 11 8.04 11 6 C9.741875 5.855625 8.48375 5.71125 7.1875 5.5625 C4.57332877 5.26251314 2.52560108 4.84186703 0 4 C0 2.68 0 1.36 0 0 Z " fill="#5F6FC4" transform="translate(240,78)"/>
<path d="M0 0 C1.32 0.33 2.64 0.66 4 1 C4.33 2.65 4.66 4.3 5 6 C4.39671875 6.3403125 3.7934375 6.680625 3.171875 7.03125 C-2.78886238 10.6461488 -5.42828249 13.51479933 -8 20 C-8.33 20 -8.66 20 -9 20 C-9 17.36 -9 14.72 -9 12 C-8.01 11.67 -7.02 11.34 -6 11 C-6 10.34 -6 9.68 -6 9 C-5.34 8.67 -4.68 8.34 -4 8 C-4 7.34 -4 6.68 -4 6 C-3.34 6 -2.68 6 -2 6 C-2 5.34 -2 4.68 -2 4 C-1.34 3.67 -0.68 3.34 0 3 C0 2.01 0 1.02 0 0 Z " fill="#98B2C2" transform="translate(41,26)"/>
<path d="M0 0 C0.33 0 0.66 0 1 0 C1 9.9 1 19.8 1 30 C0.34 30 -0.32 30 -1 30 C-1 30.66 -1 31.32 -1 32 C-3.475 32.495 -3.475 32.495 -6 33 C-6.33 33.99 -6.66 34.98 -7 36 C-7.66 35.34 -8.32 34.68 -9 34 C-8.38511719 33.12988281 -8.38511719 33.12988281 -7.7578125 32.2421875 C-7.21898437 31.46101563 -6.68015625 30.67984375 -6.125 29.875 C-5.59132813 29.10929687 -5.05765625 28.34359375 -4.5078125 27.5546875 C-0.98064773 21.57861041 -0.61965934 15.8939084 -0.375 9.125 C-0.33632813 8.24585938 -0.29765625 7.36671875 -0.2578125 6.4609375 C-0.16418966 4.30761207 -0.08103541 2.15383586 0 0 Z " fill="#E9F9F8" transform="translate(287,304)"/>
<path d="M0 0 C4.5919267 2.12796603 9.37274131 4.3937689 13 8 C13.4375 10.8125 13.4375 10.8125 13 13 C8.35825467 11.40440004 3.6767719 9.30104338 0 6 C-0.5 2.6875 -0.5 2.6875 0 0 Z " fill="#EEF0F9" transform="translate(242,51)"/>
<path d="M0 0 C1.98 0 3.96 0 6 0 C6.19335938 0.65226562 6.38671875 1.30453125 6.5859375 1.9765625 C7.73642295 5.83809287 8.89273629 9.68385433 10.1875 13.5 C11 16 11 16 11 18 C11.66 18.33 12.32 18.66 13 19 C9 19 9 19 7.25 17.5 C5.43885486 13.87770971 5.79872034 11.02559319 6 7 C5.34 7 4.68 7 4 7 C2.66666667 5.66666667 1.33333333 4.33333333 0 3 C0 2.01 0 1.02 0 0 Z " fill="#90A3D2" transform="translate(242,89)"/>
<path d="M0 0 C2.33944736 0.28730055 4.6739143 0.61936779 7 1 C4.45335415 5.81033104 2.00972202 9.32442148 -2 13 C-2.66 12.34 -3.32 11.68 -4 11 C-3.60429998 7.33977481 -2.68397142 2.68397142 0 0 Z " fill="#315FA2" transform="translate(114,95)"/>
<path d="M0 0 C3 1 3 1 4 3 C4.039992 4.99960012 4.04346799 7.00047242 4 9 C4.66 9 5.32 9 6 9 C6 7.02 6 5.04 6 3 C6.33 3 6.66 3 7 3 C7 6.63 7 10.26 7 14 C4.36 13.01 1.72 12.02 -1 11 C-1 10.01 -1 9.02 -1 8 C-1.0309375 6.205625 -1.0309375 6.205625 -1.0625 4.375 C-1 1 -1 1 0 0 Z " fill="#979FD8" transform="translate(224,87)"/>
<path d="M0 0 C0.66 0.33 1.32 0.66 2 1 C2 2.98 2 4.96 2 7 C5.465 8.98 5.465 8.98 9 11 C8 13 8 13 6.328125 13.77734375 C2.97965178 14.09758364 0.79870764 12.92116319 -2.25 11.5625 C-3.86648437 10.85287109 -3.86648437 10.85287109 -5.515625 10.12890625 C-6.33546875 9.75636719 -7.1553125 9.38382813 -8 9 C-7.34 8.67 -6.68 8.34 -6 8 C-5.67 7.34 -5.34 6.68 -5 6 C-3.68 6.99 -2.36 7.98 -1 9 C-0.67 6.03 -0.34 3.06 0 0 Z " fill="#5E73BE" transform="translate(241,50)"/>
<path d="M0 0 C0.33 0 0.66 0 1 0 C0.979375 0.886875 0.95875 1.77375 0.9375 2.6875 C0.84155854 5.92160163 0.84155854 5.92160163 1.8125 8.5625 C1.874375 9.366875 1.93625 10.17125 2 11 C-0.4375 13.8125 -0.4375 13.8125 -3 16 C-4.11207705 12.66376884 -4.51985445 9.48105525 -5 6 C-5.31966139 4.33065717 -5.64731066 2.6626783 -6 1 C-4.02 1.66 -2.04 2.32 0 3 C0 2.01 0 1.02 0 0 Z M0 7 C1 9 1 9 1 9 Z " fill="#8183D6" transform="translate(263,161)"/>
<path d="M0 0 C3.3 0 6.6 0 10 0 C9.67 1.65 9.34 3.3 9 5 C5.04 5 1.08 5 -3 5 C-2.34 4.67 -1.68 4.34 -1 4 C-0.67 2.68 -0.34 1.36 0 0 Z " fill="#4B63B7" transform="translate(187,32)"/>
<path d="M0 0 C0.33 0.66 0.66 1.32 1 2 C1.66 2 2.32 2 3 2 C2.67 3.98 2.34 5.96 2 8 C3.65 7.67 5.3 7.34 7 7 C7.99 8.485 7.99 8.485 9 10 C5.7 10 2.4 10 -1 10 C-0.95875 9.071875 -0.9175 8.14375 -0.875 7.1875 C-0.72863661 3.84190281 -0.72863661 3.84190281 -3 1 C-2.01 0.67 -1.02 0.34 0 0 Z " fill="#8C9AD2" transform="translate(159,50)"/>
<path d="M0 0 C0.33 0.66 0.66 1.32 1 2 C0.67 2.66 0.34 3.32 0 4 C0.66 4 1.32 4 2 4 C2 4.66 2 5.32 2 6 C-2.29 6 -6.58 6 -11 6 C-8.2574043 3.2574043 -7.25588615 2.49792802 -3.8125 1.3125 C-3.09707031 1.06113281 -2.38164062 0.80976562 -1.64453125 0.55078125 C-1.10183594 0.36902344 -0.55914062 0.18726563 0 0 Z " fill="#7A7FD2" transform="translate(204,47)"/>
<path d="M0 0 C2.53541298 0.09086451 5.03554784 0.2370945 7.5625 0.4375 C8.62887695 0.51581055 8.62887695 0.51581055 9.71679688 0.59570312 C11.47821999 0.72574107 13.23916173 0.86226897 15 1 C15 1.33 15 1.66 15 2 C13.02 2 11.04 2 9 2 C9 2.99 9 3.98 9 5 C6.36 5 3.72 5 1 5 C0.34 3.68 -0.32 2.36 -1 1 C-0.67 0.67 -0.34 0.34 0 0 Z " fill="#366BA5" transform="translate(50,225)"/>
<path d="M0 0 C0.66 0 1.32 0 2 0 C2.1875 2.8125 2.1875 2.8125 2 6 C0.6875 7.4375 0.6875 7.4375 -1 9 C-1.495 10.175625 -1.99 11.35125 -2.5 12.5625 C-4 16 -4 16 -7 18 C-5.06375702 11.79522136 -2.74390859 5.89174281 0 0 Z " fill="#5E64C6" transform="translate(254,187)"/>
<path d="M0 0 C2.92650183 2.63385165 4.99930443 5.61951439 7 9 C7 10.32 7 11.64 7 13 C7.66 13.33 8.32 13.66 9 14 C8.34 14 7.68 14 7 14 C7.33 15.98 7.66 17.96 8 20 C5.86879738 16.80319607 4.37998891 13.51404109 2.875 10 C2.59785156 9.3709375 2.32070312 8.741875 2.03515625 8.09375 C0.79990142 5.2216304 0 3.16054884 0 0 Z " fill="#8988DD" transform="translate(241,123)"/>
<path d="M0 0 C0.66 0 1.32 0 2 0 C2.33 0.99 2.66 1.98 3 3 C3.66 3.495 4.32 3.99 5 4.5 C7 6 7 6 8 9 C8.66 9.66 9.32 10.32 10 11 C8.741875 10.87625 7.48375 10.7525 6.1875 10.625 C5.47980469 10.55539063 4.77210938 10.48578125 4.04296875 10.4140625 C2 10 2 10 -1 8 C-0.01 8 0.98 8 2 8 C1.34 5.36 0.68 2.72 0 0 Z " fill="#A7B1DD" transform="translate(216,86)"/>
<path d="M0 0 C0.99 0.33 1.98 0.66 3 1 C2.67 1.66 2.34 2.32 2 3 C1.34 3 0.68 3 0 3 C0.33 4.98 0.66 6.96 1 9 C0.01 9.495 0.01 9.495 -1 10 C-2.98 8.68 -4.96 7.36 -7 6 C-5 3 -5 3 -2.375 2.3125 C-1.59125 2.209375 -0.8075 2.10625 0 2 C0 1.34 0 0.68 0 0 Z " fill="#7D8DCE" transform="translate(138,48)"/>
<path d="M0 0 C0.66 0 1.32 0 2 0 C3.00824858 2.41979659 3.93602818 4.67100208 4.4375 7.25 C4.623125 7.8275 4.80875 8.405 5 9 C5.99 9.33 6.98 9.66 8 10 C8 11.32 8 12.64 8 14 C6.35 14 4.7 14 3 14 C3.2475 13.443125 3.495 12.88625 3.75 12.3125 C4.29699887 9.78752246 4.29699887 9.78752246 2.0625 7.5625 C1.381875 6.716875 0.70125 5.87125 0 5 C-0.25 2.1875 -0.25 2.1875 0 0 Z " fill="#6C7AC9" transform="translate(256,98)"/>
<path d="M0 0 C2.97 0.33 5.94 0.66 9 1 C9 2.32 9 3.64 9 5 C6.03 5 3.06 5 0 5 C0 3.35 0 1.7 0 0 Z " fill="#FBFBFD" transform="translate(241,83)"/>
<path d="M0 0 C0 0.66 0 1.32 0 2 C-0.66 2 -1.32 2 -2 2 C-1.34 4.31 -0.68 6.62 0 9 C-0.99 9 -1.98 9 -3 9 C-3.33 7.02 -3.66 5.04 -4 3 C-5.32 3 -6.64 3 -8 3 C-8.33 2.01 -8.66 1.02 -9 0 C-5.93109813 -1.53445094 -3.29905734 -0.54984289 0 0 Z " fill="#8990D6" transform="translate(225,78)"/>
<path d="M0 0 C3.3 0.66 6.6 1.32 10 2 C10 2.33 10 2.66 10 3 C4.06 4.32 -1.88 5.64 -8 7 C-7.67 6.01 -7.34 5.02 -7 4 C-3.4375 2.8125 -3.4375 2.8125 0 2 C0 1.34 0 0.68 0 0 Z " fill="#808ED0" transform="translate(176,52)"/>
<path d="M0 0 C4 0 4 0 5.75 1.5 C6.1625 1.995 6.575 2.49 7 3 C6.34 5.31 5.68 7.62 5 10 C2 9 2 9 0.8125 6.6875 C0 4 0 4 0 0 Z " fill="#5B69BF" transform="translate(202,38)"/>
<path d="M0 0 C0.33 0 0.66 0 1 0 C1 3.63 1 7.26 1 11 C0.34 10.67 -0.32 10.34 -1 10 C-1.66 12.31 -2.32 14.62 -3 17 C-3.66 17 -4.32 17 -5 17 C-5.33 18.65 -5.66 20.3 -6 22 C-7.15699511 18.52901466 -6.82954442 17.85266875 -5.56640625 14.55078125 C-5.0878418 13.27944336 -5.0878418 13.27944336 -4.59960938 11.98242188 C-4.25736328 11.10134766 -3.91511719 10.22027344 -3.5625 9.3125 C-3.22412109 8.41982422 -2.88574219 7.52714844 -2.53710938 6.60742188 C-1.69962693 4.40165826 -0.85367026 2.19953824 0 0 Z " fill="#4763B1" transform="translate(280,119)"/>
<path d="M0 0 C0.66 0 1.32 0 2 0 C1.01 5.61 0.02 11.22 -1 17 C-1.33 17 -1.66 17 -2 17 C-2 14.36 -2 11.72 -2 9 C-2.99 9 -3.98 9 -5 9 C-4.67 8.01 -4.34 7.02 -4 6 C-3.34 6.33 -2.68 6.66 -2 7 C-1.855625 6.030625 -1.71125 5.06125 -1.5625 4.0625 C-1 1 -1 1 0 0 Z " fill="#5273B1" transform="translate(77,189)"/>
<path d="M0 0 C-7.3400191 5.56829035 -7.3400191 5.56829035 -12 5 C-14.3125 3.5 -14.3125 3.5 -16 2 C-10.51324804 0.13216954 -5.77807024 -0.2358396 0 0 Z " fill="#5B66C4" transform="translate(200,48)"/>
<path d="M0 0 C3 1 3 1 6 3 C5.67 4.65 5.34 6.3 5 8 C3.0625 7.1875 3.0625 7.1875 1 6 C0.67 5.01 0.34 4.02 0 3 C-0.99 2.67 -1.98 2.34 -3 2 C-2.01 1.34 -1.02 0.68 0 0 Z " fill="#1F5983" transform="translate(258,342)"/>
<path d="M0 0 C1.6990169 2.0683684 2.89762624 3.55211478 3.5 6.1875 C3.665 6.785625 3.83 7.38375 4 8 C4.99 8.33 5.98 8.66 7 9 C7.625 11.8125 7.625 11.8125 8 15 C7.01 16.485 7.01 16.485 6 18 C4.99095625 15.7536764 3.9926398 13.50356063 3 11.25 C2.71382812 10.61578125 2.42765625 9.9815625 2.1328125 9.328125 C0.63993298 5.91582896 0 3.79218083 0 0 Z " fill="#8E91E0" transform="translate(249,141)"/>
<path d="M0 0 C0.66 0.33 1.32 0.66 2 1 C2 1.66 2 2.32 2 3 C3.32 3.66 4.64 4.32 6 5 C5.34 5 4.68 5 4 5 C4.495 6.1446875 4.495 6.1446875 5 7.3125 C6 10 6 10 6 13 C5.34 13 4.68 13 4 13 C2.79371992 10.66785852 1.8345262 8.50357861 1 6 C0.34 6 -0.32 6 -1 6 C-0.67 4.02 -0.34 2.04 0 0 Z " fill="#4E73B3" transform="translate(167,219)"/>
<path d="M0 0 C-0.33 2.31 -0.66 4.62 -1 7 C-2.65 7.33 -4.3 7.66 -6 8 C-6.625 6.1875 -6.625 6.1875 -7 4 C-4.83989616 0.75984424 -3.8842653 0 0 0 Z " fill="#4A62B1" transform="translate(256,48)"/>
<path d="M0 0 C2 3 2 3 1.7578125 5.69921875 C1.54898438 6.68535156 1.34015625 7.67148438 1.125 8.6875 C0.81949219 10.17830078 0.81949219 10.17830078 0.5078125 11.69921875 C0.34023438 12.45847656 0.17265625 13.21773437 0 14 C0.99 14.33 1.98 14.66 3 15 C1.68 15 0.36 15 -1 15 C-1 12.69 -1 10.38 -1 8 C-1.66 8 -2.32 8 -3 8 C-1.125 1.125 -1.125 1.125 0 0 Z " fill="#3A6DA3" transform="translate(44,210)"/>
<path d="M0 0 C2.64 0.33 5.28 0.66 8 1 C8.33 2.65 8.66 4.3 9 6 C4.545 5.01 4.545 5.01 0 4 C0 2.68 0 1.36 0 0 Z " fill="#7685CB" transform="translate(240,78)"/>
<path d="M0 0 C0.33 1.32 0.66 2.64 1 4 C0.34 4 -0.32 4 -1 4 C-1 4.66 -1 5.32 -1 6 C-2.65 6.33 -4.3 6.66 -6 7 C-6.33 7.99 -6.66 8.98 -7 10 C-7.66 9.34 -8.32 8.68 -9 8 C-2.72972973 0 -2.72972973 0 0 0 Z " fill="#EFF2F4" transform="translate(287,330)"/>
<path d="M0 0 C2 3 2 3 3 6 C-1.455 7.485 -1.455 7.485 -6 9 C-5.505 8.401875 -5.01 7.80375 -4.5 7.1875 C-2.71723582 5.02970006 -2.71723582 5.02970006 -3 2 C-2.34 2 -1.68 2 -1 2 C-0.67 1.34 -0.34 0.68 0 0 Z " fill="#4664AF" transform="translate(278,219)"/>
<path d="M0 0 C0.99 0.33 1.98 0.66 3 1 C2.34 1 1.68 1 1 1 C1 2.65 1 4.3 1 6 C3.97 6 6.94 6 10 6 C10.33 4.68 10.66 3.36 11 2 C11 3.65 11 5.3 11 7 C9.72125 7.144375 8.4425 7.28875 7.125 7.4375 C4.74307106 7.70642746 3.15547309 7.92226346 1 9 C0.34 8.67 -0.32 8.34 -1 8 C-0.67 5.36 -0.34 2.72 0 0 Z " fill="#B3C0DF" transform="translate(240,82)"/>
<path d="M0 0 C0.66 0.33 1.32 0.66 2 1 C1.67 1.66 1.34 2.32 1 3 C2.65 3 4.3 3 6 3 C5.360625 3.309375 4.72125 3.61875 4.0625 3.9375 C2.06389179 4.8345163 2.06389179 4.8345163 1 6 C-1.33944736 5.71269945 -3.6739143 5.38063221 -6 5 C-6 4.34 -6 3.68 -6 3 C-5.195625 2.87625 -4.39125 2.7525 -3.5625 2.625 C-2.716875 2.41875 -1.87125 2.2125 -1 2 C-0.67 1.34 -0.34 0.68 0 0 Z " fill="#5C62C6" transform="translate(218,48)"/>
<path d="M0 0 C5.57142857 5.14285714 5.57142857 5.14285714 6 9 C0.33846154 6.53846154 0.33846154 6.53846154 -1.375 3.8125 C-1.58125 3.214375 -1.7875 2.61625 -2 2 C-1.34 2 -0.68 2 0 2 C0 1.34 0 0.68 0 0 Z " fill="#90A2D2" transform="translate(139,53)"/>
<path d="M0 0 C0.99 0 1.98 0 3 0 C1.55049545 3.7910119 -0.15172566 7.3874638 -2 11 C-2.33 11 -2.66 11 -3 11 C-3 8.36 -3 5.72 -3 3 C-2.01 2.67 -1.02 2.34 0 2 C0 1.34 0 0.68 0 0 Z " fill="#EFF6F7" transform="translate(35,35)"/>
<path d="M0 0 C2.475 0.495 2.475 0.495 5 1 C5.9765625 7.0546875 5.9765625 7.0546875 6 9 C5.34 9.66 4.68 10.32 4 11 C2.11732015 9.11732015 2.59379463 6.42937958 2.37890625 3.91015625 C2.13777773 1.7671052 2.13777773 1.7671052 0 0 Z " fill="#426FAB" transform="translate(177,180)"/>
<path d="M0 0 C1.45703125 1.05078125 1.45703125 1.05078125 3 3 C3.51171875 6.35546875 3.51171875 6.35546875 3.6875 10.1875 C3.75324219 11.45980469 3.81898438 12.73210937 3.88671875 14.04296875 C3.92410156 15.01878906 3.96148437 15.99460938 4 17 C3.67 17 3.34 17 3 17 C2.49453964 14.91798472 1.99583165 12.83432933 1.5 10.75 C1.2215625 9.58984375 0.943125 8.4296875 0.65625 7.234375 C0 4 0 4 0 0 Z " fill="#5D7BB0" transform="translate(162,203)"/>
<path d="M0 0 C0.33 0 0.66 0 1 0 C1.02712153 1.916588 1.04645097 3.8332873 1.0625 5.75 C1.07410156 6.81734375 1.08570313 7.8846875 1.09765625 8.984375 C1.01510087 11.53368501 0.74617558 13.57933591 0 16 C-0.99 15.67 -1.98 15.34 -3 15 C-2.125 11.125 -2.125 11.125 -1 10 C-0.76712992 8.31816052 -0.58735834 6.6287584 -0.4375 4.9375 C-0.31181641 3.55884766 -0.31181641 3.55884766 -0.18359375 2.15234375 C-0.12300781 1.44207031 -0.06242188 0.73179687 0 0 Z " fill="#3A64A4" transform="translate(163,174)"/>
<path d="M0 0 C2.31 0.33 4.62 0.66 7 1 C6.67 1.99 6.34 2.98 6 4 C5.01 4 4.02 4 3 4 C3 4.99 3 5.98 3 7 C0.69 7 -1.62 7 -4 7 C-4 6.67 -4 6.34 -4 6 C-2.02 6 -0.04 6 2 6 C1.34 4.02 0.68 2.04 0 0 Z " fill="#5D7EBA" transform="translate(192,233)"/>
<path d="M0 0 C2.96844435 -0.35338623 5.15598218 -0.5417682 7.734375 1.11328125 C9.20348819 2.35503168 10.60704814 3.67337918 12 5 C11.67 5.66 11.34 6.32 11 7 C7.37 5.02 3.74 3.04 0 1 C0 0.67 0 0.34 0 0 Z " fill="#4572AE" transform="translate(164,173)"/>
<path d="M0 0 C2.97 0 5.94 0 9 0 C8.67 1.32 8.34 2.64 8 4 C6.35 4 4.7 4 3 4 C3 3.01 3 2.02 3 1 C2.01 0.67 1.02 0.34 0 0 Z " fill="#7378CE" transform="translate(222,77)"/>
<path d="M0 0 C0.33 0 0.66 0 1 0 C1.39169887 2.66355234 1.40564529 4.39224373 -0.11328125 6.66796875 C-1.36389317 8.1510888 -2.67864514 9.57954352 -4 11 C-5.24546405 8.50907189 -4.7767578 7.58919267 -4 5 C-3.01 5 -2.02 5 -1 5 C-0.67 3.35 -0.34 1.7 0 0 Z " fill="#06426B" transform="translate(282,328)"/>
<path d="M0 0 C2.75 0.25 2.75 0.25 5 1 C5 1.66 5 2.32 5 3 C0.545 3.495 0.545 3.495 -4 4 C-2.3125 1.9375 -2.3125 1.9375 0 0 Z " fill="#F4F7F8" transform="translate(277,340)"/>
<path d="M0 0 C0.66 0.33 1.32 0.66 2 1 C1.67 1.66 1.34 2.32 1 3 C2.32 3.66 3.64 4.32 5 5 C3.02 5.33 1.04 5.66 -1 6 C-1.33 5.34 -1.66 4.68 -2 4 C-1.0625 1.875 -1.0625 1.875 0 0 Z " fill="#ADB5DF" transform="translate(210,79)"/>
<path d="M0 0 C1.65 0 3.3 0 5 0 C4.67 2.97 4.34 5.94 4 9 C2 6 2 6 2 3 C1.34 2.67 0.68 2.34 0 2 C0 1.34 0 0.68 0 0 Z " fill="#90A1D3" transform="translate(236,77)"/>
<path d="M0 0 C0.99 0.66 1.98 1.32 3 2 C0.875 3.6875 0.875 3.6875 -2 5 C-5.3125 3.6875 -5.3125 3.6875 -8 2 C-5.39417629 1.06934867 -4.35801776 0.85082593 -1.75 1.9375 C-1.1725 2.288125 -0.595 2.63875 0 3 C0 2.01 0 1.02 0 0 Z " fill="#697BC8" transform="translate(125,44)"/>
<path d="M0 0 C2.64 0.66 5.28 1.32 8 2 C7.67 2.66 7.34 3.32 7 4 C5.34608154 4.39171753 3.67654729 4.72057545 2 5 C1.01 5.33 0.02 5.66 -1 6 C-0.67 4.02 -0.34 2.04 0 0 Z " fill="#6876C7" transform="translate(145,42)"/>
<path d="M0 0 C2.62386487 3.06117568 3 3.73173127 3 8 C1.68 8 0.36 8 -1 8 C-0.67 5.36 -0.34 2.72 0 0 Z " fill="#446EAC" transform="translate(162,148)"/>
<path d="M0 0 C0.33 0 0.66 0 1 0 C1 2.31 1 4.62 1 7 C2.65 6.67 4.3 6.34 6 6 C5.67 6.99 5.34 7.98 5 9 C3.68 8.67 2.36 8.34 1 8 C0.67 8.66 0.34 9.32 0 10 C0 6.7 0 3.4 0 0 Z " fill="#AFC4E0" transform="translate(231,90)"/>
<path d="M0 0 C0.33 0.66 0.66 1.32 1 2 C1.66 2 2.32 2 3 2 C2.67 3.65 2.34 5.3 2 7 C0.35 5.35 -1.3 3.7 -3 2 C-2.01 1.34 -1.02 0.68 0 0 Z " fill="#7986CB" transform="translate(159,50)"/>
<path d="M0 0 C1.98 0.495 1.98 0.495 4 1 C3.67 2.32 3.34 3.64 3 5 C1.68 4.67 0.36 4.34 -1 4 C-0.67 2.68 -0.34 1.36 0 0 Z " fill="#4A5EB1" transform="translate(256,64)"/>
<path d="M0 0 C0.99 0 1.98 0 3 0 C3.625 2.8125 3.625 2.8125 4 6 C3.01 7.485 3.01 7.485 2 9 C1.34 6.03 0.68 3.06 0 0 Z " fill="#9E98E1" transform="translate(253,150)"/>
<path d="M0 0 C0.144375 0.61875 0.28875 1.2375 0.4375 1.875 C0.93152225 4.03258322 0.93152225 4.03258322 2 6 C0.68 6 -0.64 6 -2 6 C-2.33 4.68 -2.66 3.36 -3 2 C-2.01 1.34 -1.02 0.68 0 0 Z " fill="#B7C2E3" transform="translate(208,80)"/>
<path d="M0 0 C0.99 0 1.98 0 3 0 C3 0.66 3 1.32 3 2 C4.32 1.67 5.64 1.34 7 1 C6.34 2.32 5.68 3.64 5 5 C3.0625 4.1875 3.0625 4.1875 1 3 C0.67 2.01 0.34 1.02 0 0 Z " fill="#6773C6" transform="translate(153,46)"/>
<path d="M0 0 C0.99 0 1.98 0 3 0 C3.625 2.375 3.625 2.375 4 5 C3.34 5.66 2.68 6.32 2 7 C0.5393715 4.35261084 0 3.10551666 0 0 Z " fill="#255C97" transform="translate(82,324)"/>
<path d="M0 0 C0 0.66 0 1.32 0 2 C0.66 2 1.32 2 2 2 C2 2.66 2 3.32 2 4 C-0.31 3.67 -2.62 3.34 -5 3 C-2.25 0 -2.25 0 0 0 Z " fill="#C8D3E9" transform="translate(202,84)"/>
<path d="M0 0 C2.31 0.66 4.62 1.32 7 2 C7 3.32 7 4.64 7 6 C5.83054208 5.19152271 4.66449539 4.37810888 3.5 3.5625 C2.8503125 3.11003906 2.200625 2.65757813 1.53125 2.19140625 C1.0259375 1.79824219 0.520625 1.40507813 0 1 C0 0.67 0 0.34 0 0 Z " fill="#3D71AF" transform="translate(107,81)"/>
<path d="M0 0 C1.98 0 3.96 0 6 0 C5.01 0.495 5.01 0.495 4 1 C3.34786708 3.02463255 3.34786708 3.02463255 3 5 C2.01 4.34 1.02 3.68 0 3 C0 2.01 0 1.02 0 0 Z " fill="#495EB7" transform="translate(202,35)"/>
<path d="M0 0 C0.99 0.33 1.98 0.66 3 1 C2.67 1.66 2.34 2.32 2 3 C1.34 3 0.68 3 0 3 C0 2.01 0 1.02 0 0 Z " fill="#FEFCF9" transform="translate(23,345)"/>
<path d="M0 0 C0.66 0.66 1.32 1.32 2 2 C0.02 2 -1.96 2 -4 2 C-2.68 1.34 -1.36 0.68 0 0 Z " fill="#FEFBF6" transform="translate(62,16)"/>
<path d="M0 0 C0.99 0.495 0.99 0.495 2 1 C1.01 2.485 1.01 2.485 0 4 C0 2.68 0 1.36 0 0 Z " fill="#FFFCF9" transform="translate(20,48)"/>
<path d="M0 0 C3 1 3 1 3 1 Z " fill="#FEFCF7" transform="translate(25,351)"/>
<path d="M0 0 C3 1 3 1 3 1 Z " fill="#FDFAF7" transform="translate(264,350)"/>
<path d="M0 0 C3 1 3 1 3 1 Z " fill="#FFFCF8" transform="translate(35,28)"/>
<path d="M0 0 C0.66 0 1.32 0 2 0 C1.67 0.66 1.34 1.32 1 2 C0.67 1.34 0.34 0.68 0 0 Z " fill="#FDFBF7" transform="translate(44,25)"/>
<path d="" fill="#FFFDF9" transform="translate(0,0)"/>
<path d="M0 0 C2 1 2 1 2 1 Z " fill="#FFFCF8" transform="translate(284,343)"/>
<path d="" fill="#FFF5F1" transform="translate(0,0)"/>
<path d="M0 0 C2 1 2 1 2 1 Z " fill="#F9FFFD" transform="translate(281,339)"/>
<path d="" fill="#FCFCFA" transform="translate(0,0)"/>
<path d="M0 0 C2 1 2 1 2 1 Z " fill="#FCF7FD" transform="translate(32,35)"/>
<path d="M0 0 C2 1 2 1 2 1 Z " fill="#FFFCF8" transform="translate(32,24)"/>
<path d="M0 0 C2 1 2 1 2 1 Z " fill="#FFFDF9" transform="translate(48,22)"/>
<path d="M0 0 C2 1 2 1 2 1 Z " fill="#FFFBF8" transform="translate(282,17)"/>
<path d="" fill="#FFF9F7" transform="translate(0,0)"/>
<path d="" fill="#F9F7FC" transform="translate(0,0)"/>
<path d="" fill="#F9FFFF" transform="translate(0,0)"/>
<path d="" fill="#F9FDFF" transform="translate(0,0)"/>
<path d="" fill="#F9FFFD" transform="translate(0,0)"/>
<path d="" fill="#FFF9F7" transform="translate(0,0)"/>
<path d="" fill="#FDFAF9" transform="translate(0,0)"/>
<path d="" fill="#F9FDFF" transform="translate(0,0)"/>
<path d="" fill="#F7FFFC" transform="translate(0,0)"/>
<path d="" fill="#FFFDF9" transform="translate(0,0)"/>
<path d="" fill="#FFFDF9" transform="translate(0,0)"/>
<path d="" fill="#F7F7F7" transform="translate(0,0)"/>
<path d="" fill="#F9FCFD" transform="translate(0,0)"/>
<path d="" fill="#F9FDFF" transform="translate(0,0)"/>
<path d="" fill="#F7FFFC" transform="translate(0,0)"/>
<path d="" fill="#F7FAFB" transform="translate(0,0)"/>
<path d="" fill="#FDFAF9" transform="translate(0,0)"/>
<path d="" fill="#FFFDF9" transform="translate(0,0)"/>
<path d="" fill="#FDFFF9" transform="translate(0,0)"/>
<path d="" fill="#FDFAF9" transform="translate(0,0)"/>
<path d="" fill="#FDFAF9" transform="translate(0,0)"/>
<path d="" fill="#F9F9F9" transform="translate(0,0)"/>
</svg>
