<?xml version="1.0" encoding="UTF-8"?>
<svg version="1.1" xmlns="http://www.w3.org/2000/svg" width="225" height="225">
<path d="M0 0 C74.25 0 148.5 0 225 0 C225 74.25 225 148.5 225 225 C150.75 225 76.5 225 0 225 C0 150.75 0 76.5 0 0 Z " fill="#000000" transform="translate(0,0)"/>
<path d="M0 0 C74.25 0 148.5 0 225 0 C225 28.71 225 57.42 225 87 C222.69 85.02 220.38 83.04 218 81 C216.7740396 80.06843333 215.53346622 79.15496277 214.265625 78.28125 C213.61924072 77.83144775 212.97285645 77.38164551 212.30688477 76.91821289 C211.62811279 76.45020264 210.94934082 75.98219238 210.25 75.5 C203.95396493 71.10811132 197.73135424 66.6312938 191.5625 62.0625 C185.37887111 57.48592301 179.17767367 52.93673594 172.9375 48.4375 C172.19822266 47.90447266 171.45894531 47.37144531 170.69726562 46.82226562 C168.46536063 45.21412447 166.23281209 43.60688142 164 42 C155.46578012 35.85820269 146.93950724 29.70828452 138.4831543 23.45947266 C136.0695474 21.67637933 133.65236021 19.89824336 131.234375 18.12109375 C128.75185497 16.29638685 126.28435332 14.45797696 123.828125 12.59765625 C117.57147203 7.83459705 117.57147203 7.83459705 110 7 C103.17424959 10.29709107 97.26289915 15.24347848 91.31860352 19.890625 C86.72780392 23.47550428 82.04091004 26.91163906 77.3125 30.3125 C76.16950439 31.13463989 76.16950439 31.13463989 75.00341797 31.97338867 C73.44474725 33.09318342 71.88566274 34.21240241 70.32617188 35.33105469 C66.56762727 38.02767632 62.8141024 40.73123064 59.0625 43.4375 C57.95322144 44.23764526 57.95322144 44.23764526 56.8215332 45.05395508 C50.55816898 49.58009518 44.33832678 54.16393585 38.12329102 58.75610352 C32.60566438 62.82862395 27.06253192 66.86405395 21.5 70.875 C20.75492188 71.41229736 20.00984375 71.94959473 19.2421875 72.50317383 C16.55668536 74.43879281 13.87055126 76.37353072 11.18359375 78.30712891 C9.62119584 79.43225478 8.06052451 80.55977721 6.5 81.6875 C5.6646875 82.28949219 4.829375 82.89148438 3.96875 83.51171875 C1.91480853 84.99341822 1.91480853 84.99341822 0 87 C0 58.29 0 29.58 0 0 Z " fill="#FEFEFE" transform="translate(0,0)"/>
<path d="M0 0 C1.32 1.65 2.64 3.3 4 5 C10.58618082 8.29309041 18.64561323 6.63228066 26 7 C26 40.66 26 74.32 26 109 C18.74 109 11.48 109 4 109 C4.33 114.61 4.66 120.22 5 126 C75.95 126 146.9 126 220 126 C220.33 120.39 220.66 114.78 221 109 C213.74 109 206.48 109 199 109 C199 75.34 199 41.68 199 7 C205.27 6.67 211.54 6.34 218 6 C222.97621743 3.49943407 222.97621743 3.49943407 225 0 C225 43.89 225 87.78 225 133 C150.75 133 76.5 133 0 133 C0 89.11 0 45.22 0 0 Z " fill="#FBFBFB" transform="translate(0,92)"/>
<path d="M0 0 C2.36449621 0.85445797 4.00362819 1.94618008 6.00976562 3.46044922 C6.76136963 4.0219165 7.51297363 4.58338379 8.28735352 5.16186523 C9.49186157 6.07536743 9.49186157 6.07536743 10.72070312 7.00732422 C12.44017186 8.29326085 14.16023798 9.57839904 15.88085938 10.86279297 C17.18821045 11.8419165 17.18821045 11.8419165 18.52197266 12.84082031 C22.3717782 15.70754138 26.26190832 18.51678086 30.15820312 21.31982422 C30.89425781 21.85051514 31.6303125 22.38120605 32.38867188 22.92797852 C35.38197709 25.08563089 38.37698722 27.24089641 41.37353516 29.39404297 C49.69771549 35.37566007 58.00052115 41.3832241 66.22070312 47.50732422 C66.91437988 48.02109619 67.60805664 48.53486816 68.32275391 49.06420898 C69.93280559 50.27020081 71.51735463 51.51012786 73.09570312 52.75732422 C73.09570312 53.08732422 73.09570312 53.41732422 73.09570312 53.75732422 C24.58570313 53.75732422 -23.92429688 53.75732422 -73.90429688 53.75732422 C-68.28298168 48.13600903 -68.28298168 48.13600903 -65.14648438 45.91748047 C-64.09944336 45.17014648 -64.09944336 45.17014648 -63.03125 44.40771484 C-62.28810547 43.88371094 -61.54496094 43.35970703 -60.77929688 42.81982422 C-59.16148145 41.66575605 -57.54431484 40.5107779 -55.92773438 39.35498047 C-55.09725586 38.76217285 -54.26677734 38.16936523 -53.41113281 37.55859375 C-49.38087079 34.662677 -45.39304224 31.71002647 -41.40429688 28.75732422 C-34.37771715 23.56266647 -27.31786216 18.41737583 -20.21240234 13.33105469 C-16.84451469 10.91360463 -13.5091068 8.47495728 -10.25195312 5.90966797 C-9.70144287 5.47952393 -9.15093262 5.04937988 -8.58374023 4.60620117 C-7.1430817 3.47191167 -5.71454012 2.32227817 -4.28710938 1.17138672 C-1.90429688 -0.24267578 -1.90429688 -0.24267578 0 0 Z " fill="#D5D5D5" transform="translate(112.904296875,27.24267578125)"/>
<path d="M0 0 C10.89 0 21.78 0 33 0 C33 33.66 33 67.32 33 102 C22.11 102 11.22 102 0 102 C0 68.34 0 34.68 0 0 Z " fill="#F7F7F7" transform="translate(96,99)"/>
<path d="M0 0 C10.56 0 21.12 0 32 0 C32 33.66 32 67.32 32 102 C21.44 102 10.88 102 0 102 C0 68.34 0 34.68 0 0 Z " fill="#FDFDFD" transform="translate(148,99)"/>
<path d="M0 0 C10.56 0 21.12 0 32 0 C32 33.66 32 67.32 32 102 C21.44 102 10.88 102 0 102 C0 68.34 0 34.68 0 0 Z " fill="#FDFDFD" transform="translate(45,99)"/>
</svg>
