<?xml version="1.0" encoding="UTF-8"?>
<svg version="1.1" xmlns="http://www.w3.org/2000/svg" width="173" height="191">
<path d="M0 0 C2.21133154 2.13507873 2.96924335 3.28195046 3.1015625 6.37109375 C4.32561995 9.95279229 6.14832972 10.60827317 9.41992188 12.28320312 C10.12697266 12.62287109 10.83402344 12.96253906 11.5625 13.3125 C12.27341797 13.67150391 12.98433594 14.03050781 13.71679688 14.40039062 C15.46994182 15.28284613 17.23399841 16.14356361 19 17 C19.495 16.505 19.495 16.505 20 16 C23.82011276 15.639612 26.15684085 15.45951337 29.4375 17.5625 C31.58016848 20.90506283 31.49573337 23.10495209 31 27 C29.625 28.9375 29.625 28.9375 28 30 C27.34 30 26.68 30 26 30 C26 36.27 26 42.54 26 49 C27.32 49.66 28.64 50.32 30 51 C31 52 31 52 31.25 55.3125 C30.98573356 59.21042996 30.74911333 60.35096146 28 63 C25.50390625 63.14453125 25.50390625 63.14453125 22.5625 62.8125 C15.08415141 62.55745279 9.66509627 65.19212224 4 70 C2.55484606 72.50894781 2.34528485 74.06507874 2 77 C-0.40346379 79.40346379 -1.13900195 79.32083747 -4.4375 79.375 C-8.66631005 79.27301905 -8.66631005 79.27301905 -11.0625 77.3125 C-12.12196863 74.69914404 -12.23290982 72.79491785 -12 70 C-12.639375 69.773125 -13.27875 69.54625 -13.9375 69.3125 C-17 68 -17 68 -18.984375 66.75390625 C-24.26525837 63.44867251 -27.64380715 62.7549212 -33.82421875 63.0625 C-36 63 -36 63 -38.625 61.4375 C-40.51879045 58.08032602 -40.48258091 55.79170715 -40 52 C-38.625 50.0625 -38.625 50.0625 -37 49 C-36.34 49 -35.68 49 -35 49 C-35 42.73 -35 36.46 -35 30 C-36.32 29.34 -37.64 28.68 -39 28 C-40 27 -40 27 -40.3125 23.6875 C-40 20 -40 20 -38.4375 17.5625 C-35.15330241 15.45724514 -32.83432478 15.72114002 -29 16 C-25.11324875 16 -22.89656196 14.69601753 -19.4375 12.9375 C-18.28121094 12.36902344 -17.12492187 11.80054688 -15.93359375 11.21484375 C-12.26264918 8.44330504 -11.96116702 6.3989919 -11 2 C-7.31781363 -1.27305455 -4.64044418 -1.51318832 0 0 Z M-25 21 C-26.42847125 23.47140354 -26.60451153 25.11858402 -27 28 C-27.99 28.66 -28.98 29.32 -30 30 C-30.22107787 32.7885289 -30.28107535 35.34653181 -30.1875 38.125 C-30.17396484 38.87910156 -30.16042969 39.63320313 -30.14648438 40.41015625 C-30.11109985 42.27374127 -30.05729167 44.13695978 -30 46 C-27.10122229 42.54024522 -24.769654 39.05831423 -22.58203125 35.11328125 C-21.66067383 33.4590918 -21.66067383 33.4590918 -20.72070312 31.77148438 C-20.09099609 30.63001953 -19.46128906 29.48855469 -18.8125 28.3125 C-18.17119141 27.15943359 -17.52988281 26.00636719 -16.86914062 24.81835938 C-13.85604754 19.45092672 -13.85604754 19.45092672 -11 14 C-15.96400514 14 -21.13873596 18.14144584 -25 21 Z M-6 14 C-7.97149512 16.308125 -7.97149512 16.308125 -9.75 19.25 C-10.38421875 20.22453125 -11.0184375 21.1990625 -11.671875 22.203125 C-13.20317503 24.83217762 -13.20317503 24.83217762 -12.828125 27.296875 C-12.11934232 29.19400333 -12.11934232 29.19400333 -10 30 C-9.34 28.68 -8.68 27.36 -8 26 C-5.69 26 -3.38 26 -1 26 C-0.34 27.32 0.32 28.64 1 30 C1.66 30 2.32 30 3 30 C4.09606184 26.66918985 4.1602113 25.34916639 2.671875 22.10546875 C2.03765625 21.14253906 1.4034375 20.17960937 0.75 19.1875 C-0.18585938 17.72376953 -0.18585938 17.72376953 -1.140625 16.23046875 C-1.75421875 15.49441406 -2.3678125 14.75835937 -3 14 C-3.99 14 -4.98 14 -6 14 Z M3 14 C4.29221856 18.25147372 5.91548325 21.89515738 8.15234375 25.73046875 C8.76400391 26.78041016 9.37566406 27.83035156 10.00585938 28.91210938 C10.64330078 29.99298828 11.28074219 31.07386719 11.9375 32.1875 C12.57107422 33.27998047 13.20464844 34.37246094 13.85742188 35.49804688 C17.34029058 41.70064406 17.34029058 41.70064406 22 47 C22.13559675 44.43571485 22.23433188 41.87864784 22.3125 39.3125 C22.35439453 38.59126953 22.39628906 37.87003906 22.43945312 37.12695312 C22.5353246 32.92778266 22.48501711 31.53436702 19.54296875 28.29296875 C18.70378906 27.53628906 17.86460938 26.77960937 17 26 C16.855625 25.15050781 16.71125 24.30101562 16.5625 23.42578125 C16.20522425 20.7035182 16.20522425 20.7035182 13.3125 18.98046875 C12.219375 18.38878906 11.12625 17.79710937 10 17.1875 C8.906875 16.58292969 7.81375 15.97835937 6.6875 15.35546875 C4.35285182 13.92494575 4.35285182 13.92494575 3 14 Z M-5 30 C-5 36.93 -5 43.86 -5 51 C-7.31 50.67 -9.62 50.34 -12 50 C-12.33 50.66 -12.66 51.32 -13 52 C-13.99 52.33 -14.98 52.66 -16 53 C-15.46375 51.9275 -14.9275 50.855 -14.375 49.75 C-12.64207205 46.229478 -12.64207205 46.229478 -13.8125 43.5625 C-14.204375 43.046875 -14.59625 42.53125 -15 42 C-15.99 42 -16.98 42 -18 42 C-18 41.01 -18 40.02 -18 39 C-17.01 39 -16.02 39 -15 39 C-14.26919734 37.02253397 -13.60578253 35.01927511 -13 33 C-13.33 32.34 -13.66 31.68 -14 31 C-18.7390422 32.57968073 -19.97522508 36.59232947 -22.3125 40.8125 C-22.79267578 41.63298828 -23.27285156 42.45347656 -23.76757812 43.29882812 C-24.21166016 44.09353516 -24.65574219 44.88824219 -25.11328125 45.70703125 C-25.52360596 46.4338208 -25.93393066 47.16061035 -26.35668945 47.90942383 C-27.3822492 50.3863242 -27.3822492 50.3863242 -25 54 C-11.47 54 2.06 54 16 54 C16.66 52.68 17.32 51.36 18 50 C17.26567912 47.70245656 17.26567912 47.70245656 15.7890625 45.453125 C15.28632812 44.60878906 14.78359375 43.76445313 14.265625 42.89453125 C13.72421875 42.02183594 13.1828125 41.14914063 12.625 40.25 C12.09132812 39.36183594 11.55765625 38.47367188 11.0078125 37.55859375 C9.68593233 35.36332846 8.34980521 33.17816668 7 31 C6.01 31.99 5.02 32.98 4 34 C4.66 35.65 5.32 37.3 6 39 C6.99 39 7.98 39 9 39 C9 39.99 9 40.98 9 42 C8.01 42 7.02 42 6 42 C4.67993427 44.16924452 4.67993427 44.16924452 4 47 C5.26638076 50.28441679 5.26638076 50.28441679 7 53 C6.01 52.67 5.02 52.34 4 52 C3.67 51.34 3.34 50.68 3 50 C0.69 50.33 -1.62 50.66 -4 51 C-4 44.07 -4 37.14 -4 30 C-4.33 30 -4.66 30 -5 30 Z M-23 58 C-17.38566998 63.61433002 -12.22882 66.33192252 -4.1875 66.75 C3.4385871 66.5093509 9.00354889 63.57970717 15 59 C15 58.67 15 58.34 15 58 C2.46 58 -10.08 58 -23 58 Z " fill="#C12B90" transform="translate(92,21)"/>
<path d="M0 0 C3.4375 0.375 3.4375 0.375 5.4375 2.375 C5.4375 3.365 5.4375 4.355 5.4375 5.375 C6.0975 5.375 6.7575 5.375 7.4375 5.375 C8.0975 4.055 8.7575 2.735 9.4375 1.375 C10.0975 1.705 10.7575 2.035 11.4375 2.375 C10.5625 7.125 10.5625 7.125 9.4375 9.375 C9.71692455 11.05154729 10.04578247 12.72108154 10.4375 14.375 C11.4275 14.375 12.4175 14.375 13.4375 14.375 C13.4375 15.365 13.4375 16.355 13.4375 17.375 C12.4475 17.375 11.4575 17.375 10.4375 17.375 C9.7496764 19.72867713 9.7496764 19.72867713 9.4375 22.375 C10.0975 23.365 10.7575 24.355 11.4375 25.375 C11.4375 26.365 11.4375 27.355 11.4375 28.375 C10.1175 28.045 8.7975 27.715 7.4375 27.375 C7.4375 26.715 7.4375 26.055 7.4375 25.375 C6.44169922 25.50068359 6.44169922 25.50068359 5.42578125 25.62890625 C-3.34457381 26.64037786 -3.34457381 26.64037786 -7.5625 25.375 C-7.8925 26.365 -8.2225 27.355 -8.5625 28.375 C-9.5525 28.375 -10.5425 28.375 -11.5625 28.375 C-10.6875 23.625 -10.6875 23.625 -9.5625 21.375 C-9.96188767 19.27678785 -9.96188767 19.27678785 -10.5625 17.375 C-11.5525 17.375 -12.5425 17.375 -13.5625 17.375 C-13.5625 16.385 -13.5625 15.395 -13.5625 14.375 C-12.5725 14.375 -11.5825 14.375 -10.5625 14.375 C-10.2325 11.735 -9.9025 9.095 -9.5625 6.375 C-10.2225 6.375 -10.8825 6.375 -11.5625 6.375 C-11.5625 5.055 -11.5625 3.735 -11.5625 2.375 C-10.5725 2.045 -9.5825 1.715 -8.5625 1.375 C-7.9025 2.365 -7.2425 3.355 -6.5625 4.375 C-6.211875 3.715 -5.86125 3.055 -5.5 2.375 C-3.5625 0.375 -3.5625 0.375 0 0 Z " fill="#1B1718" transform="translate(87.5625,45.625)"/>
<path d="M0 0 C1.98 0.99 1.98 0.99 4 2 C4.33 1.34 4.66 0.68 5 0 C8.63 0 12.26 0 16 0 C16 2.31 16 4.62 16 7 C16.99 7 17.98 7 19 7 C19 5.02 19 3.04 19 1 C22.8988084 0.08906346 26.56171977 -0.16432051 30.5625 -0.1875 C31.67753906 -0.20167969 32.79257813 -0.21585938 33.94140625 -0.23046875 C36.88491377 -0.00867189 38.5206192 0.4662999 41 2 C41 1.34 41 0.68 41 0 C41.5775 0.185625 42.155 0.37125 42.75 0.5625 C45.26845636 1.05219985 46.55452304 0.66694826 49 0 C50.66623639 -0.03786901 52.33397597 -0.04627845 54 0 C54 2.31 54 4.62 54 7 C54.99 7 55.98 7 57 7 C57 4.69 57 2.38 57 0 C59.31 0 61.62 0 64 0 C64 2.97 64 5.94 64 9 C55.09 9 46.18 9 37 9 C36.505 8.01 36.505 8.01 36 7 C35.67 7.66 35.34 8.32 35 9 C26 9 17 9 8 9 C7.67 8.34 7.34 7.68 7 7 C6.34 7.66 5.68 8.32 5 9 C4.01 9 3.02 9 2 9 C0.50178941 5.62902617 0 3.79557881 0 0 Z " fill="#303030" transform="translate(46,134)"/>
<path d="M0 0 C0.7734375 0.00644531 1.546875 0.01289063 2.34375 0.01953125 C4.5 0.1875 4.5 0.1875 7.5 1.1875 C9.64255793 0.79817144 9.64255793 0.79817144 11.5 0.1875 C11.83 0.8475 12.16 1.5075 12.5 2.1875 C12.83 1.5275 13.16 0.8675 13.5 0.1875 C16.47 0.1875 19.44 0.1875 22.5 0.1875 C22.5 1.1775 22.5 2.1675 22.5 3.1875 C23.16 3.1875 23.82 3.1875 24.5 3.1875 C24.5 2.1975 24.5 1.2075 24.5 0.1875 C25.03625 0.373125 25.5725 0.55875 26.125 0.75 C29.12814796 1.30321147 31.51694161 0.75872395 34.5 0.1875 C35.49 0.1875 36.48 0.1875 37.5 0.1875 C37.5 2.4975 37.5 4.8075 37.5 7.1875 C38.82 7.1875 40.14 7.1875 41.5 7.1875 C41.5 7.8475 41.5 8.5075 41.5 9.1875 C35.89 9.1875 30.28 9.1875 24.5 9.1875 C24.5 8.1975 24.5 7.2075 24.5 6.1875 C23.84 6.1875 23.18 6.1875 22.5 6.1875 C22.5 7.1775 22.5 8.1675 22.5 9.1875 C21.51 9.1875 20.52 9.1875 19.5 9.1875 C19.5 8.1975 19.5 7.2075 19.5 6.1875 C19.11336182 6.67428223 18.72672363 7.16106445 18.32836914 7.66259766 C15.88611007 9.69949847 14.3990279 9.57452859 11.24609375 9.5859375 C10.22708984 9.58980469 9.20808594 9.59367188 8.15820312 9.59765625 C7.09537109 9.58605469 6.03253906 9.57445312 4.9375 9.5625 C3.87080078 9.57410156 2.80410156 9.58570313 1.70507812 9.59765625 C0.68736328 9.59378906 -0.33035156 9.58992187 -1.37890625 9.5859375 C-2.77991577 9.58086182 -2.77991577 9.58086182 -4.20922852 9.57568359 C-4.96518311 9.44758301 -5.7211377 9.31948242 -6.5 9.1875 C-8.5 6.1875 -8.5 6.1875 -8.3125 4.125 C-6.66268001 0.19081387 -3.81334355 -0.0699113 0 0 Z M30.5 3.1875 C30.5 4.5075 30.5 5.8275 30.5 7.1875 C31.16 6.8575 31.82 6.5275 32.5 6.1875 C32.17 5.1975 31.84 4.2075 31.5 3.1875 C31.17 3.1875 30.84 3.1875 30.5 3.1875 Z M-5.5 4.1875 C-4.5 6.1875 -4.5 6.1875 -4.5 6.1875 Z " fill="#303030" transform="translate(120.5,133.8125)"/>
<path d="M0 0 C1.32 0.33 2.64 0.66 4 1 C4.33 0.67 4.66 0.34 5 0 C7.69654854 -0.07319621 10.36691458 -0.09242537 13.0625 -0.0625 C13.82111328 -0.05798828 14.57972656 -0.05347656 15.36132812 -0.04882812 C17.24091871 -0.0370068 19.12046899 -0.01907078 21 0 C21 1.98 21 3.96 21 6 C21.99 6 22.98 6 24 6 C24 4.02 24 2.04 24 0 C32.57142857 -0.28571429 32.57142857 -0.28571429 36 2 C36 1.34 36 0.68 36 0 C37.32 0.33 38.64 0.66 40 1 C40.66 3.64 41.32 6.28 42 9 C40.68 8.67 39.36 8.34 38 8 C36.65632599 8.28884087 35.32164088 8.62296649 34 9 C31.24029592 9.06926968 28.50803958 9.0941736 25.75 9.0625 C25.00492188 9.05798828 24.25984375 9.05347656 23.4921875 9.04882812 C21.6614236 9.03709246 19.83070127 9.0191585 18 9 C18 8.01 18 7.02 18 6 C16.68 6 15.36 6 14 6 C14 6.99 14 7.98 14 9 C13.34 9 12.68 9 12 9 C12 8.01 12 7.02 12 6 C10.68 6 9.36 6 8 6 C8 6.99 8 7.98 8 9 C6.35 9 4.7 9 3 9 C3 8.34 3 7.68 3 7 C2.34 7 1.68 7 1 7 C1 7.66 1 8.32 1 9 C0.01 9 -0.98 9 -2 9 C-1.34 6.03 -0.68 3.06 0 0 Z M30 3 C29.67 3.99 29.34 4.98 29 6 C30.98 5.67 32.96 5.34 35 5 C32.32357511 2.81509993 32.32357511 2.81509993 30 3 Z " fill="#303030" transform="translate(56,147)"/>
<path d="M0 0 C2 2.5 2 2.5 3 5 C0.39417629 5.93065133 -0.64198224 6.14917407 -3.25 5.0625 C-4.11625 4.5365625 -4.11625 4.5365625 -5 4 C-5.33 5.65 -5.66 7.3 -6 9 C-5.34 9.33 -4.68 9.66 -4 10 C-4 9.01 -4 8.02 -4 7 C-1.69 7 0.62 7 3 7 C3.99 4.69 4.98 2.38 6 0 C7.65 0 9.3 0 11 0 C11.83986084 1.93467942 12.67168027 3.87285129 13.5 5.8125 C13.9640625 6.89144531 14.428125 7.97039062 14.90625 9.08203125 C16 12 16 12 16 15 C14.35 15 12.7 15 11 15 C11 14.01 11 13.02 11 12 C9.02463255 12.34786708 9.02463255 12.34786708 7 13 C6.67 13.66 6.34 14.32 6 15 C4.68 15 3.36 15 2 15 C1.67 14.34 1.34 13.68 1 13 C0.443125 13.350625 -0.11375 13.70125 -0.6875 14.0625 C-3.6168682 15.2500817 -5.02608955 14.99130348 -8 14 C-9.8125 12.9375 -9.8125 12.9375 -11 11 C-11.54157729 7.44636272 -11.62562492 4.25124984 -10 1 C-6.75122913 -0.62438544 -3.53401303 -0.82460304 0 0 Z " fill="#303030" transform="translate(99,110)"/>
<path d="M0 0 C0.87398437 0.10183594 1.74796875 0.20367187 2.6484375 0.30859375 C3.62683594 0.43427734 3.62683594 0.43427734 4.625 0.5625 C5.285 2.2125 5.945 3.8625 6.625 5.5625 C8.56298263 2.78989701 8.56298263 2.78989701 9.625 0.5625 C10.945 0.5625 12.265 0.5625 13.625 0.5625 C13.05674347 6.10300113 10.99613483 10.59965966 8.625 15.5625 C7.305 15.5625 5.985 15.5625 4.625 15.5625 C3.635 12.5925 2.645 9.6225 1.625 6.5625 C1.3775 7.67625 1.13 8.79 0.875 9.9375 C-0.375 13.5625 -0.375 13.5625 -2.0625 15 C-4.375 15.5625 -4.375 15.5625 -11.375 15.5625 C-11.375 10.6125 -11.375 5.6625 -11.375 0.5625 C-6.85117457 -0.19147091 -4.30408376 -0.52346965 0 0 Z M-0.375 1.5625 C0.625 3.5625 0.625 3.5625 0.625 3.5625 Z M-7.375 3.5625 C-7.375 6.2025 -7.375 8.8425 -7.375 11.5625 C-6.055 10.9025 -4.735 10.2425 -3.375 9.5625 C-3.705 7.9125 -4.035 6.2625 -4.375 4.5625 C-5.365 4.2325 -6.355 3.9025 -7.375 3.5625 Z " fill="#303030" transform="translate(74.375,109.4375)"/>
<path d="M0 0 C6.875 0.875 6.875 0.875 8 2 C8.33 1.34 8.66 0.68 9 0 C9.5775 0.185625 10.155 0.37125 10.75 0.5625 C13.20692525 1.04023546 14.64397534 0.75729364 17 0 C17.66 0.99 18.32 1.98 19 3 C19.66 2.01 20.32 1.02 21 0 C23.5 -0.1875 23.5 -0.1875 26 0 C26.66 0 27.32 0 28 0 C28.99 0 29.98 0 31 0 C31 2.97 31 5.94 31 9 C29.68 8.67 28.36 8.34 27 8 C26.67 8.33 26.34 8.66 26 9 C24.07332493 9.08748207 22.14348139 9.10697334 20.21484375 9.09765625 C19.04501953 9.09443359 17.87519531 9.09121094 16.66992188 9.08789062 C14.82237305 9.07532227 14.82237305 9.07532227 12.9375 9.0625 C11.08415039 9.05573242 11.08415039 9.05573242 9.19335938 9.04882812 C6.12885883 9.03699608 3.06445279 9.02051173 0 9 C0 6.03 0 3.06 0 0 Z M3 3 C3.33 4.32 3.66 5.64 4 7 C4 5.68 4 4.36 4 3 C3.67 3 3.34 3 3 3 Z " fill="#2F2F2F" transform="translate(12,134)"/>
<path d="M0 0 C7.66666667 0 15.33333333 0 23 0 C23 2.97 23 5.94 23 9 C16 9 9 9 2 9 C2 7.02 2 5.04 2 3 C1.34 3 0.68 3 0 3 C0 2.01 0 1.02 0 0 Z M12 3 C11.67 3.99 11.34 4.98 11 6 C11.99 6 12.98 6 14 6 C14 5.01 14 4.02 14 3 C13.34 3 12.68 3 12 3 Z " fill="#313131" transform="translate(97,147)"/>
<path d="M0 0 C14.19 0 28.38 0 43 0 C41.68 2.64 40.36 5.28 39 8 C38.505 6.515 38.505 6.515 38 5 C37.34 4.67 36.68 4.34 36 4 C36.99 3.34 37.98 2.68 39 2 C26.46 2 13.92 2 1 2 C0.67 1.34 0.34 0.68 0 0 Z " fill="#7B1B5C" transform="translate(66,78)"/>
<path d="M0 0 C-0.0625 1.75 -0.0625 1.75 -1 4 C-2.58984375 4.98046875 -2.58984375 4.98046875 -4.5 5.9375 C-7.607293 7.4810997 -7.607293 7.4810997 -8.9375 10.75 C-8.958125 11.4925 -8.97875 12.235 -9 13 C-9.33 13 -9.66 13 -10 13 C-10.125 6.375 -10.125 6.375 -9 3 C-5.62132353 0.53447933 -4.29441798 0 0 0 Z " fill="#B82989" transform="translate(104,83)"/>
<path d="M0 0 C0 0.33 0 0.66 0 1 C-1.670625 1.433125 -1.670625 1.433125 -3.375 1.875 C-7.00291092 2.69241329 -7.00291092 2.69241329 -9 5 C-9.39764263 6.98821313 -9.73775349 8.98944339 -10 11 C-10.33 11 -10.66 11 -11 11 C-11.48076923 4.75 -11.48076923 4.75 -9.4375 1.5625 C-6.18129203 -0.5248128 -3.79004984 -0.2915423 0 0 Z " fill="#871D64" transform="translate(63,37)"/>
<path d="M0 0 C0.66 0.33 1.32 0.66 2 1 C0.84826645 3.46800047 -0.04783565 5.04783565 -2 7 C-2.64767793 9.57061311 -2.64767793 9.57061311 -3 12 C-3.33 12 -3.66 12 -4 12 C-4.125 5.375 -4.125 5.375 -3 2 C-2.01 1.34 -1.02 0.68 0 0 Z " fill="#8C1E67" transform="translate(98,84)"/>
<path d="M0 0 C0.66 0 1.32 0 2 0 C1.71125 0.53625 1.4225 1.0725 1.125 1.625 C-0.16711808 4.35280484 -1.08558592 7.12612718 -2 10 C-2.66 9.67 -3.32 9.34 -4 9 C-2.25 2.25 -2.25 2.25 0 0 Z " fill="#811C60" transform="translate(83,21)"/>
</svg>
